<svg xmlns="http://www.w3.org/2000/svg" width="1280" height="756" fill="none" viewBox="0 0 1280 756"><linearGradient id="a" x1="4.00025" x2="1401" y1="-16.5002" y2="821" gradientUnits="userSpaceOnUse"><stop offset="0" stop-color="#00a3ad"/><stop offset="1" stop-color="#1d6076"/></linearGradient><path fill="url(#a)" fill-rule="evenodd" d="m-3967.64-3983.45c-6.42-8.75-11.05-18.68-13.62-29.23-2.63-10.54-3.14-21.5-1.49-32.25 1.65-10.74 5.41-21.05 11.08-30.33-1.84 17.31 1.21 34.79 8.8 50.47 7.6 15.67 19.43 28.9 34.16 38.21l4927.96 2934.36c6.21 3.29 11.44 8.06 15.27 13.81 2.16 3.18 3.89 6.65 5.11 10.36 3.39 10.23 2.68 21.39-1.97 31.115-2.44 6.995-6.56 13.274-12.01 18.28.12.213.24.428.36.643 1.31 2.324 2.39 4.783 3.24 7.348.42 1.282.78 2.579 1.08 3.885 2.07 9.145 1.01 18.764-3.07 27.292-2.42 7.04-6.55 13.359-12.021 18.39 1.469 2.512 2.681 5.188 3.607 7.992 3.384 10.26 2.674 21.431-1.996 31.177-2.352 6.859-6.337 13.036-11.603 18.003 1.509 2.556 2.753 5.283 3.698 8.144 3.389 10.266 2.663 21.445-2.027 31.187-2.365 6.963-6.418 13.226-11.792 18.234-.228.215-.459.427-.692.637 1.299 2.317 2.382 4.768 3.227 7.325 3.39 10.266 2.663 21.445-2.027 31.187-2.002 5.777-5.159 11.068-9.262 15.559-1.14 1.253-2.352 2.444-3.633 3.568-5.862 5.138-12.96 8.665-20.599 10.235l-1012.1637 194.928c-30.6903 6.216-58.7843 21.548-80.5993 43.987-21.816 22.439-36.335 50.937-41.655 81.76-5.321 30.823-1.193 62.532 11.84 90.971 13.034 28.44 34.366 52.283 61.2 68.405l2492.038 1500.688c253.67 152.72 429.89 367.97 510.49 621.51 78.15 247.47 59.15 511.63-54 764.76l-1117.67 2487.18-26.65-11.91 1117.49-2487.47c110.47-246.24 128.76-503.52 52.84-743.98-77.92-246.77-249.7-455.82-497.58-605.22l-2492.038-1500.572-.116-.233c-31.775-19.209-57.015-47.539-72.427-81.291-15.411-33.753-20.279-71.362-13.969-107.919 6.311-36.558 23.507-70.367 49.346-97.016 25.838-26.649 59.119-44.9 95.4989-52.373l1012.4551-194.986c5.904-.876 8.534-3.62 12.391-12.376.848-1.611 1.352-3.38 1.479-5.196.127-1.815-.126-3.637-.741-5.35-.575-1.598-1.453-3.069-2.587-4.331l-1027.4937 197.432c-41.4943 8.35-79.4943 29.026-109.0193 59.32s-49.197 68.79-56.438 110.444c-7.242 41.654-1.714 84.52 15.858 122.982 17.573 38.462 46.37 70.723 82.617 92.556l2492.034 1500.689c241.69 145.42 409.96 349.69 486.24 590.04 74.41 234.63 56.58 486.06-51.55 727.05l-1117.49 2487.48-26.59-11.97 1117.48-2487.36c105.15-234.51 122.57-478.76 50.33-706.44-74.17-233.46-237.83-431.95-473.44-573.87l-2492.036-1500.692-.175-.175c-41.304-24.849-74.122-61.588-94.148-105.398-20.026-43.809-26.325-92.642-18.07-140.09 8.254-47.449 30.677-91.297 64.326-125.791 33.648-34.494 76.951-58.022 124.2261-67.498l996.2719-191.502-32.591-19.402-968.3594 186.148c-52.3446 10.424-100.3076 36.42-137.5866 74.574s-62.129 86.679-71.285 139.2-2.189 106.58 19.984 155.073 58.516 89.152 104.253 116.633l2492.1 1500.63c229.76 138.42 389.56 331.66 461.98 558.81 70.84 221.72 53.89 460.14-48.98 689.46l-1117.26 2487.12-26.59-11.85 1117.43-2487.42c99.89-222.6 116.49-453.89 47.93-668.67-70.73-220.32-225.91-407.78-449.59-542.46l-2492.041-1500.691c-33.092-19.831-61.915-46.022-84.8-77.057-22.886-31.035-39.378-66.297-48.523-103.744l-.117-.116c-9.417-37.385-11.312-76.264-5.572-114.385 5.739-38.121 18.997-74.724 39.006-107.689 21.127-34.867 49.273-64.971 82.657-88.406 33.383-23.435 71.276-39.689 111.2766-47.734l936.2424-179.955-32.697-19.464-908.276 174.612c-63.113 12.612-120.934 43.985-165.879 90.001-44.945 46.017-74.914 104.529-85.974 167.858-11.061 63.33-2.697 128.52 23.994 187.018s70.463 107.572 125.573 140.782l2492.09 1500.63c217.84 131.18 369.23 313.56 437.91 527.52 67.1 208.88 51.14 434.16-46.59 651.8l-1117.49 2487.47-26.65-11.91 1117.49-2487.47c94.57-210.75 110.23-428.97 45.41-631.02-66.45-207.07-213.74-384.07-425.21-511.46l-2492.04-1500.5737c-39.239-23.5253-73.416-54.5903-100.555-91.3963s-46.699-78.623-57.55-123.03l-.175-.058c-11.361-45.639-13.332-93.106-5.793-139.527 7.54-46.421 24.433-90.832 49.656-130.543s58.253-73.896 97.089-100.486c38.835-26.59 82.669-45.033 128.849-54.211l876.346-168.494-32.742-19.491-848.285 163.112c-73.923 14.727-141.661 51.435-194.323 105.304s-87.787 122.383-100.764 196.548c-12.978 74.166-3.201 150.517 28.046 219.033s82.505 125.995 147.045 164.8933l2492.036 1500.6897c415.05 250.04 560.24 685.9 369.75 1110.37l-1117.66 2487.65-26.6-11.85 1117.49-2487.47c184-410.29 43.49-831.67-358.18-1073.59l-2492.091-1500.638c-45.369-27.2395-84.875-63.201-116.229-105.801-31.353-42.599-53.931-90.991-66.424-142.369-13.144-52.808-15.418-107.731-6.686-161.444 8.732-53.712 28.289-105.095 57.487-151.035 29.198-45.942 67.429-85.485 112.376-116.236 44.948-30.75 95.678-52.068 149.116-62.661l1.695-.292 814.434-156.697-4569.088-2719.987c-9.25-5.59-17.3-12.94-23.69-21.65s-10.99-18.59-13.54-29.08c-2.6-10.55-3.1-21.51-1.45-32.25.38-2.5.88-4.98 1.49-7.43-1.69-1.9-3.3-3.88-4.82-5.94-6.44-8.76-11.07-18.71-13.63-29.28l.47.12c-2.59-10.55-3.07-21.49-1.41-32.22.37-2.39.84-4.76 1.41-7.1-1.83-2.03-3.56-4.15-5.19-6.37-6.44-8.76-11.08-18.71-13.63-29.27l.23.23c-2.6-10.55-3.1-21.51-1.45-32.24.38-2.5.88-4.98 1.49-7.43-1.77-1.97-3.44-4.03-5.01-6.17-6.42-8.76-11.04-18.69-13.62-29.24l.06.06c-2.64-10.54-3.14-21.49-1.48-32.23.38-2.52.89-5.01 1.51-7.47-1.7-1.91-3.3-3.9-4.82-5.97zm17.11 17.28c2.28 8.69 5.84 17.02 10.59 24.71 7.39 11.98 17.45 22.09 29.4 29.54l4893.857 2913.951c2.888-1.68 4.945-4.801 7.57-10.761.853-1.6 1.362-3.36 1.494-5.17s-.115-3.63-.725-5.34c-.611-1.7-1.572-3.27-2.821-4.58-.356-.38-.733-.73-1.129-1.06-.235-.19-.472-.37-.712-.55-.805-.58-1.675-1.07-2.595-1.45l.134-.22c-.101-.07-.202-.13-.304-.19l-4928.079-2934.36c-2.3-1.4-4.53-2.91-6.68-4.52zm28.95 99.67c-4.76-7.72-8.32-16.09-10.59-24.81 2.15 1.6 4.37 3.1 6.67 4.5l4866.52 2897.622-37.847 7.282-4795.183-2854.994c-12.02-7.43-22.15-17.57-29.57-29.6zm4862.546 2907.095 37.253-7.164c.297.25.589.504.876.764.972 1.168 1.736 2.498 2.254 3.932.622 1.72.876 3.551.748 5.376-.128 1.824-.637 3.602-1.493 5.219-2.717 5.988-4.807 9.165-7.725 10.873zm-4854.576-2856.955c1.46 5.56 3.45 11 5.94 16.24 7.45 15.7 19.16 29.01 33.78 38.42l4696.764 2795.243 37.303-7.177-4767.207-2838.336c-2.27-1.36-4.46-2.83-6.58-4.39zm4811.573 2865.224-37.296 7.171 32.75 19.492 37.288-7.17zm70.238 42.468c.127.113.254.227.38.342 1.004 1.192 1.792 2.554 2.323 4.024.62 1.716.878 3.543.756 5.364-.122 1.822-.62 3.598-1.463 5.217-2.566 5.699-4.579 8.841-7.306 10.594l-31.687-18.858 36.592-7.035c.136.116.271.234.405.352zm-4857.581-2816.712c-2.56-5.26-4.6-10.72-6.11-16.31 2.19 1.63 4.47 3.15 6.82 4.56l4668.562 2778.943-38.367 7.382-4596.715-2736.405c-14.74-9.28-26.59-22.51-34.19-38.17zm4668.678 2797.061 38.375-7.379 32.746 19.492-38.377 7.379zm70.519 41.98 38.382-7.379 32.703 19.467-38.385 7.378zm70.543 41.994 31.916 18.999c3.053-1.64 5.172-4.779 7.929-10.985.843-1.619 1.341-3.396 1.463-5.217s-.136-3.648-.756-5.365c-.621-1.717-1.591-3.286-2.85-4.61l-.056-.059z" clip-rule="evenodd" opacity=".2"/></svg>