<svg height="74" viewBox="0 0 74 74" width="74" xmlns="http://www.w3.org/2000/svg"><g fill="none" fill-rule="evenodd"><path d="m-1035-2813h1440v3510h-1440z" fill="#fff"/><g stroke-width="1.7"><g stroke-linecap="round" stroke-linejoin="round"><path d="m49.554 68.267-43.425-43.425 66.757-23.332z" fill="#fff" stroke="#453536"/><path d="m2.738 31.96c-3.025-6.795 1.447-10.045 3.248-10.725 1.802-.68 6.989-1.26 9.76 6.059 2.268 5.987 6.187 12.46 12.542 18.814 6.354 6.354 12.827 10.274 18.814 12.541 7.319 2.772 6.739 7.958 6.059 9.76s-3.93 6.273-10.726 3.249c-8.31-3.698-17.947-10.734-23.455-16.242-5.51-5.509-12.544-15.146-16.242-23.456z" fill="#fff" stroke="#453536"/><path d="m8.081 25.7c2.474.353 3.27 2.581 4.734 5.97 2.045 4.737 3.156 7.216 7.211 11.919" fill="#fff" stroke="#eb9d00"/><path d="m33 39.898.036 5.258z" stroke="#eb9d00"/></g><path d="m41.082 25.827c-2.068-2.068-2.09-5.397-.051-7.436 2.039-2.04 5.368-2.016 7.435.051 2.068 2.068 2.09 5.397.052 7.436-2.04 2.04-5.369 2.016-7.436-.051zm24.863-4.407-3.537 9.713a5.321 5.321 0 0 1 -2.711-1.46c-2.068-2.068-2.09-5.397-.051-7.436 1.696-1.697 4.286-1.966 6.3-.817zm-23.981 24.488c-2.068-2.067-2.09-5.396-.051-7.435 2.039-2.04 5.368-2.017 7.435.05 2.068 2.068 2.09 5.397.052 7.437-2.04 2.039-5.369 2.016-7.436-.052zm-23.994-25.224 8.94-3.122c2.055 2.069 2.074 5.389.039 7.424-2.04 2.039-5.368 2.016-7.436-.052a5.312 5.312 0 0 1 -1.543-4.25z" fill="#fff" stroke="#453536"/><path d="m31.056 31.36 5.258.037zm28.508-21.02 1.395 5.088zm-8.238 23.211 4.572 2.66z" stroke="#eb9d00" stroke-linecap="round" stroke-linejoin="round"/></g></g></svg>