<svg height="74" viewBox="0 0 84 74" width="84" xmlns="http://www.w3.org/2000/svg"><g fill="none" fill-rule="evenodd"><path d="m-464-2813h1440v3510h-1440z" fill="#fff"/><g stroke-linecap="round" stroke-linejoin="round" stroke-width="1.7"><path d="m47.256 31.706h8.41c.581 0 1.052.474 1.052 1.059v8.47c0 .585-.47 1.06-1.051 1.06h-8.41v8.47c0 .584-.471 1.059-1.052 1.059h-8.41c-.58 0-1.051-.475-1.051-1.06v-8.47h-8.41c-.581 0-1.052-.474-1.052-1.059v-8.47c0-.585.47-1.06 1.051-1.06h8.41v-8.47c0-.584.471-1.059 1.052-1.059h8.41c.58 0 1.051.475 1.051 1.06z" stroke="#eb9d00"/><path d="m6.222 7.702c-10.288 12.14-3.35 26.495 3.511 34.58 4.575 5.39 15.33 15.63 32.267 30.718 16.937-15.088 27.692-25.328 32.267-30.718 6.861-8.085 13.799-22.44 3.51-34.58-10.287-12.142-31.078-6.352-35.777 5.944-4.698-12.296-25.49-18.085-35.778-5.944zm63.111 32.474c6.608-7.179 13.075-18.895 3.167-29.676" stroke="#453536"/></g></g></svg>