<svg xmlns="http://www.w3.org/2000/svg" width="40" height="40" fill="none" viewBox="0 0 40 40"><path fill="#1d6076" fill-rule="evenodd" d="M20 3.75C11.0254 3.75 3.75 11.0254 3.75 20C3.75 28.9746 11.0254 36.25 20 36.25C28.9746 36.25 36.25 28.9746 36.25 20C36.25 11.0254 28.9746 3.75 20 3.75ZM2.25 20C2.25 10.1969 10.1969 2.25 20 2.25C29.8031 2.25 37.75 10.1969 37.75 20C37.75 29.8031 29.8031 37.75 20 37.75C10.1969 37.75 2.25 29.8031 2.25 20Z" clip-rule="evenodd"/><path fill="#fff" d="M11 15C11 13.8954 11.8954 13 13 13H27C28.1046 13 29 13.8954 29 15V23C29 24.1046 28.1046 25 27 25H19.8284C19.298 25 18.7893 25.2107 18.4142 25.5858L15 29V25H13C11.8954 25 11 24.1046 11 23V15Z"/><path fill="#1d6076" fill-rule="evenodd" d="M10.25 15C10.25 13.4812 11.4812 12.25 13 12.25H27C28.5188 12.25 29.75 13.4812 29.75 15V23C29.75 24.5188 28.5188 25.75 27 25.75H19.8284C19.4969 25.75 19.179 25.8817 18.9445 26.1161L15.5303 29.5303C15.3158 29.7448 14.9932 29.809 14.713 29.6929C14.4327 29.5768 14.25 29.3033 14.25 29V25.75H13C11.4812 25.75 10.25 24.5188 10.25 23V15ZM13 13.75C12.3096 13.75 11.75 14.3096 11.75 15V23C11.75 23.6904 12.3096 24.25 13 24.25H15C15.4142 24.25 15.75 24.5858 15.75 25V27.1893L17.8839 25.0555C18.3996 24.5397 19.0991 24.25 19.8284 24.25H27C27.6904 24.25 28.25 23.6904 28.25 23V15C28.25 14.3096 27.6904 13.75 27 13.75H13Z" clip-rule="evenodd"/><path fill="#eb9d00" fill-rule="evenodd" d="M16 20C16.5523 20 17 19.5523 17 19C17 18.4477 16.5523 18 16 18C15.4477 18 15 18.4477 15 19C15 19.5523 15.4477 20 16 20ZM21 19C21 19.5523 20.5523 20 20 20C19.4477 20 19 19.5523 19 19C19 18.4477 19.4477 18 20 18C20.5523 18 21 18.4477 21 19ZM25 19C25 19.5523 24.5523 20 24 20C23.4477 20 23 19.5523 23 19C23 18.4477 23.4477 18 24 18C24.5523 18 25 18.4477 25 19Z" clip-rule="evenodd"/></svg>