<svg xmlns="http://www.w3.org/2000/svg" width="40" height="40" fill="none" viewBox="0 0 40 40"><rect width="32" height="26" x="4" y="7" fill="#fff" rx="2"/><path fill="#1d6076" fill-rule="evenodd" d="M6 6.25C4.48122 6.25 3.25 7.48122 3.25 9V10.8V31C3.25 32.5188 4.48122 33.75 6 33.75H34C35.5188 33.75 36.75 32.5188 36.75 31V10.8V9C36.75 7.48122 35.5188 6.25 34 6.25H6ZM35.25 10.05V9C35.25 8.30964 34.6904 7.75 34 7.75H6C5.30964 7.75 4.75 8.30964 4.75 9V10.05H35.25ZM4.75 11.55H35.25V31C35.25 31.6904 34.6904 32.25 34 32.25H6C5.30964 32.25 4.75 31.6904 4.75 31V11.55Z" clip-rule="evenodd"/><path fill="#fff" d="M8 20C8 17.7909 9.79086 16 12 16H28C30.2091 16 32 17.7909 32 20C32 22.2091 30.2091 24 28 24H12C9.79086 24 8 22.2091 8 20Z"/><path fill="#eb9d00" fill-rule="evenodd" d="M7.25 20C7.25 17.3766 9.37665 15.25 12 15.25H28C30.6234 15.25 32.75 17.3766 32.75 20C32.75 22.6234 30.6234 24.75 28 24.75H12C9.37665 24.75 7.25 22.6234 7.25 20ZM12 16.75C10.2051 16.75 8.75 18.2051 8.75 20C8.75 21.7949 10.2051 23.25 12 23.25H28C29.7949 23.25 31.25 21.7949 31.25 20C31.25 18.2051 29.7949 16.75 28 16.75H12Z" clip-rule="evenodd"/><path fill="#fff" d="M21.1696 28.1973L21.6252 19.7096L28.4201 24.8164L25.6584 25.5525L27.3488 29.1778L26.274 29.6789L25.1737 30.192L23.4832 26.5668L21.1696 28.1973Z"/><path fill="#1d6076" fill-rule="evenodd" d="M21.3083 19.0298C21.5593 18.9127 21.8544 18.9436 22.0758 19.11L28.8707 24.2168C29.1002 24.3893 29.2111 24.6777 29.1563 24.9595C29.1015 25.2413 28.8907 25.4671 28.6133 25.5411L26.7163 26.0467L28.0285 28.8608C28.2036 29.2362 28.0412 29.6824 27.6658 29.8575L25.4906 30.8717C25.1152 31.0468 24.669 30.8844 24.4939 30.509L23.1824 27.6963L21.6017 28.8104C21.3668 28.9759 21.058 28.9927 20.8066 28.8536C20.5552 28.7145 20.4053 28.444 20.4207 28.1571L20.8763 19.6693C20.8911 19.3927 21.0572 19.1469 21.3083 19.0298ZM22.0014 26.6935L23.0512 25.9537C23.2327 25.8258 23.4616 25.7849 23.6762 25.842C23.8908 25.8992 24.0691 26.0485 24.1629 26.2498L25.5364 29.1953L26.3521 28.815L24.9786 25.8695C24.8848 25.6684 24.8849 25.4361 24.9788 25.2351C25.0727 25.0341 25.2508 24.8849 25.4652 24.8278L26.7362 24.489L22.2988 21.154L22.0014 26.6935Z" clip-rule="evenodd"/></svg>