<svg xmlns="http://www.w3.org/2000/svg" viewBox="0 0 48.96 70.49"><g fill="#fff"><path d="M12.15 8.48a9.22 9.22 0 0 0-3.68 3.67 9.31 9.31 0 0 0-3.68 3.68 9.2 9.2 0 0 0-4.79 8.07v21.49l2.22 1.54v-23.48a6.9 6.9 0 0 1 1.48-4.29v.61 28.23l2.21 1.54v-29.32a7 7 0 0 1 .56-2.74 7.12 7.12 0 0 1 .92-1.55v.61 34l2.22 1.54v-35.54a6.65 6.65 0 0 1 .56-2.73 7.19 7.19 0 0 1 .92-1.56v.62 40.2l2.22 1.54v-41.74a7 7 0 0 1 .18-1.87 6.82 6.82 0 0 1 .31-.9 6.9 6.9 0 0 1 .92-1.55v.61 46.47l2.21 1.54v-48a7 7 0 0 1 .24-1.84 6.86 6.86 0 0 1 .32-.9 7 7 0 0 1 2.11-2.73 9.17 9.17 0 0 0-7.45 4.78zM47.27 60.38l1.73-1.53-22-15.54a5.76 5.76 0 0 1-1.41-1.31 5.37 5.37 0 0 1-.54-.93 5.9 5.9 0 0 1-.53-2.43 4.58 4.58 0 0 1 0-.64 7.58 7.58 0 0 0-1.88 3 7.41 7.41 0 0 0-.37 2.35 7.51 7.51 0 0 0 .39 2.41 7.15 7.15 0 0 0-.39 2.35 7 7 0 0 0 .42 2.41 6.76 6.76 0 0 0 0 4.77 6.12 6.12 0 0 0-.45 2.33 6.3 6.3 0 0 0 2.76 5.16l11.07 7.71 1.66-1.49-11.63-8.14a4.08 4.08 0 0 1-1.8-3.09.57.57 0 0 1 0-.13 6.4 6.4 0 0 0 .93.78l13.63 9.58 1.69-1.53-14.07-9.87a4.61 4.61 0 0 1-1.24-1.29 4.55 4.55 0 0 1-.69-2 6.55 6.55 0 0 0 .81.67l16.31 11.45 1.69-1.53-16.73-11.73a4.65 4.65 0 0 1-.71-.61 5 5 0 0 1-.76-1 4.8 4.8 0 0 1-.59-1.78 7.17 7.17 0 0 0 .93.79l19 13.35 1.69-1.52-19.41-13.66a5.65 5.65 0 0 1-1-1 5.77 5.77 0 0 1-.64-1 5.35 5.35 0 0 1-.51-1.57 8 8 0 0 0 1 .85z"/><path d="m24.23 0h-.34a9.19 9.19 0 0 0 -8.07 4.8 9.22 9.22 0 0 0 -3.67 3.68 9.22 9.22 0 0 0 -3.68 3.67 9.31 9.31 0 0 0 -3.68 3.68 9.2 9.2 0 0 0 -4.79 8.07v5.23c0-6.95 4.12-12.21 9.19-12.21h15a7 7 0 0 1 7 7 7.19 7.19 0 0 1 -2.32 5.18l-3.95 3.57a8 8 0 0 0 -2.63 5.94 7.78 7.78 0 0 0 .39 2.39 7.41 7.41 0 0 0 -.37 2.35 7.51 7.51 0 0 0 .39 2.41 7.15 7.15 0 0 0 -.39 2.35 7 7 0 0 0 .42 2.41 6.76 6.76 0 0 0 0 4.77 6.12 6.12 0 0 0 -.45 2.33 6.3 6.3 0 0 0 2.72 5.16l1.44 1a6.34 6.34 0 0 1 -2.15-4.89 6.56 6.56 0 0 1 1.16-3.83 3.8 3.8 0 0 1 .43-.47l14.54-13.12a23.89 23.89 0 0 0 -16.19-41.47zm2.19 34.29 4-3.57a9.36 9.36 0 0 0 3-6.79 9.2 9.2 0 0 0 -9.19-9.19h-15.66a7.19 7.19 0 0 1 1.56-.92 6.65 6.65 0 0 1 2.74-.56h11.36a10.66 10.66 0 0 1 10.65 10.64 10.83 10.83 0 0 1 -3.48 7.87l-6.6 5.95-.24.23a5.77 5.77 0 0 1 1.86-3.66zm-1.37 6.71a5.56 5.56 0 0 1 1.23-1.66l6.61-6a13 13 0 0 0 4.21-9.44 12.88 12.88 0 0 0 -12.87-12.9h-11.36-.62a6.9 6.9 0 0 1 1.55-.92 6.82 6.82 0 0 1 .9-.31 7 7 0 0 1 1.84-.25h7.69a14.32 14.32 0 0 1 9.67 24.94l-8.31 7.54-.93.85-.12.11a5.58 5.58 0 0 1 .51-1.96zm.05 4.76a5.56 5.56 0 0 1 .47-.72 4.76 4.76 0 0 1 .57-.62l9.27-8.36a16.54 16.54 0 0 0 -11.18-28.71h-7.69c-.21 0-.41 0-.62 0a7.23 7.23 0 0 1 1.56-.93 6.92 6.92 0 0 1 2.74-.56h4a18 18 0 0 1 12.19 31.29l-10.67 9.62-1.21 1.09a4.86 4.86 0 0 1 .57-2.08zm13.81-5.94-13 11.72-1.4 1.25a4.62 4.62 0 0 1 .64-2.27 5.83 5.83 0 0 1 .61-.8l.23-.22 11.91-10.71a20.21 20.21 0 0 0 -13.67-35.11h-4-.62a6.9 6.9 0 0 1 4.29-1.48h.34a21.67 21.67 0 0 1 14.67 37.64z"/></g></svg>