<svg xmlns="http://www.w3.org/2000/svg" width="40" height="40" fill="none" viewBox="0 0 40 40"><path fill="#a09a93" fill-rule="evenodd" d="M31.6679 13.334H33.3339C36.1679 13.334 38.3339 15.5 38.3339 18.334V26.668C38.3339 29.502 36.1679 31.668 33.3339 31.668H31.6679V36.668C31.6679 37.668 31.0019 38.334 30.0019 38.334H10.0019C9.00192 38.334 8.33592 37.668 8.33592 36.668V31.668H6.66992C3.83592 31.668 1.66992 29.502 1.66992 26.668V18.334C1.66992 15.5 3.83592 13.334 6.66992 13.334H8.33592V3.33397C8.33592 2.33397 9.00192 1.66797 10.0019 1.66797H30.0019C31.0019 1.66797 31.6679 2.33397 31.6679 3.33397V13.334ZM28.3319 4.99997H11.6659V13.334H28.3319V4.99997ZM28.3339 35H11.6679V25H28.3339V35ZM33.3339 28.332C34.3339 28.332 34.9999 27.666 34.9999 26.666H35.0019V18.332C35.0019 17.332 34.3359 16.666 33.3359 16.666H6.66992C5.66992 16.666 5.00392 17.332 5.00392 18.332V26.666C5.00392 27.666 5.66992 28.332 6.66992 28.332H8.33592V23.332C8.33592 22.332 9.00192 21.666 10.0019 21.666H30.0019C31.0019 21.666 31.6679 22.332 31.6679 23.332V28.332H33.3339Z" clip-rule="evenodd"/></svg>