<svg xmlns="http://www.w3.org/2000/svg" width="350" height="392" fill="none" viewBox="0 0 350 392"><g fill="#003f4d" opacity="0.15"><path fill-rule="evenodd" d="M196.144 63.5287C196.144 5.32367 148.906 -42 90.8064 -42H89.3035C80.1155 -42 71.1666 -38.7835 64.0279 -32.9322L63.5839 -32.5216C62.0127 -31.2213 60.6123 -29.7841 59.1777 -28.1074L46.2325 -15.173C45.3103 -14.3175 44.3881 -13.4279 43.5001 -12.4355L29.3594 1.66233C28.7446 2.24404 28.1639 2.82575 27.6174 3.40746L-2.13259 33.1088H-2.06428L-3.533 34.546C-11.5939 42.1766 -16 52.4762 -16 63.5287V70.9883C-10.979 47.9937 4.80111 31.6374 23.9969 31.6374H90.8064C108.363 31.6374 122.64 45.9406 122.64 63.5287C122.64 72.2543 118.883 80.672 112.086 87.2076L94.5294 103.085C87.5615 109.381 83.4628 118.483 83.1895 128.03L83.0871 214.02C83.2237 222.711 87.5274 230.89 94.6319 235.92L95.11 236.262C91.9677 231.506 90.1574 225.483 90.1574 219.29C90.1574 212.686 92.1726 205.945 95.4516 201.736C96.1006 200.915 96.7837 200.196 97.4668 199.546L162.159 141.135C184.087 120.468 196.144 92.9221 196.144 63.5287ZM91.4553 125.977C92.1726 119.475 95.2125 113.521 100.029 109.141L117.619 93.23C126.158 85.0519 130.837 74.5127 130.837 63.4945C130.837 41.3896 112.905 23.4251 90.8405 23.4251H23.9969C23.4505 23.4251 22.938 23.4251 22.4257 23.4593L18.6344 23.6646L20.7179 22.0221C22.9039 20.3112 25.2948 18.8741 27.7882 17.8133C29.1545 17.2316 30.5207 16.7525 31.887 16.3761C34.6536 15.6233 37.4886 15.2469 40.2894 15.2469H90.7722C117.346 15.2469 138.932 36.907 138.932 63.4945C138.932 76.8053 133.331 89.466 123.186 99.1498L93.9146 125.669C93.7611 125.806 93.6161 125.942 93.4711 126.079L93.4705 126.079C93.3254 126.216 93.1802 126.353 93.0265 126.49L91.1821 128.269L91.4553 125.977ZM91.3529 148.082C91.592 145.071 92.4117 142.128 93.7096 139.39C95.11 136.482 96.9886 133.915 99.3454 131.76L128.72 105.241C140.606 93.9486 147.13 79.1664 147.13 63.5287C147.13 32.4244 121.854 7.10302 90.8064 7.10302H40.3235C39.4013 7.10302 38.5133 7.13723 37.6252 7.20567L34.9269 7.37677L37.0445 5.70007C39.2305 3.98916 41.6215 2.55201 44.149 1.49124C45.4128 0.943752 46.8132 0.464699 48.2478 0.054081C51.0144 -0.698719 53.8152 -1.07512 56.6502 -1.07512H90.8064C126.363 -1.07512 155.293 27.9076 155.293 63.5287C155.293 81.459 147.847 98.3628 134.355 111.16L91.1821 150.169L91.3529 148.082ZM91.3187 170.152C91.4895 166.833 92.4117 163.514 93.9487 160.537C94.5635 159.374 95.2808 158.279 96.1006 157.218C96.9203 156.191 97.8084 155.233 98.7306 154.344L139.923 117.114C155.088 102.743 163.457 83.7174 163.457 63.4945C163.457 23.3566 130.872 -9.28747 90.8064 -9.28747H56.6502C55.728 -9.28747 54.8399 -9.25325 53.9518 -9.18481L51.2877 -9.01372L53.4053 -10.6904C55.5913 -12.4013 57.9823 -13.8385 60.5098 -14.8992C64.4719 -16.6101 68.6732 -17.4656 73.011 -17.4656H90.8405C135.414 -17.4656 171.654 18.8741 171.654 63.5287C171.654 86.0442 162.364 107.191 145.525 123.137L91.2162 172.171L91.3187 170.152ZM156.625 135.113L91.2504 194.139L91.2845 192.223C91.3187 188.528 92.3434 184.9 94.2561 181.684C95.0759 180.315 95.9981 179.083 97.0911 177.954C97.296 177.726 97.5312 177.498 97.7665 177.27L97.7668 177.27C97.8379 177.201 97.909 177.132 97.9793 177.063C98.0252 177.018 98.0708 176.973 98.1158 176.928L150.99 129.193C169.605 111.639 179.817 88.3369 179.817 63.5287C179.817 14.3573 139.889 -25.6437 90.8064 -25.6437H72.9768C72.0888 -25.6437 71.1666 -25.6095 70.2785 -25.5411L67.5802 -25.37L69.6978 -27.0467C75.3336 -31.4608 82.1307 -33.8219 89.2693 -33.8219H90.7722C144.363 -33.8219 187.947 9.84046 187.947 63.5287C187.981 90.6295 176.846 116.054 156.625 135.113Z" clip-rule="evenodd"/><path d="M36.636 38.413 36.67 195.748 44.833 201.462 44.799 38.413H36.636ZM61.13 38.413H52.967L53.001 207.142 61.164 212.822 61.13 38.413ZM-12.325 88.833C-12.317 88.611-12.308 88.388-12.308 88.166L-9.371 74.65C-8.141 69.004-6.194 63.837-3.769 59.286-4.042 60.963-4.179 62.639-4.179 64.35V167.244L-12.342 161.53V89.501C-12.342 89.278-12.334 89.056-12.325 88.833ZM3.988 172.958 12.151 178.673V50.012C12.151 47.207 12.527 44.435 13.244 41.766 9.897 43.477 6.789 45.769 3.988 48.609V172.958ZM20.306 39.165C22.423 38.686 24.609 38.413 26.829 38.413H28.503V190.067L20.306 184.353V39.165ZM348.344 401.194 118.063 190.137 124.279 184.525 354.56 395.582 348.344 401.194ZM130.605 178.844 360.784 389.969 367 384.323 136.822 173.232 130.605 178.844ZM335.87 412.451 105.521 201.462 111.737 195.816 342.086 406.805 335.87 412.451ZM101.903 234.79 107.368 243.07 310.87 435 317.087 429.388 102.142 229.417C100.707 228.459 99.409 227.262 98.316 225.927 98.999 229.144 100.195 232.189 101.903 234.79ZM99.209 217.202C98.764 216.894 98.32 216.552 97.876 216.175 98.286 212.993 99.209 209.948 100.506 207.45 101.531 208.545 102.624 209.606 103.888 210.461L329.626 418.062 323.41 423.708 99.209 217.202Z"/></g></svg>