<svg xmlns="http://www.w3.org/2000/svg" width="76" height="16" viewBox="0 0 76 16"><path fill="#eb9d00" d="M53.992.77c2.04 0 3.739.516 5.268 1.55l-1.19 1.894c-1.274-.86-2.633-1.291-4.078-1.291l-.205.003c-1.763.055-3.024.823-3.024 2.15 0 1.205 1.105 1.722 2.974 1.98l1.02.173c2.38.344 4.673 1.291 4.588 4.047 0 3.014-2.634 4.65-5.778 4.65-2.04 0-4.078-.602-5.863-1.894l1.275-1.895c1.36.948 3.059 1.55 4.588 1.55 1.87 0 3.4-.775 3.4-2.153 0-1.12-1.106-1.722-3.23-1.98l-1.104-.173c-2.21-.258-4.334-1.291-4.334-4.047 0-2.928 2.55-4.564 5.693-4.564zM21.618.942v14.726h-2.38V.942h2.38zm8.412 0c.51-.172 1.444-.172 2.464 1.206l6.713 9.99V.941h2.38V13.17c0 1.722-.766 2.239-1.275 2.411-.51.172-1.445.172-2.465-1.206l-6.713-9.99v11.196h-2.379V3.525c0-1.894.765-2.41 1.275-2.583zm-22.518 0c3.909 0 5.353 2.067 5.353 4.392 0 2.497-1.954 4.22-4.928 4.392l4.843 5.425c.085.086.085.086.085.173 0 .172-.085.258-.255.258H9.976l-4.588-5.425-.088-.098c-.187-.227-.252-.462-.252-.764V9.21c0-.947.595-1.55 1.53-1.55h1.02c2.038 0 2.888-1.12 2.888-2.239 0-1.12-.85-2.239-2.889-2.239H3.348c-.254 0-.424.172-.424.43v11.971H.544V3.612c0-1.464 1.19-2.67 2.635-2.67zM75.915.856v2.239h-7.478c-.34 0-.51.258-.51.517v3.444h6.289v2.24h-6.288v3.616c0 .345.255.517.51.517L76 13.257v2.239h-7.733c-1.444 0-2.634-1.206-2.634-2.67v-9.3c0-1.465 1.19-2.67 2.634-2.67h7.648z"/></svg>