<svg xmlns="http://www.w3.org/2000/svg" width="1092" height="1357" fill="none" viewBox="0 0 1092 1357"><g fill="#eb9d00" fill-opacity=".5" opacity=".15"><path fill-rule="evenodd" d="m604.86 300.215c0-165.586-134.684-300.215-300.336-300.215h-4.285c-26.197 0-51.712 9.15052-72.065 25.7967l-1.266 1.1681c-4.48 3.6992-8.473 7.7877-12.563 12.5576l-36.909 36.7968c-2.63 2.4337-5.259 4.9647-7.791 7.7877l-40.317 40.1061c-1.753 1.655-3.409 3.31-4.967 4.965l-84.8226 84.496h.1948l-4.1876 4.089c-22.9829 21.708-35.5456 51.009-35.5456 82.452v21.221c14.3156-65.416 59.3076-111.948 114.038-111.948h190.486c50.056 0 90.763 40.691 90.763 90.727 0 24.823-10.713 48.77-30.092 67.363l-50.056 45.169c-19.867 17.911-31.553 43.805-32.332 70.965l-.292 244.63c.389 24.726 12.66 47.992 32.916 62.302l1.363.973c-8.959-13.531-14.121-30.664-14.121-48.284 0-18.787 5.746-37.964 15.095-49.938 1.85-2.336 3.798-4.381 5.746-6.23l184.447-166.17c62.522-58.797 96.899-137.16 96.899-220.78zm-298.486 177.656c2.045-18.496 10.712-35.434 24.444-47.894l50.153-45.266c24.346-23.266 37.688-53.248 37.688-84.594 0-62.885-51.127-113.992-114.038-113.992h-190.583c-1.558 0-3.019 0-4.48.098l-10.8094.584 5.9404-4.673c6.233-4.867 13.05-8.956 20.159-11.973 3.895-1.655 7.791-3.018 11.686-4.089 7.888-2.141 15.971-3.212 23.957-3.212h143.935c75.766 0 137.313 61.62 137.313 137.257 0 37.868-15.971 73.886-44.894 101.435l-83.459 75.443c-.438.389-.851.778-1.265 1.167l-.001.001c-.414.39-.828.779-1.266 1.168l-5.259 5.062zm-.292 62.886c.682-8.567 3.019-16.939 6.719-24.726 3.993-8.275 9.349-15.576 16.069-21.708l83.751-75.443c33.89-32.125 52.491-74.178 52.491-118.665 0-88.488-72.065-160.524-160.588-160.524h-143.936c-2.629 0-5.161.098-7.693.292l-7.694.487 6.038-4.77c6.233-4.867 13.05-8.956 20.256-11.973 3.604-1.558 7.596-2.921 11.687-4.089 7.888-2.141 15.873-3.212 23.956-3.212h97.386c101.378 0 183.863 82.452 183.863 183.789 0 51.009-21.23 99.098-59.697 135.505l-123.095 110.975zm-.098 62.788c.487-9.443 3.117-18.885 7.499-27.355 1.753-3.309 3.798-6.424 6.135-9.442 2.338-2.92 4.87-5.646 7.499-8.177l117.447-105.912c43.239-40.886 67.098-95.01 67.098-152.542 0-114.186-92.905-207.0543-207.138-207.0543h-97.386c-2.629 0-5.161.0973-7.693.292l-7.596.4868 6.038-4.77c6.232-4.8673 13.049-8.9558 20.256-11.9735 11.297-4.8673 23.275-7.301 35.643-7.301h50.835c127.088 0 230.413 103.381 230.413 230.418 0 64.053-26.488 124.213-74.499 169.576l-154.843 139.497zm186.201-99.683-186.395 167.922.097-5.451c.097-10.514 3.019-20.832 8.473-29.983 2.337-3.893 4.966-7.398 8.083-10.61.584-.649 1.254-1.298 1.925-1.947l.001-.001c.203-.196.406-.392.606-.588.131-.128.261-.257.389-.385l150.752-135.797c53.075-49.939 82.194-116.231 82.194-186.807 0-139.886-113.844-253.6836-253.786-253.6836h-50.835c-2.533 0-5.162.0973-7.694.292l-7.693.4867 6.038-4.7699c16.068-12.5577 35.448-19.2745 55.801-19.2745h4.285c152.798 0 277.061 124.2133 277.061 276.9493.098 77.098-31.65 149.426-89.302 203.647z" clip-rule="evenodd"/><path d="m150.074 228.763.097 447.596 23.275 16.257-.097-463.853zM219.911 228.763h-23.275l.098 480.013 23.275 16.159zM10.478 372.203c.024-.633.049-1.266.049-1.898l8.375-38.452c3.506-16.062 9.057-30.761 15.971-43.708-.779 4.77-1.169 9.54-1.169 14.407v292.719l-23.275-16.257v-204.913c0-.633.024-1.265.049-1.898zM56.989 611.527l23.275 16.256v-366.02c0-7.983 1.071-15.868 3.116-23.461-9.544 4.868-18.406 11.39-26.391 19.469zM103.513 230.904c6.038-1.362 12.271-2.141 18.601-2.141h4.772v431.437l-23.373-16.257zM1038.81 1260.83l-656.573-600.433 17.724-15.965 656.569 600.428zM417.997 628.27l656.283 600.62 17.72-16.06-656.279-600.525zM1003.24 1292.85l-656.763-600.234 17.724-16.062 656.769 600.236zM336.161 787.429l15.582 23.558 580.221 546.013 17.724-15.96-612.845-568.894c-4.09-2.726-7.791-6.133-10.907-9.93 1.947 9.151 5.356 17.815 10.225 25.213zM328.48 737.394c-1.266-.876-2.533-1.849-3.799-2.92 1.169-9.053 3.799-17.717 7.499-24.823 2.922 3.115 6.038 6.133 9.641 8.566l643.619 590.603-17.724 16.06z"/></g></svg>