<svg width="32" height="31" viewBox="0 0 32 31" fill="none" xmlns="http://www.w3.org/2000/svg">
<path d="M15.0767 1.21993C15.4183 0.398634 16.5817 0.398636 16.9233 1.21993L20.5265 9.883C20.6705 10.2292 20.9961 10.4658 21.3699 10.4958L30.7224 11.2456C31.6091 11.3166 31.9686 12.4232 31.2931 13.0018L24.1674 19.1057C23.8826 19.3496 23.7583 19.7324 23.8453 20.0972L26.0223 29.2236C26.2287 30.0889 25.2874 30.7727 24.5283 30.3091L16.5213 25.4184C16.2012 25.2229 15.7988 25.2229 15.4787 25.4184L7.47169 30.3091C6.71259 30.7727 5.77134 30.0889 5.97773 29.2236L8.15472 20.0972C8.24173 19.7324 8.11736 19.3496 7.83257 19.1057L0.706938 13.0018C0.0314007 12.4232 0.390928 11.3166 1.27758 11.2456L10.6301 10.4958C11.0039 10.4658 11.3295 10.2292 11.4735 9.883L15.0767 1.21993Z" fill="#FFCF69"/>
</svg>
