<svg fill="none" height="329" viewBox="0 0 470 329" width="470" xmlns="http://www.w3.org/2000/svg"><rect fill="#e47e1a" height="68.6944" rx="34.3472" width="166.281" x="136.32" y="1.88867"/><path clip-rule="evenodd" d="m171.33 24.6558c-.388-.3015-.93-.3015-1.318 0l-9.66 7.5134c-.262.2034-.414.5161-.414.8473v11.8068c0 .854.339 1.6731.943 2.277.604.6038 1.423.9431 2.277.9431h15.026c.854 0 1.673-.3393 2.277-.9431.604-.6039.943-1.423.943-2.277v-11.8068c0-.3312-.152-.6439-.414-.8473zm3.634 21.2409h3.22c.285 0 .558-.1131.759-.3144.202-.2013.315-.4743.315-.759v-11.2819l-8.587-6.6786-8.587 6.6786v11.2819c0 .2847.113.5577.315.759.201.2013.474.3144.759.3144h3.22v-9.6602c0-.5928.48-1.0733 1.073-1.0733h6.44c.593 0 1.073.4805 1.073 1.0733zm-6.44 0v-8.5868h4.294v8.5868z" fill="#fff" fill-rule="evenodd"/><path d="m196.692 35.964-4.568-6.8866h2.645l3.057 5.1178 3.091-5.1178h2.507l-4.568 6.8866v5.2723h-2.164zm5.569 1.1163c0-.6526.115-1.2422.344-1.7689.24-.5381.561-.996.962-1.3739.4-.3778.875-.6697 1.425-.8758s1.133-.3091 1.752-.3091c.618 0 1.202.103 1.751.3091.55.2061 1.025.498 1.426.8758.401.3779.715.8358.944 1.3739.241.5267.361 1.1163.361 1.7689s-.12 1.248-.361 1.7861c-.229.5381-.543 1.0018-.944 1.391-.401.3779-.876.6755-1.426.8931-.549.2175-1.133.3263-1.751.3263-.619 0-1.202-.1088-1.752-.3263-.55-.2176-1.025-.5152-1.425-.8931-.401-.3892-.722-.8529-.962-1.391-.229-.5381-.344-1.1335-.344-1.7861zm2.096 0c0 .3206.045.6412.137.9617.103.3206.252.6068.446.8587.195.2519.441.458.739.6183s.653.2404 1.065.2404.767-.0801 1.064-.2404c.298-.1603.544-.3664.739-.6183s.338-.5381.429-.8587c.103-.3205.155-.6411.155-.9617s-.052-.6354-.155-.9445c-.091-.3206-.234-.6068-.429-.8587s-.441-.4522-.739-.6011c-.297-.1603-.652-.2404-1.064-.2404s-.767.0801-1.065.2404c-.298.1489-.544.3492-.739.6011-.194.2519-.343.5381-.446.8587-.092.3091-.137.6239-.137.9445zm16.389 4.156h-1.958v-1.3223h-.034c-.183.4121-.504.7785-.962 1.0991-.446.3091-.979.4637-1.597.4637-.538 0-1.002-.0916-1.391-.2748-.378-.1947-.693-.4465-.944-.7557-.241-.3091-.418-.664-.533-1.0647-.114-.4007-.171-.8129-.171-1.2365v-5.1521h2.06v4.5682c0 .2404.018.4923.052.7556s.109.5038.223.7213c.115.2061.269.3778.464.5152.206.1374.475.2061.807.2061.321 0 .601-.063.841-.1889.252-.1374.453-.3091.602-.5152.16-.2061.28-.4408.36-.7041.08-.2748.12-.5496.12-.8244v-4.5338h2.061zm2.474-8.2433h1.975v1.3739h.034c.229-.4809.55-.8701.962-1.1678s.893-.4465 1.442-.4465c.081 0 .166.0057.258.0171.092 0 .172.0115.24.0344v1.8891c-.137-.0344-.257-.0573-.36-.0687-.092-.0115-.183-.0172-.275-.0172-.469 0-.847.0859-1.133.2576-.287.1718-.51.3778-.67.6183-.161.2404-.269.4866-.327.7384-.057.2519-.085.4523-.085.6011v4.4136h-2.061zm10.652-3.9156h2.164v4.9117h5.684v-4.9117h2.164v12.1589h-2.164v-5.3925h-5.684v5.3925h-2.164zm12.112 8.0029c0-.6526.114-1.2422.343-1.7689.241-.5381.561-.996.962-1.3739.401-.3778.876-.6697 1.425-.8758.55-.2061 1.134-.3091 1.752-.3091s1.202.103 1.752.3091c.549.2061 1.024.498 1.425.8758.401.3779.716.8358.945 1.3739.24.5267.36 1.1163.36 1.7689s-.12 1.248-.36 1.7861c-.229.5381-.544 1.0018-.945 1.391-.401.3779-.876.6755-1.425.8931-.55.2175-1.134.3263-1.752.3263s-1.202-.1088-1.752-.3263c-.549-.2176-1.024-.5152-1.425-.8931-.401-.3892-.721-.8529-.962-1.391-.229-.5381-.343-1.1335-.343-1.7861zm2.095 0c0 .3206.046.6412.137.9617.103.3206.252.6068.447.8587.194.2519.441.458.738.6183.298.1603.653.2404 1.065.2404s.767-.0801 1.065-.2404c.297-.1603.544-.3664.738-.6183.195-.2519.338-.5381.43-.8587.103-.3205.154-.6411.154-.9617s-.051-.6354-.154-.9445c-.092-.3206-.235-.6068-.43-.8587-.194-.2519-.441-.4522-.738-.6011-.298-.1603-.653-.2404-1.065-.2404s-.767.0801-1.065.2404c-.297.1489-.544.3492-.738.6011-.195.2519-.344.5381-.447.8587-.091.3091-.137.6239-.137.9445zm18.708-4.3277c.538 0 .996.0973 1.374.2919.389.1832.704.4294.944.7385.252.3091.435.664.55 1.0648.114.4007.172.8128.172 1.2364v5.1521h-2.061v-4.5681c0-.2405-.017-.4924-.052-.7557-.034-.2633-.108-.498-.223-.7041-.114-.2175-.275-.395-.481-.5324-.194-.1374-.458-.2061-.79-.2061-.32 0-.595.0687-.824.2061s-.418.3149-.567.5324-.257.4637-.326.7385c-.069.2633-.103.5266-.103.7899v4.4995h-2.061v-4.9803c0-.5152-.126-.9388-.378-1.2709-.24-.3434-.624-.5152-1.151-.5152-.309 0-.578.0687-.807.2061-.229.126-.418.292-.566.498-.138.2061-.247.4466-.327.7213-.068.2634-.103.5324-.103.8072v4.5338h-2.061v-8.2433h1.958v1.3224h.035c.091-.2061.211-.4007.36-.5839.16-.1832.344-.3492.55-.4981.217-.1488.463-.2633.738-.3434.275-.0916.578-.1374.91-.1374.642 0 1.174.1431 1.598.4293.423.2862.749.6641.978 1.1335.275-.5038.642-.8873 1.1-1.1507.458-.2747.996-.4121 1.614-.4121zm11.243 3.5377c0-.2633-.041-.5152-.121-.7556-.068-.2404-.183-.4522-.343-.6354s-.366-.3263-.618-.4294c-.241-.1145-.527-.1717-.859-.1717-.618 0-1.145.1889-1.58.5667-.424.3664-.658.8415-.704 1.4254zm2.06.9274v.2748c0 .0916-.005.1832-.017.2748h-6.268c.023.2976.097.5724.223.8243.138.2404.315.4522.532.6354.218.1718.464.3091.739.4122.275.103.561.1545.859.1545.515 0 .95-.0915 1.305-.2747.355-.1947.647-.458.876-.79l1.374 1.0991c-.813 1.0991-1.993 1.6487-3.538 1.6487-.641 0-1.231-.0974-1.769-.292-.538-.2061-1.008-.4923-1.408-.8587-.39-.3663-.699-.8129-.928-1.3395-.217-.5381-.326-1.1449-.326-1.8204 0-.6641.109-1.2651.326-1.8032.229-.5496.538-1.0133.928-1.3911.389-.3893.847-.6869 1.374-.893.538-.2176 1.116-.3263 1.734-.3263.573 0 1.099.0973 1.58.2919.492.1832.916.4637 1.271.8415.355.3664.63.8301.824 1.3911.206.5495.309 1.1964.309 1.9406z" fill="#fff"/><rect fill="#e47e1a" height="68.6944" rx="34.3472" width="214.281" x="255.461" y="156.451"/><g fill="#fff"><path clip-rule="evenodd" d="m282.833 183.286c0-.593.481-1.074 1.074-1.074h4.293c.593 0 1.073.481 1.073 1.074v4.293c0 .593-.48 1.073-1.073 1.073h-4.293c-.593 0-1.074-.48-1.074-1.073zm2.147 1.073v2.147h2.147v-2.147z" fill-rule="evenodd"/><path clip-rule="evenodd" d="m283.907 189.726c-.593 0-1.074.48-1.074 1.073v4.293c0 .593.481 1.074 1.074 1.074h4.293c.593 0 1.073-.481 1.073-1.074v-4.293c0-.593-.48-1.073-1.073-1.073zm1.073 4.293v-2.147h2.147v2.147z" fill-rule="evenodd"/><path clip-rule="evenodd" d="m290.347 183.286c0-.593.48-1.074 1.073-1.074h4.294c.592 0 1.073.481 1.073 1.074v4.293c0 .593-.481 1.073-1.073 1.073h-4.294c-.593 0-1.073-.48-1.073-1.073zm2.146 1.073v2.147h2.147v-2.147z" fill-rule="evenodd"/><path clip-rule="evenodd" d="m291.42 189.726c-.593 0-1.073.48-1.073 1.073v4.293c0 .593.48 1.074 1.073 1.074h4.294c.592 0 1.073-.481 1.073-1.074v-4.293c0-.593-.481-1.073-1.073-1.073zm1.073 4.293v-2.147h2.147v2.147z" fill-rule="evenodd"/><path clip-rule="evenodd" d="m279.613 180.066c0-.593.481-1.074 1.074-1.074h18.247c.592 0 1.073.481 1.073 1.074v21.467c0 .592-.481 1.073-1.073 1.073h-18.247c-.593 0-1.074-.481-1.074-1.073zm2.147 1.073v19.32h16.1v-19.32z" fill-rule="evenodd"/><path d="m312.687 183.64h4.225c.572 0 1.127.063 1.665.189.539.114 1.014.309 1.426.584.423.275.761.635 1.013 1.082.252.446.378.99.378 1.631 0 .882-.252 1.603-.756 2.164-.492.55-1.167.922-2.026 1.116l3.246 5.393h-2.611l-2.816-5.152h-1.58v5.152h-2.164zm3.933 5.238c.309 0 .618-.023.927-.069s.584-.131.824-.257c.252-.126.458-.304.619-.533.16-.24.24-.544.24-.91 0-.332-.074-.601-.223-.807-.149-.218-.338-.389-.567-.515s-.492-.212-.79-.258c-.286-.046-.567-.069-.841-.069h-1.958v3.418zm6.799-1.322h2.061v8.243h-2.061zm-.292-2.8c0-.332.12-.618.361-.858.251-.252.566-.378.944-.378s.693.12.945.36c.263.229.395.521.395.876s-.132.653-.395.893c-.252.229-.567.344-.945.344s-.693-.121-.944-.361c-.241-.252-.361-.544-.361-.876zm4.853 2.8h1.958v1.322h.034c.183-.412.498-.773.944-1.082.458-.321.997-.481 1.615-.481.538 0 .996.097 1.374.292.389.183.704.429.944.738.252.31.435.665.55 1.065.114.401.171.813.171 1.237v5.152h-2.06v-4.568c0-.241-.018-.493-.052-.756s-.109-.498-.223-.704c-.115-.218-.275-.395-.481-.532-.195-.138-.458-.207-.79-.207s-.618.069-.859.207c-.24.125-.44.291-.601.498-.149.206-.263.446-.343.721-.08.263-.12.532-.12.807v4.534h-2.061zm14.512 2.198c-.183-.241-.435-.447-.756-.619-.32-.183-.669-.274-1.047-.274-.332 0-.636.068-.91.206-.275.137-.413.366-.413.687 0 .32.149.549.447.687.309.126.756.257 1.339.395.31.068.619.16.928.274.32.115.607.269.858.464.264.183.476.418.636.704.16.275.24.613.24 1.013 0 .504-.097.934-.292 1.289-.183.343-.435.623-.755.841-.309.218-.676.372-1.099.464-.413.103-.842.154-1.288.154-.642 0-1.266-.114-1.872-.343-.607-.241-1.111-.578-1.512-1.013l1.357-1.271c.229.297.527.544.893.738.367.195.773.292 1.219.292.149 0 .298-.017.447-.051.16-.035.303-.086.429-.155.138-.08.246-.183.327-.309.08-.126.12-.281.12-.464 0-.343-.16-.589-.481-.738-.309-.149-.779-.298-1.408-.447-.309-.068-.613-.154-.91-.257-.287-.115-.544-.258-.773-.43-.229-.183-.412-.406-.55-.669-.137-.264-.206-.59-.206-.979 0-.458.092-.853.275-1.185.195-.332.446-.601.756-.808.309-.217.658-.377 1.047-.48s.79-.155 1.202-.155c.596 0 1.174.103 1.735.309.572.206 1.024.521 1.357.945zm8.919 1.099c0-.263-.04-.515-.12-.756-.069-.24-.184-.452-.344-.635s-.366-.327-.618-.43c-.241-.114-.527-.171-.859-.171-.618 0-1.145.189-1.58.566-.423.367-.658.842-.704 1.426zm2.061.927v.275c0 .092-.006.183-.018.275h-6.268c.023.297.097.572.223.824.138.241.315.452.533.636.217.171.463.309.738.412s.561.154.859.154c.515 0 .95-.091 1.305-.275.355-.194.647-.457.876-.79l1.374 1.1c-.813 1.099-1.992 1.648-3.538 1.648-.641 0-1.231-.097-1.769-.292-.538-.206-1.007-.492-1.408-.858-.389-.367-.698-.813-.927-1.34-.218-.538-.327-1.145-.327-1.82 0-.664.109-1.265.327-1.804.229-.549.538-1.013.927-1.391.389-.389.847-.687 1.374-.893.538-.217 1.116-.326 1.734-.326.573 0 1.1.097 1.58.292.493.183.916.464 1.271.842.355.366.63.83.825 1.391.206.549.309 1.196.309 1.94zm4.954-8.14h2.37l2.353 8.93h.034l2.679-8.93h2.233l2.628 8.93h.034l2.404-8.93h2.301l-3.554 12.159h-2.096l-2.85-9.119h-.035l-2.851 9.119h-2.095zm22.872 11.111h-.052c-.206.367-.538.67-.996.91-.458.229-.979.344-1.563.344-.332 0-.681-.046-1.047-.137-.355-.081-.687-.218-.996-.413-.298-.206-.55-.469-.756-.79-.195-.332-.292-.738-.292-1.219 0-.618.172-1.111.515-1.477.355-.366.807-.647 1.357-.841.549-.195 1.156-.321 1.82-.378.676-.069 1.334-.103 1.975-.103v-.206c0-.516-.189-.893-.566-1.134-.367-.252-.808-.378-1.323-.378-.435 0-.853.092-1.254.275-.4.183-.732.407-.996.67l-1.064-1.254c.469-.435 1.007-.761 1.614-.979.618-.217 1.242-.326 1.872-.326.733 0 1.334.103 1.803.309.481.206.859.475 1.134.807.274.332.463.704.566 1.117.115.412.172.824.172 1.236v5.015h-1.923zm-.035-2.713h-.463c-.332 0-.682.017-1.048.051-.366.023-.704.086-1.013.189-.309.092-.567.229-.773.412-.206.172-.309.413-.309.722 0 .194.04.36.12.498.092.126.206.229.343.309.138.08.292.137.464.172.172.034.344.051.515.051.71 0 1.248-.189 1.615-.567.366-.377.549-.893.549-1.545zm4.359-4.482h1.975v1.373h.034c.229-.48.55-.87.962-1.167.412-.298.893-.447 1.443-.447.08 0 .166.006.257.017.092 0 .172.012.241.035v1.889c-.138-.035-.258-.058-.361-.069-.092-.011-.183-.017-.275-.017-.469 0-.847.086-1.133.257-.286.172-.51.378-.67.619-.16.24-.269.486-.326.738-.058.252-.086.452-.086.601v4.414h-2.061zm11.758 3.297c0-.263-.04-.515-.12-.756-.069-.24-.183-.452-.343-.635-.161-.183-.367-.327-.619-.43-.24-.114-.526-.171-.858-.171-.618 0-1.145.189-1.58.566-.424.367-.659.842-.704 1.426zm2.061.927v.275c0 .092-.006.183-.017.275h-6.268c.023.297.097.572.223.824.137.241.315.452.532.636.218.171.464.309.739.412s.561.154.858.154c.516 0 .951-.091 1.306-.275.355-.194.647-.457.876-.79l1.373 1.1c-.812 1.099-1.992 1.648-3.537 1.648-.642 0-1.231-.097-1.769-.292-.538-.206-1.008-.492-1.408-.858-.39-.367-.699-.813-.928-1.34-.217-.538-.326-1.145-.326-1.82 0-.664.109-1.265.326-1.804.229-.549.538-1.013.928-1.391.389-.389.847-.687 1.373-.893.539-.217 1.117-.326 1.735-.326.572 0 1.099.097 1.58.292.492.183.916.464 1.271.842.355.366.629.83.824 1.391.206.549.309 1.196.309 1.94zm6.581-4.465c.539 0 .997.097 1.374.292.39.183.704.429.945.738.252.31.435.665.549 1.065.115.401.172.813.172 1.237v5.152h-2.061v-4.534c0-.24-.017-.487-.051-.738-.035-.264-.109-.499-.223-.705-.103-.217-.258-.395-.464-.532-.195-.137-.458-.206-.79-.206s-.618.063-.859.189c-.24.126-.441.298-.601.515-.16.206-.28.441-.36.704-.081.264-.121.533-.121.807v4.5h-2.061v-12.983h2.061v5.89h.035c.08-.172.194-.338.343-.498.16-.172.344-.32.55-.446.206-.138.44-.247.704-.327.263-.08.549-.12.858-.12zm4.963 4.328c0-.653.115-1.242.344-1.769.24-.538.561-.996.962-1.374.4-.378.875-.67 1.425-.876s1.133-.309 1.752-.309c.618 0 1.202.103 1.751.309.55.206 1.025.498 1.426.876s.715.836.944 1.374c.241.527.361 1.116.361 1.769 0 .652-.12 1.248-.361 1.786-.229.538-.543 1.002-.944 1.391-.401.378-.876.675-1.426.893-.549.217-1.133.326-1.751.326-.619 0-1.202-.109-1.752-.326-.55-.218-1.025-.515-1.425-.893-.401-.389-.722-.853-.962-1.391-.229-.538-.344-1.134-.344-1.786zm2.096 0c0 .32.045.641.137.962.103.32.252.606.446.858.195.252.441.458.739.618.298.161.653.241 1.065.241s.767-.08 1.064-.241c.298-.16.544-.366.739-.618s.338-.538.429-.858c.103-.321.155-.642.155-.962 0-.321-.052-.636-.155-.945-.091-.32-.234-.607-.429-.858-.195-.252-.441-.453-.739-.601-.297-.161-.652-.241-1.064-.241s-.767.08-1.065.241c-.298.148-.544.349-.739.601-.194.251-.343.538-.446.858-.092.309-.137.624-.137.945zm16.389 4.156h-1.958v-1.323h-.034c-.183.413-.504.779-.962 1.1-.446.309-.979.463-1.597.463-.538 0-1.002-.091-1.391-.275-.378-.194-.693-.446-.944-.755-.241-.309-.418-.664-.533-1.065-.114-.401-.172-.813-.172-1.236v-5.152h2.061v4.568c0 .24.017.492.052.755.034.264.109.504.223.722.115.206.269.377.464.515.206.137.475.206.807.206.32 0 .601-.063.841-.189.252-.137.453-.309.602-.515.16-.206.28-.441.36-.704.08-.275.12-.55.12-.825v-4.533h2.061zm6.99-6.045c-.183-.241-.435-.447-.755-.619-.321-.183-.67-.274-1.048-.274-.332 0-.635.068-.91.206-.275.137-.412.366-.412.687 0 .32.149.549.446.687.309.126.756.257 1.34.395.309.068.618.16.927.274.321.115.607.269.859.464.263.183.475.418.635.704.161.275.241.613.241 1.013 0 .504-.098.934-.292 1.289-.183.343-.435.623-.756.841-.309.218-.675.372-1.099.464-.412.103-.841.154-1.288.154-.641 0-1.265-.114-1.872-.343-.607-.241-1.11-.578-1.511-1.013l1.357-1.271c.229.297.526.544.893.738.366.195.772.292 1.219.292.149 0 .298-.017.446-.051.161-.035.304-.086.43-.155.137-.08.246-.183.326-.309s.12-.281.12-.464c0-.343-.16-.589-.481-.738-.309-.149-.778-.298-1.408-.447-.309-.068-.612-.154-.91-.257-.286-.115-.544-.258-.773-.43-.229-.183-.412-.406-.549-.669-.138-.264-.206-.59-.206-.979 0-.458.091-.853.274-1.185.195-.332.447-.601.756-.808.309-.217.658-.377 1.048-.48.389-.103.79-.155 1.202-.155.595 0 1.173.103 1.734.309.573.206 1.025.521 1.357.945zm8.919 1.099c0-.263-.04-.515-.12-.756-.069-.24-.183-.452-.343-.635-.161-.183-.367-.327-.619-.43-.24-.114-.526-.171-.858-.171-.619 0-1.145.189-1.58.566-.424.367-.659.842-.704 1.426zm2.061.927v.275c0 .092-.006.183-.017.275h-6.268c.022.297.097.572.223.824.137.241.315.452.532.636.218.171.464.309.739.412.274.103.561.154.858.154.516 0 .951-.091 1.306-.275.354-.194.646-.457.875-.79l1.374 1.1c-.813 1.099-1.992 1.648-3.537 1.648-.642 0-1.231-.097-1.769-.292-.538-.206-1.008-.492-1.409-.858-.389-.367-.698-.813-.927-1.34-.218-.538-.326-1.145-.326-1.82 0-.664.108-1.265.326-1.804.229-.549.538-1.013.927-1.391.39-.389.848-.687 1.374-.893.538-.217 1.117-.326 1.735-.326.572 0 1.099.097 1.58.292.492.183.916.464 1.271.842.355.366.629.83.824 1.391.206.549.309 1.196.309 1.94z"/></g><rect fill="#e47e1a" height="68.6944" rx="34.3472" width="195.281" x="3.22266" y="201.529"/><path clip-rule="evenodd" d="m48.3029 228.899c0 2.075-1.6819 3.757-3.7567 3.757s-3.7567-1.682-3.7567-3.757c0-2.074 1.6819-3.756 3.7567-3.756s3.7567 1.682 3.7567 3.756zm-3.7567 1.61c.8892 0 1.61-.721 1.61-1.61s-.7208-1.61-1.61-1.61-1.61.721-1.61 1.61.7208 1.61 1.61 1.61zm-9.1235 13.954c3.5568 0 6.4401-2.883 6.4401-6.44s-2.8833-6.44-6.4401-6.44c-3.5567 0-6.4401 2.883-6.4401 6.44s2.8834 6.44 6.4401 6.44zm0 2.147c4.7424 0 8.5868-3.845 8.5868-8.587 0-4.743-3.8444-8.587-8.5868-8.587-4.7423 0-8.5868 3.844-8.5868 8.587 0 4.742 3.8445 8.587 8.5868 8.587zm-1.0733-11.807c-1.1856 0-2.1467.961-2.1467 2.146 0 .593-.4806 1.074-1.0734 1.074s-1.0733-.481-1.0733-1.074c0-2.371 1.9222-4.293 4.2934-4.293.5928 0 1.0733.481 1.0733 1.073 0 .593-.4805 1.074-1.0733 1.074z" fill="#fff" fill-rule="evenodd"/><path d="m69.3174 231.569c-.3206-.435-.7384-.75-1.2536-.945-.5153-.206-1.019-.309-1.5113-.309-.6297 0-1.2022.115-1.7174.344s-.9617.543-1.3395.944c-.3664.401-.6526.87-.8587 1.408-.1946.539-.292 1.122-.292 1.752 0 .664.0974 1.271.292 1.821.1946.549.4694 1.024.8243 1.425.3664.389.8015.693 1.3052.91.5038.218 1.0705.326 1.7002.326.6526 0 1.2308-.125 1.7345-.377.5038-.264.9102-.607 1.2194-1.031l1.7345 1.22c-.5381.675-1.1964 1.202-1.975 1.58-.7785.366-1.6887.549-2.7306.549-.9502 0-1.8261-.154-2.6275-.464-.79-.32-1.4712-.761-2.0437-1.322-.5724-.572-1.019-1.248-1.3395-2.026-.3206-.79-.4809-1.661-.4809-2.611 0-.973.166-1.849.498-2.627.3435-.79.8072-1.46 1.3911-2.01.5954-.549 1.2938-.973 2.0952-1.271.8014-.297 1.6716-.446 2.6104-.446.3892 0 .7957.04 1.2193.12.4236.069.8301.183 1.2193.344.3893.148.7557.337 1.0991.566.3435.229.6355.504.8759.825zm3.1134-3.675h2.0608v12.983h-2.0608zm10.3656 8.037c0-.263-.0401-.515-.1202-.756-.0687-.24-.1832-.452-.3435-.635s-.3663-.326-.6182-.429c-.2405-.115-.5267-.172-.8587-.172-.6183 0-1.1449.189-1.58.567-.4236.366-.6583.841-.7041 1.425zm2.0608.927v.275c0 .092-.0057.183-.0171.275h-6.2684c.0229.298.0973.572.2233.824.1374.241.3148.452.5323.636.2176.171.4637.309.7385.412s.561.154.8587.154c.5152 0 .9503-.091 1.3052-.274.3549-.195.6469-.458.8758-.79l1.3739 1.099c-.8129 1.099-1.9921 1.648-3.5377 1.648-.6412 0-1.2308-.097-1.7689-.292-.5381-.206-1.0075-.492-1.4082-.858-.3893-.367-.6984-.813-.9274-1.34-.2176-.538-.3263-1.145-.3263-1.82 0-.664.1087-1.265.3263-1.803.229-.55.5381-1.014.9274-1.391.3892-.39.8472-.687 1.3738-.894.5381-.217 1.1163-.326 1.7346-.326.5724 0 1.0991.098 1.5799.292.4924.183.916.464 1.2709.842.3549.366.6297.83.8243 1.391.2061.549.3091 1.196.3091 1.94zm7.013 2.971h-.0515c-.2061.367-.5381.67-.996.911-.458.229-.9789.343-1.5628.343-.3321 0-.6813-.046-1.0476-.137-.355-.08-.687-.218-.9961-.413-.2977-.206-.5496-.469-.7556-.79-.1947-.332-.292-.738-.292-1.219 0-.618.1717-1.11.5152-1.477.3549-.366.8072-.647 1.3567-.841.5496-.195 1.1564-.321 1.8204-.378.6755-.069 1.3338-.103 1.975-.103v-.206c0-.515-.1889-.893-.5667-1.134-.3664-.252-.8072-.377-1.3224-.377-.4351 0-.853.091-1.2537.274s-.7327.407-.996.67l-1.0648-1.254c.4694-.435 1.0075-.761 1.6143-.979.6183-.217 1.2422-.326 1.8719-.326.7328 0 1.3339.103 1.8033.309.4808.206.8586.475 1.1334.807.2748.333.4637.705.5668 1.117.1144.412.1717.824.1717 1.236v5.015h-1.9235zm-.0343-2.713h-.4637c-.332 0-.6812.017-1.0476.051-.3663.023-.7041.086-1.0132.189-.3091.092-.5667.229-.7728.413-.2061.171-.3092.412-.3092.721 0 .194.0401.36.1203.498.0915.126.206.229.3434.309s.292.137.4637.172c.1718.034.3435.051.5152.051.7099 0 1.248-.189 1.6143-.566.3664-.378.5496-.894.5496-1.546zm4.3587-4.482h1.9578v1.322h.0344c.1832-.412.498-.773.9445-1.082.458-.321.9957-.481 1.6147-.481.538 0 .996.098 1.374.292.389.183.704.429.944.739.252.309.435.664.55 1.064.114.401.171.813.171 1.237v5.152h-2.06v-4.568c0-.241-.018-.493-.052-.756s-.109-.498-.223-.704c-.115-.218-.275-.395-.481-.532-.195-.138-.458-.206-.79-.206-.3321 0-.6183.068-.8588.206-.2404.126-.4408.292-.601.498-.1489.206-.2634.446-.3435.721-.0802.263-.1202.532-.1202.807v4.534h-2.0609zm10.0304 0h2.06v8.243h-2.06zm-.292-2.8c0-.332.12-.618.36-.858.252-.252.567-.378.945-.378s.692.12.944.36c.264.229.395.521.395.876s-.131.653-.395.893c-.252.229-.566.344-.944.344s-.693-.12-.945-.361c-.24-.252-.36-.544-.36-.876zm4.852 2.8h1.958v1.322h.035c.183-.412.498-.773.944-1.082.458-.321.996-.481 1.614-.481.539 0 .997.098 1.374.292.39.183.704.429.945.739.252.309.435.664.549 1.064.115.401.172.813.172 1.237v5.152h-2.061v-4.568c0-.241-.017-.493-.051-.756s-.109-.498-.223-.704c-.115-.218-.275-.395-.481-.532-.195-.138-.458-.206-.79-.206s-.618.068-.859.206c-.24.126-.441.292-.601.498-.149.206-.263.446-.343.721-.081.263-.121.532-.121.807v4.534h-2.061zm18.377 0v7.504c0 .745-.092 1.414-.275 2.01-.183.607-.469 1.116-.859 1.528-.378.424-.858.75-1.442.979s-1.277.344-2.078.344c-.332 0-.687-.029-1.065-.086-.366-.057-.733-.143-1.099-.258-.355-.114-.699-.257-1.031-.429s-.629-.367-.893-.584l1.185-1.597c.401.378.853.664 1.357.858.504.207 1.013.31 1.529.31.492 0 .904-.075 1.236-.224.344-.137.613-.332.807-.584.206-.251.349-.549.43-.893.091-.343.137-.721.137-1.133v-.601h-.034c-.298.401-.682.71-1.151.927-.458.206-.973.309-1.546.309-.618 0-1.179-.114-1.683-.343-.503-.229-.933-.538-1.288-.928-.343-.389-.612-.841-.807-1.356-.194-.527-.292-1.082-.292-1.666 0-.595.092-1.156.275-1.683.195-.527.464-.985.807-1.374.355-.389.779-.698 1.271-.927.504-.229 1.065-.344 1.683-.344.584 0 1.128.12 1.631.361.504.24.905.612 1.203 1.116h.034v-1.236zm-4.397 1.442c-.377 0-.715.069-1.013.206-.286.138-.532.327-.738.567-.195.229-.35.504-.464.824-.103.321-.155.664-.155 1.031 0 .332.052.652.155.961.114.31.269.59.464.842.206.24.452.435.738.584.298.149.63.223.996.223.378 0 .716-.069 1.013-.206.31-.149.567-.343.773-.584.218-.24.384-.515.498-.824.115-.321.172-.653.172-.996 0-.355-.057-.693-.172-1.013-.114-.321-.28-.602-.498-.842-.206-.24-.458-.429-.755-.567-.298-.137-.636-.206-1.014-.206zm13.3-3.469h-3.727v-1.889h9.617v1.889h-3.726v10.27h-2.164zm11.363 5.324c0-.263-.04-.515-.12-.756-.069-.24-.183-.452-.344-.635-.16-.183-.366-.326-.618-.429-.24-.115-.527-.172-.859-.172-.618 0-1.145.189-1.58.567-.423.366-.658.841-.704 1.425zm2.061.927v.275c0 .092-.006.183-.017.275h-6.269c.023.298.098.572.224.824.137.241.314.452.532.636.217.171.464.309.738.412.275.103.561.154.859.154.515 0 .95-.091 1.305-.274.355-.195.647-.458.876-.79l1.374 1.099c-.813 1.099-1.992 1.648-3.538 1.648-.641 0-1.231-.097-1.769-.292-.538-.206-1.007-.492-1.408-.858-.389-.367-.698-.813-.927-1.34-.218-.538-.327-1.145-.327-1.82 0-.664.109-1.265.327-1.803.229-.55.538-1.014.927-1.391.389-.39.847-.687 1.374-.894.538-.217 1.116-.326 1.735-.326.572 0 1.099.098 1.579.292.493.183.916.464 1.271.842.355.366.63.83.825 1.391.206.549.309 1.196.309 1.94zm7.013 2.971h-.052c-.206.367-.538.67-.996.911-.458.229-.979.343-1.563.343-.332 0-.681-.046-1.047-.137-.355-.08-.687-.218-.996-.413-.298-.206-.55-.469-.756-.79-.195-.332-.292-.738-.292-1.219 0-.618.172-1.11.515-1.477.355-.366.808-.647 1.357-.841.55-.195 1.156-.321 1.82-.378.676-.069 1.334-.103 1.975-.103v-.206c0-.515-.188-.893-.566-1.134-.367-.252-.807-.377-1.323-.377-.435 0-.853.091-1.253.274-.401.183-.733.407-.996.67l-1.065-1.254c.469-.435 1.007-.761 1.614-.979.618-.217 1.242-.326 1.872-.326.733 0 1.334.103 1.803.309.481.206.859.475 1.134.807.275.333.463.705.566 1.117.115.412.172.824.172 1.236v5.015h-1.923zm-.035-2.713h-.463c-.332 0-.681.017-1.048.051-.366.023-.704.086-1.013.189-.309.092-.567.229-.773.413-.206.171-.309.412-.309.721 0 .194.04.36.12.498.092.126.206.229.344.309.137.08.292.137.463.172.172.034.344.051.516.051.709 0 1.248-.189 1.614-.566.366-.378.549-.894.549-1.546zm14.2-4.723c.538 0 .996.098 1.374.292.389.183.704.429.944.739.252.309.435.664.55 1.064.114.401.171.813.171 1.237v5.152h-2.06v-4.568c0-.241-.018-.493-.052-.756s-.109-.498-.223-.704c-.115-.218-.275-.395-.481-.532-.195-.138-.458-.206-.79-.206-.321 0-.595.068-.824.206-.229.137-.418.314-.567.532s-.258.464-.326.738c-.069.264-.103.527-.103.79v4.5h-2.061v-4.98c0-.516-.126-.939-.378-1.271-.241-.344-.624-.515-1.151-.515-.309 0-.578.068-.807.206-.229.126-.418.292-.567.498-.137.206-.246.446-.326.721-.069.263-.103.532-.103.807v4.534h-2.061v-8.243h1.958v1.322h.034c.092-.206.212-.401.361-.584.16-.183.343-.349.55-.498.217-.149.463-.263.738-.343.275-.092.578-.138.91-.138.641 0 1.174.143 1.597.43.424.286.75.664.979 1.133.275-.504.641-.887 1.099-1.151.458-.274.996-.412 1.615-.412z" fill="#fff"/><path d="m378.137 150.075c-5.043-46.563-30.055-87.1186-66.273-112.8836m-205.727 242.2336c1.927 1.966 3.905 3.882 5.931 5.746 28.357 26.093 66.173 42.02 107.7 42.02 64.981 0 120.874-38.997 145.658-94.918" stroke="#eb9d00" stroke-linejoin="round" stroke-width="2"/><path d="m122.074 273.956c25.793 23.677 60.19 38.13 97.962 38.13 57.743 0 107.598-33.776 130.885-82.648m13.01-79.428c-4.788-40.548-26.318-75.9689-57.488-99.1584" stroke="#00a3ad" stroke-linejoin="round" stroke-width="2"/><path d="m373.001 146.246 4.823 4.268 4.268-4.824" stroke="#eb9d00" stroke-linejoin="round" stroke-width="2.1467"/><path d="m312.867 50.3829-6.437.1855.185 6.4374" stroke="#00a3ad" stroke-linejoin="round" stroke-width="2.1467"/><path d="m352.922 235.545-2.043-6.107-6.108 2.043" stroke="#00a3ad" stroke-linejoin="round" stroke-width="2.1467"/><path d="m111.848 278.422-6.426-.422-.422 6.426" stroke="#eb9d00" stroke-linejoin="round" stroke-width="2.1467"/></svg>