<svg width="32" height="45" viewBox="0 0 32 45" fill="none" xmlns="http://www.w3.org/2000/svg">
<path d="M8.43878 6.13577C7.48783 6.64762 6.70573 7.41917 6.18571 8.35845C5.23579 8.87439 4.45422 9.64751 3.93265 10.5872C2.12546 11.5636 1.00093 13.4377 1 15.4746V28.4897L2.35918 29.4224V15.2021C2.35644 14.2598 2.67576 13.3442 3.26531 12.6039C3.26531 12.7251 3.26531 12.8462 3.26531 12.9734V30.0704L4.61837 31.0031V13.2459C4.61865 12.6756 4.73526 12.1112 4.96122 11.5865C5.10802 11.2512 5.29729 10.9358 5.52449 10.6477C5.52449 10.7689 5.52449 10.8961 5.52449 11.0172V31.6087L6.88367 32.5414V11.0172C6.87862 10.4483 6.99548 9.88479 7.22653 9.3638C7.37328 9.02665 7.56253 8.7092 7.7898 8.41901C7.7898 8.5462 7.7898 8.66732 7.7898 8.79451V33.141L9.14898 34.0737V8.79451C9.1341 8.41381 9.17117 8.03287 9.25918 7.66197C9.30954 7.47613 9.37296 7.294 9.44898 7.1169C9.59443 6.78097 9.7838 6.46537 10.0122 6.17817C10.0122 6.2993 10.0122 6.42042 10.0122 6.54761V34.6914L11.3653 35.6241V6.55366C11.3641 6.1774 11.4135 5.80265 11.5122 5.4393C11.5647 5.25332 11.6301 5.07119 11.7082 4.89423C11.9926 4.24511 12.4367 3.67671 13 3.24084C11.0783 3.368 9.35654 4.46074 8.43878 6.13577Z" fill="url(#paint0_linear_0_1020)"/>
<path d="M29.9409 37.5682L31 36.6416L17.5307 27.23C17.2 27.0153 16.9081 26.7471 16.6674 26.4366C16.5384 26.2603 16.4277 26.0716 16.3368 25.8734C16.1241 25.4112 16.0135 24.9095 16.0123 24.4017C16.0031 24.2727 16.0031 24.1431 16.0123 24.0141C15.489 24.5214 15.0946 25.144 14.8613 25.831C14.7088 26.2902 14.6323 26.7709 14.6347 27.2542C14.6333 27.7504 14.714 28.2434 14.8735 28.7138C14.714 29.1717 14.6333 29.6528 14.6347 30.1371C14.6332 30.6347 14.7202 31.1288 14.8919 31.5966C14.537 32.5276 14.537 33.5545 14.8919 34.4855C14.7078 34.9336 14.6143 35.413 14.6164 35.8966C14.6267 37.1496 15.2583 38.3177 16.3062 39.0217L23.0837 43.6911L24.1 42.7887L16.9796 37.8589C16.3408 37.436 15.9343 36.7458 15.8776 35.9875C15.8746 35.9613 15.8746 35.9349 15.8776 35.9087C16.0518 36.0837 16.2425 36.2419 16.447 36.3811L24.7919 42.1831L25.8266 41.2565L17.2123 35.2789C16.9101 35.07 16.6522 34.8046 16.4531 34.4976C16.218 34.1323 16.0733 33.7173 16.0307 33.2864C16.1847 33.4345 16.3505 33.5702 16.5266 33.6921L26.5123 40.6266L27.547 39.7L17.3041 32.5959C17.147 32.4876 17.0014 32.3638 16.8694 32.2265C16.6892 32.0448 16.5329 31.8413 16.4041 31.6209C16.2132 31.2885 16.0905 30.9222 16.0429 30.5428C16.2186 30.718 16.4091 30.8781 16.6123 31.0213L28.2449 39.1065L29.2796 38.1859L17.396 29.913C17.167 29.7373 16.9613 29.5338 16.7837 29.3073C16.6324 29.1193 16.5011 28.9164 16.3919 28.7017C16.2387 28.4026 16.1334 28.0819 16.0796 27.7509C16.2691 27.9388 16.4739 28.1109 16.6919 28.2656L29.9409 37.5682Z" fill="url(#paint1_linear_0_1020)"/>
<path fill-rule="evenodd" clip-rule="evenodd" d="M15.8347 1H15.6265C13.5657 1.00082 11.6702 2.11608 10.6857 3.90705C9.73618 4.42145 8.95621 5.1951 8.43878 6.13578C7.48783 6.64762 6.70573 7.41917 6.18571 8.35846C5.23579 8.87439 4.45422 9.64752 3.93265 10.5872C2.12546 11.5636 1.00093 13.4377 1 15.4747V18.6421C1 14.433 3.52245 11.2473 6.62653 11.2473H15.8102C16.9468 11.2473 18.0369 11.694 18.8407 12.489C19.6444 13.2841 20.0959 14.3624 20.0959 15.4868C20.0774 16.6809 19.5639 17.8152 18.6755 18.6239L16.2571 20.7861C15.2302 21.706 14.6452 23.0131 14.6469 24.3835C14.6497 24.8754 14.7302 25.3638 14.8857 25.831C14.7332 26.2902 14.6567 26.7708 14.6592 27.2542C14.6578 27.7504 14.7384 28.2434 14.898 28.7138C14.7385 29.1717 14.6578 29.6528 14.6592 30.137C14.6576 30.6347 14.7447 31.1288 14.9163 31.5966C14.5615 32.5276 14.5615 33.5545 14.9163 34.4855C14.7323 34.9336 14.6387 35.413 14.6408 35.8966C14.6456 37.1451 15.2676 38.3123 16.3061 39.0217L17.1878 39.6273C16.3295 38.8801 15.8479 37.7966 15.8714 36.6658C15.8582 35.8383 16.1064 35.0274 16.5816 34.3462C16.6612 34.2442 16.7492 34.149 16.8449 34.0616L25.7469 26.1156C30.1829 22.0779 31.6603 15.7616 29.468 10.2068C27.2758 4.65199 21.8629 0.996607 15.8347 1ZM17.1755 21.7672L19.6245 19.6051C20.7835 18.5433 21.4481 17.0554 21.4612 15.4928C21.4578 12.4203 18.9407 9.93039 15.8347 9.92705H6.24694C6.54029 9.70224 6.8612 9.51503 7.20204 9.36986C7.7306 9.14046 8.30243 9.02486 8.87959 9.03071H15.8347C19.432 9.03404 22.3484 11.9162 22.3551 15.4747C22.3408 17.2863 21.5697 19.0115 20.2245 20.241L16.1837 23.8445L16.0367 23.9838C16.1288 23.1318 16.534 22.343 17.1755 21.7672ZM17.0898 24.8256C16.7775 25.1113 16.5221 25.4523 16.3367 25.831C16.1603 26.2045 16.0545 26.6068 16.0245 27.018L16.098 26.9514L16.6673 26.4366L21.7551 21.8701C24.4497 19.4592 25.3618 15.654 24.0483 12.303C22.7348 8.95197 19.468 6.74957 15.8347 6.76564H11.1265C10.7459 6.7664 10.367 6.81731 10 6.91705C9.81213 6.96686 9.62801 7.02959 9.44898 7.10479C9.10938 7.24868 8.79034 7.436 8.5 7.66198H8.87959H15.8347C17.9272 7.66358 19.9332 8.4878 21.4111 9.95313C22.889 11.4185 23.7175 13.4048 23.7143 15.4747C23.6908 17.6509 22.7578 19.7204 21.1367 21.1918L17.0898 24.8256ZM16.3673 28.7138C16.4517 28.5613 16.5479 28.4155 16.6551 28.2778C16.76 28.1426 16.8768 28.017 17.0041 27.9023L22.6796 22.8392C25.7478 20.0457 26.7713 15.6774 25.2581 11.8337C23.745 7.9899 20.0046 5.45665 15.8347 5.45141H11.1265H10.7469C11.0401 5.2247 11.361 5.03546 11.702 4.88817C12.2321 4.66336 12.8029 4.54795 13.3796 4.54902H15.8286C20.3823 4.53645 24.4749 7.29577 26.128 11.4931C27.781 15.6904 26.6541 20.4613 23.2918 23.4993L16.7592 29.3255L16.0184 29.9856C16.0379 29.5452 16.1571 29.1147 16.3673 28.7259V28.7138ZM16.8633 32.2144L24.8224 25.1163V25.1285C28.8559 21.469 30.2038 15.735 28.2163 10.6906C26.2288 5.64622 21.3139 2.32676 15.8408 2.3324H15.6327C14.68 2.32968 13.7544 2.64556 13.0061 3.22874H13.3857H15.8347C20.9394 3.22476 25.5227 6.32221 27.3748 11.0278C29.2269 15.7333 27.9676 21.081 24.2041 24.4925L16.9122 30.9789L16.7714 31.1121C16.6331 31.2627 16.5081 31.4248 16.398 31.5966C16.1493 32.0136 16.0143 32.4873 16.0061 32.9714L16.8633 32.2144Z" fill="#EB9D00"/>
<defs>
<linearGradient id="paint0_linear_0_1020" x1="5.22544" y1="13.892" x2="8.93534" y2="16.7506" gradientUnits="userSpaceOnUse">
<stop stop-color="#CB6015"/>
<stop offset="1" stop-color="#E47E1A"/>
</linearGradient>
<linearGradient id="paint1_linear_0_1020" x1="17.2088" y1="35.7235" x2="21.3952" y2="38.1319" gradientUnits="userSpaceOnUse">
<stop stop-color="#CB6016"/>
<stop offset="1" stop-color="#E47E1A"/>
</linearGradient>
</defs>
</svg>
