<svg id="Group_14044" data-name="Group 14044" xmlns="http://www.w3.org/2000/svg" xmlns:xlink="http://www.w3.org/1999/xlink" width="44.551" height="58.216" viewBox="0 0 44.551 58.216">
  <defs>
    <style>
      .cls-1 {
        fill: #fea430;
      }

      .cls-2 {
        clip-path: url(#clip-path);
      }
    </style>
    <clipPath id="clip-path">
      <rect id="Rectangle_4456" data-name="Rectangle 4456" class="cls-1" width="44.551" height="58.216"/>
    </clipPath>
  </defs>
  <g id="Group_14043" data-name="Group 14043" class="cls-2">
    <path id="Path_19706" data-name="Path 19706" class="cls-1" d="M10.44,11.8H2.626l9.2-9.2v7.814A1.385,1.385,0,0,1,10.44,11.8" transform="translate(-1.787 -1.77)"/>
    <path id="Path_19707" data-name="Path 19707" class="cls-1" d="M0,10.871V55.444a2.772,2.772,0,0,0,2.772,2.772H41.779a2.772,2.772,0,0,0,2.772-2.772V2.772A2.772,2.772,0,0,0,41.779,0H11.7V8.646A3.05,3.05,0,0,1,8.653,11.7h0c-5.16,0-8.468,0-8.63,0L0,10.871Zm36.2,1.52h-19a1.109,1.109,0,0,1,0-2.218h19a1.109,1.109,0,0,1,0,2.218M7.577,46.934a1.109,1.109,0,0,1,1.109-1.109H35.865a1.109,1.109,0,1,1,0,2.218H8.686a1.109,1.109,0,0,1-1.109-1.109m0-8.913a1.109,1.109,0,0,1,1.109-1.109H35.865a1.109,1.109,0,1,1,0,2.218H8.686a1.109,1.109,0,0,1-1.109-1.109m0-8.913A1.109,1.109,0,0,1,8.686,28H35.865a1.109,1.109,0,1,1,0,2.218H8.686a1.109,1.109,0,0,1-1.109-1.109m0-8.913a1.109,1.109,0,0,1,1.109-1.109H35.865a1.109,1.109,0,1,1,0,2.218H8.686a1.109,1.109,0,0,1-1.109-1.109"/>
  </g>
</svg>
