<svg id="Group_2" data-name="Group 2" xmlns="http://www.w3.org/2000/svg" xmlns:xlink="http://www.w3.org/1999/xlink" width="25" height="20" viewBox="0 0 64.327 61.665">
  <defs>
    <clipPath id="clip-path">
      <rect id="Rectangle_1" data-name="Rectangle 1" width="64.327" height="61.665" fill="#fff"/>
    </clipPath>
  </defs>
  <g id="Group_1" data-name="Group 1" clip-path="url(#clip-path)">
    <path id="Path_1" data-name="Path 1" d="M50.106,187.264a3.29,3.29,0,0,0-1.915-1.916c-2.106-.688-10.534-3.115-10.534-3.115a4.124,4.124,0,0,0-3.76.749l-3.143,3.035-.012.01a2.331,2.331,0,0,1-2.442.278,56.623,56.623,0,0,1-8.283-7.04,53.877,53.877,0,0,1-6.165-7.64,2.331,2.331,0,0,1,.32-2.437l.011-.012,3.089-3.089a4.124,4.124,0,0,0,.814-3.746s-2.28-8.47-2.932-10.587a3.29,3.29,0,0,0-1.882-1.948,5.576,5.576,0,0,0-2.341-.5H9.455a5.265,5.265,0,0,0-2.28.489c-.256.15-5.08,2.851-6.189,5.864a16.09,16.09,0,0,0-.977,5.864,29.6,29.6,0,0,0,2.769,11.727A55.726,55.726,0,0,0,13.5,187.5a55.009,55.009,0,0,0,12.978,9.846,29.6,29.6,0,0,0,11.677,2.972,16.091,16.091,0,0,0,5.88-.875c3.031-1.057,5.816-5.834,5.97-6.087a5.264,5.264,0,0,0,.528-2.271l.026-1.477a5.576,5.576,0,0,0-.455-2.349" transform="translate(0 -138.674)" fill="#fff"/>
    <path id="Path_2" data-name="Path 2" d="M405.038,33.75a2.469,2.469,0,0,1-2.376-1.808c-2.885-10.387-8.97-18.088-18.086-22.892a37.367,37.367,0,0,0-12.808-4.123,2.468,2.468,0,1,1,.408-4.919,42.069,42.069,0,0,1,14.7,4.676A40.555,40.555,0,0,1,398.605,13.9a42.423,42.423,0,0,1,8.812,16.722,2.47,2.47,0,0,1-2.379,3.129" transform="translate(-343.181 0)" fill="#fff"/>
    <path id="Path_3" data-name="Path 3" d="M401.659,168.825a2.469,2.469,0,0,1-2.376-1.808A22.835,22.835,0,0,0,387.666,152.3a23.922,23.922,0,0,0-8.2-2.65,2.468,2.468,0,1,1,.408-4.919,28.891,28.891,0,0,1,10.093,3.2A27.794,27.794,0,0,1,398,154.253a29.031,29.031,0,0,1,6.034,11.443,2.47,2.47,0,0,1-2.379,3.129" transform="translate(-350.331 -134.417)" fill="#fff"/>
    <path id="Path_4" data-name="Path 4" d="M387.443,294.211a2.469,2.469,0,0,1-2.376-1.808,12.259,12.259,0,0,0-10.22-9,2.468,2.468,0,1,1,.408-4.919,17.169,17.169,0,0,1,6.1,1.925,16.783,16.783,0,0,1,8.466,10.673,2.47,2.47,0,0,1-2.379,3.129" transform="translate(-346.041 -258.637)" fill="#fff"/>
  </g>
</svg>
