<svg xmlns="http://www.w3.org/2000/svg" width="33.207" height="35" viewBox="0 0 33.207 35">
    <defs>
        <style>
            .cls-1{fill:#eda105;stroke:transparent;stroke-miterlimit:10}
        </style>
    </defs>
    <g id="call" transform="translate(-664 -359)">
        <path id="Rectangle_1279" d="M0 0H10V10H0z" class="cls-1" transform="translate(665 377)"/>
        <path id="Rectangle_1280" d="M0 0H9V10H0z" class="cls-1" transform="translate(687 377)"/>
        <path id="Shape" fill="#055ced" d="M25.382 35l-1.059-3.211A6.621 6.621 0 0 0 29 28.521h-4.095a3.342 3.342 0 0 1-3.321-3.356v-6.711a3.342 3.342 0 0 1 3.321-3.354h4.878a13.459 13.459 0 0 0-4.394-8.387 13.182 13.182 0 0 0-17.571 0A13.458 13.458 0 0 0 3.423 15.1H8.3a3.342 3.342 0 0 1 3.321 3.355v6.711A3.342 3.342 0 0 1 8.3 28.521H3.321A3.342 3.342 0 0 1 0 25.165v-8.388A16.812 16.812 0 0 1 4.863 4.914a16.539 16.539 0 0 1 5.278-3.6 16.5 16.5 0 0 1 12.926 0 16.539 16.539 0 0 1 5.277 3.6 16.813 16.813 0 0 1 4.863 11.863v8.392a10.169 10.169 0 0 1-2.2 6.308A9.985 9.985 0 0 1 25.382 35zm-.476-16.546v6.711h4.981v-6.711zm-21.584 0v6.711H8.3v-6.711z" transform="translate(664 359)"/>
    </g>
</svg>
