<svg data-name="Group 13974" xmlns="http://www.w3.org/2000/svg" width="867.892" height="672.337" viewBox="0 0 867.892 672.337">
    <defs>
        <clipPath id="nrt958efpa">
            <path data-name="Rectangle 4446" style="fill:none" d="M0 0h867.892v672.337H0z"/>
        </clipPath>
    </defs>
    <g data-name="Group 13973" style="clip-path:url(#nrt958efpa)">
        <path data-name="Path 19533" d="M362.645 431.333 70.211 262.5c-8.274-4.776-7.237-13.121 2.315-18.636l199.128-114.931c9.552-5.515 24-6.113 32.276-1.337l292.434 168.837c8.274 4.776 7.235 13.121-2.318 18.636L394.921 429.994c-9.552 5.517-24 6.115-32.275 1.339" transform="translate(98.341 189.258)" style="fill:#efefef"/>
        <path data-name="Path 19534" d="M515.336 176.972 222.9 8.135a11.8 11.8 0 0 0-9.91-1.215l.018-.03-.53.2-.131.05-10.567 4.041 9.487 4.645c-.043.177-.1.338-.136.517L163.5 233.166c-2.386 10.851 2.388 23.518 10.662 28.294l285.4 164.777-1.016 12.094 11.55-4.476c3.881-1.816 6.988-5.918 8.271-11.764L526 205.268c2.385-10.851-2.388-23.52-10.662-28.3" transform="translate(247.864 9.626)" style="fill:#173d7a"/>
        <path data-name="Path 19535" d="M505.165 176.972 212.731 8.135a11.8 11.8 0 0 0-9.91-1.215l.018-.03-.53.2-.131.05-10.569 4.042 9.487 4.645c-.043.177-.1.338-.136.517l-31.393 142.9L312.65 270.719l201.75-82.094c-1.939-5.026-5.159-9.3-9.237-11.653" transform="translate(258.034 9.626)" style="fill:#396caa"/>
        <path data-name="Path 19536" d="m311.55 106.384 22.261-9.484c.408-8.619-3.162-17.526-9.02-22.29l-35.236 14.828z" transform="translate(440.623 113.543)" style="fill:#274f89"/>
        <path data-name="Path 19537" d="M459.374 434.723 166.937 265.886c-8.271-4.776-13.045-17.445-10.662-28.3l47.633-216.819c2.383-10.851 11.022-15.776 19.3-11l292.434 168.84c8.274 4.776 13.047 17.443 10.662 28.294L478.67 423.723c-2.386 10.851-11.025 15.776-19.3 11" transform="translate(236.874 12.086)" style="fill:#d4ecff"/>
        <path data-name="Path 19538" d="M445.779 409 170.75 250.287c-7.57-4.373-11.94-15.965-9.759-25.893l43.588-198.411c2.181-9.928 10.087-14.434 17.657-10.064l275.029 158.71c7.57 4.37 11.94 15.963 9.759 25.893l-43.588 198.411c-2.181 9.928-10.087 14.434-17.657 10.064" transform="translate(244.129 21.683)" style="fill:#fff"/>
        <path data-name="Path 19539" d="M445.779 409 170.75 250.287c-7.57-4.373-11.94-15.965-9.759-25.893l43.588-198.411c2.181-9.928 10.087-14.434 17.657-10.064l275.029 158.71c7.57 4.37 11.94 15.963 9.759 25.893l-43.588 198.411c-2.181 9.928-10.087 14.434-17.657 10.064" transform="translate(244.129 21.683)" style="fill:#173d7a"/>
        <path data-name="Path 19540" d="m601.936 275.132-39.974-5.278-258.041-148.978c-8.271-4.779-22.721-4.178-32.273 1.337L88.8 227.739l-24.171-3.19v13.713l.023.005c-.156 3.167 1.647 6.216 5.55 8.47L362.64 415.574c8.271 4.776 22.721 4.178 32.273-1.336L594.041 299.31c5.374-3.1 8.052-7.1 7.9-10.854z" transform="translate(98.349 179.03)" style="fill:#173d7a"/>
        <path data-name="Path 19541" d="m408.053 149.156-18.333-10.584H188.164L88.8 195.9l-24.17-3.192v13.716h.023c-.156 3.17 1.647 6.219 5.55 8.473l292.434 168.839c4.373 2.524 10.47 3.53 16.658 3.122z" transform="translate(98.349 210.868)" style="fill:#396caa"/>
        <path data-name="Path 19542" d="m75.356 161.457-10.727-1.417v13.716h.025c-.159 3.17 1.647 6.219 5.548 8.473l5.154 2.976z" transform="translate(98.347 243.537)" style="fill:#5793ce"/>
        <path data-name="Path 19543" d="M183.974 255.823c7.84 2.973 19.052 2.328 27.424-1.7V223.53h-27.424z" transform="translate(279.958 340.151)" style="fill:#274f89"/>
        <path data-name="Path 19544" d="M362.645 415.6 70.211 246.759c-8.274-4.776-7.237-13.121 2.315-18.636L271.654 113.2c9.552-5.515 24-6.113 32.276-1.337L596.364 280.7c8.274 4.776 7.235 13.118-2.318 18.636L394.921 414.257c-9.552 5.515-24 6.115-32.275 1.339" transform="translate(98.341 165.311)" style="fill:#d4ecff"/>
        <path data-name="Path 19545" d="M594.037 217.387 394.909 332.315c-9.552 5.515-24 6.115-32.273 1.339L70.2 164.814a10.885 10.885 0 0 1-5.142-5.624c-1.294 3.911.356 7.87 5.142 10.634l292.436 168.838c8.271 4.776 22.721 4.179 32.273-1.337L594.037 222.4c6.42-3.707 8.975-8.69 7.459-13.01-.941 2.85-3.435 5.676-7.459 8" transform="translate(98.353 242.245)" style="fill:#fff"/>
        <path data-name="Path 19546" d="m124.579 153.09-13.231-7.638c-1.062-.615-.928-1.687.3-2.393l15.617-9.018a4.61 4.61 0 0 1 4.146-.171l13.231 7.638c1.062.613.928 1.685-.3 2.393l-15.617 9.018a4.609 4.609 0 0 1-4.146.171" transform="translate(168.35 203.083)" style="fill:#b9dff9"/>
        <path data-name="Path 19547" d="m132.682 157.769-13.231-7.638c-1.062-.615-.928-1.685.3-2.393l15.617-9.018a4.609 4.609 0 0 1 4.146-.172l13.231 7.638c1.062.613.928 1.685-.3 2.393l-15.617 9.021a4.609 4.609 0 0 1-4.146.172" transform="translate(180.68 210.203)" style="fill:#b9dff9"/>
        <path data-name="Path 19548" d="m140.785 162.447-13.231-7.638c-1.062-.615-.928-1.685.3-2.393l15.617-9.018a4.609 4.609 0 0 1 4.146-.171l13.231 7.638c1.062.613.928 1.685-.3 2.393l-15.617 9.018a4.61 4.61 0 0 1-4.146.171" transform="translate(193.011 217.322)" style="fill:#b9dff9"/>
        <path data-name="Path 19549" d="m151.992 157.71-13.231-7.638c-1.062-.615-.928-1.685.3-2.393l13.11-7.57a4.609 4.609 0 0 1 4.146-.172l13.231 7.638c1.062.615.928 1.685-.3 2.393l-13.11 7.57a4.61 4.61 0 0 1-4.146.171" transform="translate(210.065 212.315)" style="fill:#b9dff9"/>
        <path data-name="Path 19550" d="m160.095 162.389-13.231-7.638c-1.062-.615-.928-1.687.3-2.393l13.11-7.57a4.609 4.609 0 0 1 4.146-.172l13.231 7.638c1.062.615.928 1.685-.3 2.393l-13.11 7.57a4.61 4.61 0 0 1-4.146.171" transform="translate(222.395 219.435)" style="fill:#b9dff9"/>
        <path data-name="Path 19551" d="m168.2 167.067-13.232-7.638c-1.062-.615-.931-1.685.3-2.393l13.11-7.57a4.6 4.6 0 0 1 4.143-.171l13.231 7.638c1.064.615.931 1.685-.3 2.393l-13.108 7.57a4.609 4.609 0 0 1-4.146.171" transform="translate(234.725 226.554)" style="fill:#b9dff9"/>
        <path data-name="Path 19552" d="m176.3 171.745-13.232-7.638c-1.062-.615-.93-1.685.3-2.393l13.11-7.57a4.609 4.609 0 0 1 4.146-.171l13.229 7.638c1.064.615.931 1.685-.3 2.393l-13.108 7.57a4.609 4.609 0 0 1-4.146.171" transform="translate(247.056 233.673)" style="fill:#b9dff9"/>
        <path data-name="Path 19553" d="m184.4 176.423-13.231-7.638c-1.062-.615-.928-1.685.3-2.393l13.11-7.57a4.609 4.609 0 0 1 4.146-.172l13.231 7.638c1.062.615.928 1.685-.3 2.393l-13.11 7.57a4.609 4.609 0 0 1-4.146.171" transform="translate(259.387 240.791)" style="fill:#b9dff9"/>
        <path data-name="Path 19554" d="m192.507 181.1-13.231-7.638c-1.062-.615-.931-1.685.3-2.393l13.11-7.57a4.609 4.609 0 0 1 4.146-.172l13.231 7.638c1.062.615.928 1.685-.3 2.393l-13.11 7.57a4.61 4.61 0 0 1-4.146.171" transform="translate(271.717 247.911)" style="fill:#b9dff9"/>
        <path data-name="Path 19555" d="m200.61 185.78-13.231-7.638c-1.062-.615-.931-1.685.3-2.393l13.11-7.57a4.609 4.609 0 0 1 4.146-.171l13.229 7.638c1.064.615.931 1.685-.3 2.393l-13.108 7.57a4.609 4.609 0 0 1-4.146.171" transform="translate(284.047 255.03)" style="fill:#b9dff9"/>
        <path data-name="Path 19556" d="m208.713 190.458-13.232-7.638c-1.062-.615-.928-1.687.3-2.393l13.11-7.57a4.609 4.609 0 0 1 4.146-.171l13.229 7.638c1.064.613.931 1.685-.3 2.393l-13.108 7.57a4.609 4.609 0 0 1-4.146.171" transform="translate(296.378 262.149)" style="fill:#b9dff9"/>
        <path data-name="Path 19557" d="m216.816 195.136-13.232-7.636c-1.062-.613-.928-1.685.3-2.393l13.11-7.57a4.609 4.609 0 0 1 4.146-.171L234.37 185c1.062.615.928 1.687-.3 2.393l-13.11 7.57a4.61 4.61 0 0 1-4.146.171" transform="translate(308.709 269.267)" style="fill:#b9dff9"/>
        <path data-name="Path 19558" d="m224.919 199.815-13.231-7.638c-1.062-.615-.931-1.684.3-2.393l13.11-7.57a4.609 4.609 0 0 1 4.146-.171l13.231 7.638c1.062.615.928 1.684-.3 2.393l-13.11 7.57a4.61 4.61 0 0 1-4.146.171" transform="translate(321.039 276.387)" style="fill:#b9dff9"/>
        <path data-name="Path 19559" d="m163.931 155.5-13.231-7.643c-1.062-.615-.928-1.685.3-2.393l13.11-7.57a4.609 4.609 0 0 1 4.146-.172l13.229 7.638c1.064.615.931 1.687-.3 2.393l-13.108 7.57a4.609 4.609 0 0 1-4.146.172" transform="translate(228.232 208.945)" style="fill:#b9dff9"/>
        <path data-name="Path 19560" d="m155.707 150.747-13.231-7.638c-1.062-.615-.928-1.685.3-2.393l13.11-7.57a4.609 4.609 0 0 1 4.146-.171l13.232 7.638c1.062.615.928 1.685-.3 2.393l-13.11 7.57a4.61 4.61 0 0 1-4.146.172" transform="translate(215.718 201.719)" style="fill:#b9dff9"/>
        <path data-name="Path 19561" d="m156.682 151.31-28.5-16.454c-1.062-.613-.928-1.685.3-2.391l13.11-7.57a4.61 4.61 0 0 1 4.146-.171l28.5 16.452c1.062.615.928 1.685-.3 2.393l-13.108 7.57a4.61 4.61 0 0 1-4.146.171" transform="translate(193.971 189.165)" style="fill:#b9dff9"/>
        <path data-name="Path 19562" d="M159.2 143.656 136.072 130.3c-1.062-.613-.928-1.685.3-2.393l13.11-7.568a4.61 4.61 0 0 1 4.146-.174l23.127 13.353c1.062.615.928 1.685-.3 2.393l-13.11 7.57a4.609 4.609 0 0 1-4.146.172" transform="translate(205.974 182.234)" style="fill:#b9dff9"/>
        <path data-name="Path 19563" d="m172.034 160.174-13.234-7.638c-1.062-.615-.928-1.685.3-2.393l13.11-7.57a4.609 4.609 0 0 1 4.146-.171l13.231 7.638c1.062.615.928 1.685-.3 2.393L176.18 160a4.61 4.61 0 0 1-4.146.171" transform="translate(240.563 216.065)" style="fill:#b9dff9"/>
        <path data-name="Path 19564" d="m180.137 164.852-13.231-7.638c-1.062-.615-.928-1.685.3-2.393l13.11-7.57a4.609 4.609 0 0 1 4.146-.171l13.231 7.638c1.062.615.928 1.685-.3 2.393l-13.11 7.57a4.61 4.61 0 0 1-4.146.171" transform="translate(252.894 223.183)" style="fill:#b9dff9"/>
        <path data-name="Path 19565" d="m188.24 169.53-13.231-7.638c-1.062-.615-.928-1.684.3-2.393l13.11-7.57a4.609 4.609 0 0 1 4.146-.171l13.229 7.638c1.064.615.93 1.685-.3 2.393l-13.108 7.57a4.609 4.609 0 0 1-4.146.171" transform="translate(265.224 230.302)" style="fill:#b9dff9"/>
        <path data-name="Path 19566" d="m196.343 174.209-13.231-7.638c-1.062-.615-.928-1.687.3-2.393l13.11-7.57a4.609 4.609 0 0 1 4.146-.171l13.231 7.638c1.062.615.928 1.684-.3 2.393l-13.108 7.57a4.609 4.609 0 0 1-4.146.171" transform="translate(277.555 237.422)" style="fill:#b9dff9"/>
        <path data-name="Path 19567" d="m204.446 178.887-13.232-7.638c-1.062-.615-.928-1.685.3-2.393l13.11-7.57a4.609 4.609 0 0 1 4.146-.171l13.23 7.637c1.062.615.928 1.684-.3 2.393l-13.11 7.57a4.61 4.61 0 0 1-4.146.171" transform="translate(289.885 244.541)" style="fill:#b9dff9"/>
        <path data-name="Path 19568" d="m212.549 183.565-13.232-7.638c-1.062-.615-.928-1.685.3-2.393l13.11-7.57a4.609 4.609 0 0 1 4.146-.171l13.227 7.637c1.062.615.928 1.684-.3 2.393l-13.11 7.57a4.61 4.61 0 0 1-4.146.171" transform="translate(302.216 251.659)" style="fill:#b9dff9"/>
        <path data-name="Path 19569" d="M220.652 188.243 207.42 180.6c-1.062-.615-.928-1.684.3-2.393l13.11-7.57a4.609 4.609 0 0 1 4.146-.171l13.231 7.638c1.062.615.928 1.685-.3 2.393l-13.108 7.57a4.61 4.61 0 0 1-4.146.171" transform="translate(314.546 258.778)" style="fill:#b9dff9"/>
        <path data-name="Path 19570" d="m228.755 192.922-13.231-7.638c-1.062-.615-.931-1.685.3-2.393l13.11-7.57a4.609 4.609 0 0 1 4.146-.171l13.229 7.638c1.064.615.931 1.685-.3 2.393L232.9 192.75a4.609 4.609 0 0 1-4.146.172" transform="translate(326.876 265.898)" style="fill:#b9dff9"/>
        <path data-name="Path 19571" d="m236.858 197.6-13.231-7.638c-1.062-.615-.928-1.685.3-2.393l13.11-7.57a4.609 4.609 0 0 1 4.146-.171l13.231 7.638c1.062.615.928 1.685-.3 2.393L241 197.429a4.61 4.61 0 0 1-4.146.171" transform="translate(339.207 273.017)" style="fill:#b9dff9"/>
        <path data-name="Path 19572" d="M260.7 211.366 231.829 194.7c-1.062-.613-.928-1.684.3-2.393l13.11-7.568a4.61 4.61 0 0 1 4.146-.174l28.871 16.669c1.062.615.928 1.684-.3 2.393l-13.11 7.57a4.61 4.61 0 0 1-4.146.171" transform="translate(351.69 280.224)" style="fill:#b9dff9"/>
        <path data-name="Path 19573" d="m273.759 200.689-24.367-14.069c-1.062-.613-.93-1.685.3-2.393l13.11-7.57a4.617 4.617 0 0 1 4.146-.172l24.367 14.069c1.062.613.928 1.684-.3 2.393l-13.11 7.57a4.61 4.61 0 0 1-4.146.171" transform="translate(378.414 267.933)" style="fill:#b9dff9"/>
        <path data-name="Path 19574" d="m186.224 159.258-13.232-7.638c-1.062-.615-.928-1.685.3-2.393l13.111-7.57a4.609 4.609 0 0 1 4.146-.171l13.229 7.638c1.064.615.931 1.685-.3 2.393l-13.108 7.57a4.609 4.609 0 0 1-4.146.171" transform="translate(262.156 214.671)" style="fill:#b9dff9"/>
        <path data-name="Path 19575" d="m177.921 154.464-13.234-7.638c-1.062-.615-.928-1.685.3-2.393l13.11-7.57a4.609 4.609 0 0 1 4.146-.172l13.234 7.638c1.059.615.925 1.685-.3 2.393l-13.11 7.57a4.6 4.6 0 0 1-4.143.171" transform="translate(249.518 207.376)" style="fill:#b9dff9"/>
        <path data-name="Path 19576" d="m169.615 149.669-13.231-7.638c-1.062-.615-.928-1.685.3-2.393l13.11-7.57a4.609 4.609 0 0 1 4.146-.172l13.231 7.638c1.062.615.928 1.685-.3 2.393l-13.11 7.57a4.61 4.61 0 0 1-4.146.171" transform="translate(236.882 200.079)" style="fill:#b9dff9"/>
        <path data-name="Path 19577" d="m161.31 144.875-13.232-7.638c-1.062-.615-.928-1.685.3-2.393l13.11-7.57a4.609 4.609 0 0 1 4.146-.171l13.232 7.638c1.062.615.928 1.685-.3 2.393l-13.108 7.57a4.609 4.609 0 0 1-4.146.171" transform="translate(224.244 192.784)" style="fill:#b9dff9"/>
        <path data-name="Path 19578" d="M194.327 163.937 181.1 156.3c-1.062-.615-.928-1.685.3-2.393l13.11-7.57a4.609 4.609 0 0 1 4.146-.171l13.232 7.638c1.062.615.928 1.685-.3 2.393l-13.108 7.57a4.61 4.61 0 0 1-4.146.171" transform="translate(274.487 221.791)" style="fill:#b9dff9"/>
        <path data-name="Path 19579" d="m202.43 168.615-13.23-7.638c-1.062-.615-.928-1.687.3-2.393l13.11-7.57a4.609 4.609 0 0 1 4.146-.172l13.231 7.638c1.062.613.928 1.685-.3 2.393l-13.11 7.57a4.61 4.61 0 0 1-4.146.171" transform="translate(286.817 228.91)" style="fill:#b9dff9"/>
        <path data-name="Path 19580" d="m210.533 173.293-13.233-7.638c-1.062-.615-.928-1.685.3-2.393l13.11-7.57a4.609 4.609 0 0 1 4.146-.171l13.231 7.638c1.062.615.928 1.685-.3 2.393l-13.11 7.57a4.609 4.609 0 0 1-4.146.171" transform="translate(299.148 236.028)" style="fill:#b9dff9"/>
        <path data-name="Path 19581" d="m218.636 177.971-13.236-7.638c-1.062-.615-.928-1.685.3-2.393l13.11-7.57a4.609 4.609 0 0 1 4.146-.171l13.231 7.638c1.062.615.928 1.685-.3 2.393l-13.108 7.57a4.61 4.61 0 0 1-4.146.171" transform="translate(311.478 243.147)" style="fill:#b9dff9"/>
        <path data-name="Path 19582" d="m226.739 182.65-13.231-7.638c-1.062-.615-.931-1.684.3-2.393l13.11-7.57a4.609 4.609 0 0 1 4.146-.171l13.229 7.638c1.064.615.931 1.685-.3 2.393l-13.108 7.57a4.61 4.61 0 0 1-4.146.171" transform="translate(323.808 250.267)" style="fill:#b9dff9"/>
        <path data-name="Path 19583" d="m234.842 187.328-13.232-7.638c-1.062-.615-.928-1.687.3-2.393l13.11-7.57a4.609 4.609 0 0 1 4.146-.172l13.231 7.638c1.062.615.928 1.685-.3 2.393l-13.11 7.57a4.61 4.61 0 0 1-4.146.171" transform="translate(336.139 257.386)" style="fill:#b9dff9"/>
        <path data-name="Path 19584" d="m242.945 192.006-13.231-7.638c-1.062-.615-.928-1.685.3-2.393l13.11-7.57a4.609 4.609 0 0 1 4.146-.171l13.231 7.638c1.062.615.928 1.685-.3 2.393l-13.11 7.57a4.609 4.609 0 0 1-4.146.171" transform="translate(348.47 264.504)" style="fill:#b9dff9"/>
        <path data-name="Path 19585" d="m251.048 196.684-13.231-7.638c-1.062-.615-.931-1.685.3-2.393l13.11-7.57a4.609 4.609 0 0 1 4.146-.171l13.232 7.638c1.062.615.928 1.685-.3 2.393l-13.108 7.57a4.61 4.61 0 0 1-4.146.171" transform="translate(360.8 271.623)" style="fill:#b9dff9"/>
        <path data-name="Path 19586" d="m259.151 201.363-13.231-7.638c-1.062-.615-.931-1.685.3-2.393l13.11-7.57a4.609 4.609 0 0 1 4.146-.171l13.229 7.638c1.064.615.93 1.685-.3 2.393l-13.108 7.57a4.61 4.61 0 0 1-4.146.171" transform="translate(373.13 278.743)" style="fill:#b9dff9"/>
        <path data-name="Path 19587" d="m181.957 147.687-13.231-7.638c-1.062-.615-.931-1.685.3-2.393l13.11-7.57a4.609 4.609 0 0 1 4.146-.171l13.229 7.638c1.064.615.931 1.685-.3 2.393l-13.108 7.57a4.61 4.61 0 0 1-4.146.172" transform="translate(255.663 197.063)" style="fill:#b9dff9"/>
        <path data-name="Path 19588" d="m173.9 143.032-13.231-7.638c-1.062-.615-.931-1.685.3-2.393l13.11-7.57a4.6 4.6 0 0 1 4.143-.171l13.234 7.638c1.062.615.928 1.685-.3 2.393l-13.11 7.57a4.609 4.609 0 0 1-4.146.171" transform="translate(243.394 189.979)" style="fill:#b9dff9"/>
        <path data-name="Path 19589" d="m165.832 138.377-13.232-7.638c-1.062-.615-.928-1.684.3-2.393l13.11-7.57a4.609 4.609 0 0 1 4.146-.171l13.232 7.638c1.062.615.928 1.684-.3 2.393l-13.11 7.57a4.61 4.61 0 0 1-4.146.171" transform="translate(231.125 182.896)" style="fill:#b9dff9"/>
        <path data-name="Path 19590" d="m157.769 133.722-13.232-7.638c-1.062-.615-.931-1.685.3-2.393l13.11-7.57a4.609 4.609 0 0 1 4.146-.171l13.229 7.638c1.064.615.931 1.685-.3 2.393l-13.108 7.57a4.61 4.61 0 0 1-4.146.171" transform="translate(218.855 175.812)" style="fill:#b9dff9"/>
        <path data-name="Path 19591" d="m166.06 125.877-13.232-7.638c-1.062-.615-.928-1.685.3-2.393l4.335-2.5a4.612 4.612 0 0 1 4.143-.171l13.231 7.641c1.064.613.931 1.685-.3 2.393l-4.332 2.5a4.609 4.609 0 0 1-4.146.171" transform="translate(231.472 171.585)" style="fill:#b9dff9"/>
        <path data-name="Path 19592" d="m176.582 131.953-13.231-7.638c-1.062-.615-.928-1.687.3-2.393l4.335-2.5a4.6 4.6 0 0 1 4.143-.171l13.231 7.641c1.064.613.931 1.685-.3 2.393l-4.332 2.5a4.61 4.61 0 0 1-4.146.171" transform="translate(247.484 180.829)" style="fill:#b9dff9"/>
        <path data-name="Path 19593" d="m184.611 136.588-13.231-7.638c-1.062-.615-.93-1.685.3-2.393l4.335-2.5a4.612 4.612 0 0 1 4.143-.171l13.231 7.641c1.062.613.931 1.685-.3 2.393l-4.332 2.5a4.61 4.61 0 0 1-4.146.172" transform="translate(259.701 187.884)" style="fill:#b9dff9"/>
        <path data-name="Path 19594" d="m192.64 141.223-13.232-7.638c-1.062-.615-.928-1.685.3-2.393l4.335-2.5a4.612 4.612 0 0 1 4.143-.172l13.232 7.641c1.064.613.931 1.685-.3 2.393l-4.332 2.5a4.609 4.609 0 0 1-4.146.171" transform="translate(271.92 194.938)" style="fill:#b9dff9"/>
        <path data-name="Path 19595" d="m200.669 145.859-13.231-7.638c-1.062-.615-.928-1.685.3-2.393l4.335-2.5a4.612 4.612 0 0 1 4.143-.171l13.231 7.641c1.064.613.931 1.685-.3 2.393l-4.332 2.5a4.609 4.609 0 0 1-4.146.171" transform="translate(284.138 201.992)" style="fill:#b9dff9"/>
        <path data-name="Path 19596" d="m245.494 171.74-13.232-7.64c-1.062-.615-.928-1.687.3-2.393l4.335-2.5a4.6 4.6 0 0 1 4.143-.171l13.232 7.641c1.064.613.93 1.685-.3 2.393l-4.332 2.5a4.61 4.61 0 0 1-4.146.171" transform="translate(352.349 241.374)" style="fill:#b9dff9"/>
        <path data-name="Path 19597" d="m253.523 176.374-13.232-7.638c-1.062-.615-.928-1.685.3-2.393l4.335-2.5a4.612 4.612 0 0 1 4.143-.171l13.231 7.641c1.064.613.93 1.684-.3 2.393l-4.332 2.5a4.61 4.61 0 0 1-4.146.171" transform="translate(364.567 248.428)" style="fill:#b9dff9"/>
        <path data-name="Path 19598" d="m261.552 181.01-13.232-7.638c-1.062-.615-.931-1.685.3-2.393l4.335-2.5a4.6 4.6 0 0 1 4.143-.174l13.231 7.641c1.064.613.931 1.685-.3 2.393l-4.332 2.5a4.609 4.609 0 0 1-4.146.171" transform="translate(376.784 255.483)" style="fill:#b9dff9"/>
        <path data-name="Path 19599" d="m269.581 185.645-13.231-7.638c-1.062-.615-.928-1.685.3-2.393l4.335-2.5a4.612 4.612 0 0 1 4.143-.172l13.232 7.641c1.064.613.93 1.685-.3 2.393l-4.332 2.5a4.61 4.61 0 0 1-4.146.171" transform="translate(389.003 262.536)" style="fill:#b9dff9"/>
        <path data-name="Path 19600" d="m190.06 152.365-13.232-7.638c-1.062-.615-.928-1.685.3-2.393l13.11-7.57a4.609 4.609 0 0 1 4.146-.171l13.232 7.638c1.062.615.928 1.685-.3 2.393l-13.11 7.57a4.61 4.61 0 0 1-4.146.171" transform="translate(267.994 204.182)" style="fill:#b9dff9"/>
        <path data-name="Path 19601" d="m198.163 157.044-13.231-7.638c-1.062-.615-.931-1.685.3-2.393l13.11-7.57a4.609 4.609 0 0 1 4.146-.171l13.231 7.638c1.062.615.928 1.684-.3 2.393l-13.11 7.57a4.609 4.609 0 0 1-4.146.171" transform="translate(280.324 211.302)" style="fill:#b9dff9"/>
        <path data-name="Path 19602" d="m206.266 161.722-13.231-7.638c-1.062-.615-.93-1.685.3-2.393l13.11-7.57a4.609 4.609 0 0 1 4.146-.171l13.231 7.638c1.062.615.928 1.684-.3 2.393l-13.108 7.57a4.609 4.609 0 0 1-4.146.171" transform="translate(292.654 218.42)" style="fill:#b9dff9"/>
        <path data-name="Path 19603" d="m214.369 166.4-13.231-7.638c-1.062-.615-.928-1.684.3-2.393l13.11-7.57a4.609 4.609 0 0 1 4.146-.171l13.229 7.638c1.064.615.931 1.684-.3 2.393l-13.108 7.57a4.609 4.609 0 0 1-4.146.172" transform="translate(304.985 225.539)" style="fill:#b9dff9"/>
        <path data-name="Path 19604" d="m222.472 171.078-13.232-7.638c-1.062-.615-.928-1.684.3-2.393l13.11-7.57a4.609 4.609 0 0 1 4.146-.171l13.232 7.638c1.062.615.928 1.684-.3 2.393l-13.11 7.57a4.61 4.61 0 0 1-4.146.171" transform="translate(317.316 232.658)" style="fill:#b9dff9"/>
        <path data-name="Path 19605" d="m230.575 175.757-13.232-7.638c-1.062-.615-.93-1.685.3-2.393l13.11-7.57a4.609 4.609 0 0 1 4.146-.172l13.232 7.638c1.062.615.928 1.685-.3 2.393l-13.11 7.57a4.61 4.61 0 0 1-4.146.171" transform="translate(329.646 239.778)" style="fill:#b9dff9"/>
        <path data-name="Path 19606" d="m238.678 180.435-13.232-7.635c-1.062-.615-.928-1.687.3-2.393l13.11-7.57a4.609 4.609 0 0 1 4.146-.171l13.231 7.638c1.062.613.928 1.685-.3 2.393l-13.108 7.57a4.609 4.609 0 0 1-4.146.172" transform="translate(341.977 246.896)" style="fill:#b9dff9"/>
        <path data-name="Path 19607" d="m246.781 185.113-13.231-7.638c-1.062-.615-.928-1.685.3-2.393l13.11-7.57a4.609 4.609 0 0 1 4.146-.171l13.231 7.638c1.062.615.928 1.685-.3 2.393l-13.108 7.57a4.61 4.61 0 0 1-4.146.171" transform="translate(354.307 254.015)" style="fill:#b9dff9"/>
        <path data-name="Path 19608" d="m254.884 189.791-13.232-7.638c-1.062-.615-.928-1.685.3-2.393l13.11-7.57a4.609 4.609 0 0 1 4.146-.171l13.232 7.638c1.062.615.928 1.684-.3 2.393l-13.11 7.57a4.609 4.609 0 0 1-4.146.171" transform="translate(366.638 261.134)" style="fill:#b9dff9"/>
        <path data-name="Path 19609" d="m159.265 161.91-38.968-22.5c-1.062-.613-.928-1.684.3-2.393l13.11-7.568a4.6 4.6 0 0 1 4.146-.172l38.968 22.5c1.062.615.928 1.684-.3 2.393l-13.11 7.57a4.609 4.609 0 0 1-4.146.171" transform="translate(181.968 196.094)" style="fill:#b9dff9"/>
        <path data-name="Path 19610" d="m258.812 219.383-38.968-22.5c-1.062-.613-.928-1.685.3-2.393l13.11-7.568a4.6 4.6 0 0 1 4.146-.171l38.968 22.5c1.062.615.928 1.685-.3 2.393l-13.11 7.57a4.609 4.609 0 0 1-4.146.171" transform="translate(333.451 283.552)" style="fill:#b9dff9"/>
        <path data-name="Path 19611" d="m210.876 202.914-13.231-7.638c-1.062-.615-.928-1.685.3-2.393l15.617-9.018a4.61 4.61 0 0 1 4.146-.171l13.231 7.638c1.062.613.928 1.685-.3 2.393l-15.617 9.018a4.609 4.609 0 0 1-4.146.171" transform="translate(299.67 278.901)" style="fill:#b9dff9"/>
        <path data-name="Path 19612" d="m156.817 171.7-21.16-12.218c-1.064-.613-.931-1.684.3-2.393l15.617-9.015a4.6 4.6 0 0 1 4.143-.174l21.162 12.218c1.062.613.928 1.685-.3 2.393l-15.617 9.018a4.609 4.609 0 0 1-4.146.172" transform="translate(205.34 224.441)" style="fill:#b9dff9"/>
        <path data-name="Path 19613" d="m207.854 201.17-21.16-12.218c-1.064-.613-.931-1.685.3-2.393l15.617-9.015a4.6 4.6 0 0 1 4.143-.174l21.162 12.218c1.062.613.928 1.685-.3 2.393L212 201a4.61 4.61 0 0 1-4.146.171" transform="translate(283.004 269.28)" style="fill:#b9dff9"/>
        <path data-name="Path 19614" d="m168.509 178.453-21.162-12.218c-1.062-.613-.928-1.685.3-2.393l15.617-9.015a4.6 4.6 0 0 1 4.143-.174l21.162 12.218c1.062.613.928 1.685-.3 2.393l-15.617 9.018a4.61 4.61 0 0 1-4.146.171" transform="translate(223.13 234.711)" style="fill:#b9dff9"/>
        <path data-name="Path 19615" d="m167.032 154.438 92 53.118a1.26 1.26 0 0 1 0 2.386l-15.927 9.2a4.572 4.572 0 0 1-4.133 0l-92-53.118z" transform="translate(223.651 235.012)" style="fill:#b9dff9"/>
        <path data-name="Path 19616" d="m231.513 199.752 14.739 8.508c.87.5.762 1.382-.245 1.962l-6.39 3.689a3.779 3.779 0 0 1-3.4.141l-14.737-8.511c-.872-.5-.762-1.379.242-1.962l6.39-3.687a3.779 3.779 0 0 1 3.4-.141" transform="translate(336.142 303.453)" style="fill:#b9dff9"/>
        <path data-name="Path 19617" d="m223.343 195.035 14.739 8.508c.87.5.762 1.382-.245 1.962l-6.39 3.689a3.779 3.779 0 0 1-3.4.141l-14.737-8.511c-.873-.5-.762-1.379.242-1.959l6.39-3.689a3.779 3.779 0 0 1 3.4-.141" transform="translate(323.71 296.275)" style="fill:#b9dff9"/>
        <path data-name="Path 19618" d="m215.24 190.357 14.739 8.508c.87.5.762 1.382-.245 1.962l-6.39 3.689a3.779 3.779 0 0 1-3.4.141l-14.737-8.511c-.873-.5-.762-1.379.242-1.959l6.39-3.689a3.779 3.779 0 0 1 3.4-.141" transform="translate(311.379 289.156)" style="fill:#b9dff9"/>
        <path data-name="Path 19619" d="m227.817 192.452 14.74 8.508c.87.5.762 1.382-.245 1.962l-6.39 3.689a3.78 3.78 0 0 1-3.4.141l-14.737-8.511c-.872-.5-.762-1.379.242-1.962l6.39-3.687a3.779 3.779 0 0 1 3.4-.141" transform="translate(330.518 292.344)" style="fill:#b9dff9"/>
        <path data-name="Path 19620" d="m347.158 135.016-132.9-76.728 1.71-8.639 132.9 76.729z" transform="translate(326.045 75.551)" style="fill:#5793ce"/>
        <path data-name="Path 19621" d="M304.068 126.816 211.3 73.257l1.71-8.639 92.769 53.559z" transform="translate(321.539 98.33)" style="fill:#5793ce"/>
        <path data-name="Path 19622" d="M293.036 112.108 212.78 65.772l1.71-8.639 80.256 46.337z" transform="translate(323.792 86.94)" style="fill:#fff"/>
        <path data-name="Path 19623" d="m289.7 110.179-40.132-23.167 1.71-8.639 40.128 23.167z" transform="translate(379.773 119.261)" style="fill:#fcca46"/>
        <path data-name="Path 19624" d="m331.517 117.181-23.48 111.311-84.306-48.652 18.416-36.174z" transform="translate(340.456 178.317)" style="fill:#0a2d60"/>
        <path data-name="Path 19625" d="M173.512 262.864c-23.45-13.539-23.45-47.386 0-60.925l117.873-68.054 119.835 69.189-103.562 59.79a134.14 134.14 0 0 1-134.146 0" transform="translate(237.274 203.736)" style="fill:#5793ce"/>
        <path data-name="Path 19626" d="m230.788 68.363-41.46-23.936L191.1 35.5l41.457 23.936z" transform="translate(288.106 54.02)" style="fill:#d4ecff"/>
        <path data-name="Path 19627" d="m229.325 75.867-41.46-23.936L189.633 43l41.457 23.94z" transform="translate(285.879 65.44)" style="fill:#fff"/>
        <path data-name="Path 19628" d="M80.951 298.619h.043C62.021 288.083 50.176 265 50.07 231.95c-.2-65.424 45.636-145.405 102.19-178.293l40.812-23.734 1.969 1.1 187.2 105.279-47.429 30.826-17.8 13.027-24.512 25.614-3.941 3.594-26.087 39.52-9.572 24.746-7.1 19.675-5.83 41.273-.4 3.566 2.106 17.4 6.024 21.547 8.488 14.6 12.354 14.661z" transform="translate(76.192 45.533)" style="fill:#5793ce"/>
        <path data-name="Path 19629" d="m267.177 71.793.023 6.927-124.228 72.134c2.1-4.827 6.08-8.829 10.145-12.841z" transform="translate(217.564 109.249)" style="fill:#d4ecff"/>
        <path data-name="Path 19630" d="M480.288 179.32 293.078 71.793l-113.339 68.034-14.187 16.515-21.309 37.438-13.385 37.42-4.36 29.252-.547 29.207 18.285 41.775 23.775 13.892 24.448 1.268 29.323-12.17 231.786-136.35z" transform="translate(191.662 109.249)" style="fill:#d4ecff"/>
        <path data-name="Path 19631" d="M80.39 167.443C64.513 158.627 53.66 141 50.467 116.126l190.945 109.44 5.681 20.345 8.491 14.6 12.351 14.661L80.347 167.441z" transform="translate(76.797 176.712)" style="fill:#396caa"/>
        <path data-name="Path 19632" d="M51.8 139.017a118.808 118.808 0 0 1-1.725-20.128c-.015-4.817.247-9.719.719-14.669l190.345 109.1-1.157 8.2-.4 3.566 2.106 17.4 1.785 6.4z" transform="translate(76.192 158.594)" style="fill:#173d7a"/>
        <path data-name="Path 19633" d="m482.81 185.767-.023-6.927-255.563 148.511c-53.249 30.967-96.731 6.049-96.924-55.551s42.973-136.915 96.221-167.884l42.773-24.874-.02-6.927L226.5 96.984c-56.555 32.888-102.395 112.87-102.19 178.293s46.382 91.889 102.937 59z" transform="translate(189.164 109.731)" style="fill:#173d7a"/>
        <path data-name="Path 19634" d="M299.816 162.938 184.747 95.84l-7.217 4.125 115.066 67.1z" transform="translate(270.152 145.843)" style="fill:#5793ce"/>
        <path data-name="Path 19635" d="m277.578 135.53-80.324-46.839-7.217 4.128 80.324 46.836z" transform="translate(289.183 134.964)" style="fill:#5793ce"/>
        <path data-name="Path 19636" d="M260.491 132.785 191 92.266l-7.22 4.126 69.489 40.519z" transform="translate(279.667 140.404)" style="fill:#5793ce"/>
        <path data-name="Path 19637" d="m257.6 131.1-34.744-20.26-7.22 4.126 34.744 20.26z" transform="translate(328.137 168.668)" style="fill:#5793ce"/>
        <path data-name="Path 19638" d="m239.77 358.323 248.256-143.431c6.019-3.475 5.263-9.545-1.687-13.559s-17.463-4.448-23.48-.973L214.6 343.793c-6.019 3.475-5.265 9.545 1.685 13.557s17.463 4.448 23.482.973" transform="translate(320.383 301.322)" style="fill:#efefef"/>
        <path data-name="Path 19639" d="M828.697 467.182a.954.954 0 0 0-1.021-.459l-13.216 2.729 5.107 8.887 9.015-10.044a.951.951 0 0 0 .116-1.112"/>
        <path data-name="Path 19640" d="M356.34 191.192a6.591 6.591 0 0 0-2.973-5.175 2.16 2.16 0 0 0-1.977-.262 84.242 84.242 0 0 0-43.49 11.181l-.956.55 16.1 28.031 4.869-3.16a84.227 84.227 0 0 0 25.552-25.957l2.106-3.364a2.155 2.155 0 0 0 .769-1.841" transform="translate(467.092 282.459)" style="fill:#5793ce"/>
        <path data-name="Path 19641" d="M328.447 211.418c.015-7.29-5.084-16.164-11.388-19.821s-11.429-.714-11.444 6.574S310.7 214.335 317 217.992s11.428.716 11.444-6.574" transform="translate(465.062 289.165)" style="fill:#5793ce"/>
        <path data-name="Path 19642" d="m286.027 277.964 97.823-59.608-16.1-28.032L267 244.841z" transform="translate(406.293 289.621)" style="fill:#5793ce"/>
        <path data-name="Path 19643" d="M292.4 236.868c.018-8.612-6.007-19.1-13.456-23.422s-13.506-.842-13.524 7.769 6.007 19.1 13.458 23.422 13.5.842 13.521-7.769" transform="translate(403.894 321.981)" style="fill:#d4ecff"/>
        <path data-name="Path 19644" d="M290.187 238.139c.018-8.612-6.007-19.1-13.458-23.422s-13.5-.842-13.522 7.769 6.007 19.1 13.458 23.422 13.5.842 13.522-7.769" transform="translate(400.528 323.915)" style="fill:#d4ecff"/>
        <path data-name="Rectangle 4445" transform="rotate(-29.881 1415.942 -702.737)" style="fill:#d4ecff" d="M0 0h149.209v38.2H0z"/>
        <path data-name="Path 19645" d="M238.883 267.617c.018-8.612-6.007-19.1-13.458-23.422s-13.5-.842-13.521 7.769 6.007 19.1 13.458 23.422 13.5.845 13.521-7.769" transform="translate(322.458 368.772)" style="fill:#d4ecff"/>
        <path data-name="Path 19646" d="M231.149 260.616c-.247-5.086-4.322-11.459-9.106-14.235s-8.463-.9-8.218 4.186 4.325 11.459 9.108 14.233 8.463.9 8.216-4.184" transform="translate(325.365 372.972)" style="fill:#396caa"/>
        <path data-name="Path 19647" d="M289.462 237.689c.018-8.612-6.007-19.1-13.456-23.419-3-1.742-5.767-2.2-8.011-1.581 2.456-2.519 6.448-2.779 10.964-.159 7.449 4.322 13.474 14.808 13.456 23.419-.01 5.144-2.184 8.438-5.51 9.351 1.6-1.637 2.549-4.216 2.557-7.611" transform="translate(407.814 320.595)" style="fill:#fff"/>
        <path data-name="Path 19648" d="M294.817 236.644c.018-8.612-6.009-19.1-13.458-23.422-3.727-2.161-7.1-2.37-9.55-.963l-7.331 4.211 3.414 5.941c.557 7.838 5.709 16.81 12.205 21.238l3.414 5.941 7.328-4.211c2.446-1.407 3.964-4.428 3.977-8.735" transform="translate(402.462 321.641)" style="fill:#5793ce"/>
        <path data-name="Path 19649" d="M289.884 238.314c.015-8.612-6.009-19.1-13.458-23.422s-13.506-.842-13.524 7.769 6.007 19.1 13.458 23.422 13.5.842 13.524-7.769" transform="translate(400.064 324.181)" style="fill:#d4ecff"/>
        <path data-name="Path 19650" d="m242.271 261.368-8.211-14.291-27.421 15.756a8.241 8.241 0 1 0 8.211 14.291z" transform="translate(308.151 375.983)" style="fill:#fd9e32"/>
        <path data-name="Path 19651" d="M225.976 257.832a12.876 12.876 0 0 0-5.808-10.1c-3.213-1.866-5.825-.366-5.833 3.351a12.88 12.88 0 0 0 5.8 10.1c3.215 1.866 5.828.366 5.835-3.351" transform="translate(326.16 375.752)" style="fill:#fc8d10"/>
        <path data-name="Path 19652" d="m253.492 255.759-4.068-2.36c-2.335-1.352-5.444-1.052-8.753.85l-14.091 8.1a10.659 10.659 0 0 0-4.834 8.334l-.015 7.013a5.759 5.759 0 0 1-1.447 3.51l.492 3.253-3.472-2.035.01-.005a1.8 1.8 0 0 1-.82-1.715l.015-7.013c.015-6.4 4.537-14.192 10.087-17.38l14.091-8.1c4.706-2.7 9.126-3.132 12.45-1.208l4.062 2.36c2.335 1.354 5.444 1.054 8.755-.85l56.8-32.636a1.825 1.825 0 0 1 1.871-.164l3.462 2.03-3 1.117a5.766 5.766 0 0 1-2.348 3.056l-56.8 32.636c-4.706 2.706-9.131 3.135-12.45 1.208" transform="translate(329.443 327.97)" style="fill:#5793ce"/>
        <path data-name="Path 19653" d="M250.82 254.218c-2.335-1.354-5.444-1.052-8.755.85l-14.091 8.1a10.655 10.655 0 0 0-4.834 8.334l-.015 7.013a5.773 5.773 0 0 1-2.623 4.521c-1.448.832-2.615.154-2.613-1.513l.015-7.013c.013-6.4 4.537-14.195 10.082-17.38l14.091-8.1c4.708-2.706 9.131-3.134 12.452-1.208l4.065 2.36c2.335 1.354 5.444 1.052 8.755-.85l56.8-32.636c1.445-.832 2.615-.154 2.61 1.513a5.782 5.782 0 0 1-2.623 4.524l-56.8 32.636c-4.711 2.706-9.131 3.134-12.452 1.208z" transform="translate(331.567 329.213)" style="fill:#5793ce"/>
        <path data-name="Path 19654" d="m219.919 239.74-.015 7.013c0 .045-.02.1-.023.141a4.485 4.485 0 0 0 .209-1.3l.015-7.013c0-.2.035-.409.053-.613a7.81 7.81 0 0 0-.24 1.768" transform="translate(334.598 362.128)" style="fill:#fff"/>
        <path data-name="Path 19655" d="m218.529 280.482 25.971-14.994c3.132-1.808 2.741-4.968-.878-7.056s-9.086-2.315-12.218-.507l-25.97 14.995c-3.135 1.811-2.741 4.968.875 7.056s9.086 2.315 12.218.507" transform="translate(309.394 390.634)" style="fill:#efefef"/>
        <path data-name="Path 19656" d="M34.706 181.094 0 161.057l34.706-20.038 34.706 20.038z" transform="translate(0 214.592)" style="fill:#efefef"/>
        <path data-name="Path 19657" d="m48.47 164.135-34.707 20.037V144.1l34.707-20.041z" transform="translate(20.944 188.784)" style="fill:#ce9809"/>
        <path data-name="Path 19658" d="M34.706 156.189 0 136.151l34.706-20.038 34.706 20.038z" transform="translate(0 176.693)" style="fill:#fcca46"/>
        <path data-name="Path 19659" d="M34.706 184.172 0 164.135v-40.076L34.706 144.1z" transform="translate(0 188.784)" style="fill:#f2c13e"/>
        <path data-name="Path 19660" d="m352.164 186.764-38.658-22.32 38.658-22.317 38.658 22.317z" transform="translate(477.07 216.279)" style="fill:#efefef"/>
        <path data-name="Path 19661" d="m367.495 167.874-38.658 22.32v-44.638l38.658-22.32z" transform="translate(500.398 187.532)" style="fill:#173d7a"/>
        <path data-name="Path 19662" d="M352.164 159.023 313.506 136.7l38.658-22.317 38.658 22.317z" transform="translate(477.07 174.064)" style="fill:#d4ecff"/>
        <path data-name="Path 19663" d="m352.164 190.193-38.658-22.32v-44.637l38.658 22.32z" transform="translate(477.07 187.532)" style="fill:#5793ce"/>
        <path data-name="Path 19664" d="m132.364 292.1-38.658-22.32 38.658-22.317 38.658 22.317z" transform="translate(142.595 376.576)" style="fill:#efefef"/>
        <path data-name="Path 19665" d="m147.695 273.213-38.658 22.32V250.9l38.658-22.32z" transform="translate(165.923 347.829)" style="fill:#173d7a"/>
        <path data-name="Path 19666" d="m132.364 264.363-38.658-22.32 38.658-22.317 38.658 22.317z" transform="translate(142.595 334.362)" style="fill:#d4ecff"/>
        <path data-name="Path 19667" d="m132.364 295.533-38.658-22.32v-44.637l38.658 22.32z" transform="translate(142.595 347.829)" style="fill:#5793ce"/>
        <path data-name="Path 19668" d="M240.347 173.361c-22.94 13.244-60.133 13.244-83.076 0s-22.94-34.719 0-47.966 60.133-13.244 83.073 0 22.943 34.719 0 47.963" transform="translate(213.142 175.701)" style="fill:#5793ce"/>
        <path data-name="Path 19669" d="M257.552 142.459v-10.8h-3.114c-2.8-4.814-7.454-9.348-14.094-13.181-22.94-13.247-60.136-13.247-83.073 0-6.642 3.833-11.3 8.367-14.094 13.181h-3.109v10.71c-.038 8.71 5.689 17.425 17.2 24.07 22.94 13.247 60.133 13.247 83.073 0 11.474-6.622 17.208-15.3 17.208-23.984" transform="translate(213.143 165.176)" style="fill:#59d300"/>
        <path data-name="Path 19670" d="M240.347 162.16c-22.94 13.244-60.133 13.244-83.076 0s-22.94-34.719 0-47.963 60.133-13.247 83.073 0 22.943 34.719 0 47.963" transform="translate(213.142 158.658)" style="fill:#47ab55"/>
        <path data-name="Path 19671" d="M240.312 141.041c-22.94 13.247-60.136 13.247-83.076 0-10.995-6.347-16.661-14.586-17.117-22.9-.494 9.035 5.172 18.164 17.117 25.061 22.94 13.247 60.136 13.247 83.076 0 11.945-6.9 17.612-16.023 17.115-25.061-.454 8.317-6.12 16.555-17.115 22.9" transform="translate(213.177 179.775)" style="fill:#fff"/>
        <path data-name="Path 19672" d="M153.067 138.643a2.638 2.638 0 0 1-1.548-2.164l.061-22.1c0-1.685 2.375-3.049 5.293-3.046s5.28 1.369 5.278 3.059l-.048 18.323 53.178-6.514c2.857-.351 5.661.706 6.269 2.353s-1.22 3.271-4.075 3.621L157.9 139.47a8.364 8.364 0 0 1-4.431-.615 5.531 5.531 0 0 1-.406-.212" transform="translate(230.57 169.421)" style="fill:#fff"/>
        <path data-name="Path 19673" d="M270.441 101.118a4.112 4.112 0 0 1-5.926 1.826 5.159 5.159 0 0 1-2.121-6.473 4.11 4.11 0 0 1 5.924-1.823 5.154 5.154 0 0 1 2.123 6.471" transform="translate(398.64 143.103)" style="fill:#fd9638"/>
        <path data-name="Path 19674" d="M276.071 104.369a4.114 4.114 0 0 1-5.926 1.826 5.159 5.159 0 0 1-2.121-6.473 4.11 4.11 0 0 1 5.924-1.823 5.153 5.153 0 0 1 2.123 6.471" transform="translate(407.207 148.05)" style="fill:#fff"/>
        <path data-name="Path 19675" d="M281.7 107.619a4.116 4.116 0 0 1-5.926 1.826 5.158 5.158 0 0 1-2.121-6.473 4.11 4.11 0 0 1 5.924-1.823 5.154 5.154 0 0 1 2.123 6.471" transform="translate(415.773 152.996)" style="fill:#d4ecff"/>
        <path data-name="Path 19676" d="M287.329 110.869a4.116 4.116 0 0 1-5.929 1.831 5.159 5.159 0 0 1-2.121-6.473 4.11 4.11 0 0 1 5.924-1.823 5.156 5.156 0 0 1 2.123 6.471" transform="translate(424.339 157.941)" style="fill:#fcca46"/>
        <path data-name="Path 19677" d="m156.248 31.028-1.969-1.1-40.814 23.73c-13.393 7.79-26.176 18.247-37.9 30.5l69.887 40.35L232.8 74.081z" transform="translate(114.986 45.531)" style="fill:#173d7a"/>
        <path data-name="Path 19678" d="m186.1 77.777-12.674-7.318 46.728-26.977c2.209-1.273 2.209-3.346 0-4.622L172.421 11.3a8.862 8.862 0 0 0-8 0l-46.732 26.977-12.674-7.316 46.728-26.98c9.194-5.308 24.156-5.308 33.352 0l47.736 27.562c9.194 5.308 9.194 13.948 0 19.256z" transform="translate(159.804)" style="fill:#fd9638"/>
        <path data-name="Path 19679" d="M266.52 72.889c0-6.776-4.121-14.646-9.2-17.579L172.657 6.428c-2.275-1.314-4.352-1.407-5.959-.509h-.005L65.607 64.658l97.752 73.66 99.588-57.8a4.6 4.6 0 0 0 .88-.512c1.662-1.261 2.691-3.732 2.691-7.116" transform="translate(99.836 8.109)" style="fill:#d4ecff"/>
        <path data-name="Path 19680" d="m112.121 103.458 99.588-57.8a4.6 4.6 0 0 0 .88-.512c1.664-1.261 2.693-3.732 2.693-7.116a22.553 22.553 0 0 0-2.481-9.792L99.278 93.782z" transform="translate(151.074 42.969)" style="fill:#5793ce"/>
        <path data-name="Path 19681" d="M158.489 102.932 73.827 54.053c-5.081-2.935-9.2-10.806-9.2-17.581s4.121-9.89 9.2-6.955L158.489 78.4c5.081 2.935 9.2 10.806 9.2 17.581s-4.12 9.888-9.2 6.955" transform="translate(98.341 43.235)" style="fill:#5793ce"/>
        <path data-name="Path 19682" d="M157.012 78.207 72.35 29.328c-2.338-1.349-4.463-1.407-6.085-.431a6.4 6.4 0 0 1 5.066.893l84.662 48.881c5.081 2.933 9.2 10.806 9.2 17.579 0 3.662-1.21 6.239-3.117 7.386 2.489-.757 4.136-3.571 4.136-7.848 0-6.773-4.12-14.644-9.2-17.579" transform="translate(100.837 42.96)" style="fill:#fff"/>
        <path data-name="Path 19683" d="M104.067 58.054 93.89 52.183a4.392 4.392 0 0 1-1.836-3.505c0-1.352.822-1.972 1.836-1.387l10.178 5.873a4.385 4.385 0 0 1 1.833 3.5c0 1.352-.82 1.972-1.833 1.387" transform="translate(140.081 71.629)" style="fill:#fff"/>
        <path data-name="Path 19684" d="M109.541 28.536c3.071-1.816 3.041-4.708-.068-6.458a12.359 12.359 0 0 0-11.186.116c-3.071 1.816-3.041 4.708.068 6.458a12.359 12.359 0 0 0 11.186-.116" transform="translate(146.089 31.647)" style="fill:#5793ce"/>
        <path data-name="Path 19685" d="M116.3 32.345c3.071-1.816 3.041-4.708-.068-6.458a12.359 12.359 0 0 0-11.186.113c-3.071 1.816-3.041 4.708.068 6.458a12.359 12.359 0 0 0 11.186-.116" transform="translate(156.376 37.444)" style="fill:#fff"/>
        <path data-name="Path 19686" d="M123.061 36.155c3.071-1.816 3.041-4.708-.068-6.458a12.359 12.359 0 0 0-11.186.116c-3.071 1.816-3.041 4.708.068 6.458a12.359 12.359 0 0 0 11.186-.116" transform="translate(166.663 43.241)" style="fill:#fff"/>
        <path data-name="Path 19687" d="m83.462 296.038-77.422-44.7c-4.751-2.741-4.156-7.535 1.331-10.7l74.757-43.159c5.487-3.17 13.786-3.513 18.537-.769l77.422 44.7c4.751 2.744 4.156 7.537-1.331 10.7L102 295.268c-5.485 3.167-13.786 3.513-18.537.769" transform="translate(4.31 296.515)" style="fill:#efefef"/>
        <path data-name="Path 19688" d="M181.261 229.215V202.5l-59.9-.035-20.706-11.953c-4.751-2.744-13.05-2.4-18.535.769l-19.314 11.154-59.957-.035v27.474c-.136 1.856.9 3.649 3.182 4.968l77.422 44.7c4.751 2.744 13.05 2.4 18.537-.769l74.757-43.159c3.165-1.828 4.693-4.194 4.514-6.4" transform="translate(4.318 287.093)" style="fill:#396caa"/>
        <path data-name="Path 19689" d="M92.057 188.668a21.367 21.367 0 0 0-9.938 2.607L62.8 202.426l-59.954-.033v27.474c-.134 1.856.9 3.649 3.185 4.965l77.419 44.7a16.807 16.807 0 0 0 8.6 1.838z" transform="translate(4.318 287.101)" style="fill:#396caa"/>
        <path data-name="Path 19690" d="M9.635 194.115H2.849v27.472c-.134 1.859.9 3.649 3.185 4.968l3.6 2.078z" transform="translate(4.318 295.385)" style="fill:#5793ce"/>
        <path data-name="Path 19691" d="M35.279 243.859c4.1 1.755 10.026 1.659 14.818-.169V212.5H35.279z" transform="translate(53.685 323.36)" style="fill:#5793ce"/>
        <path data-name="Path 19692" d="M83.462 274.9 6.04 230.2c-4.751-2.744-4.156-7.535 1.331-10.7l74.757-43.159c5.487-3.17 13.786-3.513 18.537-.769l77.422 44.7c4.751 2.744 4.156 7.537-1.331 10.7L102 274.136c-5.485 3.167-13.786 3.513-18.537.769" transform="translate(4.31 264.356)" style="fill:#d4ecff"/>
        <path data-name="Path 19693" d="M176.755 196.357 102 239.517c-5.487 3.17-13.786 3.513-18.537.769l-77.422-44.7a7.17 7.17 0 0 1-2.37-2.1c-1.632 2.625-.893 5.475 2.37 7.358l77.422 44.7c4.751 2.744 13.05 2.4 18.537-.769l74.757-43.159c4.264-2.461 5.558-5.9 3.7-8.6a10.341 10.341 0 0 1-3.7 3.341" transform="translate(4.31 293.717)" style="fill:#fff"/>
        <path data-name="Path 19694" d="M66.074 208.887a6.913 6.913 0 0 1-3.127 5.417c-1.727 1-3.127.189-3.127-1.806a6.909 6.909 0 0 1 3.127-5.417c1.727-1 3.127-.189 3.127 1.805" transform="translate(91.03 314.472)" style="fill:#d4ecff"/>
        <path data-name="Path 19695" d="M70.064 206.583A6.913 6.913 0 0 1 66.937 212c-1.727 1-3.127.189-3.127-1.806a6.913 6.913 0 0 1 3.127-5.417c1.727-1 3.127-.189 3.127 1.806" transform="translate(97.101 310.965)" style="fill:#d4ecff"/>
        <path data-name="Path 19696" d="M74.054 204.28a6.913 6.913 0 0 1-3.127 5.417c-1.727 1-3.127.189-3.127-1.806a6.913 6.913 0 0 1 3.127-5.417c1.727-1 3.127-.189 3.127 1.806" transform="translate(103.173 307.461)" style="fill:#d4ecff"/>
        <path data-name="Path 19697" d="m59.39 231.429-36.23-20.918c-2.224-1.284-1.944-3.525.623-5.008l34.984-20.2c2.567-1.483 6.451-1.644 8.675-.361l36.227 20.918c2.224 1.284 1.947 3.525-.623 5.008l-34.981 20.2c-2.567 1.483-6.451 1.644-8.675.361" transform="translate(32.959 280.118)" style="fill:#5793ce"/>
        <path data-name="Path 19698" d="m41.147 199.864-5.013-2.895c-.308-.177-.267-.487.086-.691l4.842-2.8a1.332 1.332 0 0 1 1.2-.048l5.013 2.892c.305.179.267.489-.088.693l-4.839 2.794a1.333 1.333 0 0 1-1.2.05" transform="translate(54.671 294.169)" style="fill:#d4ecff"/>
        <path data-name="Path 19699" d="m23.161 210.512.1.058a5.655 5.655 0 0 1 .519-.356l34.981-20.2c2.567-1.48 6.453-1.642 8.675-.358l36.129 20.857c2.048-1.468 2.156-3.465.1-4.65L67.44 184.947c-2.222-1.284-6.108-1.122-8.675.361L23.784 205.5c-2.567 1.483-2.847 3.725-.623 5.008" transform="translate(32.96 280.12)" style="fill:#396caa"/>
    </g>
</svg>
