<svg xmlns="http://www.w3.org/2000/svg" xmlns:xlink="http://www.w3.org/1999/xlink" width="25" height="20" viewBox="0 0 57.523 61.665">
  <defs>
    <clipPath id="clip-path">
      <rect id="Rectangle_4" data-name="Rectangle 4" width="57.523" height="61.665" transform="translate(0 0)" fill="#fff"/>
    </clipPath>
  </defs>
  <g id="Group_6" data-name="Group 6" transform="translate(0 -0.003)">
    <g id="Group_5" data-name="Group 5" transform="translate(0 0.003)" clip-path="url(#clip-path)">
      <path id="Path_7" data-name="Path 7" d="M2.875,0H31.341V13.4H44.332V26.291L29.941,43.442a1.758,1.758,0,0,0-.415.957l-.869,7.142a1.833,1.833,0,0,0,2.354,1.975l6.882-2.1a1.758,1.758,0,0,0,.87-.575l5.569-6.637V58.793a2.88,2.88,0,0,1-2.875,2.875H2.875A2.88,2.88,0,0,1,0,58.793V2.878A2.88,2.88,0,0,1,2.875,0M31.786,35.327H8.607v-2.75H31.786Zm-5.434,7.666H8.607v-2.75H26.351ZM23.305,50.66H8.607V47.91h14.7Zm12.42-23H8.607V24.91H35.725ZM33.841.631,43.916,10.9H33.841Z" transform="translate(0 -0.003)" fill="#fff" fill-rule="evenodd"/>
      <rect id="Rectangle_3" data-name="Rectangle 3" width="21.274" height="7.85" transform="translate(33.082 42.547) rotate(-50)" fill="#fff"/>
      <path id="Path_8" data-name="Path 8" d="M1439.84,615.388l-2.527-2.121a2.279,2.279,0,0,0-3.205.281l-3.327,3.965,6.013,5.046,3.327-3.965a2.28,2.28,0,0,0-.28-3.205" transform="translate(-1383.128 -592.33)" fill="#fff" fill-rule="evenodd"/>
      <path id="Path_9" data-name="Path 9" d="M918.071,1309.56l-.841,1-.823,6.76a.251.251,0,0,0,.321.269l6.515-1.984.841-1Z" transform="translate(-885.885 -1265.945)" fill="#fff" fill-rule="evenodd"/>
    </g>
  </g>
</svg>
