<svg xmlns="http://www.w3.org/2000/svg" width="31.002" height="36.425" viewBox="0 0 31.002 36.425">
    <g>
        <path fill="#055ced" d="M15.5 36.425L4.54 25.757a14.8 14.8 0 0 1 0-21.338 15.8 15.8 0 0 1 21.921 0 14.8 14.8 0 0 1 0 21.338L15.5 36.425zm0-33.071a12.147 12.147 0 0 0-8.524 3.437 11.515 11.515 0 0 0 0 16.6l8.525 8.3 8.525-8.3a11.515 11.515 0 0 0 0-16.6A12.147 12.147 0 0 0 15.5 3.354z" transform="translate(-664.998 -461) translate(664.998 461)"/>
        <path fill="#eda105" d="M3.445 6.706A3.4 3.4 0 0 1 0 3.353 3.4 3.4 0 0 1 3.445 0a3.4 3.4 0 0 1 3.444 3.353 3.4 3.4 0 0 1-3.444 3.353z" transform="translate(-664.998 -461) translate(677.055 472.734)"/>
    </g>
</svg>
