<svg xmlns="http://www.w3.org/2000/svg" width="32" height="32" viewBox="0 0 32 32" style="background:#fff">
  <defs>
    <linearGradient id="logo-author-a" x1="49.269%" x2="50%" y1="28.161%" y2="44.065%">
      <stop offset="0%" stop-color="#CB6015"/>
      <stop offset="100%" stop-color="#E47E1A"/>
    </linearGradient>
    <linearGradient id="logo-author-b" x1="33.423%" x2="48.089%" y1="48.493%" y2="64.136%">
      <stop offset="0%" stop-color="#CB6016"/>
      <stop offset="100%" stop-color="#E47E1A"/>
    </linearGradient>
  </defs>
  <g fill="none" fill-rule="evenodd">
    <rect width="32" height="32"/>
    <path fill="url(#logo-author-a)" fill-rule="nonzero" d="M12.5024524,8.32677814 C12.0525961,8.57274439 11.6991376,8.91094797 11.4420769,9.3413889 C10.9922206,9.58735515 10.6387621,9.92555873 10.3817014,10.3559997 C9.54625404,10.7864406 9,11.6165767 9,12.6004416 L9,18.5343773 L9.64265181,18.9648182 L9.64265181,12.4467127 C9.64265181,11.985526 9.80331477,11.5858309 10.0603755,11.2476273 C10.0603755,11.3091189 10.0603755,11.3706104 10.0603755,11.432102 L10.0603755,19.2415303 L10.7030273,19.6719712 L10.7030273,11.5858309 C10.7030273,11.3091189 10.7672925,11.0631526 10.8636903,10.8171864 C10.9279554,10.6634575 11.0243532,10.5097286 11.120751,10.3867454 C11.120751,10.448237 11.120751,10.5097286 11.120751,10.5712201 L11.120751,10.7556948 L11.120751,19.979429 L11.7634028,20.4098699 L11.7634028,10.5712201 C11.7634028,10.3867454 11.7955354,10.2330165 11.827668,10.0485419 C11.8598006,9.95630451 11.8919332,9.89481295 11.9240658,9.80257561 C11.9883309,9.64884671 12.0847287,9.4951178 12.1811265,9.37213468 C12.1811265,9.43362624 12.1811265,9.4951178 12.1811265,9.55660937 L12.1811265,20.6865819 L12.8237783,21.1170229 L12.8237783,9.55660937 C12.8237783,9.37213468 12.8559109,9.21840578 12.8880435,9.0339311 C12.9201761,8.94169375 12.9523087,8.88020219 12.9844413,8.78796485 C13.0487064,8.63423595 13.1451042,8.48050704 13.241502,8.35752392 C13.241502,8.41901548 13.241502,8.48050704 13.241502,8.54199861 L13.241502,21.3937349 L13.8841538,21.8241758 L13.8841538,8.54199861 C13.8841538,8.35752392 13.9162864,8.20379502 13.948419,8.01932034 C13.9805516,7.92708299 14.0126842,7.86559143 14.0448167,7.77335409 C14.1733471,7.46589629 14.3982752,7.21993004 14.655336,7.00470958 C14.2697449,7.03545536 13.8841538,7.1276927 13.5628279,7.31216738 C13.1451042,7.52738785 12.7595131,7.89633721 12.5024524,8.32677814 Z"/>
    <path fill="url(#logo-author-b)" fill-rule="nonzero" d="M22.2799407,22.9288194 L22.7343874,22.4952803 L16.7356917,18.1598897 C16.5842095,18.0669884 16.4630237,17.912153 16.3721344,17.7882847 C16.3115415,17.6953835 16.2812451,17.6334494 16.2206522,17.5405481 C16.1297628,17.3237786 16.06917,17.1070091 16.06917,16.8592725 C16.06917,16.7973383 16.06917,16.7354042 16.06917,16.67347 C15.8267984,16.9212066 15.6450198,17.1999103 15.5541304,17.5095811 C15.4935375,17.7263506 15.4632411,17.9431201 15.4632411,18.1598897 C15.4632411,18.3766592 15.4935375,18.6243958 15.5844269,18.8411653 C15.523834,19.0579349 15.4632411,19.2747044 15.4632411,19.4914739 C15.4632411,19.7392105 15.4935375,19.9559801 15.5844269,20.1727496 C15.523834,20.3895191 15.4632411,20.6062887 15.4632411,20.8230582 C15.4632411,21.0707948 15.4935375,21.2875643 15.5844269,21.5043339 C15.4935375,21.7211034 15.4632411,21.9378729 15.4632411,22.1546425 C15.4632411,22.7430169 15.7359091,23.2694572 16.1903557,23.579128 L19.22,25.7158562 L19.6744466,25.2823171 L16.4933202,23.0217206 C16.2206522,22.8359181 16.0388735,22.4952803 16.0085771,22.1546425 L16.0085771,22.1546425 C16.0085771,22.1546425 16.0085771,22.1236754 16.0085771,22.1236754 C16.0994664,22.2165766 16.1600593,22.2785108 16.2509486,22.3404449 L16.2509486,22.3404449 L20.0077075,25.0345805 L20.4621542,24.6010415 L16.6145059,21.8449717 C16.4630237,21.7520705 16.3721344,21.6282022 16.2812451,21.4733668 C16.1903557,21.3185314 16.0994664,21.132729 16.0994664,20.9159594 C16.1600593,20.9778936 16.2509486,21.0398277 16.3115415,21.1017619 L20.7651186,24.2913707 L21.2195652,23.8578316 L16.6750988,20.6372557 C16.6145059,20.5753216 16.553913,20.5443545 16.4933202,20.4514533 C16.4024308,20.3585521 16.3418379,20.2656508 16.2812451,20.1727496 C16.1903557,20.0179142 16.1297628,19.8630788 16.1297628,19.6772764 C16.2206522,19.7701776 16.2812451,19.8321118 16.3721344,19.8940459 L21.5528261,23.610095 L22.0072727,23.176556 L16.7053953,19.3985727 C16.5842095,19.3056715 16.4933202,19.2437373 16.4327273,19.119869 C16.3721344,19.0269678 16.3115415,18.9340666 16.2509486,18.8411653 C16.1903557,18.717297 16.1297628,18.5624616 16.0994664,18.4076263 C16.1903557,18.5005275 16.2812451,18.5624616 16.3721344,18.6553629 C16.3721344,18.6553629 22.2799407,22.9288194 22.2799407,22.9288194 Z"/>
    <path fill="#EB9D00" fill-rule="nonzero" d="M15.9306546,6 L15.8352786,6 C14.8497268,6 13.959551,6.52633874 13.5144631,7.3313274 C13.0693752,7.57901622 12.7196632,7.91958835 12.4653273,8.35304378 C12.0202394,8.6007326 11.6705275,8.94130473 11.4161915,9.37476016 C10.9711036,9.62244898 10.6213917,9.96302111 10.3670557,10.3964765 C9.54046389,10.829932 9,11.6658817 9,12.656637 L9,14.1427699 C9,12.1922205 10.1763038,10.7370487 11.6387355,10.7370487 L11.7341114,10.7370487 L12.1474074,10.7370487 L12.7832472,10.7370487 L13.1965431,10.7370487 L13.832383,10.7370487 L15.9306546,10.7370487 C17.0433744,10.7370487 17.9335502,11.6039595 17.9335502,12.6875981 C17.9335502,13.2139369 17.7110062,13.7402756 17.2659183,14.1427699 L16.1214066,15.1335252 C15.6445267,15.5669806 15.3583987,16.1552416 15.3583987,16.8054247 C15.3583987,17.0221525 15.3901907,17.2698413 15.4537747,17.486569 C15.3901907,17.7032967 15.3583987,17.9200244 15.3583987,18.1367521 C15.3583987,18.3534799 15.3901907,18.6011687 15.4855667,18.8178964 C15.4219827,19.0346241 15.3583987,19.2513518 15.3583987,19.4680795 C15.3583987,19.7157684 15.3901907,19.9324961 15.4855667,20.1492238 C15.4219827,20.3659515 15.3583987,20.5826792 15.3583987,20.7994069 C15.3583987,21.0470958 15.3901907,21.2638235 15.4855667,21.4805512 C15.3901907,21.6972789 15.3583987,21.9140066 15.3583987,22.1307343 C15.3583987,22.7189953 15.6445267,23.245334 16.1214066,23.5549451 L16.5347025,23.833595 C16.1531985,23.523984 15.9306546,22.9976452 15.9306546,22.4713065 C15.9306546,22.0688121 16.0578226,21.6663178 16.2485745,21.418629 C16.2803665,21.3876679 16.3121585,21.3257457 16.3757425,21.2947846 L20.5404937,17.6413745 C21.9711334,16.3410082 22.7341412,14.6071865 22.7341412,12.7495203 C22.7659332,9.00322693 19.7139018,6 15.9306546,6 Z M16.5664945,15.5669806 L17.7110062,14.5762254 C17.7110062,14.5762254 17.7110062,14.5762254 17.7110062,14.5762254 C18.2514701,14.0498866 18.5693901,13.3997035 18.5693901,12.6875981 C18.5693901,11.2633874 17.3930863,10.1178266 15.9306546,10.1178266 L13.832383,10.1178266 L13.1965431,10.1178266 L12.7832472,10.1178266 L12.1474074,10.1178266 L11.7976954,10.1178266 L11.6069435,10.1178266 L11.6069435,10.1178266 L11.6069435,10.1178266 C11.6069435,10.1178266 11.6069435,10.1178266 11.6069435,10.1178266 C11.5751515,10.1178266 11.5433595,10.1178266 11.5115675,10.1178266 C11.4797755,10.1178266 11.4479835,10.1178266 11.4479835,10.1178266 C11.5751515,10.0249433 11.7341114,9.93206 11.8930714,9.8701378 C11.9884474,9.8391767 12.0520314,9.80821559 12.1474074,9.77725449 C12.3063673,9.74629339 12.4971193,9.71533229 12.6878713,9.71533229 L12.7832472,9.71533229 L13.1965431,9.71533229 L13.832383,9.71533229 L15.9306546,9.71533229 C17.6156303,9.71533229 18.982686,11.0466597 18.982686,12.6875981 C18.982686,13.4925868 18.632974,14.2975754 17.9971342,14.8858364 L16.1214066,16.5577359 C16.0896146,16.588697 16.0896146,16.588697 16.0578226,16.6196581 C16.0578226,16.1862027 16.2485745,15.8456306 16.5664945,15.5669806 Z M16.1849905,17.4556079 C16.2803665,17.2698413 16.3757425,17.1150358 16.5347025,16.9911913 L18.4104301,15.3192918 C18.4104301,15.3192918 18.4104301,15.3192918 18.4104301,15.3192918 C19.1734379,14.6071865 19.6185258,13.6783534 19.6185258,12.6875981 C19.6185258,10.7060876 17.9653422,9.09611024 15.9306546,9.09611024 L13.832383,9.09611024 L13.1965431,9.09611024 L12.8468312,9.09611024 L12.6560793,9.09611024 C12.5924953,9.09611024 12.5289113,9.09611024 12.4653273,9.09611024 C12.5924953,9.00322693 12.7514552,8.91034362 12.9104152,8.84842142 C13.0057912,8.81746032 13.0693752,8.78649922 13.1647512,8.75553811 C13.3237111,8.72457701 13.5144631,8.69361591 13.705215,8.69361591 L13.800591,8.69361591 L15.8988626,8.69361591 C18.1560941,8.69361591 20.0000298,10.4893598 20.0000298,12.6875981 C20.0000298,13.8021978 19.5231499,14.8548753 18.664766,15.6289028 L16.3121585,17.7032967 L16.0578226,17.9509855 C16.0578226,17.9509855 16.0260306,17.9819466 16.0260306,17.9819466 C16.0260306,17.79618 16.0896146,17.6104134 16.1849905,17.4556079 Z M16.1849905,18.7559742 C16.2167825,18.694052 16.2803665,18.6321298 16.3121585,18.5702076 C16.3757425,18.5082854 16.4075345,18.4463632 16.4711185,18.384441 L19.1098539,16.0623583 C20.0954057,15.1644863 20.6358696,13.9570033 20.6358696,12.656637 C20.6358696,10.1178266 18.5058061,8.04343276 15.8988626,8.04343276 L13.864175,8.04343276 L13.6734231,8.04343276 C13.6098391,8.04343276 13.5462551,8.04343276 13.4826711,8.04343276 C13.6098391,7.95054945 13.768799,7.85766614 13.927759,7.79574394 C14.1820949,7.70286063 14.4364309,7.64093843 14.7225588,7.64093843 L15.8670706,7.64093843 C18.760142,7.64093843 21.0809575,9.9010989 21.0809575,12.656637 C21.0809575,14.0498866 20.4769097,15.3502529 19.4277739,16.3410082 L16.3757425,19.0346241 L16.0260306,19.3442351 C16.0260306,19.1584685 16.0896146,18.9417408 16.1849905,18.7559742 Z M20.1271977,17.1150358 L16.4075345,20.3659515 L15.9942386,20.7065236 C15.9942386,20.4897959 16.0578226,20.2730682 16.1849905,20.0873016 C16.2485745,19.9944183 16.2803665,19.9324961 16.3439505,19.8705739 C16.3757425,19.8396128 16.3757425,19.8396128 16.4075345,19.8086517 L19.8092778,16.8054247 C19.8092778,16.8054247 19.8092778,16.8054247 19.8092778,16.8054247 C21.0173736,15.690825 21.6850054,14.2356532 21.6850054,12.656637 C21.6850054,9.56052677 19.078062,7.02171638 15.8988626,7.02171638 L14.7543508,7.02171638 C14.6907668,7.02171638 14.6271829,7.02171638 14.5635989,7.02171638 C14.9133108,6.77402756 15.3266067,6.61922205 15.8034866,6.61922205 L15.8988626,6.61922205 C19.3323979,6.61922205 22.0983013,9.34379906 22.0983013,12.656637 C22.1300933,14.3594976 21.4306695,15.9385139 20.1271977,17.1150358 Z"/>
  </g>
</svg>
