<svg width="27" height="27" viewBox="0 0 27 27" fill="none" xmlns="http://www.w3.org/2000/svg">
<path d="M24.8948 13.7542C24.8948 12.8028 24.816 12.1086 24.6455 11.3887H13.5605V15.6825H20.0672C19.9361 16.7496 19.2277 18.3566 17.6534 19.4364L17.6314 19.5802L21.1362 22.2411L21.3791 22.2648C23.6091 20.2464 24.8948 17.2767 24.8948 13.7542Z" fill="#4285F4"/>
<path d="M13.5569 25.0673C16.7446 25.0673 19.4207 24.0387 21.3754 22.2646L17.6498 19.4362C16.6528 20.1176 15.3147 20.5933 13.5569 20.5933C10.4348 20.5933 7.7849 18.5749 6.84029 15.7852L6.70183 15.7967L3.05743 18.5607L3.00977 18.6906C4.95125 22.4703 8.93923 25.0673 13.5569 25.0673Z" fill="#34A853"/>
<path d="M6.83986 15.7846C6.59062 15.0647 6.44637 14.2933 6.44637 13.4962C6.44637 12.6991 6.59062 11.9278 6.82675 11.2079L6.82015 11.0545L3.13006 8.24609L3.00933 8.30237C2.20915 9.87082 1.75 11.6321 1.75 13.4962C1.75 15.3604 2.20915 17.1216 3.00933 18.69L6.83986 15.7846Z" fill="#FBBC05"/>
<path d="M13.557 6.39963C15.7739 6.39963 17.2694 7.33812 18.1221 8.12238L21.4542 4.93408C19.4078 3.06997 16.7447 1.92578 13.557 1.92578C8.93926 1.92578 4.95127 4.52267 3.00977 8.3023L6.8272 11.2078C7.78492 8.41805 10.4348 6.39963 13.557 6.39963Z" fill="#EB4335"/>
</svg>
