<svg width="32" height="32" viewBox="0 0 32 32" fill="none" xmlns="http://www.w3.org/2000/svg">
<circle cx="16" cy="16" r="14" fill="#DD1119"/>
<path d="M15.5732 6.57163C15.5019 6.31517 15.288 6.12815 15.0028 6.03519C14.1 5.80169 10.5827 6.78162 9.94102 7.45695C9.72714 7.66694 9.65584 7.9491 9.72714 8.18041C9.82238 8.39039 14.1712 15.2034 14.1712 15.2034C14.8129 16.2298 15.3353 16.0898 15.5019 16.0198C15.669 15.9733 16.1908 15.8098 16.1435 14.598C16.0483 13.1752 15.6205 6.87512 15.5732 6.57163ZM13.6956 19.3571C14.0521 19.2641 14.2899 18.9371 14.3138 18.5407C14.3372 18.1207 14.1233 17.7472 13.7669 17.6072L12.7705 17.2108C9.3729 15.8109 9.22976 15.7644 9.06322 15.7644C8.802 15.7409 8.56194 15.8809 8.39819 16.1374C8.06401 16.6743 7.92253 18.4007 8.04173 19.5441C8.08907 19.9171 8.16036 20.2441 8.25561 20.4305C8.39819 20.687 8.61207 20.8505 8.87329 20.8505C9.04039 20.8505 9.13451 20.827 12.2954 19.8241L13.6956 19.3571ZM15.4779 20.6405C15.0981 20.4765 14.6703 20.5705 14.4325 20.874L13.7435 21.6904C11.3669 24.4902 11.2716 24.6067 11.2003 24.7702C11.1616 24.8666 11.1454 24.9703 11.153 25.0737C11.1601 25.2322 11.2279 25.3822 11.3429 25.4936C11.8899 26.1466 14.5277 27.1265 15.3832 26.9865C15.5166 26.9699 15.6428 26.9173 15.7476 26.8346C15.8524 26.7519 15.9318 26.6422 15.977 26.5179C16.0249 26.3538 16.0483 26.2379 16.0483 22.9481V21.4569C16.0962 21.107 15.8583 20.7805 15.4779 20.6405ZM23.7479 21.2967C23.6053 21.2032 23.5106 21.1567 20.3503 20.1298C20.3503 20.1298 18.9718 19.6633 18.9484 19.6633C18.6142 19.5233 18.2355 19.6398 17.9737 19.9668C17.7119 20.2938 17.6652 20.7132 17.879 21.0397L18.4254 21.9496C20.303 24.9829 20.4456 25.1929 20.5642 25.3094C20.7781 25.4734 21.0393 25.4964 21.3245 25.3794C22.1327 25.0513 23.8676 22.8596 23.9863 21.9967C24.0331 21.7139 23.9618 21.4569 23.7479 21.294V21.2967ZM18.6627 17.8435C19.164 17.75 23.2488 16.7936 23.5819 16.5601C23.7958 16.4201 23.9161 16.1636 23.8905 15.8601V15.8371C23.7958 14.9502 22.2507 12.6655 21.4905 12.2904C21.2293 12.1739 20.9441 12.1739 20.7302 12.3139C20.5876 12.4074 20.4924 12.5474 18.5675 15.1602L17.688 16.3468C17.4507 16.6268 17.4507 17.0238 17.688 17.3737C17.9258 17.7472 18.1637 17.9326 18.6627 17.8407V17.8435Z" fill="white"/>
</svg>
