<?xml version="1.0" standalone="no"?>
<!DOCTYPE svg PUBLIC "-//W3C//DTD SVG 20010904//EN"
 "http://www.w3.org/TR/2001/REC-SVG-20010904/DTD/svg10.dtd">
<svg version="1.0" xmlns="http://www.w3.org/2000/svg"
 width="512.000000pt" height="512.000000pt" viewBox="0 0 512.000000 512.000000"
 preserveAspectRatio="xMidYMid meet">
<metadata>
Created by potrace 1.14, written by Peter Selinger 2001-2017
</metadata>
<g transform="translate(0.000000,512.000000) scale(0.100000,-0.100000)"
fill="#000000" stroke="none">
<path d="M2433 4738 c-140 -21 -275 -106 -360 -225 -25 -35 -64 -76 -87 -92
-49 -35 -124 -112 -158 -163 -13 -21 -42 -49 -64 -64 -57 -38 -91 -72 -143
-141 -25 -34 -75 -83 -109 -109 -38 -28 -83 -74 -110 -114 -26 -37 -64 -77
-86 -91 -100 -63 -204 -214 -236 -344 -9 -38 -12 -225 -11 -754 1 -388 4 -708
7 -713 3 -4 32 -26 65 -48 l59 -41 0 745 c0 514 3 761 11 798 12 55 51 142 69
153 7 4 10 -280 10 -879 l0 -884 64 -46 c36 -25 66 -46 68 -46 2 0 4 422 4
938 1 839 3 943 17 993 16 54 31 68 69 69 5 0 9 -466 10 -1036 l3 -1036 62
-45 63 -45 0 1091 0 1091 45 0 c42 0 45 -2 46 -27 0 -16 1 -519 1 -1120 1
-992 2 -1094 17 -1106 9 -8 39 -31 68 -50 l52 -36 0 1112 c0 612 0 1138 1
1170 l0 58 43 -3 42 -3 0 -1200 1 -1200 59 -42 c33 -23 63 -42 68 -43 4 0 7
560 7 1245 l0 1245 238 0 c257 0 307 -7 403 -56 153 -77 252 -277 221 -446 -6
-35 -28 -96 -47 -136 -33 -65 -53 -88 -201 -224 -172 -159 -220 -217 -255
-308 -25 -65 -37 -225 -21 -282 7 -27 7 -49 0 -75 -14 -49 -14 -177 0 -226 7
-26 7 -48 0 -75 -14 -47 -13 -188 0 -224 8 -19 7 -47 -5 -105 -14 -72 -14 -87
0 -154 13 -67 13 -81 0 -135 -39 -148 34 -320 176 -416 25 -17 182 -127 347
-245 166 -117 306 -213 311 -213 5 0 28 20 52 44 l43 44 -348 247 c-192 136
-366 264 -386 283 -39 37 -78 108 -78 142 0 26 4 25 48 -9 20 -17 217 -158
436 -315 l399 -285 49 41 c26 23 48 45 48 49 0 4 -193 145 -429 313 -419 299
-491 354 -491 380 0 7 10 22 23 34 l22 21 475 -339 c459 -329 475 -339 495
-322 46 38 75 66 75 73 0 4 -209 156 -465 339 -255 182 -467 335 -469 339 -8
13 51 64 67 58 8 -3 222 -154 476 -336 254 -182 465 -331 469 -331 4 1 29 20
55 44 l48 43 -473 338 c-260 186 -475 340 -478 343 -6 5 60 62 72 62 6 0 660
-469 894 -641 l51 -37 52 46 53 47 -471 339 c-259 186 -471 342 -471 346 0 4
106 105 235 225 253 233 329 314 410 440 107 163 186 364 222 555 23 129 24
400 0 527 -113 616 -592 1095 -1197 1198 -103 18 -276 24 -347 13z m367 -152
c533 -115 927 -516 1041 -1059 28 -133 31 -358 5 -497 -29 -164 -104 -359
-184 -484 -81 -126 -162 -213 -411 -442 l-264 -243 -38 27 c-35 25 -37 28 -21
43 9 9 127 116 261 239 134 123 268 253 298 289 231 279 333 672 267 1031 -48
261 -161 477 -349 665 -177 178 -376 286 -625 340 -49 11 -146 18 -285 21
-115 3 -214 7 -219 8 -16 4 63 48 122 67 48 16 79 19 192 15 74 -2 169 -11
210 -20z m-142 -210 c224 -18 458 -127 635 -295 105 -100 166 -184 232 -316
76 -151 106 -271 112 -447 8 -207 -21 -358 -102 -534 -76 -167 -141 -243 -439
-516 -132 -122 -253 -232 -268 -246 l-27 -25 -36 24 c-19 13 -35 26 -35 29 0
3 123 119 274 258 302 277 367 352 442 509 255 531 11 1177 -528 1398 -146 60
-199 68 -515 72 l-291 5 10 28 c12 36 49 51 148 59 85 7 279 5 388 -3z m97
-245 c378 -101 639 -421 662 -812 13 -213 -50 -420 -179 -593 -29 -38 -171
-178 -331 -326 l-280 -260 -18 26 c-31 49 -12 74 233 300 308 283 334 313 403
453 102 207 106 469 9 679 -85 186 -238 334 -424 409 -114 46 -176 53 -462 53
l-268 0 0 51 0 51 288 -5 c252 -4 297 -7 367 -26z m-790 -28 c-1 -37 -2 -38
-39 -41 -38 -3 -38 -3 -31 25 3 15 7 28 8 29 53 33 64 30 62 -13z m-8 -186
c10 -6 10 -23 4 -79 -2 -14 -81 -9 -82 5 -2 20 3 71 7 78 5 8 56 5 71 -4z
m737 -11 c155 -37 324 -161 404 -298 107 -182 122 -421 38 -611 -49 -111 -102
-173 -332 -384 -124 -115 -230 -209 -235 -211 -15 -6 22 102 52 149 16 25 83
94 149 154 221 198 270 262 309 405 87 313 -100 631 -414 705 -44 11 -129 15
-312 15 l-253 0 0 43 c0 24 2 46 5 48 2 3 120 4 262 3 198 -1 274 -6 327 -18z
m-953 -6 c6 -61 4 -65 -35 -68 -38 -3 -38 -3 -31 25 3 15 7 28 8 29 40 25 57
29 58 14z m927 -1973 l31 -24 -27 -26 c-16 -15 -31 -27 -35 -27 -3 0 -13 14
-22 30 -12 23 -13 35 -5 50 14 25 19 25 58 -3z m178 -129 c16 -12 31 -23 33
-25 3 -2 -10 -19 -28 -37 l-34 -35 -39 26 -39 26 33 34 c17 18 35 33 39 33 3
0 19 -10 35 -22z m-170 -164 c37 -29 37 -34 -6 -64 l-28 -20 -22 30 c-21 29
-21 32 -6 55 9 14 19 25 22 25 3 0 21 -12 40 -26z"/>
</g>
</svg>
