<svg xmlns="http://www.w3.org/2000/svg" width="39.022" height="39.023" viewBox="0 0 39.022 39.023">
  <defs>
    <style>
      .cls-1 {
        fill: #9db0c1;
      }
    </style>
  </defs>
  <path id="Shape_3" data-name="Shape 3" class="cls-1" d="M2669.5,22.988A19.511,19.511,0,1,0,2689.011,42.5,19.533,19.533,0,0,0,2669.5,22.988Zm14.062,8.855c-.232-.038-2.959-.446-3.447-1.05a13.184,13.184,0,0,1,1.677-.949A17.3,17.3,0,0,1,2683.562,31.844Zm-17.175-6.722s.01,0,.01.009c2.253,1.4,4.111,2.742,2.611,2.727a5.416,5.416,0,0,0-3.781,1.185c-1.751,1.171-1.853,1.171-4.306,1.059-2.551-.121-4.321.771-5.412,2.732a3.507,3.507,0,0,0,.032,3.743c.516.757,1.84,1.506,4.172,2.365.321.125,1.036,1.05,1.417,1.361a31.541,31.541,0,0,1,2.829,1.905c.423.455.539,1.468-.706,2.387s-4.483,4.223-3.345,7.359a9.812,9.812,0,0,1-1.626-3.828,5.511,5.511,0,0,0-1.658-3.609c-1-1-1.041-1.04-.79-4.2.144-1.784-1.124-3.67-2.411-5.1A17.724,17.724,0,0,1,2666.387,25.122Zm3.113,35.031A17.648,17.648,0,0,1,2652.665,37.2a4.909,4.909,0,0,1,1.319,2.967c-.288,3.606-.149,4.191,1.329,5.663a3.711,3.711,0,0,1,1.134,2.56c.692,4.822,4.148,7.033,5.24,6.295.957-.65.562-1.733-.032-3.368-.706-1.938,1.737-4.511,2.7-5.231,1.338-.995,2.588-3.582,1.105-4.976-.608-.571-2.155-1.287-2.782-1.83-.59-.511-1.356-1.728-2.327-2.086-2.773-1.017-3.229-1.6-3.275-1.663a1.7,1.7,0,0,1,.051-1.793c.525-.943,1.375-1.89,3.707-1.779,3.006.135,3.257.07,5.421-1.37a3.634,3.634,0,0,1,2.736-.869,2.864,2.864,0,0,0,2.824-1.4c.632-.948-.293-1.993-2.439-3.465h.116a17.57,17.57,0,0,1,10.726,3.642c-1.143.553-2.49,1.426-2.2,2.379.441,1.431,1.659,2.141,4.646,2.708.139.028,1.556.241,2.276.4a17.343,17.343,0,0,1,1.25,2.815,4.423,4.423,0,0,1-2.341,1.524c-.618.167-.994-.2-1.607-1.073-.655-.948-1.4-2.021-3.257-1.436-.511.2-5.472,1.913-5.7,4.943a5.267,5.267,0,0,0,1.779,4.264c.45.479.715.786.669,1.083,0,.376-.878.785-1.031,1.059a3.86,3.86,0,0,0-.3,1.835,3.278,3.278,0,0,1-.4,1.978c-2.039,2.717-2.049,3.577-2.155,4.186-.228,1.3.906,2.294,2.411,2.294a6.18,6.18,0,0,0,3.033-1.142,57.017,57.017,0,0,1,6.4-3.35A17.623,17.623,0,0,1,2669.5,60.153Zm15.878-9.946a67.943,67.943,0,0,0-9.059,4.525c-2.592,1.631-3.526.98-.808-2.648a4.852,4.852,0,0,0,.771-3.094c0-.423-.074-.763.042-.855a3.525,3.525,0,0,0,1.263-1.747,3.109,3.109,0,0,0-1.152-2.647,3.445,3.445,0,0,1-1.277-2.857c.112-1.491,3.893-3.061,4.4-3.307.534-.173.548-.173,1.166.719.53.763,1.631,2.351,3.624,1.808a7.11,7.11,0,0,0,2.42-1.241,17.681,17.681,0,0,1,.376,3.633A17.43,17.43,0,0,1,2685.378,50.207Z" transform="translate(-2649.989 -22.988)"/>
</svg>
