<svg xmlns="http://www.w3.org/2000/svg" width="38.008" height="39.443" viewBox="0 0 38.008 39.443">
  <defs>
    <style>
      .cls-1 {
        fill: #9db0c1;
      }
    </style>
  </defs>
  <path id="Shape_4" data-name="Shape 4" class="cls-1" d="M2562.9,60.792l-5.4-5.351,1.691-1.673,3.364,3.329V48.386h2.39V57.1l3.364-3.329L2570,55.441l-5.406,5.351-.845.836Zm27.21-15.182h-10.287l-3.223,6.88-2.169-.994,10.535-22.487L2595.5,51.5l-2.169.994ZM2589,43.24l-4.033-8.607-4.032,8.607Zm-26.449-7.811V26.717l-3.364,3.33-1.691-1.675,5.4-5.351.846-.836.845.836L2570,28.373l-1.691,1.675-3.364-3.33v8.711Z" transform="translate(-2557.494 -22.185)"/>
</svg>
