<svg xmlns="http://www.w3.org/2000/svg" width="48.203" height="48.204" viewBox="0 0 48.203 48.204">
  <defs>
    <style>
      .cls-1 {
        fill: #f1b344;
      }
    </style>
  </defs>
  <path id="Shape_9_copy_12" data-name="Shape 9 copy 12" class="cls-1" d="M2624.3,8555.313a24.1,24.1,0,1,1,42.472,16.359l-.211.25a.828.828,0,0,1-1.271-.009l-1.423-1.725a.828.828,0,0,1,0-1.053l.142-.177a20.23,20.23,0,1,0-17.064,7.341l-.51-21.186-5.836,7.817a.827.827,0,0,1-1.156.168l-1.768-1.318a.831.831,0,0,1-.168-1.158l9.785-13.106a1.132,1.132,0,0,1,1.777-.043l10.405,12.619a.826.826,0,0,1-.112,1.163l-1.7,1.4a.825.825,0,0,1-1.163-.112l-6.206-7.524.6,25.111a.023.023,0,0,1-.024.026l-1.434.034c-.207,0-.412.008-.618.008A24.269,24.269,0,0,1,2624.3,8555.313Z" transform="translate(-2624.283 -8532)"/>
</svg>
