<svg xmlns="http://www.w3.org/2000/svg" width="62" height="62" viewBox="0 0 62 62">
  <g id="Next" opacity="0.8">
    <path id="Shape_9" data-name="Shape 9" d="M.048,27.7C-.917,44.757,12.877,58.743,29.99,58.743h1.753a.028.028,0,0,0,.028-.029V28.108l7.349,9.349a1.011,1.011,0,0,0,1.417.169l2.116-1.659a1.007,1.007,0,0,0,.171-1.415L30.5,18.879a1.381,1.381,0,0,0-2.17,0L16.008,34.553a1.007,1.007,0,0,0,.17,1.415L18.3,37.627a1.01,1.01,0,0,0,1.416-.169l7.351-9.35V53.924A24.723,24.723,0,1,1,48.1,45.485l-.181.209a1.007,1.007,0,0,0-.03,1.283l1.686,2.145a1.011,1.011,0,0,0,1.549.047l.267-.3A29.389,29.389,0,1,0,.048,27.7Z" transform="translate(1.632 1.626)" fill="#f49138"/>
    <rect id="Rectangle_910" data-name="Rectangle 910" width="62" height="62" fill="none"/>
  </g>
</svg>
