<svg xmlns="http://www.w3.org/2000/svg" width="62" height="62" viewBox="0 0 62 62">
  <g id="Next" transform="translate(-2738.936 -2933.936)">
    <path id="Shape_9" data-name="Shape 9" d="M.048,31.014C-.916,13.971,12.864,0,29.958,0h1.751a.028.028,0,0,1,.029.029V30.6l7.342-9.339a1.01,1.01,0,0,1,1.416-.169l2.114,1.657a1.006,1.006,0,0,1,.171,1.413L30.47,39.823a1.379,1.379,0,0,1-2.168,0L15.991,24.165a1.006,1.006,0,0,1,.17-1.413l2.115-1.657a1.009,1.009,0,0,1,1.415.169l7.344,9.34V4.813a24.7,24.7,0,1,0,21.015,8.43l-.181-.209a1.006,1.006,0,0,1-.03-1.281L49.522,9.61a1.01,1.01,0,0,1,1.548-.047l.267.3A29.358,29.358,0,1,1,.048,31.014Z" transform="translate(2740.63 2935.63)" fill="#f4a55f"/>
    <rect id="Rectangle_910" data-name="Rectangle 910" width="62" height="62" transform="translate(2738.936 2933.936)" fill="none"/>
  </g>
</svg>
