<svg xmlns="http://www.w3.org/2000/svg" width="72.117" height="72.008" viewBox="0 0 72.117 72.008">
  <defs>
    <style>
      .cls-1 {
        fill: #6ac977;
      }
    </style>
  </defs>
  <path id="Shape_9_copy" data-name="Shape 9 copy" class="cls-1" d="M2778.2,2906.629c-20.977,0-37.885-17.145-36.7-38.057a36.057,36.057,0,1,1,62.936,25.955l-.327.367a1.239,1.239,0,0,1-1.9-.06l-2.066-2.629a1.235,1.235,0,0,1,.037-1.572l.221-.256a30.277,30.277,0,1,0-25.787,10.345v-31.648l-9.011,11.461a1.238,1.238,0,0,1-1.736.209l-2.595-2.034a1.234,1.234,0,0,1-.209-1.733l15.106-19.214a1.693,1.693,0,0,1,2.66,0l15.105,19.214a1.234,1.234,0,0,1-.21,1.733l-2.594,2.034a1.24,1.24,0,0,1-1.737-.209l-9.009-11.46v37.517a.036.036,0,0,1-.035.036Z" transform="translate(-2741.438 -2834.621)"/>
</svg>
