<svg xmlns="http://www.w3.org/2000/svg" width="72.117" height="72.007" viewBox="0 0 72.117 72.007">
  <defs>
    <style>
      .cls-1 {
        fill: #6ac977;
      }
    </style>
  </defs>
  <path id="Shape_9" data-name="Shape 9" class="cls-1" d="M2741.5,2974.678c-1.183-20.912,15.726-38.056,36.7-38.056h2.148a.034.034,0,0,1,.035.035v37.516l9.009-11.46a1.239,1.239,0,0,1,1.737-.208l2.594,2.034a1.235,1.235,0,0,1,.21,1.734l-15.105,19.213a1.693,1.693,0,0,1-2.66,0l-15.106-19.213a1.235,1.235,0,0,1,.209-1.734l2.595-2.034a1.238,1.238,0,0,1,1.736.208l9.011,11.461v-31.646a30.306,30.306,0,1,0,25.787,10.344l-.221-.257a1.235,1.235,0,0,1-.037-1.572l2.066-2.63a1.239,1.239,0,0,1,1.9-.058l.327.365a36.025,36.025,0,1,1-62.936,25.956Z" transform="translate(-2741.438 -2936.622)"/>
</svg>
