<?xml version="1.0" encoding="utf-8"?>
<!-- Generator: Adobe Illustrator 28.0.0, SVG Export Plug-In . SVG Version: 6.00 Build 0)  -->
<svg version="1.1" id="Layer_1" xmlns="http://www.w3.org/2000/svg" xmlns:xlink="http://www.w3.org/1999/xlink" x="0px" y="0px"
	 viewBox="0 0 24 24" style="enable-background:new 0 0 24 24;" xml:space="preserve">
<style type="text/css">
	.st0{fill:none;stroke:#FFFFFF;stroke-width:0.5;stroke-miterlimit:10;}
</style>
<g>
	<path class="st0" d="M18.08,3.26H6.53c-1.61,0-2.92,1.31-2.92,2.92v11.55c0,1.61,1.31,2.92,2.92,2.92h11.55
		c1.61,0,2.92-1.31,2.92-2.92V6.18C21,4.57,19.69,3.26,18.08,3.26z M14.55,17.2c-0.31-0.42-0.62-0.85-0.94-1.28
		c-0.68-0.92-1.37-1.85-2.05-2.78c-0.87,0.93-1.75,1.86-2.62,2.78c-0.4,0.43-0.8,0.86-1.2,1.28H6.69c0.4-0.42,0.8-0.85,1.2-1.28
		c0.55-0.59,1.11-1.18,1.67-1.77c0.51-0.55,1.02-1.1,1.54-1.64c-0.52-0.7-1.03-1.4-1.55-2.1c-0.91-1.23-1.81-2.47-2.72-3.7h3.22
		c0.96,1.28,1.92,2.56,2.88,3.84c1.2-1.28,2.4-2.56,3.6-3.84h1.06c-1.4,1.49-2.79,2.98-4.19,4.46c1.19,1.59,2.37,3.17,3.56,4.75
		c0.32,0.43,0.64,0.86,0.96,1.28H14.55z"/>
	<path class="st0" d="M17.92,17.2h-3.37c-0.31-0.42-0.62-0.85-0.94-1.28c-0.68-0.92-1.37-1.85-2.05-2.78
		c-0.87,0.93-1.75,1.86-2.62,2.78c-0.4,0.43-0.8,0.86-1.2,1.28H6.69c0.4-0.42,0.8-0.85,1.2-1.28c0.55-0.59,1.11-1.18,1.67-1.77
		c0.51-0.55,1.02-1.1,1.54-1.64c-0.52-0.7-1.03-1.4-1.55-2.1c-0.91-1.23-1.81-2.47-2.72-3.7h3.22c0.96,1.28,1.92,2.56,2.88,3.84
		c1.2-1.28,2.4-2.56,3.6-3.84h1.06c-1.4,1.49-2.79,2.98-4.19,4.46c1.19,1.59,2.37,3.17,3.56,4.75C17.28,16.35,17.6,16.78,17.92,17.2
		z"/>
</g>
</svg>
