<svg xmlns="http://www.w3.org/2000/svg" width="64" height="64" viewBox="0 0 64 64">
  <defs>
    <style>
      .cls-1 {
        fill: none;
      }

      .cls-2 {
        fill: #fff;
      }
    </style>
  </defs>
  <g id="youtube-line" transform="translate(3 3)">
    <rect id="Rectangle_1415" data-name="Rectangle 1415" class="cls-1" width="64" height="64" transform="translate(-3 -3)"/>
    <path id="Shape" class="cls-2" d="M27,50c-.159,0-15.965-.017-20.534-1.488a8.348,8.348,0,0,1-5.232-6.32C.014,36.688,0,25.116,0,25S.014,13.312,1.234,7.807a8.335,8.335,0,0,1,5.232-6.32C11.035.017,26.841,0,27,0S42.972.017,47.534,1.488a8.331,8.331,0,0,1,5.232,6.32C53.986,13.312,54,24.884,54,25s-.014,11.688-1.234,17.193a8.333,8.333,0,0,1-5.232,6.32C42.972,49.983,27.159,50,27,50ZM27,6.249c-12.462,0-18,.91-19.085,1.26A2.45,2.45,0,0,0,6.464,9.36,90.04,90.04,0,0,0,5.4,25,90.31,90.31,0,0,0,6.464,40.643a2.427,2.427,0,0,0,1.453,1.845C9,42.839,14.54,43.751,27,43.751s18-.91,19.088-1.26a2.442,2.442,0,0,0,1.448-1.851A90.041,90.041,0,0,0,48.6,25,90.165,90.165,0,0,0,47.536,9.36,2.438,2.438,0,0,0,46.08,7.509C45.008,7.159,39.491,6.249,27,6.249ZM21.6,35.938V14.062L37.8,25,21.6,35.935Z" transform="translate(2 4)"/>
  </g>
</svg>
