<svg xmlns="http://www.w3.org/2000/svg" width="30px" height="40px" viewBox="0 0 30 40"><title>icon-dc</title><g id="Page-1" fill="none" fill-rule="evenodd" stroke="none" stroke-linecap="round" stroke-linejoin="round" stroke-width="1"><g id="Artboard-21" stroke="#a09a93" stroke-width="1.66667" transform="translate(-5)"><g id="icon-dc" transform="translate(5)"><path id="Shape" d="M5.8333 16.6667 5.8333 39.1667 24.1666 39.1667 24.1666 16.6667"/><path d="M24.556 37.5 29.167 37.5 29.167 14.601C29.167 13.397 28.517 12.286 27.466 11.695L20 7.5M5.444 37.5.833 37.5.833 14.601C.833 13.397 1.483 12.286 2.534 11.695L10 7.5M15 12.5 15 35.833M15 5.833C16.381 5.833 17.5 4.714 17.5 3.333 17.5 1.953 16.381.833 15 .833 13.619.833 12.5 1.953 12.5 3.333M15 7.5 15 5.833M10 7.5 15.043 12.5 20 7.5z"/></g></g></g></svg>