<svg xmlns="http://www.w3.org/2000/svg" width="40" height="40" fill="none" viewBox="0 0 40 40"><path fill="#a09a93" fill-rule="evenodd" d="M6.66675 8.33333C5.75389 8.33333 5.00008 9.08714 5.00008 10V30C5.00008 30.9129 5.75389 31.6667 6.66675 31.6667H33.3334C34.2463 31.6667 35.0001 30.9129 35.0001 30V10C35.0001 9.08714 34.2463 8.33333 33.3334 8.33333H6.66675ZM1.66675 10C1.66675 7.24619 3.91294 5 6.66675 5H33.3334C36.0872 5 38.3334 7.24619 38.3334 10V30C38.3334 32.7538 36.0872 35 33.3334 35H6.66675C3.91294 35 1.66675 32.7538 1.66675 30V10Z" clip-rule="evenodd"/><path fill="#a09a93" fill-rule="evenodd" d="M1.96793 9.04417C2.49578 8.29009 3.535 8.1067 4.28908 8.63455L20 19.6322L35.7109 8.63455C36.465 8.1067 37.5042 8.29009 38.032 9.04417C38.5599 9.79825 38.3765 10.8375 37.6224 11.3653L20.9558 23.032C20.3819 23.4337 19.6181 23.4337 19.0442 23.032L2.37754 11.3653C1.62346 10.8375 1.44007 9.79825 1.96793 9.04417Z" clip-rule="evenodd"/></svg>