<svg xmlns="http://www.w3.org/2000/svg" width="38px" height="33px" viewBox="0 0 38 33"><title>hd</title><g id="Page-1" fill="none" fill-rule="evenodd" stroke="none" stroke-width="1"><g id="Artboard-2" transform="translate(-1 -4)"><g id="hd"><path id="Shape" fill="#a09a93" fill-rule="nonzero" d="M27.185702,10.6231507 L30.9034349,10.6231507 C31.2758278,10.6231507 31.5777119,10.9173548 31.5777119,11.280274 L31.5777119,14.1278084 L31.8764365,14.1278084 C32.2162902,14.1278084 32.5030254,14.3743 32.5454415,14.702918 L35.1632098,34.9840018 C35.1703009,35.0389391 35.1738567,35.094258 35.1738567,35.1496306 C35.1738567,35.8773556 34.5719262,36.4700009 33.8259413,36.4700009 L22.4749328,36.4700009 C21.8323861,36.4700009 21.280737,36.0261855 21.1537809,35.4114425 L20.1150371,30.381669 L19.0762931,35.4114425 C18.9493371,36.0261855 18.3976879,36.4700009 17.7551412,36.4700009 L6.40413284,36.4700009 C6.3470289,36.4700009 6.28998385,36.4664464 6.23334253,36.4593592 C5.49409241,36.3668621 4.97375289,35.7053792 5.06686424,34.9840018 L7.68463256,14.702918 C7.72704872,14.3743 8.01378384,14.1278084 8.35363754,14.1278084 L8.65228948,14.1278084 L8.65228948,11.280274 C8.65228948,10.9173548 8.95417361,10.6231507 9.32656657,10.6231507 L13.0442994,10.6231507 L12.5947813,7.55657523 L2.13427716,7.55657523 C1.76188419,7.55657523 1.46000004,7.26237113 1.46000004,6.89945192 C1.46000004,6.53653273 1.76188419,6.2423286 2.13427716,6.2423286 L12.4021307,6.2423286 L12.255211,5.24005436 C12.1971814,4.84418151 12.5123804,4.48999977 12.9227113,4.48999977 L16.518856,4.48999977 C16.891249,4.48999977 17.1931331,4.7842039 17.1931331,5.14712309 L17.1931331,6.2423286 L22.8121093,6.2423286 C22.8909178,6.2423286 22.9665684,6.25550485 23.0368683,6.27972018 L23.0368683,5.14712309 C23.0368683,4.7842039 23.3387524,4.48999977 23.7111454,4.48999977 L27.3072902,4.48999977 C27.7176211,4.48999977 28.03282,4.84418151 27.9747904,5.24005436 L27.8278707,6.2423286 L38.0957242,6.2423286 C38.4681173,6.2423286 38.7700014,6.53653273 38.7700014,6.89945192 C38.7700014,7.26237113 38.4681173,7.55657523 38.0957242,7.55657523 L27.6352201,7.55657523 L27.185702,10.6231507 Z M23.0368683,10.6231507 L23.0368683,7.51918365 C22.9665684,7.54339896 22.8909178,7.55657523 22.8121093,7.55657523 L17.1931331,7.55657523 L17.1931331,10.6231507 L23.0368683,10.6231507 Z M15.1703018,11.9373973 L10.0008438,11.9373973 L10.0008438,14.1278084 L30.2291577,14.1278084 L30.2291577,11.9373973 L15.1703018,11.9373973 L13.8217475,11.9373973 C13.4861932,11.9373973 13.2017017,11.6969362 13.1542472,11.3732052 L13.0442994,10.6231507 L15.1703018,11.9373973 Z M22.1378321,15.442055 L18.0921694,15.442055 L18.0921694,20.0419182 C18.0921694,20.4048374 17.7902851,20.6990415 17.4178922,20.6990415 C17.0454992,20.6990415 16.7436151,20.4048374 16.7436151,20.0419182 L16.7436151,15.442055 L12.618915,15.442055 L10.894673,28.8850684 C10.7831614,29.754467 9.44502081,29.5914548 9.55653248,28.7220562 L11.259866,15.442055 L9.32656657,15.442055 L8.94841061,15.442055 L6.40487419,35.1480291 C6.40446427,35.151205 10.1878866,35.1537801 17.7551412,35.1557544 C17.7538429,35.1557544 18.3201343,32.4110287 19.4540152,26.9215775 C19.5992579,26.2182877 20.6308162,26.2182877 20.7760589,26.9215775 L22.4758246,35.1521305 C22.4762826,35.1543487 26.2596549,35.1555566 33.8259413,35.1557544 C33.8246714,35.1557544 32.9765788,28.5845212 31.2816635,15.442055 L30.9034349,15.442055 L28.9701354,15.442055 L30.6734689,28.7220562 C30.7849806,29.5914548 29.4468401,29.754467 29.3353284,28.8850684 L27.6110864,15.442055 L23.4863863,15.442055 L23.4863863,20.0419182 C23.4863863,20.4048374 23.1845022,20.6990415 22.8121093,20.6990415 C22.4397163,20.6990415 22.1378321,20.4048374 22.1378321,20.0419182 L22.1378321,15.442055 Z M14.4065449,10.6231507 L15.8445788,10.6231507 L15.8445788,5.8042464 L13.7001593,5.8042464 L14.4065449,10.6231507 Z M24.3854226,5.8042464 L24.3854226,10.6231507 L25.8234565,10.6231507 L26.5298421,5.8042464 L24.3854226,5.8042464 Z"/><path d="M0 0 40 0 40 40 0 40z"/></g></g></g></svg>