<svg xmlns="http://www.w3.org/2000/svg" width="40" height="40" fill="none" viewBox="0 0 40 40"><path fill="#eb9d00" fill-rule="evenodd" d="M20 9.875C20.2926 9.875 20.5585 10.0452 20.681 10.3109L22.0922 13.3703L25.438 13.767C25.7286 13.8014 25.9726 14.0017 26.063 14.28C26.1534 14.5583 26.0737 14.8638 25.8589 15.0624L23.3853 17.3499L24.0419 20.6546C24.0989 20.9415 23.9838 21.2355 23.7471 21.4075C23.5104 21.5795 23.1953 21.5981 22.9399 21.4552L20 19.8095L17.06 21.4552C16.8047 21.5981 16.4896 21.5795 16.2529 21.4075C16.0161 21.2355 15.9011 20.9415 15.9581 20.6546L16.6147 17.3499L14.1411 15.0624C13.9263 14.8638 13.8466 14.5583 13.937 14.28C14.0274 14.0017 14.2714 13.8014 14.562 13.767L17.9078 13.3703L19.3189 10.3109C19.4415 10.0452 19.7074 9.875 20 9.875ZM20 12.4156L19.094 14.3798C18.9848 14.6166 18.7603 14.7797 18.5013 14.8104L16.3533 15.0651L17.9413 16.5337C18.1329 16.7108 18.2186 16.9747 18.1678 17.2305L17.7462 19.3521L19.6337 18.2956C19.8613 18.1681 20.1387 18.1681 20.3663 18.2956L22.2538 19.3521L21.8322 17.2305C21.7814 16.9747 21.8671 16.7108 22.0586 16.5337L23.6467 15.0651L21.4987 14.8104C21.2397 14.7797 21.0152 14.6166 20.906 14.3798L20 12.4156Z" clip-rule="evenodd"/><path fill="#1d6076" fill-rule="evenodd" d="M8 7C8 5.48122 9.23122 4.25 10.75 4.25H29.25C30.7688 4.25 32 5.48122 32 7V13.625H33C34.5188 13.625 35.75 14.8562 35.75 16.375V20.4597C35.7501 20.4653 35.7501 20.4709 35.75 20.4765V33C35.75 34.5188 34.5188 35.75 33 35.75H7C5.48122 35.75 4.25 34.5188 4.25 33V20.4816C4.24984 20.4726 4.24984 20.4636 4.25 20.4545V16.375C4.25 14.8562 5.48122 13.625 7 13.625H8V7ZM8 15.125H7C6.30964 15.125 5.75 15.6846 5.75 16.375V20.0639L8 21.5405V15.125ZM5.75 21.8581V33C5.75 33.6904 6.30964 34.25 7 34.25H33C33.6904 34.25 34.25 33.6904 34.25 33V21.858L21.5088 30.2194C20.5927 30.8206 19.4072 30.8206 18.4912 30.2194L5.75 21.8581ZM34.25 20.0639V16.375C34.25 15.6846 33.6904 15.125 33 15.125H32V21.5404L34.25 20.0639ZM10.75 5.75C10.0596 5.75 9.5 6.30964 9.5 7V22.4111L19.3066 28.9489C19.7265 29.2288 20.2735 29.2288 20.6934 28.9489L30.5 22.4111V7C30.5 6.30964 29.9404 5.75 29.25 5.75H10.75Z" clip-rule="evenodd"/></svg>