<svg height="74" viewBox="0 0 87 74" width="87" xmlns="http://www.w3.org/2000/svg"><g fill="none" fill-rule="evenodd"><path d="m-750-2813h1440v3510h-1440z" fill="#fff"/><g stroke-width="1.7"><g stroke="#eb9d00" transform="translate(1 1)"><ellipse cx="12.585" cy="12.522" fill="#fff" rx="6.293" ry="6.261"/><path d="m12.585 3.13v-3.13m0 25.043v-3.13m-9.447-9.391h-3.13m25.155 0h-3.13m-16.128 6.64-2.213 2.214m17.787-17.708-2.214 2.212m0 13.282 2.214 2.214m-17.787-17.708 2.213 2.212" stroke-linecap="round" stroke-linejoin="round"/></g><g stroke="#453536" stroke-linecap="round" stroke-linejoin="round"><path d="m4.146 70.663c1.879-1.447 4.082-2.039 6.226-1.776a1.1 1.1 0 0 0 .233.033c1.404.214 2.777.794 4.01 1.744 4.043 3.114 9.267 3.115 13.31 0 3.18-2.45 7.29-2.45 10.469 0 4.042 3.114 9.267 3.115 13.31 0 3.18-2.45 7.289-2.45 10.468 0 2.022 1.556 4.339 2.336 6.655 2.336 2.317 0 4.634-.779 6.656-2.336 1.23-.948 2.6-1.528 4-1.742a1.11 1.11 0 0 0 .248-.035c2.142-.262 4.343.33 6.22 1.776m-38.584-12.401 10.61-27.001m-6.567 27.194 10.285-26.053"/><path d="m10.439 68.826c7.806-6.956 19.356-10.435 34.65-10.435h-.081c15.295 0 26.845 3.479 34.65 10.435m-10.568-57.976c-4.489-1.747-19.45-7.557-36.572 12.727 7.236-1.205 13.332 1.152 18.286 7.071 6.835-1.197 12.738 1.22 17.709 7.252 7.26-1.116 13.093 1.233 17.5 7.046 1.043-17.475-4.598-28.84-16.922-34.096z"/><path d="m50.97 30.434c4.506-10.793 10.48-17.324 17.923-19.593 3.284 6.396 3.155 15.404-.388 27.024"/></g></g></g></svg>