<svg xmlns="http://www.w3.org/2000/svg" width="86" height="74" viewBox="0 0 86 74"><g fill="none" fill-rule="evenodd"><path fill="#fff" d="m-179-2813h1440v3510h-1440z"/><g stroke-linecap="round" stroke-linejoin="round" stroke-width="1.7" transform="translate(1 1)"><g stroke="#453536"><path d="m33.777 58.917 4.318 4.319c.78-.853 1.749-1.302 2.907-1.346 1.159-.045 2.18.373 3.062 1.256l7.236-7.236m13.314-39.245 10.122 10.122c-.853.78-1.301 1.748-1.346 2.907-.045 1.158.374 2.179 1.256 3.061l-7.237 7.237"/><path d="m58.322 11.14 3.365-3.365 21.819 21.82-42.531 42.53-10.02-10.02"/><ellipse cx="51.331" cy="39.95" fill="#fff" rx="9.333" ry="9.257" transform="rotate(-45 51.33 39.95)"/><path fill="#fff" d="m.09 43.033 42.53-42.531 21.82 21.82-42.532 42.53z"/></g><ellipse cx="32.265" cy="32.677" fill="#fff" stroke="#eb9d00" rx="9.333" ry="9.257" transform="rotate(-45 32.265 32.677)"/><path stroke="#eb9d00" d="m18.356 40.678 5.819 5.818m19.847-31.274 5.818 5.818m-35.15 23.274 5.818 5.819m19.847-31.275 5.819 5.819"/><path stroke="#453536" d="m16.198 32.635-7.237 7.237c.883.883 1.302 1.904 1.257 3.062s-.494 2.127-1.346 2.907l10.122 10.122c.78-.853 1.748-1.302 2.907-1.347 1.158-.045 2.178.374 3.061 1.257l7.237-7.237m.131-31.918 7.238-7.237c.883.883 1.903 1.302 3.061 1.257 1.159-.045 2.128-.494 2.908-1.346l10.121 10.122c-.852.78-1.301 1.748-1.346 2.907-.045 1.158.374 2.178 1.257 3.061l-7.237 7.237"/></g></g></svg>