<svg xmlns="http://www.w3.org/2000/svg" width="38" height="38" fill="none" viewBox="0 0 38 38"><path fill="#00a3ad" fill-rule="evenodd" d="M30.6679 12.334H32.3339C35.1679 12.334 37.3339 14.5 37.3339 17.334V25.668C37.3339 28.502 35.1679 30.668 32.3339 30.668H30.6679V35.668C30.6679 36.668 30.0019 37.334 29.0019 37.334H9.00192C8.00192 37.334 7.33592 36.668 7.33592 35.668V30.668H5.66992C2.83592 30.668 0.669922 28.502 0.669922 25.668V17.334C0.669922 14.5 2.83592 12.334 5.66992 12.334H7.33592V2.33397C7.33592 1.33397 8.00192 0.667969 9.00192 0.667969H29.0019C30.0019 0.667969 30.6679 1.33397 30.6679 2.33397V12.334ZM27.3319 3.99997H10.6659V12.334H27.3319V3.99997ZM27.3339 34H10.6679V24H27.3339V34ZM32.3339 27.332C33.3339 27.332 33.9999 26.666 33.9999 25.666H34.0019V17.332C34.0019 16.332 33.3359 15.666 32.3359 15.666H5.66992C4.66992 15.666 4.00392 16.332 4.00392 17.332V25.666C4.00392 26.666 4.66992 27.332 5.66992 27.332H7.33592V22.332C7.33592 21.332 8.00192 20.666 9.00192 20.666H29.0019C30.0019 20.666 30.6679 21.332 30.6679 22.332V27.332H32.3339Z" clip-rule="evenodd"/></svg>