<svg xmlns="http://www.w3.org/2000/svg" width="40px" height="40px" viewBox="0 0 40 40"><title>Artboard 20</title><g id="Artboard-20" fill="none" fill-rule="evenodd" stroke="none" stroke-width="1"><g id="icon-wf"><path id="Shape" stroke="#a09a93" stroke-linecap="round" stroke-linejoin="round" stroke-width="1.66667" d="M10.6692,32.2501 L35,32.2501 C35.9205,32.2501 36.6666,32.9963 36.6666,33.9167 L36.6666,35.1667 C36.6666,36.0872 35.9205,36.8334 35,36.8334 L7.91665,36.8334 C5.38534,36.8334 3.33331,34.7814 3.33331,32.2501 C3.33331,29.7188 5.38534,27.6667 7.91665,27.6667 L35,27.6667 C35.9205,27.6667 36.6666,28.4129 36.6666,29.3334 L36.6666,32.2501"/><path stroke="#a09a93" stroke-linecap="round" stroke-linejoin="round" stroke-width="1.66667" d="M10.6692,23.0834 L10.9565,23.0834 L35,23.0834 C35.9205,23.0834 36.6666,23.8296 36.6666,24.7501 L36.6666,26.0001 C36.6666,26.9205 35.9205,27.6667 35,27.6667 L7.91665,27.6667 C5.38534,27.6667 3.33331,25.6147 3.33331,23.0834 C3.33331,20.5521 5.38534,18.5001 7.91665,18.5001 L35,18.5001 C35.9205,18.5001 36.6666,19.2463 36.6666,20.1667 L36.6666,23.0834"/><rect id="Rectangle-path" width="26.6667" height="5" x="7.5" y="13.5001" stroke="#a09a93" stroke-linecap="round" stroke-linejoin="round" stroke-width="1.66667" rx="2.5"/><path stroke="#a09a93" stroke-linecap="round" stroke-linejoin="round" stroke-width="1.66667" d="M15,9.33341 L9.58333,9.33341 C8.43274,9.33341 7.5,8.40067 7.5,7.25008 C7.5,6.09949 8.43274,5.16675 9.58333,5.16675 L32.0833,5.16675 C33.2339,5.16675 34.1667,6.09949 34.1667,7.25008 C34.1667,8.40067 33.2339,9.33341 32.0833,9.33341 L18.75,9.33341"/><path stroke="#a09a93" stroke-linecap="round" stroke-linejoin="round" stroke-width="1.66667" d="M15,9.33339 L9.58333,9.33339 C8.43274,9.33339 7.5,10.26613 7.5,11.4167 C7.5,12.5673 8.43274,13.5001 9.58333,13.5001 L32.0833,13.5001 C33.2339,13.5001 34.1667,12.5673 34.1667,11.4167 C34.1667,10.26613 33.2339,9.33339 32.0833,9.33339 L18.75,9.33339"/><path stroke="#a09a93" stroke-linecap="round" stroke-linejoin="round" stroke-width="1.66667" d="M16.6666 11.0001 22.5 5.16673 10.8333 5.16673z"/><path d="M0 0 40 0 40 40 0 40z"/></g></g></svg>