<?xml version="1.0" encoding="utf-8"?>
<svg fill="currentColor" height="24" viewBox="0 0 24 24" width="24" xmlns="http://www.w3.org/2000/svg">
<path clip-rule="evenodd" d="M8.94704 2.67887C8.8592 2.41982 8.66903 2.20798 8.42075 2.09282C8.1709 1.97694 7.88432 1.96924 7.62861 2.07152L3.88583 3.56864C2.74685 4.02423 2 5.12735 2 6.35407V10.5C2 10.794 2.12933 11.073 2.35363 11.263C2.57792 11.453 2.87445 11.5347 3.1644 11.4864L5.4656 11.1029L5.54376 11.6109C5.83834 13.5257 5.83834 15.4743 5.54376 17.3891L5.01163 20.8479C4.96726 21.1363 5.05105 21.4297 5.24103 21.6511C5.43101 21.8726 5.70823 22 6 22H18C18.2918 22 18.569 21.8726 18.759 21.6511C18.9489 21.4297 19.0327 21.1363 18.9884 20.8479L18.4562 17.3891C18.1617 15.4743 18.1617 13.5257 18.4562 11.6109L18.5344 11.1029L20.8356 11.4864C21.1256 11.5347 21.4221 11.453 21.6464 11.263C21.8707 11.073 22 10.794 22 10.5V6.35407C22 5.12735 21.2531 4.02423 20.1142 3.56864L16.3714 2.07152C16.1157 1.96924 15.8291 1.97694 15.5793 2.09282C15.331 2.20798 15.1408 2.41983 15.053 2.67889L15.0492 2.68944C15.0447 2.70162 15.0364 2.72351 15.0242 2.75371C14.9997 2.8143 14.9596 2.90719 14.9024 3.02154C14.787 3.25247 14.6081 3.55819 14.3568 3.85982C13.8602 4.45567 13.1189 5 12 5C10.8811 5 10.1398 4.45567 9.64322 3.85982C9.39186 3.55819 9.21302 3.25247 9.09755 3.02154C9.04038 2.90719 9.0003 2.8143 8.97577 2.75371C8.96355 2.72351 8.95531 2.70162 8.95084 2.68944L8.94704 2.67887ZM11 6.90452V9C11 9.55228 11.4477 10 12 10C12.5523 10 13 9.55228 13 9V6.90452C14.3385 6.64085 15.2821 5.87357 15.8932 5.14018C16.144 4.83926 16.343 4.54017 16.4968 4.27577L19.3714 5.42559C19.751 5.57745 20 5.94516 20 6.35407V9.31954L18.8385 9.12596L18.9884 8.15206C19.0723 7.60619 18.6979 7.09561 18.1521 7.01163C17.6062 6.92765 17.0956 7.30208 17.0116 7.84794L16.4795 11.3068C16.1539 13.4232 16.1539 15.5768 16.4795 17.6932L16.8344 20H7.16561L7.5205 17.6932C7.8461 15.5768 7.8461 13.4232 7.5205 11.3068L6.98837 7.84794C6.90439 7.30208 6.39381 6.92765 5.84794 7.01163C5.30208 7.09561 4.92765 7.60619 5.01163 8.15206L5.16146 9.12596L4 9.31954V6.35407C4 5.94516 4.24895 5.57745 4.62861 5.42559L7.50316 4.27577C7.65703 4.54017 7.85601 4.83926 8.10678 5.14018C8.71793 5.87357 9.66149 6.64085 11 6.90452Z" fill="currentColor" fill-rule="evenodd"/>
</svg>
