<svg width="24" height="24" fill="none" xmlns="http://www.w3.org/2000/svg"><path d="M5.723 1.046c-.356.104-.656.462-.706.84-.019.142.153.878.942 4.034.822 3.285.962 3.887.94 4.039-.015.099-.225.675-.467 1.28-.784 1.961-.962 2.496-1.169 3.521-.235 1.168-.241 1.283-.242 4.52-.001 2.8.003 2.989.072 3.126.093.187.314.408.501.501.139.07.437.073 6.406.073 5.943 0 6.267-.004 6.404-.072.19-.094.382-.285.489-.486l.087-.162-.001-2.98c-.001-3.237-.007-3.352-.242-4.52-.21-1.039-.38-1.549-1.213-3.63l-.484-1.21.987-3.947c.969-3.879.986-3.951.942-4.161a1.024 1.024 0 0 0-.732-.772c-.119-.029-.719-.04-1.837-.032l-1.66.012-.216.119c-.181.101-.256.181-.466.5-.413.629-.905 1.066-1.411 1.253-.177.066-.319.084-.647.084s-.47-.018-.647-.084c-.506-.187-.998-.624-1.411-1.253-.21-.319-.285-.399-.466-.5L9.26 1.02l-1.7-.007c-1.044-.005-1.753.008-1.837.033M8.56 3.149c.185.274.861.913 1.224 1.156.703.47 1.361.669 2.216.669.855 0 1.513-.199 2.216-.669.363-.243 1.039-.882 1.224-1.156l.1-.148.59-.001c.324 0 .59.009.59.02 0 .098-1.502 6.011-1.535 6.046-.062.064-1.337.206-2.346.261-.627.034-1.051.034-1.678 0-1.009-.055-2.284-.197-2.346-.261C8.782 9.031 7.28 3.118 7.28 3.02c0-.011.265-.02.59-.02l.59.001.1.148m1.08 8.058c.65.079.935.09 2.34.092 1.441.001 1.677-.008 2.38-.094.429-.052.831-.097.893-.1.111-.005.119.01.572 1.135.694 1.725.888 2.356 1.065 3.457.076.478.085.729.1 2.913l.016 2.39H6.994l.016-2.39c.015-2.19.024-2.434.101-2.91.175-1.085.35-1.666.97-3.22l.524-1.314c.031-.08.056-.091.166-.071.071.012.462.063.869.112" fill-rule="evenodd" fill="currentColor"/></svg>
