<?xml version="1.0" encoding="utf-8"?>
<svg fill="currentColor" height="24" viewBox="0 0 24 24" width="24" xmlns="http://www.w3.org/2000/svg">
<path clip-rule="evenodd" d="M7.00001 2C6.44772 2 6.00001 2.44772 6.00001 3V5.93363L4.00878 20.8678C3.97068 21.1536 4.05774 21.4418 4.24762 21.6587C4.43751 21.8756 4.71175 22 5.00001 22H10C10.4767 22 10.8871 21.6635 10.9806 21.1961L12 16.099L13.0194 21.1961C13.1129 21.6635 13.5233 22 14 22H19C19.2883 22 19.5625 21.8756 19.7524 21.6587C19.9423 21.4418 20.0293 21.1536 19.9912 20.8678L18 5.93363V3C18 2.44772 17.5523 2 17 2H7.00001ZM8.00001 6V4H16V6H8.00001ZM7.74219 8L6.14219 20H9.1802L11.0194 10.8039C11.1129 10.3365 11.5233 10 12 10C12.4767 10 12.8871 10.3365 12.9806 10.8039L14.8198 20H17.8578L16.2578 8H7.74219Z" fill="currentColor" fill-rule="evenodd"/>
</svg>
