<?xml version="1.0" encoding="utf-8"?>
<svg fill="currentColor" height="24" viewBox="0 0 24 24" width="24" xmlns="http://www.w3.org/2000/svg">
<path clip-rule="evenodd" d="M8.62861 2.07152C9.04843 1.90359 9.5287 2.03827 9.8 2.4L12 5.33333L14.2 2.4C14.4713 2.03827 14.9516 1.90359 15.3714 2.07152L19.1142 3.56863C20.2531 4.02422 21 5.12735 21 6.35406V19C21 19.5523 20.5523 20 20 20H18V21C18 21.5523 17.5523 22 17 22H12H7C6.44772 22 6 21.5523 6 21V20H4C3.44772 20 3 19.5523 3 19V6.35406C3 5.12735 3.74685 4.02422 4.88583 3.56863L8.62861 2.07152ZM6 18V8C6 7.44771 6.44772 7 7 7C7.55228 7 8 7.44771 8 8V20H11V7.33333L8.65983 4.2131L5.62861 5.42559C5.24895 5.57745 5 5.94516 5 6.35406V18H6ZM13 20H16V8C16 7.44771 16.4477 7 17 7C17.5523 7 18 7.44771 18 8V18H19V6.35406C19 5.94516 18.751 5.57745 18.3714 5.42559L15.3402 4.2131L13 7.33333V20Z" fill="currentColor" fill-rule="evenodd"/>
</svg>
