<?xml version="1.0" encoding="utf-8"?>
<svg fill="currentColor" height="24" viewBox="0 0 24 24" width="24" xmlns="http://www.w3.org/2000/svg">
<path clip-rule="evenodd" d="M15.1247 10.2196C14.7598 10.5115 14.2403 10.5116 13.8747 10.2191C12.779 9.34261 11.221 9.34261 10.1253 10.2191C9.75972 10.5116 9.24016 10.5115 8.8753 10.2196L7.6247 9.21914C7.19343 8.87413 6.56414 8.94405 6.21913 9.37531C5.87412 9.80657 5.94404 10.4359 6.3753 10.7809L7.62591 11.7814C8.72194 12.6582 10.2794 12.6571 11.3747 11.7809C11.7399 11.4887 12.2601 11.4887 12.6253 11.7809C13.7206 12.6571 15.2781 12.6582 16.3741 11.7814L17.6247 10.7809C18.056 10.4359 18.1259 9.80657 17.7809 9.37531C17.4359 8.94405 16.8066 8.87413 16.3753 9.21914L15.1247 10.2196Z" fill="currentColor" fill-rule="evenodd"/>
<path clip-rule="evenodd" d="M15.1247 15.2196C14.7598 15.5115 14.2403 15.5116 13.8747 15.2191C12.779 14.3426 11.221 14.3426 10.1253 15.2191C9.75972 15.5116 9.24016 15.5115 8.8753 15.2196L7.6247 14.2191C7.19343 13.8741 6.56414 13.944 6.21913 14.3753C5.87412 14.8066 5.94404 15.4359 6.3753 15.7809L7.62591 16.7814C8.72194 17.6582 10.2794 17.6571 11.3747 16.7809C11.7399 16.4887 12.2601 16.4887 12.6253 16.7809C13.7206 17.6571 15.2781 17.6582 16.3741 16.7814L17.6247 15.7809C18.056 15.4359 18.1259 14.8066 17.7809 14.3753C17.4359 13.944 16.8066 13.8741 16.3753 14.2191L15.1247 15.2196Z" fill="currentColor" fill-rule="evenodd"/>
<path clip-rule="evenodd" d="M9.92848 2.62862C10.1336 3.1414 9.88417 3.72337 9.37139 3.92848L5.62861 5.4256C5.24895 5.57746 5 5.94517 5 6.35407V18H6C6.55228 18 7 18.4477 7 19C7 19.5523 6.55228 20 6 20H4C3.44772 20 3 19.5523 3 19V6.35407C3 5.12736 3.74685 4.02423 4.88583 3.56864L8.62861 2.07153C9.14139 1.86642 9.72336 2.11583 9.92848 2.62862Z" fill="currentColor" fill-rule="evenodd"/>
<path clip-rule="evenodd" d="M9.99998 2.99302C9.99622 2.44395 9.54995 2.00001 9 2.00001C8.44772 2.00001 8 2.44772 8 3.00001H9C8 3.00001 8 3.00051 8 3.00102L8 3.0021L8.00001 3.00449L8.00004 3.01012L8.00022 3.02474C8.0004 3.03596 8.00072 3.05011 8.00129 3.06701C8.00241 3.10078 8.00451 3.14568 8.0084 3.20016C8.01616 3.30878 8.03119 3.45741 8.06048 3.63316C8.11827 3.9799 8.23572 4.45751 8.48057 4.94722C8.72739 5.44085 9.11331 5.9649 9.71093 6.36331C10.3148 6.76589 11.075 7.00001 12 7.00001C12.925 7.00001 13.6852 6.76589 14.2891 6.36331C14.8867 5.9649 15.2726 5.44085 15.5194 4.94722C15.7643 4.45751 15.8817 3.9799 15.9395 3.63316C15.9688 3.45741 15.9838 3.30878 15.9916 3.20016C15.9955 3.14568 15.9976 3.10078 15.9987 3.06701C15.9993 3.05011 15.9996 3.03596 15.9998 3.02474L16 3.01012L16 3.00449L16 3.0021L16 3.00102C16 3.00051 16 3.00001 15 3.00001H16C16 2.44772 15.5523 2.00001 15 2.00001C14.45 2.00001 14.0038 2.44395 14 2.99303L13.9998 3.00038C13.9995 3.01056 13.9986 3.03011 13.9967 3.05767C13.9927 3.11311 13.9843 3.19885 13.9667 3.30436C13.9308 3.52012 13.8607 3.79251 13.7306 4.05279C13.6024 4.30916 13.4258 4.53511 13.1797 4.69921C12.9398 4.85913 12.575 5.00001 12 5.00001C11.425 5.00001 11.0602 4.85913 10.8203 4.69921C10.5742 4.53511 10.3976 4.30916 10.2694 4.05279C10.1393 3.79251 10.0692 3.52012 10.0333 3.30436C10.0157 3.19885 10.0073 3.11311 10.0033 3.05767C10.0013 3.03011 10.0005 3.01056 10.0002 3.00038L9.99998 2.99302Z" fill="currentColor" fill-rule="evenodd"/>
<path clip-rule="evenodd" d="M14.0715 2.62862C13.8664 3.1414 14.1158 3.72337 14.6286 3.92848L18.3714 5.4256C18.751 5.57746 19 5.94517 19 6.35407V18H17.5C16.9477 18 16.5 18.4477 16.5 19C16.5 19.5523 16.9477 20 17.5 20H20C20.5523 20 21 19.5523 21 19V6.35407C21 5.12736 20.2531 4.02423 19.1142 3.56864L15.3714 2.07153C14.8586 1.86642 14.2766 2.11583 14.0715 2.62862Z" fill="currentColor" fill-rule="evenodd"/>
<path clip-rule="evenodd" d="M7 7.00001C7.55228 7.00001 8 7.44772 8 8.00001V20H16V8.00001C16 7.44772 16.4477 7.00001 17 7.00001C17.5523 7.00001 18 7.44772 18 8.00001V21C18 21.5523 17.5523 22 17 22H7C6.44772 22 6 21.5523 6 21V8.00001C6 7.44772 6.44772 7.00001 7 7.00001Z" fill="currentColor" fill-rule="evenodd"/>
</svg>
