<svg width="691" height="756" viewBox="0 0 691 756" fill="none" xmlns="http://www.w3.org/2000/svg">
  <g opacity="0.4">
    <path d="M1594.41 -439.767L612.947 -270.088C512.666 -252.878 417.763 -216.738 333.753 -163.755C249.735 -110.776 178.277 -42.0095 123.517 38.5596C66.674 121.171 28.5136 214.594 11.3388 313.168C-5.82899 411.744 -1.64996 513.421 23.6175 612.037C48.8919 710.656 94.7328 804.164 158.369 886.899C221.999 969.631 302.103 1039.87 393.82 1093.36L396.757 1094.98L1241.62 1581.68L1260 1530.34L421.84 1047.61C295.003 973.495 193.143 865.462 129.629 737.697C66.1081 609.93 43.9011 468.399 65.9213 331.682C87.9416 194.965 153.158 69.45 253.008 -28.3913C352.858 -126.233 482.681 -191.825 625.44 -216.559L1699.26 -402.235L1594.41 -439.767Z" fill="#F2F0EE"/>
    <path d="M1893.67 -332.638L1789.64 -369.879L636.23 -170.478C549.517 -155.652 467.45 -124.465 394.767 -78.7225C322.093 -32.978 260.247 26.4125 212.825 96.0164L212.465 96.0013C163.333 167.394 130.346 248.131 115.491 333.32C100.636 418.51 104.222 506.38 126.045 591.617C147.862 676.851 187.449 757.672 242.417 829.193C297.385 900.714 366.589 961.445 445.835 1007.71L1275.95 1485.79L1294.35 1434.39L474.279 962.117C366.017 898.771 279.096 806.489 224.911 697.373C170.726 588.258 151.814 467.408 170.657 350.68C189.494 233.949 245.205 126.792 330.481 43.2662C415.757 -40.2598 526.616 -96.2527 648.508 -117.368L1893.67 -332.638Z" fill="#F2F0EE"/>
    <path d="M1889.77 -228.889L1910.8 -287.639L659.141 -71.2105C586.014 -58.7262 516.81 -32.4345 455.521 6.13386C394.232 44.7027 342.088 94.7859 302.104 153.482L301.816 153.607C261.368 212.015 233.838 277.962 220.806 347.621C207.775 417.28 209.51 489.267 225.91 559.409C243.195 633.576 276.328 704.131 323.227 766.61C370.119 829.088 429.743 882.123 498.325 922.36L1310.27 1389.92L1328.71 1338.39L526.633 876.494C436.815 824.017 364.699 747.516 319.751 657.038C274.796 566.557 259.123 466.336 274.778 369.54C290.433 272.745 336.686 183.905 407.468 114.696C478.243 45.4856 570.233 -0.855514 671.34 -18.2417L1889.77 -228.889Z" fill="#F2F0EE"/>
    <path d="M1850.39 -118.895L1871.41 -177.607L682.064 28.0467L681.632 28.234C590.3 43.9864 507.222 85.8766 443.288 148.404C379.355 210.933 337.563 291.181 323.387 378.616C309.211 466.052 323.317 556.592 363.855 638.356C404.394 720.121 469.475 789.291 550.547 836.788L1344.59 1294.04L1363.07 1242.41L579.071 790.999C507.926 749.251 450.837 688.5 415.285 616.71C379.727 544.918 367.367 465.437 379.819 388.683C392.277 311.931 428.963 241.486 485.069 186.583C541.183 131.682 614.099 94.8845 694.262 81.015L1850.39 -118.895Z" fill="#F2F0EE"/>
    <path d="M1811.01 -8.89921L1832.08 -67.7318L705.04 127.109L704.68 127.435C634.358 139.713 570.419 172.057 521.198 220.245C471.97 268.429 439.752 330.221 428.736 397.553C417.728 464.889 428.433 534.638 459.465 597.704C490.49 660.768 540.402 714.221 602.687 751.086L1378.83 1198.38L1397.31 1146.76L631.419 705.372C578.823 674.424 536.645 629.431 510.407 576.29C484.177 523.151 475.107 464.341 484.392 407.57C493.677 350.799 520.88 298.714 562.446 258.146C604.005 217.575 657.986 190.412 717.311 180.216L1811.01 -8.89921Z" fill="#F2F0EE"/>
  </g>
</svg>
