<svg width="49" height="16" viewBox="0 0 49 16" fill="none" xmlns="http://www.w3.org/2000/svg">
<path fill-rule="evenodd" clip-rule="evenodd" d="M4.33757 15.0243H5.46373V9.01458H4.33757V15.0243ZM8.46572 14.9342H9.47437V11.1424L13.72 15.0243V9.10473H12.7142V12.8317L8.46572 9.01458V14.9342ZM16.0226 13.4787C16.5716 13.9059 17.2306 14.1529 17.937 14.1529C18.6251 14.1529 19.1078 13.9163 19.1078 13.3937C19.1078 12.9383 18.8 12.7599 18.2608 12.5603L17.388 12.2575C16.5834 11.972 15.9714 11.5551 15.9714 10.5968C15.9714 9.57189 16.8978 9.01458 18.0056 9.01458C18.6843 9.01458 19.3029 9.18501 19.7861 9.48691V10.5034C19.2836 10.1325 18.7337 9.87707 18.0273 9.87707C17.4191 9.87707 16.9645 10.1038 16.9645 10.5766C16.9645 11.0039 17.2498 11.1748 17.7523 11.3466L18.7248 11.6875C19.6671 12.0185 20.0996 12.5317 20.0996 13.3759C20.0996 14.4379 19.1642 15.0243 17.937 15.0243C17.1305 15.0243 16.4447 14.7989 16.0226 14.5144V13.4787ZM22.7269 15.0243H23.8526V9.01458H22.7269V15.0243ZM29.1337 14.1149C30.4028 14.1149 31.081 13.3017 31.081 12.018C31.081 10.725 30.4023 9.91463 29.1337 9.91463H27.8788V14.1149H29.1337ZM26.8542 9.01458H29.1713C30.955 9.01458 32.1085 10.1884 32.1085 12.018C32.1085 13.8491 30.955 15.0243 29.1713 15.0243H26.8542V9.01458ZM37.7383 9.01458V9.91463H35.0136V11.3607H37.4572V12.2504H35.0132V14.1149H37.7383V15.0243H33.9852V9.01458H37.7383ZM41.7344 11.7359H42.8516C43.5129 11.7359 43.8856 11.3734 43.8856 10.8161C43.8856 10.2588 43.5129 9.89585 42.8516 9.89585H41.7344V11.7363V11.7359ZM41.7344 12.5857V15.0243H40.7403V9.01458H42.8704C44.0849 9.01458 44.8708 9.6395 44.8708 10.8161C44.8708 11.8222 44.4346 12.4002 43.5054 12.5486L45.6191 15.0243H44.4882L42.4418 12.5861H41.7349L41.7344 12.5857ZM3.94416 3.09407C4.38457 2.93303 4.72768 2.4499 4.72768 1.78554C4.72768 0.678441 3.94416 0.104701 2.69063 0.104701H0.584961V6.28485H2.88616C4.13969 6.28485 4.92321 5.67073 4.92321 4.51339C4.92321 3.8589 4.51194 3.28516 3.94416 3.09407ZM1.57387 2.70156V1.01085H2.68123C3.37686 1.01085 3.74864 1.26251 3.74864 1.84611C3.74864 2.42971 3.37639 2.70156 2.68123 2.70156H1.57387ZM1.57387 3.56733H2.86642C3.55264 3.56733 3.92442 3.90914 3.92442 4.47302C3.92442 5.02657 3.55217 5.37917 2.86689 5.37917H1.57434V3.56686L1.57387 3.56733ZM9.51761 6.38533C10.9573 6.38533 11.9269 5.51955 11.9269 3.82885V0.104701H10.9084V3.70772C10.9084 4.89557 10.4186 5.4496 9.51761 5.4496C8.61659 5.4496 8.12731 4.89557 8.12731 3.70772V0.104701H7.10878V3.81852C7.10878 5.51955 8.08782 6.38533 9.51761 6.38533ZM14.3249 5.84164C14.7461 6.144 15.4318 6.38533 16.2346 6.38533C17.459 6.38533 18.3892 5.76088 18.3892 4.63406C18.3892 3.73823 17.9586 3.19454 17.0181 2.84241L16.049 2.47995C15.5493 2.29919 15.2654 2.11796 15.2654 1.66488C15.2654 1.16157 15.7157 0.920238 16.323 0.920238C17.028 0.920238 17.5765 1.19161 18.0761 1.58459V0.50707C17.5962 0.185456 16.9791 0.00422558 16.3032 0.00422558C15.1968 0.00422558 14.2761 0.598155 14.2761 1.68507C14.2761 2.70156 14.8833 3.1443 15.6861 3.4462L16.558 3.76828C17.0966 3.97956 17.4003 4.17112 17.4003 4.65425C17.4003 5.2078 16.9204 5.45946 16.2346 5.45946C15.5296 5.45946 14.8734 5.19747 14.3249 4.74486V5.84164ZM22.0285 0.104701H21.0104V6.28438H22.0285V0.104701ZM24.9341 6.27687H25.9155V2.25646L30.046 6.37265V0.0953104H29.0675V4.04717L24.9341 0V6.27687ZM36.4105 0.106109V1.03151H33.7662V2.51892H36.1374V3.43399H33.7662V5.351H36.4105V6.28626H32.7679V0.106109H36.4105ZM38.7817 5.83741C39.2029 6.13977 39.8882 6.3811 40.6914 6.3811C41.9153 6.3811 42.846 5.75712 42.846 4.62983C42.846 3.73401 42.415 3.19079 41.4749 2.83818L40.5053 2.47619C40.0057 2.29496 39.7218 2.11373 39.7218 1.66065C39.7218 1.15734 40.1721 0.916013 40.7793 0.916013C41.4843 0.916013 42.0328 1.18786 42.5325 1.58037V0.503314C42.0526 0.181231 41.4355 0 40.7596 0C39.6532 0 38.7324 0.593929 38.7324 1.68084C38.7324 2.69733 39.3397 3.14008 40.1424 3.44197L41.0143 3.76406C41.553 3.97534 41.8566 4.1669 41.8566 4.65002C41.8566 5.20357 41.3772 5.45523 40.6909 5.45523C39.9859 5.45523 39.3298 5.19371 38.7817 4.74064V5.83741ZM44.9324 5.83741C45.3535 6.13977 46.0393 6.3811 46.842 6.3811C48.0664 6.3811 48.9966 5.75712 48.9966 4.62983C48.9966 3.73401 48.5656 3.19079 47.6256 2.83818L46.6559 2.47619C46.1568 2.29496 45.8724 2.11373 45.8724 1.66065C45.8724 1.15734 46.3231 0.916013 46.9299 0.916013C47.635 0.916013 48.1839 1.18786 48.6831 1.58037V0.503314C48.2037 0.181231 47.5866 0 46.9107 0C45.8038 0 44.8835 0.593929 44.8835 1.68084C44.8835 2.69733 45.4908 3.14008 46.2935 3.44197L47.1654 3.76406C47.7041 3.97534 48.0077 4.1669 48.0077 4.65002C48.0077 5.20357 47.5278 5.45523 46.842 5.45523C46.137 5.45523 45.4809 5.19371 44.9324 4.74064V5.83741Z" fill="#CED4DB"/>
</svg>
