<svg width="48" height="16" viewBox="0 0 48 16" fill="none" xmlns="http://www.w3.org/2000/svg">
<path fill-rule="evenodd" clip-rule="evenodd" d="M16.2495 0.0244141V15.0487H0.874023V0.0244141H16.2495ZM10.1708 7.05908V11.6089L12.0271 11.6179V6.76963C12.0271 5.7656 11.7555 4.97866 11.2122 4.41785C10.6689 3.85704 9.92634 3.57663 8.98461 3.57663C7.99761 3.57663 7.25509 3.86608 6.75707 4.44498L6.41297 3.70327H5.08188V11.6179H6.92006V5.91937C7.11021 5.67515 7.36376 5.47615 7.64446 5.34952C7.91611 5.21384 8.20588 5.13243 8.51375 5.12338C9.10233 5.12338 9.51886 5.26811 9.78146 5.5847C10.0441 5.90128 10.1708 6.38973 10.1708 7.05908Z" fill="#CED4DB"/>
<path d="M25.6098 5.71121C25.2385 5.33131 24.6318 5.14135 23.7806 5.14135C23.3369 5.1504 22.9113 5.33131 22.6125 5.65694V9.7997C22.9385 10.0711 23.355 10.2158 23.7806 10.2067C24.6318 10.2067 25.2385 10.0077 25.6098 9.6007C25.972 9.19366 26.1621 8.56049 26.1621 7.68309C26.1621 6.75142 25.981 6.09111 25.6098 5.71121Z" fill="#CED4DB"/>
<path fill-rule="evenodd" clip-rule="evenodd" d="M32.0597 0.0244141V15.0487H16.6117V0.0244141H32.0597ZM27.0495 10.7133C26.3523 11.4098 25.3924 11.7625 24.1881 11.7625C23.6448 11.7716 23.1015 11.654 22.6035 11.4188V13.7073H20.7653V3.70315H22.6125V4.22777C23.0653 3.78455 23.681 3.54937 24.3149 3.56747C26.8412 3.56747 28.0999 4.9514 28.0999 7.72832C28.0999 9.0218 27.7468 10.0168 27.0495 10.7133Z" fill="#CED4DB"/>
<path fill-rule="evenodd" clip-rule="evenodd" d="M47.6163 15.0487V0.0244141H32.4219V15.0487H47.6163ZM42.1895 5.43092C41.8635 5.22288 41.4923 5.11434 41.112 5.12338C40.6864 5.12338 40.3061 5.31333 39.9801 5.70228C39.6451 6.10028 39.464 6.60682 39.4821 7.1224V11.6089H37.6348V3.70327H39.4821V4.46307C39.9982 3.87513 40.6773 3.57663 41.5376 3.57663C42.1624 3.57663 42.6423 3.67613 42.9773 3.86608L42.1895 5.43092Z" fill="#CED4DB"/>
</svg>
