<svg width="43" height="16" viewBox="0 0 43 16" fill="none" xmlns="http://www.w3.org/2000/svg">
<path d="M15.659 7.53656C15.659 11.6854 12.3025 15.0487 8.16203 15.0487C4.02155 15.0487 0.665039 11.6854 0.665039 7.53656C0.665039 3.38771 4.02155 0.0244141 8.16203 0.0244141C12.3025 0.0244141 15.659 3.38771 15.659 7.53656Z" fill="#CED4DB"/>
<path d="M20.5759 5.55051C20.409 5.71775 20.1795 5.80835 19.943 5.79442C19.6996 5.80835 19.4631 5.71775 19.2962 5.54354C19.1363 5.34841 19.0598 5.10451 19.0737 4.85365V1.86412H17.7176V4.85365C17.6897 5.42508 17.9192 5.98256 18.3365 6.37977C18.7816 6.75607 19.3588 6.95119 19.943 6.91635C20.5272 6.95119 21.1044 6.75607 21.5495 6.37977C21.9529 5.98256 22.1685 5.42508 22.1337 4.85365V1.86412H20.7776V4.85365C20.8054 5.10451 20.7289 5.35539 20.5759 5.55051Z" fill="#CED4DB"/>
<path d="M23.6845 6.71427C24.0531 6.85364 24.4426 6.92332 24.832 6.92332C25.1867 6.93028 25.5345 6.86757 25.8544 6.7282C26.1256 6.6167 26.369 6.42855 26.5429 6.19162C26.7028 5.94772 26.7932 5.65504 26.7863 5.36235C26.7863 5.03483 26.668 4.72124 26.4525 4.47734C26.1465 4.17769 25.75 3.96863 25.3258 3.87805L24.9572 3.77352C24.7556 3.7317 24.5539 3.64808 24.38 3.53658C24.2757 3.46689 24.22 3.35541 24.2131 3.23693C24.2061 3.11151 24.2757 2.98607 24.387 2.93032C24.526 2.85365 24.686 2.82579 24.839 2.83276C25.0824 2.83276 25.3258 2.89547 25.5414 3C25.764 3.09755 25.9726 3.22997 26.1604 3.39025L26.835 2.54007C26.5637 2.30314 26.2508 2.12195 25.917 1.98955C25.5762 1.85018 25.2145 1.7805 24.846 1.7805C24.5052 1.77352 24.1575 1.84321 23.8375 1.97562C23.5594 2.08711 23.3229 2.27527 23.149 2.5122C22.9821 2.74217 22.8917 3.02787 22.8917 3.31359C22.8778 3.65504 23.003 3.98954 23.2395 4.23344C23.5246 4.50523 23.8723 4.6864 24.2548 4.77002L24.5608 4.85365C24.8042 4.91637 25.0407 5.00696 25.2563 5.1324C25.3745 5.18813 25.451 5.31357 25.451 5.44599C25.458 5.57141 25.3884 5.68989 25.2841 5.7526C25.145 5.82926 24.985 5.8641 24.8251 5.85713C24.5539 5.85713 24.2826 5.80835 24.0253 5.70382C23.7819 5.60625 23.5663 5.46688 23.3716 5.29266L22.7179 6.12194C22.996 6.37977 23.3299 6.58185 23.6845 6.71427Z" fill="#CED4DB"/>
<path fill-rule="evenodd" clip-rule="evenodd" d="M30.5834 5.92681L30.8964 6.82575H32.2595L30.4722 1.892H28.9005L27.0853 6.85364H28.4206L28.7335 5.92681H30.5834ZM30.2149 4.89546H29.0395L29.6585 3.16028L30.2149 4.89546Z" fill="#CED4DB"/>
<path d="M19.185 9.32051V13.1881H20.5411V9.32051H21.9946V8.24736H17.7106V9.32051H19.185Z" fill="#CED4DB"/>
<path fill-rule="evenodd" clip-rule="evenodd" d="M23.5246 12.9512C23.928 13.1742 24.387 13.2857 24.846 13.2787C25.3119 13.2926 25.7779 13.1742 26.1882 12.9442C26.5707 12.7282 26.8906 12.4215 27.1062 12.0383C27.3357 11.6341 27.447 11.1742 27.44 10.7073C27.433 10.3519 27.3565 10.0034 27.2175 9.67592C27.0992 9.36929 26.9115 9.09055 26.682 8.8606C26.4455 8.63063 26.1743 8.44944 25.8683 8.324C25.2076 8.07314 24.4774 8.07314 23.8167 8.324C23.5107 8.44944 23.2325 8.63063 23.003 8.8606C22.7735 9.09055 22.5857 9.36929 22.4675 9.67592C22.3423 10.0034 22.2797 10.3588 22.2867 10.7073C22.2728 11.1742 22.391 11.6341 22.6205 12.0383C22.8361 12.4215 23.149 12.7351 23.5246 12.9512ZM25.4649 11.9825C25.2841 12.108 25.0685 12.1707 24.846 12.1637C24.6234 12.1637 24.4009 12.101 24.22 11.9825C24.0392 11.8571 23.8932 11.6759 23.8028 11.4738C23.6985 11.2299 23.6428 10.9721 23.6498 10.7142C23.6428 10.4494 23.6985 10.1916 23.8028 9.95466C23.8932 9.73863 24.0323 9.55746 24.22 9.41809C24.5956 9.16721 25.0894 9.16721 25.4649 9.41809C25.6527 9.55746 25.7918 9.73863 25.8822 9.95466C25.9865 10.1986 26.0421 10.4564 26.0352 10.7142C26.0421 10.979 25.9865 11.2369 25.8822 11.4738C25.7918 11.6759 25.6457 11.8571 25.4649 11.9825Z" fill="#CED4DB"/>
<path fill-rule="evenodd" clip-rule="evenodd" d="M30.1453 8.22645H28.1911V13.1881L30.1453 13.1672C30.5974 13.1811 31.0494 13.0696 31.4458 12.8536C31.8144 12.6515 32.1204 12.3519 32.329 11.9825C32.7533 11.1811 32.7533 10.2195 32.329 9.41111C32.1204 9.04875 31.8144 8.74212 31.4458 8.54004C31.0494 8.324 30.5974 8.21947 30.1453 8.22645ZM30.1453 12.1149H29.5264V9.31356H30.1453C30.4722 9.29961 30.7851 9.43898 30.9868 9.69683C31.2024 9.98951 31.3137 10.3519 31.2998 10.7142C31.3137 11.0766 31.2024 11.439 30.9868 11.7317C30.7851 11.9825 30.4722 12.1289 30.1453 12.1149Z" fill="#CED4DB"/>
<path fill-rule="evenodd" clip-rule="evenodd" d="M36.3279 12.2613L36.6409 13.1881H38.0248L36.2097 8.22645H34.6379L32.8228 13.1881H34.1581L34.471 12.2613H36.3279ZM36.001 11.2508H34.8188L35.4168 9.51564L36.001 11.2508Z" fill="#CED4DB"/>
<path d="M40.6397 13.1811V11.3972L42.3992 8.24736H40.8692L39.9582 10.2125L39.0402 8.21947H37.5102L39.2627 11.3972V13.1811H40.6397Z" fill="#CED4DB"/>
</svg>
