<svg width="328" height="141" viewBox="0 0 328 141" fill="none" xmlns="http://www.w3.org/2000/svg">
<path d="M7.39189 21.059C8.94538 16.5654 13.2783 13.877 18.0328 13.877H160.691C165.418 13.877 169.73 16.5363 171.283 21.0005C174.007 28.8269 177.671 42.761 177.671 61.0944C177.671 81.6513 176.151 98.807 175.252 107.152C174.914 110.288 172.258 112.604 169.104 112.604H9.57574C6.41855 112.604 3.7592 110.282 3.4233 107.143C2.52519 98.7489 1 81.4919 1 61.0944C1 42.9227 4.66752 28.9394 7.39189 21.059Z" fill="white" stroke="#1E1F21" stroke-width="0.78871" stroke-linecap="round" stroke-linejoin="round"/>
<path d="M88.8098 21.3888C44.7645 21.3888 25.4276 20.1097 20.85 19.749C20.15 19.6938 19.5131 19.2726 19.4269 18.5615C19.343 17.869 19.4514 16.9616 20.2683 16.1883C21.838 14.7024 23.8923 13.877 23.8923 13.877" stroke="#1E1F21" stroke-width="0.78871" stroke-linecap="round" stroke-linejoin="round"/>
<path d="M88.8096 21.3888C132.855 21.3888 152.192 20.1097 156.769 19.749C157.469 19.6938 158.106 19.2726 158.192 18.5615C158.276 17.869 158.168 16.9616 157.351 16.1883C155.781 14.7024 153.727 13.877 153.727 13.877" stroke="#1E1F21" stroke-width="0.78871" stroke-linecap="round" stroke-linejoin="round"/>
<path d="M12.042 29.9746C12.042 29.9746 10.5622 33.5081 9.93877 35.8768C9.2327 38.5596 9.15006 41.779 9.15006 41.779L2.84038 41.779C2.84038 41.779 3.11574 38.1817 3.62909 35.8768C4.14244 33.5718 5.01854 29.9746 5.01854 29.9746L12.042 29.9746Z" fill="white" stroke="#1E1F21" stroke-width="0.78871" stroke-linecap="round" stroke-linejoin="round"/>
<path d="M166.629 29.9746C166.629 29.9746 168.109 33.5081 168.732 35.8768C169.438 38.5596 169.521 41.779 169.521 41.779L175.831 41.779C175.831 41.779 175.555 38.1817 175.042 35.8768C174.528 33.5718 173.652 29.9746 173.652 29.9746L166.629 29.9746Z" fill="white" stroke="#1E1F21" stroke-width="0.78871" stroke-linecap="round" stroke-linejoin="round"/>
<path d="M155.214 19.7552L154.164 19.8114L153.678 23.514C153.635 23.8398 153.898 24.124 154.226 24.1064L155.591 24.0334C155.919 24.0159 156.152 23.7052 156.076 23.3858L155.214 19.7552Z" stroke="#1E1F21" stroke-width="0.78871" stroke-linecap="round" stroke-linejoin="round"/>
<g clip-path="url(#clip0_4361_85976)">
<path d="M85.977 32.8848C85.4877 33.1748 85.0853 33.6121 84.8177 34.1444C84.3301 34.4373 83.9291 34.8754 83.6615 35.4075C82.7304 35.9599 82.1505 37.0222 82.1494 38.1773V45.5533L82.8488 46.0819V38.0229C82.8474 37.4888 83.0117 36.9699 83.315 36.5504C83.315 36.6191 83.315 36.6877 83.315 36.7598V46.4491L84.0112 46.9777V36.9143C84.0114 36.591 84.0714 36.2712 84.1876 35.9738C84.2632 35.7838 84.3605 35.6051 84.4775 35.4418C84.4775 35.5105 84.4775 35.5825 84.4775 35.6512V47.3209L85.1768 47.8495V35.6512C85.1742 35.3288 85.2343 35.0094 85.3532 34.7142C85.4287 34.5231 85.5261 34.3432 85.643 34.1787C85.643 34.2508 85.643 34.3195 85.643 34.3915V48.1893L86.3424 48.7178V34.3915C86.3348 34.1758 86.3538 33.9599 86.3991 33.7497C86.425 33.6444 86.4577 33.5412 86.4968 33.4408C86.5716 33.2504 86.669 33.0716 86.7866 32.9088C86.7866 32.9774 86.7866 33.0461 86.7866 33.1182V49.0679L87.4828 49.5965V33.1216C87.4822 32.9084 87.5076 32.696 87.5584 32.4901C87.5854 32.3847 87.6191 32.2814 87.6592 32.1812C87.8056 31.8133 88.0341 31.4912 88.3239 31.2441C87.3351 31.3162 86.4492 31.9355 85.977 32.8848V32.8848Z" fill="url(#paint0_linear_4361_85976)"/>
<path d="M97.0416 50.698L97.574 50.1729L90.6434 44.8391C90.4777 44.7163 90.3319 44.5643 90.2118 44.3895C90.1454 44.2896 90.0885 44.1826 90.0417 44.0703C89.9323 43.8084 89.8754 43.524 89.8747 43.2363C89.87 43.1631 89.87 43.0897 89.8747 43.0166C89.6055 43.3041 89.4025 43.6569 89.2825 44.0463C89.203 44.3064 89.1626 44.5787 89.1628 44.8529C89.1631 45.1342 89.2057 45.4136 89.2888 45.68C89.2057 45.9393 89.1631 46.212 89.1628 46.4866C89.163 46.7689 89.2088 47.0489 89.2982 47.3138C89.1115 47.8406 89.1115 48.4242 89.2982 48.951C89.2025 49.2047 89.1533 49.4764 89.1533 49.7507C89.1535 50.4556 89.4684 51.1163 89.9976 51.5218L93.4849 54.1681L94.0362 53.6566L90.3725 50.8628C90.0437 50.6231 89.8346 50.232 89.8054 49.8022V49.8022C89.8039 49.7874 89.8039 49.7724 89.8054 49.7576C89.8951 49.8567 89.9932 49.9464 90.0984 50.0253V50.0253L94.3922 53.3134L94.9246 52.7883L90.4922 49.4006C90.3367 49.2823 90.204 49.1318 90.1015 48.9579C89.9806 48.7508 89.9061 48.5157 89.8842 48.2714C89.9634 48.3554 90.0488 48.4323 90.1394 48.5014L95.2774 52.4313L95.8098 51.9062L90.5394 47.8801C90.4586 47.8187 90.3837 47.7486 90.3158 47.6708C90.223 47.5678 90.1426 47.4525 90.0763 47.3275C89.9781 47.1392 89.915 46.9316 89.8905 46.7166C89.9809 46.8159 90.0789 46.9066 90.1835 46.9877L96.1689 51.5698L96.7013 51.0481L90.593 46.3596C90.4752 46.2601 90.3694 46.1447 90.278 46.0164C90.2001 45.9099 90.1325 45.7948 90.0763 45.6732C89.9975 45.5037 89.9433 45.3219 89.9157 45.1343C90.0132 45.2408 90.1185 45.3384 90.2307 45.4261L97.0416 50.698Z" fill="url(#paint1_linear_4361_85976)"/>
<path fill-rule="evenodd" clip-rule="evenodd" d="M89.7825 29.9746H89.6754C88.6127 29.9726 87.6344 30.605 87.1268 31.6221C86.6382 31.9136 86.2369 32.3521 85.9707 32.8852C85.4814 33.1753 85.079 33.6125 84.8114 34.1448C84.3261 34.4388 83.9274 34.8768 83.6615 35.4079C82.7304 35.9604 82.1505 37.0226 82.1494 38.1777V39.9728C82.1494 37.5874 83.4473 35.782 85.0445 35.782H89.7699C90.9878 35.782 91.9751 36.8577 91.9751 38.1846C91.9667 38.8609 91.7036 39.5038 91.2474 39.9625L89.9872 41.1879C89.4577 41.7086 89.1555 42.4494 89.1556 43.2266C89.1621 43.5063 89.2089 43.7831 89.2942 44.0469C89.2147 44.307 89.1743 44.5794 89.1745 44.8535C89.1748 45.1349 89.2174 45.4143 89.3005 45.6807C89.2174 45.94 89.1748 46.2126 89.1745 46.4873C89.1747 46.7695 89.2205 47.0495 89.3099 47.3145C89.1232 47.8412 89.1232 48.4249 89.3099 48.9517C89.2143 49.2054 89.165 49.4771 89.165 49.7514C89.1652 50.4562 89.4801 51.1169 90.0093 51.5224L90.4629 51.8657C90.0213 51.4422 89.7735 50.8281 89.7856 50.1873C89.7788 49.7183 89.9066 49.2587 90.1511 48.8727C90.192 48.8149 90.2373 48.7609 90.2865 48.7114L94.8827 44.2083C97.1653 41.92 97.9254 38.3404 96.7974 35.1923C95.6694 32.0443 92.8842 29.9727 89.7825 29.9746ZM90.4724 41.7439L91.7325 40.5186C92.3289 39.9168 92.6708 39.0736 92.6776 38.188C92.6758 36.4468 91.3807 35.0357 89.7825 35.0338H84.8492C85.0001 34.9064 85.1652 34.8003 85.3406 34.718C85.6126 34.588 85.9068 34.5225 86.2038 34.5258H89.7825C91.6335 34.5277 93.134 36.1611 93.1375 38.1777C93.1302 39.2045 92.7334 40.1822 92.0412 40.8789L89.962 42.9211L89.8864 43.0001C89.9338 42.5172 90.1423 42.0702 90.4724 41.7439ZM90.4283 43.4772C90.2676 43.6391 90.1362 43.8323 90.0408 44.0469C89.95 44.2586 89.8956 44.4866 89.8801 44.7197L89.9179 44.6819L90.2109 44.3902L92.8288 41.8022C94.2032 40.4335 94.6646 38.2854 93.9902 36.3944C93.3159 34.5034 91.6445 33.258 89.7825 33.2593H87.3599C87.1641 33.2597 86.9692 33.2886 86.7803 33.3451C86.6836 33.3733 86.5889 33.4089 86.4968 33.4515C86.3229 33.5277 86.1587 33.6281 86.0085 33.7501H89.7825C90.8592 33.751 91.8913 34.2181 92.6518 35.0486C93.4122 35.879 93.8385 37.0047 93.8369 38.1777C93.8248 39.4111 93.3447 40.5839 92.5106 41.4178L90.4283 43.4772ZM90.0408 45.6807C90.0842 45.5943 90.1337 45.5117 90.1889 45.4336C90.2428 45.357 90.3029 45.2858 90.3684 45.2208L93.2887 42.3514C94.8654 40.7704 95.3929 38.299 94.6184 36.1223C93.8439 33.9455 91.9252 32.5073 89.7825 32.4973H87.1646C87.3155 32.3689 87.4806 32.2616 87.6561 32.1781C87.9288 32.0507 88.2225 31.9853 88.5192 31.9859H89.7793C92.1224 31.9788 94.2282 33.5426 95.0788 35.9213C95.9294 38.3 95.3495 41.0038 93.6195 42.7255L89.877 46.4015C89.887 46.1519 89.9484 45.9079 90.0566 45.6876L90.0408 45.6807ZM90.296 47.6645L94.3913 43.6419L94.4071 43.6488C96.4824 41.5749 97.176 38.3253 96.1533 35.4665C95.1307 32.6077 92.6018 30.7265 89.7856 30.7297H89.6785C89.1884 30.7282 88.7121 30.9072 88.3271 31.2377H89.7825C92.4091 31.2354 94.7674 32.9908 95.7203 35.6576C96.6733 38.3243 96.0254 41.355 94.0889 43.2884L90.3212 46.9644L90.2487 47.0399C90.1775 47.1252 90.1132 47.2171 90.0566 47.3145C89.9286 47.5508 89.8591 47.8192 89.8549 48.0936L90.296 47.6645Z" fill="#EB9D00"/>
<path d="M95.3804 60.2352L95.0429 60.1887C94.4154 60.0919 94.0374 59.9292 94.0374 59.5069C94.0374 59.0846 94.4814 58.732 95.1383 58.732C95.6212 58.7376 96.0925 58.8896 96.496 59.1698L96.8959 58.4996C96.3783 58.1341 95.7682 57.9424 95.1456 57.9494C94.0961 57.9494 93.2375 58.5189 93.2375 59.5456C93.2375 60.4948 93.953 60.8512 94.6722 60.9597L95.0392 61.014C95.7511 61.1147 96.14 61.3007 96.14 61.7036C96.14 62.1724 95.6447 62.4591 95.0098 62.4591C94.4598 62.441 93.9272 62.2509 93.4797 61.9128L93.054 62.5714C93.625 63.0051 94.3101 63.2395 95.0135 63.2417C96.063 63.2417 96.9547 62.6722 96.9547 61.63C96.94 60.6924 96.1657 60.3476 95.3804 60.2352Z" fill="#EB9D00"/>
<path d="M81.3667 59.5921C81.3667 58.7785 80.875 58.0424 79.587 58.0424H78.1192C77.6302 58.0488 77.2381 58.4714 77.2422 58.9877V63.1603H78.0238V58.9877C78.0238 58.9439 78.0405 58.9019 78.0702 58.8712C78.0999 58.8406 78.1401 58.8239 78.1816 58.825H79.6017C80.2916 58.825 80.5558 59.2124 80.5558 59.5998C80.5558 59.9873 80.2695 60.3747 79.6017 60.3747H79.2861C79.148 60.36 79.011 60.4116 78.9128 60.5152C78.8147 60.6188 78.7658 60.7635 78.7797 60.9093V60.9442C78.78 61.055 78.8148 61.1625 78.8788 61.2503L80.409 63.1332H81.2786C81.3212 63.1332 81.3557 63.0968 81.3557 63.0518C81.3564 63.03 81.3484 63.009 81.3337 62.9937L79.7191 61.1379C80.7356 61.0449 81.3667 60.4483 81.3667 59.5921Z" fill="#EB9D00"/>
<path d="M83.4987 58.0501H84.2803V63.1603H83.4987V58.0501Z" fill="#EB9D00"/>
<path d="M87.9461 58.4918L90.1808 61.9554V58.0501H90.9587V62.2847C90.9587 62.9046 90.7019 63.0712 90.5404 63.1293C90.379 63.1874 90.0597 63.2068 89.7184 62.7187L87.4874 59.2512V63.1603H86.7058V58.9761C86.7058 58.3213 86.9627 58.1315 87.1241 58.0773C87.2856 58.023 87.6048 57.9998 87.9461 58.4918Z" fill="#EB9D00"/>
<path d="M99.7948 62.2189C99.7948 62.3109 99.8655 62.3855 99.9526 62.3855L102.481 62.3816V63.1564H99.8829C99.3919 63.1543 98.9949 62.7334 98.9949 62.215V58.9838C98.9949 58.466 99.3925 58.0463 99.8829 58.0463H102.452V58.8211H99.9526C99.8655 58.8211 99.7948 58.8957 99.7948 58.9877V60.1965H101.908V60.9713H99.7948V62.2189Z" fill="#EB9D00"/>
</g>
<path d="M69.1647 73.5204H68.8261L71.8736 83.8262H72.2122L69.1647 73.5204ZM69.8419 73.5204H69.5033L72.5509 83.8262H72.8895L69.8419 73.5204ZM83.4014 73.5204H83.0628L80.1772 83.252L80.0152 82.6925L82.7094 73.5204H82.3708L79.8385 82.1184L79.6766 81.5442L82.0322 73.5204H81.6936L79.4999 80.97L79.338 80.4105L81.355 73.5204H81.0163L79.1613 79.8364L77.3063 73.5204H76.9529L74.082 83.252L73.9201 82.6925L76.6143 73.5204H76.2757L73.7434 82.1184L73.5814 81.5442L75.9371 73.5204H75.5984L73.4048 80.97L73.2428 80.4105L75.2598 73.5204H74.9212L73.0662 79.8216L71.2111 73.5204H70.8725L73.9201 83.8262H74.2587L76.1137 77.5396L77.9688 83.8262H78.3074L76.2904 76.9654L76.4523 76.3913L78.646 83.8262H78.9846L76.629 75.8171L76.791 75.2429L79.3233 83.8262H79.6766L76.9676 74.6687L77.1296 74.1093L80.0152 83.8262H80.3538L83.4014 73.5204ZM73.5667 83.8262L70.5191 73.5204H70.1805L73.2281 83.8262H73.5667ZM86.6231 73.5204H86.2845L82.4272 83.8262H82.7658L86.6231 73.5204ZM87.3298 73.5204H86.9765L83.1191 83.8262H83.4725L87.3298 73.5204ZM88.0218 73.5204H87.6684L83.8111 83.8262H84.1644L88.0218 73.5204ZM88.5371 73.9915L92.2324 83.8262H92.5858L88.7137 73.5204H88.3751L84.5178 83.8262H84.8564L85.357 82.4864H89.6412L90.1418 83.8262H90.4952L87.6831 76.3029L87.8451 75.8465L90.8338 83.8262H91.1871L88.0218 75.3754L88.1984 74.919L91.5405 83.8262H91.8791L88.3751 74.4626L88.5371 73.9915ZM87.5065 76.7593L88.8021 80.2486H86.1962L87.5065 76.7593ZM89.0523 80.8964H85.9606L86.0784 80.5725H88.9346L89.0523 80.8964ZM85.8428 81.2203H89.1701L89.2879 81.5294H85.725L85.8428 81.2203ZM89.5235 82.1772H85.4895L85.6073 81.8533H89.4057L89.5235 82.1772ZM96.9339 79.8511C97.3461 80.0277 97.5669 80.3369 97.5669 80.7197C97.5669 81.3528 97.1253 81.7356 96.4922 81.7356C95.7855 81.7356 95.2997 81.235 95.2997 80.4253H94.961C94.961 81.4264 95.5794 82.0595 96.4922 82.0595C97.3461 82.0595 97.9056 81.5442 97.9056 80.705C97.9056 80.1897 97.6111 79.748 97.0517 79.5272L95.2555 78.9383C94.1071 78.5408 93.4593 77.628 93.4593 76.406C93.4593 74.7865 94.593 73.697 96.345 73.697C98.1558 73.697 99.3925 74.9043 99.3925 76.7741H99.7164C99.7164 74.6982 98.362 73.3731 96.345 73.3731C94.3869 73.3731 93.1207 74.5951 93.1207 76.406C93.1207 77.7752 93.8863 78.7763 95.123 79.2033L96.9339 79.8511ZM99.0539 76.7741C99.0539 75.0957 97.9497 74.0209 96.345 74.0209C94.7991 74.0209 93.798 74.9779 93.798 76.406C93.798 77.4807 94.3721 78.3052 95.3733 78.6291L97.2136 79.2622C97.8761 79.5125 98.2295 80.0425 98.2295 80.705C98.2295 81.7208 97.5522 82.3686 96.4922 82.3686C95.3733 82.3686 94.6224 81.6178 94.6224 80.4253H94.2838C94.2838 81.8092 95.1672 82.6925 96.4922 82.6925C97.7583 82.6925 98.5828 81.927 98.5828 80.705C98.5828 79.8805 98.1117 79.218 97.3314 78.9383L95.5058 78.3199C94.6224 78.0255 94.1366 77.3188 94.1366 76.406C94.1366 75.1693 94.9905 74.3448 96.345 74.3448C97.7436 74.3448 98.7153 75.3018 98.7153 76.7741H99.0539ZM97.4786 78.6585C98.3914 78.9677 98.9067 79.7333 98.9067 80.705C98.9067 82.1184 97.9645 83.0164 96.4922 83.0164C94.9758 83.0164 93.9599 82.0006 93.9599 80.4253H93.6213C93.6213 82.2067 94.7697 83.3403 96.4922 83.3403C98.1558 83.3403 99.2453 82.3097 99.2453 80.705C99.2453 79.5713 98.627 78.7027 97.5964 78.3346L95.7413 77.7163C95.1377 77.5102 94.8138 77.0096 94.8138 76.406C94.8138 75.5668 95.4027 74.9779 96.345 74.9779C97.3314 74.9779 98.0381 75.6846 98.0381 76.7888H98.3767C98.3767 75.4785 97.5522 74.6687 96.345 74.6687C95.1966 74.6687 94.4752 75.3607 94.4752 76.406C94.4752 77.1716 94.8727 77.7752 95.6236 78.0255L97.4786 78.6585ZM95.9622 77.1127C95.653 77.0096 95.4763 76.7446 95.4763 76.406C95.4763 75.9349 95.815 75.6257 96.345 75.6257C96.9191 75.6257 97.3608 76.0674 97.3608 76.7888H97.7142C97.7142 75.876 97.14 75.3018 96.345 75.3018C95.5941 75.3018 95.1377 75.7435 95.1377 76.406C95.1377 76.8477 95.388 77.2599 95.8591 77.4218L97.7436 78.0549C98.892 78.4524 99.5839 79.4241 99.5839 80.7197C99.5839 82.5159 98.3767 83.6642 96.4922 83.6642C94.5635 83.6642 93.2827 82.3981 93.2827 80.4253H92.9441C92.9441 82.6042 94.3574 83.9881 96.4922 83.9881C98.5681 83.9881 99.9226 82.7073 99.9226 80.7197C99.9226 79.2916 99.1275 78.2169 97.8467 77.7605L95.9622 77.1127ZM101.237 73.5204V83.8262H101.59V73.5204H101.237ZM101.914 73.5204V83.8262H102.253V73.5204H101.914ZM102.591 73.5204V83.8262H102.93V73.5204H102.591ZM107.303 73.5204V77.7605H103.607V73.5204H103.269V83.8262H103.607V79.9983H107.303V83.8262H107.641V73.5204H107.303ZM107.98 73.5204V83.8262H108.318V73.5204H107.98ZM108.657 73.5204V83.8262H108.996V73.5204H108.657ZM109.658 73.5204H109.32V83.8262H109.658V73.5204ZM103.607 78.0844H107.303V78.3935H103.607V78.0844ZM103.607 78.7174H107.303V79.0413H103.607V78.7174ZM107.303 79.6744H103.607V79.3652H107.303V79.6744ZM73.1246 92.2792L74.5233 93.722V93.2509L73.3602 92.0583L74.2288 91.1897V90.748L71.1371 93.7956C70.5924 94.3403 69.8268 94.6642 68.9876 94.6642C67.2798 94.6642 65.94 93.3392 65.94 91.6461C65.94 90.8069 66.2639 90.0413 66.8234 89.4966L67.2356 89.1138L67.4564 89.3494L67.0442 89.7322C66.5289 90.2033 66.2786 90.8952 66.2786 91.6461C66.2786 93.1625 67.4564 94.3403 68.9876 94.3403C69.7384 94.3403 70.401 94.0606 70.8868 93.5748L74.2288 90.2916V89.8352L70.666 93.3245C70.239 93.7514 69.6501 94.0017 68.9876 94.0017C67.6478 94.0017 66.6025 92.9711 66.6025 91.6461C66.6025 90.9836 66.8528 90.3947 67.2945 89.953L67.692 89.5702L67.9128 89.791L67.5153 90.2033C67.1326 90.5713 66.9264 91.0719 66.9264 91.6461C66.9264 92.8092 67.8098 93.6925 68.9876 93.6925C69.5618 93.6925 70.0771 93.4717 70.4451 93.1184L73.9933 89.6144H73.5222L70.2243 92.8681C69.9151 93.192 69.4734 93.3686 68.9876 93.3686C68.0012 93.3686 67.2503 92.6178 67.2503 91.6461C67.2503 91.1602 67.427 90.7333 67.7509 90.4241L68.1484 90.0266L68.384 90.2474L67.9717 90.645C67.7215 90.8952 67.5742 91.2486 67.5742 91.6461C67.5742 92.4411 68.1779 93.0595 68.9876 93.0595C69.3851 93.0595 69.7237 92.9122 69.974 92.662L73.0805 89.6144H72.6094L71.7554 90.4536L70.7249 89.423L71.0929 89.0549C71.5935 88.5544 71.9174 87.8771 71.9174 87.0968C71.9174 85.5657 70.6807 84.3731 69.1495 84.3731C67.589 84.3731 66.367 85.5657 66.367 87.0968C66.367 87.7888 66.6025 88.3924 67.0148 88.8635L66.5878 89.2758C65.9695 89.8647 65.6161 90.7038 65.6161 91.6461C65.6161 93.5159 67.0884 94.9734 68.9876 94.9734C69.9151 94.9734 70.7543 94.6201 71.3579 94.0312L71.7554 93.6189L72.9627 94.8262H73.4191L71.991 93.3981L72.2118 93.1772L73.8608 94.8262H74.3172L72.4474 92.9417L72.6682 92.7208L74.5233 94.6053V94.1342L72.9038 92.5L73.1246 92.2792ZM70.4893 89.1727L70.2685 88.9519L70.6365 88.5985C71.0046 88.2157 71.2696 87.6857 71.2696 87.0968C71.2696 85.9337 70.3274 85.0062 69.1495 85.0062C67.957 85.0062 67.0295 85.919 67.0295 87.0968C67.0295 87.6857 67.2503 88.201 67.6478 88.5838L70.6218 91.5725L70.3862 91.7933L67.4123 88.8194C66.9706 88.3777 66.6909 87.7741 66.6909 87.0968C66.6909 85.7571 67.7803 84.697 69.1495 84.697C70.4893 84.697 71.5788 85.7571 71.5788 87.0968C71.5788 87.7741 71.299 88.3924 70.8426 88.8341L70.4893 89.1727ZM70.0476 88.7163L69.8121 88.4955L70.1801 88.1421C70.4451 87.8771 70.6218 87.5238 70.6218 87.0968C70.6218 86.2871 69.9593 85.6393 69.1495 85.6393C68.3251 85.6393 67.6773 86.2724 67.6773 87.0968C67.6773 87.509 67.8392 87.8771 68.0895 88.1421L71.0635 91.1308L70.8574 91.3369L67.8834 88.363C67.5595 88.0391 67.3534 87.5827 67.3534 87.0968C67.3534 86.1104 68.1631 85.3301 69.1495 85.3301C70.136 85.3301 70.931 86.1104 70.931 87.0968C70.931 87.5974 70.7101 88.0391 70.3862 88.3777L70.0476 88.7163ZM71.5199 90.6744L71.299 90.8952L68.3251 87.9213C68.119 87.7152 68.0012 87.4207 68.0012 87.0968C68.0012 86.4637 68.5165 85.9632 69.1495 85.9632C69.7826 85.9632 70.2832 86.4637 70.2832 87.0968C70.2832 87.4207 70.1507 87.7152 69.9298 87.9213L69.5765 88.2599L69.3557 88.0391L69.7237 87.6857C69.871 87.5385 69.974 87.3324 69.974 87.0968C69.974 86.6404 69.6059 86.2871 69.1495 86.2871C68.6784 86.2871 68.3251 86.6404 68.3251 87.0968C68.3251 87.3324 68.4134 87.5385 68.5606 87.6857L71.5199 90.6744ZM69.1348 87.8182L68.7962 87.4649C68.6931 87.3618 68.649 87.2293 68.649 87.0968C68.649 86.8171 68.8698 86.611 69.1495 86.611C69.4146 86.611 69.6354 86.8318 69.6354 87.1115C69.6354 87.244 69.5765 87.3765 69.4882 87.4649L69.1348 87.8182ZM70.1507 92.0289L69.7679 92.4264C69.5765 92.6031 69.2968 92.7356 68.9876 92.7356C68.3692 92.7356 67.8981 92.2644 67.8981 91.6461C67.8981 91.3516 68.0159 91.0719 68.2073 90.8805L68.6048 90.483L70.1507 92.0289ZM78.8439 84.5204V94.8262H79.1972V84.5204H78.8439ZM79.5211 84.5204V94.8262H79.8598V84.5204H79.5211ZM80.1984 84.5204V94.8262H80.537V84.5204H80.1984ZM81.2142 84.8443H84.3649V84.5204H80.8756V94.8262H81.2142V91.1308H84.3649V90.8216H81.2142V90.4977H84.3649V90.1738H81.2142V89.8647H84.3649V89.5408H81.2142V89.2169H84.3649V88.893H81.2142V86.7582H84.3649V86.449H81.2142V86.1251H84.3649V85.8012H81.2142V85.4921H84.3649V85.1682H81.2142V84.8443ZM91.0941 84.3731C89.5483 84.3731 88.1938 84.962 87.2368 85.9485C86.324 86.8907 85.7793 88.1863 85.7793 89.6733C85.7793 92.7061 88.0466 94.9734 91.0941 94.9734C94.1417 94.9734 96.409 92.7061 96.409 89.6733C96.409 86.6404 94.1417 84.3731 91.0941 84.3731ZM91.0941 94.6642C88.2379 94.6642 86.1179 92.5294 86.1179 89.6733C86.1179 88.2599 86.6332 87.0232 87.5165 86.1398C88.3999 85.2418 89.666 84.697 91.0941 84.697C93.9503 84.697 96.0704 86.8318 96.0704 89.6733C96.0704 92.5294 93.9503 94.6642 91.0941 94.6642ZM91.0941 85.0062C89.7838 85.0062 88.6207 85.5068 87.7963 86.3165C86.9571 87.1557 86.4418 88.3335 86.4418 89.6733C86.4418 92.3381 88.4441 94.3403 91.0941 94.3403C93.7442 94.3403 95.7465 92.3381 95.7465 89.6733C95.7465 87.0085 93.7442 85.0062 91.0941 85.0062ZM91.0941 94.0164C88.6355 94.0164 86.7804 92.1614 86.7804 89.6733C86.7804 88.4218 87.2515 87.3324 88.0318 86.5521C88.7974 85.7865 89.8722 85.3301 91.0941 85.3301C93.5528 85.3301 95.4078 87.1852 95.4078 89.6733C95.4078 92.1614 93.5528 94.0164 91.0941 94.0164ZM91.0941 85.654C89.9899 85.654 89.0182 86.0662 88.3116 86.7435C87.5607 87.4649 87.119 88.4955 87.119 89.6733C87.119 91.9847 88.8268 93.6925 91.0941 93.6925C93.3614 93.6925 95.0839 91.9847 95.0839 89.6733C95.0839 87.3765 93.3614 85.654 91.0941 85.654ZM91.0941 93.3686C89.0182 93.3686 87.4429 91.7933 87.4429 89.6733C87.4429 88.5838 87.8552 87.6416 88.5471 86.979C89.1949 86.346 90.093 85.9779 91.0941 85.9779C93.17 85.9779 94.7453 87.5532 94.7453 89.6733C94.7453 91.7933 93.17 93.3686 91.0941 93.3686ZM91.0941 86.2871C90.1813 86.2871 89.3716 86.6257 88.7827 87.1999C88.1643 87.8035 87.7815 88.6721 87.7815 89.6733C87.7815 91.6166 89.2244 93.0595 91.0941 93.0595C92.9786 93.0595 94.4067 91.6166 94.4067 89.6733C94.4067 87.7299 92.9786 86.2871 91.0941 86.2871ZM91.0941 92.7356C89.401 92.7356 88.1054 91.4547 88.1054 89.6733C88.1054 88.7457 88.4588 87.9654 89.0477 87.406C89.5777 86.9054 90.2844 86.611 91.0941 86.611C92.7872 86.611 94.0828 87.9066 94.0828 89.6733C94.0828 91.4547 92.7872 92.7356 91.0941 92.7356ZM97.8941 84.5204V94.8262H98.2475V84.5204H97.8941ZM98.5714 84.5204V94.8262H98.91V84.5204H98.5714ZM99.2486 84.5204V94.8262H99.5872V84.5204H99.2486ZM100.264 92.9122H103.606V92.5883H100.264V84.5204H99.9258V94.8262H103.606V94.517H100.264V94.1931H103.606V93.8692H100.264V93.56H103.606V93.2361H100.264V92.9122ZM104.752 84.5204V94.8262H105.106V84.5204H104.752ZM105.429 84.5204V94.8262H105.768V84.5204H105.429ZM106.107 84.5204V94.8262H106.445V84.5204H106.107ZM106.784 84.5204V94.8262H108.183C111.23 94.8262 113.394 92.662 113.394 89.6733C113.394 86.6846 111.23 84.5204 108.183 84.5204H106.784ZM107.123 94.517V94.1931H108.183C110.833 94.1931 112.732 92.2939 112.732 89.6733C112.732 87.0674 110.833 85.1682 108.183 85.1682H107.123V84.8443H108.183C111.024 84.8443 113.056 86.8907 113.056 89.6733C113.056 92.4706 111.024 94.517 108.183 94.517H107.123ZM107.123 93.56H108.183C110.435 93.56 112.055 91.9258 112.055 89.6733C112.055 87.4354 110.435 85.8012 108.183 85.8012H107.123V85.4921H108.183C110.627 85.4921 112.393 87.2588 112.393 89.6733C112.393 92.1025 110.627 93.8692 108.183 93.8692H107.123V93.56ZM107.123 92.9122H108.183C110.023 92.9122 111.377 91.5578 111.377 89.6733C111.377 87.8035 110.023 86.449 108.183 86.449H107.123V86.1251H108.183C110.229 86.1251 111.716 87.6268 111.716 89.6733C111.716 91.7344 110.229 93.2361 108.183 93.2361H107.123V92.9122ZM107.123 92.5883V86.7582H108.183C109.831 86.7582 111.039 87.9802 111.039 89.6733C111.039 91.3664 109.831 92.5883 108.183 92.5883H107.123Z" fill="#CED4DB"/>
<path d="M75.6646 1H103.007C113.17 1 122.198 3.66998 126.405 14.3499H126.442C126.442 14.3499 134.555 34.7066 134.555 63.4774C134.555 86.9214 133.837 104.779 133.571 110.587C133.519 111.721 132.598 112.605 131.48 112.605H121.079C121.079 112.605 122.685 111.838 122.732 110.469C122.977 103.331 123.738 79.8323 123.738 63.4774C123.738 36.7777 115.626 14.3499 115.626 14.3499C114.311 10.6119 110.988 7.40794 107.213 7.40794H71.4581C67.683 7.40794 64.3598 10.6119 63.0452 14.3499C63.0452 14.3499 54.9328 36.7777 54.9328 63.4774C54.9328 79.8323 55.6944 103.331 55.9395 110.469C55.9865 111.838 57.5919 112.605 57.5919 112.605H47.1907C46.0731 112.605 45.1523 111.721 45.1004 110.587C44.8344 104.779 44.1162 86.9214 44.1162 63.4774C44.1162 34.7066 52.2287 14.3499 52.2287 14.3499H52.2662C56.4727 3.66998 65.5008 1 75.6646 1Z" fill="white" stroke="#1E1F21" stroke-width="0.78871" stroke-linecap="round" stroke-linejoin="round"/>
<path d="M239.717 22.4625C243.591 11.0521 259.089 1 281.781 1" stroke="#1E1F21" stroke-width="0.78871" stroke-linecap="round" stroke-linejoin="round"/>
<path d="M323.846 22.4625C319.971 11.0521 304.474 1 281.781 1" stroke="#1E1F21" stroke-width="0.78871" stroke-linecap="round" stroke-linejoin="round"/>
<path d="M240.768 24.0719C244.545 12.6614 259.655 2.60938 281.78 2.60938" stroke="#1E1F21" stroke-width="0.78871" stroke-linecap="round" stroke-linejoin="round"/>
<path d="M322.794 24.0719C319.016 12.6614 303.906 2.60938 281.781 2.60938" stroke="#1E1F21" stroke-width="0.78871" stroke-linecap="round" stroke-linejoin="round"/>
<path d="M239.516 23.726C240.41 17.925 245.468 13.877 251.337 13.877H312.255C318.111 13.877 323.158 17.9064 324.054 23.693C325.397 32.3791 327 46.292 327 63.2407C327 83.0975 326.274 98.7872 325.81 106.787C325.619 110.076 322.889 112.604 319.594 112.604H243.974C240.677 112.604 237.944 110.072 237.755 106.779C237.291 98.733 236.562 82.9521 236.562 63.2407C236.562 46.418 238.171 32.4582 239.516 23.726Z" fill="white" stroke="#1E1F21" stroke-width="0.78871" stroke-linecap="round" stroke-linejoin="round"/>
<path d="M239.979 21.1211C240.681 21.2932 241.978 21.3674 242.609 20.2867C245.238 16.5603 248.512 16.0237 252.621 16.0237L313.329 15.4872C313.855 15.4872 315.433 15.4872 315.433 14.4141" stroke="#1E1F21" stroke-width="0.78871" stroke-linecap="round" stroke-linejoin="round"/>
<path d="M238.543 29.9746C238.543 29.9746 237.94 33.3036 237.649 35.6085C237.358 37.9135 237.351 41.779 237.351 41.779C237.351 41.779 264.43 42.3155 281.781 42.3155C299.132 42.3155 326.212 41.779 326.212 41.779C326.212 41.779 326.205 37.9135 325.914 35.6085C325.623 33.3036 325.019 29.9746 325.019 29.9746C325.019 29.9746 298.667 30.5112 281.781 30.5112C264.896 30.5112 238.543 29.9746 238.543 29.9746Z" fill="white" stroke="#1E1F21" stroke-width="0.78871" stroke-linecap="round" stroke-linejoin="round"/>
<path d="M240.614 21.6687L239.598 21.3909L238.015 24.7583C237.876 25.0551 238.039 25.4088 238.356 25.4954L239.678 25.8567C239.994 25.9433 240.309 25.7205 240.334 25.3923L240.614 21.6687Z" fill="white" stroke="#1E1F21" stroke-width="0.78871" stroke-linecap="round" stroke-linejoin="round"/>
<path d="M83.8294 136.966L85.8391 134.993C86.001 134.836 86.1286 134.679 86.2218 134.522C86.32 134.36 86.3691 134.176 86.3691 133.97C86.3691 133.724 86.2881 133.53 86.1261 133.388C85.9691 133.241 85.7728 133.167 85.5372 133.167C85.287 133.167 85.0857 133.253 84.9336 133.425C84.7815 133.592 84.6882 133.803 84.6539 134.058L83.7926 133.925C83.8172 133.71 83.8785 133.511 83.9766 133.329C84.0748 133.148 84.1999 132.991 84.3521 132.858C84.5042 132.726 84.6809 132.622 84.8821 132.549C85.0882 132.47 85.3115 132.431 85.552 132.431C85.7777 132.431 85.9936 132.463 86.1998 132.527C86.4108 132.591 86.5973 132.689 86.7592 132.821C86.9212 132.949 87.0488 133.108 87.142 133.3C87.2402 133.486 87.2892 133.705 87.2892 133.955C87.2892 134.122 87.2671 134.279 87.223 134.426C87.1788 134.568 87.1175 134.703 87.0389 134.831C86.9653 134.958 86.877 135.081 86.7739 135.199C86.6758 135.312 86.5678 135.422 86.45 135.53L84.9483 136.966H87.2966V137.775H83.8294V136.966ZM91.0608 132.564L89.7284 134.492L89.7358 134.5C89.8045 134.47 89.8903 134.448 89.9934 134.433C90.1014 134.419 90.1995 134.411 90.2879 134.411C90.5185 134.411 90.7344 134.455 90.9357 134.544C91.1369 134.627 91.3135 134.745 91.4657 134.897C91.6178 135.044 91.7356 135.221 91.819 135.427C91.9073 135.628 91.9515 135.847 91.9515 136.082C91.9515 136.357 91.9024 136.607 91.8043 136.833C91.7061 137.059 91.5712 137.253 91.3994 137.415C91.2326 137.572 91.0313 137.692 90.7958 137.775C90.5651 137.864 90.3173 137.908 90.0523 137.908C89.7775 137.908 89.5247 137.864 89.2941 137.775C89.0634 137.682 88.8622 137.555 88.6905 137.393C88.5187 137.231 88.3837 137.042 88.2856 136.826C88.1923 136.605 88.1457 136.369 88.1457 136.119C88.1457 135.972 88.158 135.834 88.1825 135.707C88.2071 135.574 88.2414 135.449 88.2856 135.331C88.3347 135.209 88.3911 135.086 88.4549 134.963C88.5236 134.841 88.5997 134.713 88.6831 134.581L89.986 132.564H91.0608ZM89.0438 136.141C89.0438 136.279 89.0659 136.409 89.1101 136.531C89.1591 136.654 89.2278 136.762 89.3162 136.855C89.4045 136.948 89.51 137.022 89.6327 137.076C89.7554 137.13 89.8928 137.157 90.0449 137.157C90.3443 137.157 90.5848 137.064 90.7663 136.877C90.9528 136.686 91.0461 136.436 91.0461 136.126C91.0461 135.979 91.0215 135.844 90.9725 135.722C90.9283 135.594 90.862 135.486 90.7737 135.398C90.6854 135.309 90.5799 135.241 90.4572 135.192C90.3394 135.138 90.2069 135.111 90.0597 135.111C89.9124 135.111 89.775 135.135 89.6474 135.184C89.5247 135.233 89.4168 135.304 89.3235 135.398C89.2352 135.486 89.1665 135.594 89.1174 135.722C89.0683 135.849 89.0438 135.989 89.0438 136.141ZM94.5674 132.564H95.4213L94.7956 134.507H94.0521L94.5674 132.564ZM93.1319 132.564H93.9858L93.3601 134.507H92.6166L93.1319 132.564Z" fill="#272021"/>
<path d="M277.821 133.638L276.79 134.485L276.275 133.874L277.902 132.564H278.704V137.775H277.821V133.638ZM280.768 136.966L282.777 134.993C282.939 134.836 283.067 134.679 283.16 134.522C283.258 134.36 283.307 134.176 283.307 133.97C283.307 133.724 283.226 133.53 283.064 133.388C282.907 133.241 282.711 133.167 282.476 133.167C282.225 133.167 282.024 133.253 281.872 133.425C281.72 133.592 281.627 133.803 281.592 134.058L280.731 133.925C280.755 133.71 280.817 133.511 280.915 133.329C281.013 133.148 281.138 132.991 281.29 132.858C281.442 132.726 281.619 132.622 281.82 132.549C282.026 132.47 282.25 132.431 282.49 132.431C282.716 132.431 282.932 132.463 283.138 132.527C283.349 132.591 283.536 132.689 283.698 132.821C283.859 132.949 283.987 133.108 284.08 133.3C284.178 133.486 284.228 133.705 284.228 133.955C284.228 134.122 284.205 134.279 284.161 134.426C284.117 134.568 284.056 134.703 283.977 134.831C283.904 134.958 283.815 135.081 283.712 135.199C283.614 135.312 283.506 135.422 283.388 135.53L281.887 136.966H284.235V137.775H280.768V136.966ZM287.013 132.564H287.867L287.241 134.507H286.497L287.013 132.564ZM285.577 132.564H286.431L285.805 134.507H285.062L285.577 132.564Z" fill="#272021"/>
<path d="M196.321 61.738L195.29 62.5845L194.775 61.9735L196.402 60.6632H197.204V65.875H196.321V61.738ZM202.845 63.2691C202.845 63.6912 202.804 64.0715 202.72 64.4101C202.642 64.7487 202.524 65.0358 202.367 65.2714C202.215 65.5069 202.023 65.6885 201.793 65.8161C201.567 65.9437 201.307 66.0075 201.012 66.0075C200.718 66.0075 200.455 65.9437 200.225 65.8161C199.994 65.6885 199.8 65.5069 199.643 65.2714C199.486 65.0358 199.366 64.7487 199.282 64.4101C199.204 64.0715 199.165 63.6912 199.165 63.2691C199.165 62.8471 199.204 62.4667 199.282 62.1281C199.366 61.7895 199.486 61.5024 199.643 61.2668C199.8 61.0313 199.994 60.8497 200.225 60.7221C200.455 60.5945 200.718 60.5307 201.012 60.5307C201.307 60.5307 201.567 60.5945 201.793 60.7221C202.023 60.8497 202.215 61.0313 202.367 61.2668C202.524 61.5024 202.642 61.7895 202.72 62.1281C202.804 62.4667 202.845 62.8471 202.845 63.2691ZM201.94 63.2691C201.94 63.0875 201.928 62.8814 201.903 62.6508C201.883 62.4201 201.839 62.2017 201.771 61.9956C201.707 61.7895 201.614 61.6177 201.491 61.4803C201.368 61.338 201.209 61.2668 201.012 61.2668C200.811 61.2668 200.649 61.338 200.526 61.4803C200.404 61.6177 200.308 61.7895 200.239 61.9956C200.176 62.2017 200.131 62.4201 200.107 62.6508C200.082 62.8814 200.07 63.0875 200.07 63.2691C200.07 63.4507 200.082 63.6568 200.107 63.8875C200.131 64.1181 200.176 64.334 200.239 64.5352C200.308 64.7365 200.404 64.9082 200.526 65.0505C200.649 65.1879 200.811 65.2567 201.012 65.2567C201.209 65.2567 201.368 65.1879 201.491 65.0505C201.614 64.9082 201.707 64.7365 201.771 64.5352C201.839 64.334 201.883 64.1181 201.903 63.8875C201.928 63.6568 201.94 63.4507 201.94 63.2691ZM205.513 60.6632H206.367L205.741 62.6066H204.997L205.513 60.6632ZM204.077 60.6632H204.931L204.305 62.6066H203.562L204.077 60.6632Z" fill="#272021"/>
<path d="M3.10352 121.189V125.482H175.568V121.189" stroke="#CED4DB" stroke-width="0.525806"/>
<path d="M237.613 121.189V125.482H325.949V121.189" stroke="#CED4DB" stroke-width="0.525806"/>
<path d="M186.084 112.604L190.29 112.604L190.29 13.877L186.084 13.877" stroke="#CED4DB" stroke-width="0.525806"/>
<defs>
<linearGradient id="paint0_linear_4361_85976" x1="83.1708" y1="42.225" x2="85.1318" y2="42.6801" gradientUnits="userSpaceOnUse">
<stop stop-color="#CB6016"/>
<stop offset="1" stop-color="#E47E1A"/>
</linearGradient>
<linearGradient id="paint1_linear_4361_85976" x1="90.5463" y1="49.6889" x2="92.7633" y2="50.8435" gradientUnits="userSpaceOnUse">
<stop stop-color="#CB6016"/>
<stop offset="1" stop-color="#E47E1A"/>
</linearGradient>
<clipPath id="clip0_4361_85976">
<rect width="25.2387" height="33.2669" fill="white" transform="translate(77.2422 29.9746)"/>
</clipPath>
</defs>
</svg>
