<svg xmlns="http://www.w3.org/2000/svg" width="10.499" height="444.046" viewBox="0 0 10.499 444.046">
    <path fill="#fff" d="M1193.487 2517a1.764 1.764 0 0 1 1.175-1.66v-4.691l-2.578-4.062 2.578-3.034v-5.716l-4.662-7.349 4.663-5.49v-6.272l-2.578-3.034 2.578-4.062v-4.69a1.762 1.762 0 1 1 1.171 0v4.691l2.578 4.062-2.578 3.033V2485l4.665 5.488-4.666 7.353v5.712l2.578 3.035-2.578 4.063v4.69a1.764 1.764 0 1 1-2.346 1.66zm1.17 0a.592.592 0 1 0 .59-.593.593.593 0 0 0-.59.593zm-1.12-10.313l1.711 2.7 1.713-2.7-1.713-2.015zm-1.7-16.072l3.413 5.38 3.414-5.378-3.416-4.018zm1.7-15.025l1.713 2.012 1.711-2.012-1.711-2.7zm1.12-10.313a.592.592 0 1 0 .592-.593.594.594 0 0 0-.592.591zm.063-5.135V2133.35a.53.53 0 1 1 1.059 0v326.79a.53.53 0 1 1-1.059 0zm-1.231-331.93a1.766 1.766 0 0 1 1.176-1.66v-4.691l-2.578-4.062 2.578-3.034v-6.275L1190 2103l4.666-7.354v-5.712l-2.579-3.034 2.579-4.062v-4.691a1.761 1.761 0 1 1 1.171 0v4.691l2.577 4.063-2.577 3.033v5.717l4.663 7.349-4.664 5.49v6.272l2.578 3.034-2.578 4.062v4.691a1.764 1.764 0 1 1-2.346 1.66zm1.17 0a.592.592 0 1 0 .591-.594.593.593 0 0 0-.591.592zm-1.12-10.312l1.711 2.7 1.713-2.7-1.713-2.013zm-1.7-15.026l3.415 4.018 3.412-4.016-3.413-5.38zm1.7-16.072l1.712 2.015 1.712-2.014-1.712-2.7zm1.12-10.312a.592.592 0 1 0 .592-.594.593.593 0 0 0-.592.592z" opacity="0.269" transform="translate(-1190.001 -2074.72)"/>
</svg>
