<svg width="59" height="16" viewBox="0 0 59 16" fill="none" xmlns="http://www.w3.org/2000/svg">
<path d="M6.55697 1.40053H7.81824C8.58635 1.28774 9.37078 1.3869 10.0863 1.68725C10.984 2.22557 11.6351 3.09223 11.9008 4.10233C12.0889 4.63166 12.0889 4.63166 12.5425 4.44419H12.8965V0.253638H1.02506V0.992498H1.51187C1.72342 0.991038 1.9326 1.03684 2.12406 1.12653C2.31552 1.21622 2.48438 1.34753 2.61825 1.5108C3.07187 2.23864 3.14931 3.05469 3.14931 7.30038C3.14931 11.8107 3.04974 12.9135 2.61825 13.4759C2.51173 13.6205 2.37381 13.7392 2.2148 13.8233C2.05579 13.9073 1.8798 13.9544 1.69995 13.9611C1.02506 14.0824 1.02506 14.0714 1.02506 14.3692C0.98774 14.4687 0.98774 14.5784 1.02506 14.6779H8.51526C8.56483 14.5805 8.59066 14.4729 8.59066 14.3637C8.59066 14.2544 8.56483 14.1468 8.51526 14.0494C8.33385 13.9991 8.14894 13.9622 7.96207 13.9391C7.75991 13.9151 7.56008 13.8746 7.36462 13.8178C7.08473 13.6141 6.863 13.3412 6.72135 13.0259C6.5797 12.7107 6.52304 12.364 6.55697 12.0203C6.44633 11.2924 6.39101 9.95807 6.39101 8.85529V7.9841H6.83356C7.38493 7.96728 7.93598 8.02666 8.47101 8.16054C8.72732 8.31842 8.9455 8.53075 9.10998 8.78238C9.27445 9.034 9.38116 9.31872 9.42249 9.61621L9.52207 9.95807H10.197V5.07277H9.57739L9.47781 5.54696C9.43592 5.85118 9.323 6.14136 9.14815 6.39418C8.97329 6.64699 8.74136 6.85539 8.47101 7.00263C8.20919 7.08029 7.93335 7.09912 7.66335 7.05777H6.39101V5.86677C6.39101 4.63166 6.45739 2.02911 6.50165 1.62108L6.55697 1.40053ZM58.3356 10.1455C57.8126 9.30656 56.9969 8.68991 56.0454 8.41418C55.3159 8.1869 54.6416 7.81141 54.065 7.3114C53.9352 7.18631 53.8381 7.03147 53.7822 6.8604C53.7263 6.68932 53.7132 6.50721 53.7441 6.32993C53.745 5.98222 53.8842 5.64905 54.1313 5.4036C54.2988 5.22877 54.5108 5.10256 54.7446 5.03846C54.9785 4.97437 55.2254 4.97479 55.459 5.03969C55.9427 5.17708 56.38 5.44232 56.7248 5.8073C57.0695 6.17228 57.3088 6.62341 57.4173 7.11291C57.5943 7.60915 57.6164 7.60915 57.9373 7.47682L58.1364 7.39963V4.65371L57.9926 4.58755C56.9034 4.20624 55.748 4.04869 54.596 4.12438C53.604 4.14944 52.6571 4.5427 51.9407 5.22716C51.6158 5.5303 51.3613 5.90056 51.1951 6.31202C51.0288 6.72348 50.9548 7.16619 50.9782 7.60915C50.9844 8.2864 51.2541 8.93479 51.7305 9.41771C52.257 9.9338 52.903 10.3126 53.6113 10.5205C55.3262 11.1932 55.8241 11.6233 55.8241 12.4062C55.8315 12.7364 55.7259 13.0593 55.5249 13.3218C55.3238 13.5843 55.0392 13.7709 54.7177 13.8509C54.3314 13.9355 53.9313 13.9355 53.545 13.8509C53.0392 13.6552 52.5876 13.342 52.2277 12.9373C51.8678 12.5325 51.6101 12.048 51.476 11.524L51.3322 11.1711H51.1331C51.0379 11.1782 50.9445 11.2005 50.8565 11.2373H50.7458V14.3692H50.9339C51.6814 14.617 52.4526 14.787 53.2352 14.8764H54.3416C54.8214 14.9115 55.3037 14.8668 55.7688 14.7441C56.3592 14.6355 56.9109 14.3748 57.369 13.9879C57.827 13.601 58.1755 13.1013 58.3798 12.5386C58.5119 12.2242 58.5796 11.8868 58.579 11.5461C58.6226 11.066 58.5386 10.583 58.3356 10.1455ZM47.9135 4.44419C47.2505 4.16674 46.5362 4.03215 45.8173 4.04926C45.0985 4.06636 44.3914 4.23477 43.7424 4.54344C43.1324 4.84084 42.5918 5.26242 42.1554 5.78098C41.719 6.29954 41.3965 6.90355 41.2088 7.55402C40.9695 8.26359 40.8681 9.01214 40.9101 9.75957C40.9022 10.1662 40.9355 10.5726 41.0097 10.9726C41.1883 11.9561 41.6647 12.8615 42.3747 13.5672C43.0847 14.273 43.9944 14.7452 44.9816 14.9206C45.6244 15.0013 46.2749 15.0013 46.9177 14.9206C47.5848 14.8034 48.2232 14.5601 48.7986 14.2038C49.2745 13.9378 49.6773 13.5591 49.9714 13.101C49.9525 13.0291 49.9192 12.9618 49.8736 12.903C49.828 12.8443 49.7709 12.7953 49.7058 12.7591C49.5795 12.8047 49.4604 12.8678 49.3518 12.9466C48.8015 13.3081 48.1517 13.4893 47.4931 13.4649C47.0559 13.4943 46.6177 13.4265 46.2101 13.2663C45.8025 13.1061 45.4358 12.8575 45.1365 12.5386C44.9049 12.3242 44.7138 12.0702 44.5722 11.7887C44.2284 11.1031 44.0432 10.3495 44.0301 9.58312V9.15304H50.1594V8.93248C50.173 8.71214 50.173 8.49117 50.1594 8.27082C50.1572 7.49215 49.9483 6.72794 49.5538 6.05583C49.1593 5.38373 48.5934 4.82768 47.9135 4.44419ZM44.8267 8.25979H44.0522V7.60915C44.3067 5.94396 44.9373 4.95146 45.7118 4.95146C46.4863 4.95146 46.8182 5.93293 46.962 7.73046V8.23774H46.2982L44.8267 8.25979ZM28.9169 4.08027C28.5346 4.06549 28.1546 4.14504 27.8105 4.31185C27.0628 4.67381 26.4588 5.27583 26.0957 6.02116L25.9518 6.28582V4.08027H25.8965C25.7637 4.08027 21.6701 4.89633 21.5374 4.95146C21.4046 5.0066 21.4489 5.01763 21.4489 5.21613C21.4489 5.41463 21.4489 5.44771 21.5374 5.45874L21.9689 5.54696C22.0897 5.54992 22.2083 5.58025 22.3156 5.63566C22.423 5.69107 22.5163 5.7701 22.5884 5.86677C22.865 6.23068 22.9203 6.87029 22.9203 9.59415C22.975 10.8204 22.9232 12.0491 22.7654 13.2664C22.7283 13.45 22.6349 13.6175 22.4982 13.7459C22.3615 13.8743 22.1881 13.9572 22.002 13.9832L21.6259 14.0604H21.482V14.3692C21.4419 14.472 21.4419 14.5861 21.482 14.689H27.6667V14.3692C27.6882 14.2636 27.6882 14.1549 27.6667 14.0494C27.2943 14.0349 26.924 13.9869 26.5603 13.906C26.3623 13.8027 26.2002 13.6421 26.0956 13.4453C25.9909 13.2484 25.9485 13.0246 25.974 12.8032C25.8854 12.1636 25.8412 10.2889 25.8633 8.85529C25.8854 7.42168 25.8633 7.33346 25.985 7.23421C26.3552 6.95127 26.8134 6.80687 27.2795 6.82618C27.7188 6.83573 28.1502 6.94511 28.5408 7.14599C28.6761 7.22092 28.8214 7.2766 28.9722 7.3114C28.9722 7.3114 30.0786 4.64269 30.0786 4.52138C29.937 4.35739 29.7567 4.23118 29.5538 4.15416C29.351 4.07714 29.1321 4.05174 28.9169 4.08027ZM21.4599 8.71193C21.4213 7.92389 21.1943 7.15646 20.7979 6.47357C20.4014 5.79068 19.847 5.21211 19.1808 4.78605C18.389 4.36032 17.5082 4.12558 16.6089 4.10068C15.7097 4.07578 14.8171 4.26142 14.0029 4.64269C12.8517 5.24776 11.9825 6.27632 11.5799 7.5099C11.1641 8.89103 11.1641 10.3634 11.5799 11.7446C11.7979 12.4994 12.2054 13.1864 12.7638 13.7406C13.4592 14.417 14.356 14.8504 15.3195 14.9757C15.938 15.0272 16.5597 15.0272 17.1782 14.9757C17.4058 14.9412 17.6312 14.8933 17.8531 14.8323C18.7537 14.5812 19.5639 14.0797 20.1889 13.3864C20.8139 12.6931 21.2279 11.8367 21.3825 10.9175C21.4929 10.1877 21.5189 9.44764 21.4599 8.71193ZM16.8574 14.2258C15.751 14.5566 14.9212 13.4869 14.6446 11.2373C14.543 10.0595 14.543 8.87517 14.6446 7.69738C14.8659 5.88882 15.4301 4.97352 16.3042 4.97352C16.4805 4.96263 16.6569 4.99399 16.8186 5.06497C16.9803 5.13596 17.1226 5.24451 17.2335 5.38155C17.9748 6.12041 18.3399 7.5871 18.3399 9.79265C18.432 11.0409 18.2351 12.2935 17.7646 13.4539C17.5568 13.7923 17.2354 14.0463 16.8574 14.1707V14.2258ZM36.7722 4.30083C36.46 4.26078 36.144 4.26078 35.8318 4.30083C35.2325 4.30032 34.6402 4.42819 34.0948 4.67577L33.7518 4.81913V2.42611C33.8118 1.61851 33.8118 0.807599 33.7518 0C33.619 0 29.3927 0.805026 29.3263 0.83811C29.2937 0.919528 29.2937 1.01033 29.3263 1.09175C29.3263 1.32333 29.3263 1.3123 29.8242 1.42258C29.9639 1.45383 30.0982 1.50587 30.2225 1.57697C30.4384 1.77939 30.5822 2.04657 30.6318 2.33788C30.7578 3.17712 30.7986 4.02688 30.7535 4.87427V14.5566L31.0522 14.6228C31.4948 14.7221 32.745 14.9316 33.1544 14.9757C33.9718 15.0405 34.7931 15.0405 35.6105 14.9757C36.5178 14.8833 37.3827 14.5459 38.1118 13.9999C38.841 13.4538 39.4068 12.7198 39.7484 11.8769C39.952 11.3359 40.0931 10.7735 40.1688 10.2007C40.2347 9.42472 40.2087 8.64373 40.0914 7.87382C39.9727 7.01081 39.5905 6.20507 38.9968 5.5659C38.403 4.92673 37.6264 4.48507 36.7722 4.30083ZM33.8735 14.0383C33.8735 13.895 33.7629 9.06482 33.785 7.13496V5.62416L34.1059 5.54696C34.3223 5.51605 34.5421 5.51605 34.7586 5.54696C34.998 5.5227 35.2389 5.5769 35.4446 5.70135C35.8577 5.98558 36.2009 6.35952 36.4481 6.79504C36.6953 7.23055 36.8402 7.71629 36.8718 8.21568C36.9524 9.0187 36.9524 9.82774 36.8718 10.6308C36.8056 11.7979 36.3544 12.9105 35.5884 13.7957C35.371 14.0016 35.0979 14.1396 34.8029 14.1927C34.5796 14.2314 34.3513 14.2314 34.128 14.1927C33.9178 14.1927 33.9178 14.1266 33.9178 14.0383H33.8735Z" fill="#CED4DB"/>
</svg>
