<svg width="33" height="16" viewBox="0 0 33 16" fill="none" xmlns="http://www.w3.org/2000/svg">
<path d="M13.9501 0.024661C12.5095 0.00515848 11.2385 1.14263 11.2385 2.79359V10.1709C11.2385 10.3074 11.1863 10.4309 11.0951 10.5284C11.0038 10.6194 10.8799 10.6779 10.7496 10.6779H7.90758C6.16718 10.6714 4.7527 9.28041 4.73314 7.55146C4.73966 5.803 6.16718 4.39904 7.92061 4.39904H10.3324V2.61159H7.88802C6.10851 2.61159 4.46589 3.55407 3.57939 5.08152C2.6929 6.60898 2.6929 8.48743 3.57939 10.0149C4.46589 11.5423 6.10851 12.4848 7.88802 12.4848H12.5682C12.8224 12.4653 13.031 12.2638 13.044 12.0103V2.81309C13.0506 2.3321 13.37 1.90311 13.8393 1.76011C14.3803 1.63012 14.9409 1.89661 15.1821 2.3971L18.0892 7.38896L20.9182 12.2118C21.0616 12.4588 21.2702 12.5823 21.4592 12.5303C21.6222 12.4848 21.733 12.3288 21.72 12.1598V2.81309C21.7265 2.3321 22.0459 1.90311 22.5087 1.76011C23.0562 1.61062 23.6364 1.88361 23.858 2.3971L26.5631 7.01847L29.6007 12.2118C29.7506 12.4588 29.9526 12.5823 30.1482 12.5303C30.3112 12.4848 30.4154 12.3288 30.4024 12.1598V0.109158H28.6099V7.30446L25.455 1.91611C23.5386 -1.3013 19.9209 0.024661 19.9209 2.80659V7.29146L16.766 1.90961C15.9903 0.596645 14.9344 0.0376611 13.9501 0.024661ZM7.90106 0.109158C3.75539 0.109158 0.398438 3.44357 0.398438 7.55146C0.398438 11.6528 3.75539 14.9873 7.90106 14.9873H12.6269C13.4351 15.0588 14.2369 14.7663 14.8105 14.1878C15.3776 13.6158 15.6644 12.8163 15.5797 12.0103V7.77245L18.7346 13.1543C20.6444 16.3782 24.2621 15.0523 24.2621 12.2703V7.78545L27.417 13.1673C29.3334 16.3847 32.9511 15.0653 32.9511 12.2833V0.109158H31.139V12.2248C31.1455 12.8098 30.6892 13.3038 30.1026 13.3493C29.6463 13.3363 29.2356 13.0763 29.027 12.6733L25.983 7.47996L23.2583 2.81309C23.1084 2.56609 22.9063 2.4426 22.7238 2.50109C22.5608 2.54659 22.4565 2.70259 22.4631 2.87158V12.2118C22.4565 12.6993 22.1371 13.1218 21.6743 13.2713C21.1333 13.3948 20.5662 13.1283 20.3316 12.6278L17.5026 7.80495L14.5693 2.81309C14.4259 2.56609 14.2239 2.4426 14.0283 2.50109C13.8654 2.54659 13.7545 2.70259 13.7676 2.87158V12.0103C13.7545 12.6538 13.2331 13.1738 12.5812 13.1933H7.88802C4.73966 13.1933 2.19098 10.6584 2.19098 7.53846C2.19098 4.41204 4.73966 1.88361 7.88802 1.88361H10.3194V0.109158H7.90106Z" fill="#CED4DB"/>
</svg>
