<svg width="31" height="16" viewBox="0 0 31 16" fill="none" xmlns="http://www.w3.org/2000/svg">
<path d="M5.0237 15.0487H5.9214L7.81139 5.11916L9.88433 15.0487H10.6727L13.344 2.43806C13.6286 1.11158 13.7818 0.655166 14.3074 0.524402L14.7234 0.415859V0.0244141H11.6361V0.415859L12.096 0.502749C12.7527 0.633231 12.906 1.02468 12.5995 2.63349L11.0038 10.4362L9.38083 2.17708C9.20553 1.32895 9.09622 0.633231 9.81892 0.502749L10.3003 0.415859V0.0244141H6.07461V0.415859L6.35921 0.481095C6.7973 0.589643 6.863 0.850896 7.03801 1.6771L7.45258 3.65558L6.1699 10.3749L4.4981 2.17708C4.301 1.28564 4.2353 0.611577 4.93591 0.481095L5.26469 0.415859V0.0244141H0.951172V0.415859L1.36717 0.524402C1.76109 0.633231 1.98028 0.828958 2.24308 2.02467L5.0237 15.0487Z" fill="#CED4DB"/>
<path d="M22.6529 11.1038C22.6529 8.71854 21.2176 7.28167 19.8966 5.95918C18.7703 4.83172 17.7271 3.78739 17.7271 2.30938C17.7271 1.61965 17.9899 0.584772 19.0843 0.584772C20.6606 0.584772 21.2519 2.58956 21.5146 5.02536H21.9306V0.110556H21.6678C21.5582 0.584779 21.3612 0.800563 21.0769 0.800563C20.879 0.800563 20.7183 0.680826 20.5232 0.53541C20.2215 0.310599 19.8375 0.0244141 19.1064 0.0244141C17.2454 0.0244141 15.9755 1.55497 15.9755 3.55947C15.9755 5.41739 17.2568 6.7258 18.5124 8.00803C19.7188 9.23997 20.9016 10.4477 20.9016 12.0955C20.9016 13.6258 20.179 14.4881 19.1939 14.4881C17.7271 14.4881 16.7638 12.7855 16.501 10.0478H16.0851V14.9623H16.3478C16.5667 14.2511 16.8513 14.1864 17.092 14.1864C17.2435 14.1864 17.3979 14.3007 17.5943 14.4461C17.9373 14.7 18.4083 15.0487 19.2157 15.0487C21.1644 15.0487 22.6529 13.3891 22.6529 11.1038Z" fill="#CED4DB"/>
<path d="M30.5319 0.544835C30.107 0.653349 29.9582 0.848499 29.9582 1.45528V11.5146C29.9582 13.8346 28.5971 15.0487 26.832 15.0487C25.2371 15.0487 24.3012 13.7261 24.3227 12.2736C24.3444 11.1461 25.1522 10.5825 25.8114 10.6695C26.2578 10.7342 26.747 11.0595 26.6832 11.8398C26.6356 12.448 26.2667 12.7013 25.9407 12.9251C25.6855 13.1003 25.4566 13.2575 25.4288 13.5528C25.4074 13.9428 25.9176 14.4848 26.5982 14.4848C27.6612 14.4848 27.7891 13.3142 27.7891 11.8617V1.43369C27.7891 0.805037 27.5548 0.653349 27.1296 0.544835L26.5982 0.414726V0.0244141H30.9998V0.414726L30.5319 0.544835Z" fill="#CED4DB"/>
</svg>
