<svg width="53" height="16" viewBox="0 0 53 16" fill="none" xmlns="http://www.w3.org/2000/svg">
<path d="M28.4915 9.71005C28.4915 11.3427 26.4648 11.2458 26.4648 11.2458H24.4382V8.29572H26.4648C28.5505 8.2817 28.4915 9.71005 28.4915 9.71005ZM24.4382 3.79665H25.9825C27.5861 3.88158 27.5256 5.07846 27.5256 5.07846C27.5256 6.56585 25.7524 6.5901 25.7524 6.5901H24.4382V3.79665ZM28.1166 7.17022C28.1166 7.17022 29.5038 6.57765 29.4914 5.00592C29.4914 5.00592 29.7024 2.43008 26.298 2.11591H22.5204V12.9144H26.8505C26.8505 12.9144 30.4684 12.9252 30.4684 9.86756C30.4684 9.86756 30.5539 7.78677 28.1166 7.17022ZM18.3402 0H34.2448V15.0243H18.3402V0ZM10.1511 9.71005C10.1511 11.3427 8.12439 11.2458 8.12439 11.2458H6.09761V8.29572H8.12439C10.2102 8.2817 10.1511 9.71005 10.1511 9.71005ZM6.09761 3.79665H7.64224C9.24592 3.88158 9.18524 5.07846 9.18524 5.07846C9.18524 6.56585 7.41213 6.5901 7.41213 6.5901H6.09761V3.79665ZM9.77635 7.17022C9.77635 7.17022 11.1638 6.57765 11.1513 5.00592C11.1513 5.00592 11.3621 2.43008 7.9577 2.11591H4.17993V12.9144H8.51026C8.51026 12.9144 12.1282 12.9252 12.1282 9.86756C12.1282 9.86756 12.2134 7.78677 9.77635 7.17022ZM0 0H15.9045V15.0243H0V0ZM49.3406 2.89007V4.8851C49.3406 4.8851 47.398 3.68838 45.2514 3.66429C45.2514 3.66429 41.2465 3.58548 41.0659 7.5127C41.0659 7.5127 40.9213 11.1243 45.2031 11.3301C45.2031 11.3301 46.9997 11.547 49.4369 9.98902V12.0552C49.4369 12.0552 46.1676 14.0024 42.3802 12.5026C42.3802 12.5026 39.1964 11.3371 39.0752 7.5127C39.0752 7.5127 38.9428 3.57921 43.1889 2.27347C43.1889 2.27347 44.3228 1.83831 46.3605 2.03172C46.3605 2.03167 47.5784 2.15244 49.3406 2.89007ZM36.6805 15.0243H52.5851V0H36.6805V15.0243Z" fill="#CED4DB"/>
</svg>
