<svg width="44" height="16" viewBox="0 0 44 16" fill="none" xmlns="http://www.w3.org/2000/svg">
<path d="M2.50442 3.45956H0.589844V0H10.8338V3.45956H8.89949V11.545H10.8338V14.7476H0.589844V11.545H2.50442V3.45956Z" fill="#CED4DB"/>
<path d="M26.6043 7.29472V11.5253H27.907L27.8873 11.5252C27.5912 10.8728 27.4333 10.1216 27.4333 9.27155C27.4333 5.27823 30.9467 3.5188 34.5192 3.5188H34.7561C35.8417 3.5188 40.184 3.79557 40.638 8.20403L36.3154 8.67848C36.2759 7.47258 36.0193 6.20737 34.5587 6.20737C32.6836 6.20737 32.5454 7.76911 32.5454 9.25178V9.29132C32.5454 10.774 32.7033 12.3357 34.5587 12.3357C35.5259 12.3357 36.3943 11.7822 36.3943 10.5961H40.6972L40.6774 10.9717C39.9669 14.4708 36.7891 15.0243 34.5192 15.0243C31.7699 15.0243 29.0398 13.9825 27.9465 11.6701V14.7476H20.1106V11.5253H21.5909V8.16455C21.5909 7.15634 20.8606 6.70166 19.9329 6.70166C18.7487 6.70166 17.8605 7.57149 17.8605 8.75762V11.545H19.3803V14.7674H11.3667V11.545H12.8076V6.70166H11.3667V3.47933H17.6828V5.71321C17.8012 5.61437 17.8999 5.49575 17.9789 5.39691C19.1237 4.07239 20.4461 3.59794 22.1831 3.59794C24.6305 3.59794 26.6043 4.58639 26.6043 7.29472Z" fill="#CED4DB"/>
<path d="M43.9934 12.9881C43.9934 13.9926 43.1804 14.8069 42.1776 14.8069C41.1747 14.8069 40.3617 13.9926 40.3617 12.9881C40.3617 11.9837 41.1747 11.1694 42.1776 11.1694C43.1804 11.1694 43.9934 11.9837 43.9934 12.9881Z" fill="#CED4DB"/>
</svg>
