<svg xmlns="http://www.w3.org/2000/svg" xmlns:xlink="http://www.w3.org/1999/xlink" width="73" height="67" viewBox="0 0 73 67">
  <defs>
    <style>
      .cls-1 {
        fill: none;
      }

      .cls-2 {
        clip-path: url(#clip-path);
      }

      .cls-3 {
        fill: #fff;
      }

      .cls-4, .cls-5 {
        stroke: none;
      }

      .cls-5 {
        fill: #6ac977;
      }
    </style>
    <clipPath id="clip-path">
      <rect class="cls-1" width="73" height="67"/>
    </clipPath>
  </defs>
  <g id="Repeat_Grid_1" data-name="Repeat Grid 1" class="cls-2">
    <g transform="translate(-2255 -2523)">
      <g id="Union_1" data-name="Union 1" class="cls-3" transform="translate(2255 2523)">
        <path class="cls-4" d="M 5.50029993057251 9.499899864196777 L 4.499599933624268 9.499899864196777 L 4.499599933624268 6.00029993057251 L 4.499599933624268 5.50029993057251 L 3.999599933624268 5.50029993057251 L 0.4999999403953552 5.50029993057251 L 0.4999999403953552 4.499599933624268 L 3.999599933624268 4.499599933624268 L 4.499599933624268 4.499599933624268 L 4.499599933624268 3.999599933624268 L 4.499599933624268 0.4999999403953552 L 5.50029993057251 0.4999999403953552 L 5.50029993057251 3.999599933624268 L 5.50029993057251 4.499599933624268 L 6.00029993057251 4.499599933624268 L 9.499899864196777 4.499599933624268 L 9.499899864196777 5.50029993057251 L 6.00029993057251 5.50029993057251 L 5.50029993057251 5.50029993057251 L 5.50029993057251 6.00029993057251 L 5.50029993057251 9.499899864196777 Z"/>
        <path class="cls-5" d="M 5.00029993057251 8.999899864196777 L 5.00029993057251 5.00029993057251 L 8.999899864196777 4.999599933624268 L 5.00029993057251 4.999599933624268 L 4.999599933624268 0.9999999403953552 L 4.999599933624268 4.999599933624268 L 0.9999999403953552 5.00029993057251 L 4.999599933624268 5.00029993057251 L 5.00029993057251 8.999899864196777 M 6.00029993057251 9.999899864196777 L 3.999599933624268 9.999899864196777 L 3.999599933624268 6.00029993057251 L -6.790160966829717e-08 6.00029993057251 L -6.790160966829717e-08 3.999599933624268 L 3.999599933624268 3.999599933624268 L 3.999599933624268 -6.790160966829717e-08 L 6.00029993057251 -6.790160966829717e-08 L 6.00029993057251 3.999599933624268 L 9.999899864196777 3.999599933624268 L 9.999899864196777 6.00029993057251 L 6.00029993057251 6.00029993057251 L 6.00029993057251 9.999899864196777 Z"/>
      </g>
    </g>
    <g transform="translate(-2236 -2523)">
      <g id="Union_1-2" data-name="Union 1" class="cls-3" transform="translate(2255 2523)">
        <path class="cls-4" d="M 5.50029993057251 9.499899864196777 L 4.499599933624268 9.499899864196777 L 4.499599933624268 6.00029993057251 L 4.499599933624268 5.50029993057251 L 3.999599933624268 5.50029993057251 L 0.4999999403953552 5.50029993057251 L 0.4999999403953552 4.499599933624268 L 3.999599933624268 4.499599933624268 L 4.499599933624268 4.499599933624268 L 4.499599933624268 3.999599933624268 L 4.499599933624268 0.4999999403953552 L 5.50029993057251 0.4999999403953552 L 5.50029993057251 3.999599933624268 L 5.50029993057251 4.499599933624268 L 6.00029993057251 4.499599933624268 L 9.499899864196777 4.499599933624268 L 9.499899864196777 5.50029993057251 L 6.00029993057251 5.50029993057251 L 5.50029993057251 5.50029993057251 L 5.50029993057251 6.00029993057251 L 5.50029993057251 9.499899864196777 Z"/>
        <path class="cls-5" d="M 5.00029993057251 8.999899864196777 L 5.00029993057251 5.00029993057251 L 8.999899864196777 4.999599933624268 L 5.00029993057251 4.999599933624268 L 4.999599933624268 0.9999999403953552 L 4.999599933624268 4.999599933624268 L 0.9999999403953552 5.00029993057251 L 4.999599933624268 5.00029993057251 L 5.00029993057251 8.999899864196777 M 6.00029993057251 9.999899864196777 L 3.999599933624268 9.999899864196777 L 3.999599933624268 6.00029993057251 L -6.790160966829717e-08 6.00029993057251 L -6.790160966829717e-08 3.999599933624268 L 3.999599933624268 3.999599933624268 L 3.999599933624268 -6.790160966829717e-08 L 6.00029993057251 -6.790160966829717e-08 L 6.00029993057251 3.999599933624268 L 9.999899864196777 3.999599933624268 L 9.999899864196777 6.00029993057251 L 6.00029993057251 6.00029993057251 L 6.00029993057251 9.999899864196777 Z"/>
      </g>
    </g>
    <g transform="translate(-2217 -2523)">
      <g id="Union_1-3" data-name="Union 1" class="cls-3" transform="translate(2255 2523)">
        <path class="cls-4" d="M 5.50029993057251 9.499899864196777 L 4.499599933624268 9.499899864196777 L 4.499599933624268 6.00029993057251 L 4.499599933624268 5.50029993057251 L 3.999599933624268 5.50029993057251 L 0.4999999403953552 5.50029993057251 L 0.4999999403953552 4.499599933624268 L 3.999599933624268 4.499599933624268 L 4.499599933624268 4.499599933624268 L 4.499599933624268 3.999599933624268 L 4.499599933624268 0.4999999403953552 L 5.50029993057251 0.4999999403953552 L 5.50029993057251 3.999599933624268 L 5.50029993057251 4.499599933624268 L 6.00029993057251 4.499599933624268 L 9.499899864196777 4.499599933624268 L 9.499899864196777 5.50029993057251 L 6.00029993057251 5.50029993057251 L 5.50029993057251 5.50029993057251 L 5.50029993057251 6.00029993057251 L 5.50029993057251 9.499899864196777 Z"/>
        <path class="cls-5" d="M 5.00029993057251 8.999899864196777 L 5.00029993057251 5.00029993057251 L 8.999899864196777 4.999599933624268 L 5.00029993057251 4.999599933624268 L 4.999599933624268 0.9999999403953552 L 4.999599933624268 4.999599933624268 L 0.9999999403953552 5.00029993057251 L 4.999599933624268 5.00029993057251 L 5.00029993057251 8.999899864196777 M 6.00029993057251 9.999899864196777 L 3.999599933624268 9.999899864196777 L 3.999599933624268 6.00029993057251 L -6.790160966829717e-08 6.00029993057251 L -6.790160966829717e-08 3.999599933624268 L 3.999599933624268 3.999599933624268 L 3.999599933624268 -6.790160966829717e-08 L 6.00029993057251 -6.790160966829717e-08 L 6.00029993057251 3.999599933624268 L 9.999899864196777 3.999599933624268 L 9.999899864196777 6.00029993057251 L 6.00029993057251 6.00029993057251 L 6.00029993057251 9.999899864196777 Z"/>
      </g>
    </g>
    <g transform="translate(-2198 -2523)">
      <g id="Union_1-4" data-name="Union 1" class="cls-3" transform="translate(2255 2523)">
        <path class="cls-4" d="M 5.50029993057251 9.499899864196777 L 4.499599933624268 9.499899864196777 L 4.499599933624268 6.00029993057251 L 4.499599933624268 5.50029993057251 L 3.999599933624268 5.50029993057251 L 0.4999999403953552 5.50029993057251 L 0.4999999403953552 4.499599933624268 L 3.999599933624268 4.499599933624268 L 4.499599933624268 4.499599933624268 L 4.499599933624268 3.999599933624268 L 4.499599933624268 0.4999999403953552 L 5.50029993057251 0.4999999403953552 L 5.50029993057251 3.999599933624268 L 5.50029993057251 4.499599933624268 L 6.00029993057251 4.499599933624268 L 9.499899864196777 4.499599933624268 L 9.499899864196777 5.50029993057251 L 6.00029993057251 5.50029993057251 L 5.50029993057251 5.50029993057251 L 5.50029993057251 6.00029993057251 L 5.50029993057251 9.499899864196777 Z"/>
        <path class="cls-5" d="M 5.00029993057251 8.999899864196777 L 5.00029993057251 5.00029993057251 L 8.999899864196777 4.999599933624268 L 5.00029993057251 4.999599933624268 L 4.999599933624268 0.9999999403953552 L 4.999599933624268 4.999599933624268 L 0.9999999403953552 5.00029993057251 L 4.999599933624268 5.00029993057251 L 5.00029993057251 8.999899864196777 M 6.00029993057251 9.999899864196777 L 3.999599933624268 9.999899864196777 L 3.999599933624268 6.00029993057251 L -6.790160966829717e-08 6.00029993057251 L -6.790160966829717e-08 3.999599933624268 L 3.999599933624268 3.999599933624268 L 3.999599933624268 -6.790160966829717e-08 L 6.00029993057251 -6.790160966829717e-08 L 6.00029993057251 3.999599933624268 L 9.999899864196777 3.999599933624268 L 9.999899864196777 6.00029993057251 L 6.00029993057251 6.00029993057251 L 6.00029993057251 9.999899864196777 Z"/>
      </g>
    </g>
    <g transform="translate(-2255 -2504)">
      <g id="Union_1-5" data-name="Union 1" class="cls-3" transform="translate(2255 2523)">
        <path class="cls-4" d="M 5.50029993057251 9.499899864196777 L 4.499599933624268 9.499899864196777 L 4.499599933624268 6.00029993057251 L 4.499599933624268 5.50029993057251 L 3.999599933624268 5.50029993057251 L 0.4999999403953552 5.50029993057251 L 0.4999999403953552 4.499599933624268 L 3.999599933624268 4.499599933624268 L 4.499599933624268 4.499599933624268 L 4.499599933624268 3.999599933624268 L 4.499599933624268 0.4999999403953552 L 5.50029993057251 0.4999999403953552 L 5.50029993057251 3.999599933624268 L 5.50029993057251 4.499599933624268 L 6.00029993057251 4.499599933624268 L 9.499899864196777 4.499599933624268 L 9.499899864196777 5.50029993057251 L 6.00029993057251 5.50029993057251 L 5.50029993057251 5.50029993057251 L 5.50029993057251 6.00029993057251 L 5.50029993057251 9.499899864196777 Z"/>
        <path class="cls-5" d="M 5.00029993057251 8.999899864196777 L 5.00029993057251 5.00029993057251 L 8.999899864196777 4.999599933624268 L 5.00029993057251 4.999599933624268 L 4.999599933624268 0.9999999403953552 L 4.999599933624268 4.999599933624268 L 0.9999999403953552 5.00029993057251 L 4.999599933624268 5.00029993057251 L 5.00029993057251 8.999899864196777 M 6.00029993057251 9.999899864196777 L 3.999599933624268 9.999899864196777 L 3.999599933624268 6.00029993057251 L -6.790160966829717e-08 6.00029993057251 L -6.790160966829717e-08 3.999599933624268 L 3.999599933624268 3.999599933624268 L 3.999599933624268 -6.790160966829717e-08 L 6.00029993057251 -6.790160966829717e-08 L 6.00029993057251 3.999599933624268 L 9.999899864196777 3.999599933624268 L 9.999899864196777 6.00029993057251 L 6.00029993057251 6.00029993057251 L 6.00029993057251 9.999899864196777 Z"/>
      </g>
    </g>
    <g transform="translate(-2236 -2504)">
      <g id="Union_1-6" data-name="Union 1" class="cls-3" transform="translate(2255 2523)">
        <path class="cls-4" d="M 5.50029993057251 9.499899864196777 L 4.499599933624268 9.499899864196777 L 4.499599933624268 6.00029993057251 L 4.499599933624268 5.50029993057251 L 3.999599933624268 5.50029993057251 L 0.4999999403953552 5.50029993057251 L 0.4999999403953552 4.499599933624268 L 3.999599933624268 4.499599933624268 L 4.499599933624268 4.499599933624268 L 4.499599933624268 3.999599933624268 L 4.499599933624268 0.4999999403953552 L 5.50029993057251 0.4999999403953552 L 5.50029993057251 3.999599933624268 L 5.50029993057251 4.499599933624268 L 6.00029993057251 4.499599933624268 L 9.499899864196777 4.499599933624268 L 9.499899864196777 5.50029993057251 L 6.00029993057251 5.50029993057251 L 5.50029993057251 5.50029993057251 L 5.50029993057251 6.00029993057251 L 5.50029993057251 9.499899864196777 Z"/>
        <path class="cls-5" d="M 5.00029993057251 8.999899864196777 L 5.00029993057251 5.00029993057251 L 8.999899864196777 4.999599933624268 L 5.00029993057251 4.999599933624268 L 4.999599933624268 0.9999999403953552 L 4.999599933624268 4.999599933624268 L 0.9999999403953552 5.00029993057251 L 4.999599933624268 5.00029993057251 L 5.00029993057251 8.999899864196777 M 6.00029993057251 9.999899864196777 L 3.999599933624268 9.999899864196777 L 3.999599933624268 6.00029993057251 L -6.790160966829717e-08 6.00029993057251 L -6.790160966829717e-08 3.999599933624268 L 3.999599933624268 3.999599933624268 L 3.999599933624268 -6.790160966829717e-08 L 6.00029993057251 -6.790160966829717e-08 L 6.00029993057251 3.999599933624268 L 9.999899864196777 3.999599933624268 L 9.999899864196777 6.00029993057251 L 6.00029993057251 6.00029993057251 L 6.00029993057251 9.999899864196777 Z"/>
      </g>
    </g>
    <g transform="translate(-2217 -2504)">
      <g id="Union_1-7" data-name="Union 1" class="cls-3" transform="translate(2255 2523)">
        <path class="cls-4" d="M 5.50029993057251 9.499899864196777 L 4.499599933624268 9.499899864196777 L 4.499599933624268 6.00029993057251 L 4.499599933624268 5.50029993057251 L 3.999599933624268 5.50029993057251 L 0.4999999403953552 5.50029993057251 L 0.4999999403953552 4.499599933624268 L 3.999599933624268 4.499599933624268 L 4.499599933624268 4.499599933624268 L 4.499599933624268 3.999599933624268 L 4.499599933624268 0.4999999403953552 L 5.50029993057251 0.4999999403953552 L 5.50029993057251 3.999599933624268 L 5.50029993057251 4.499599933624268 L 6.00029993057251 4.499599933624268 L 9.499899864196777 4.499599933624268 L 9.499899864196777 5.50029993057251 L 6.00029993057251 5.50029993057251 L 5.50029993057251 5.50029993057251 L 5.50029993057251 6.00029993057251 L 5.50029993057251 9.499899864196777 Z"/>
        <path class="cls-5" d="M 5.00029993057251 8.999899864196777 L 5.00029993057251 5.00029993057251 L 8.999899864196777 4.999599933624268 L 5.00029993057251 4.999599933624268 L 4.999599933624268 0.9999999403953552 L 4.999599933624268 4.999599933624268 L 0.9999999403953552 5.00029993057251 L 4.999599933624268 5.00029993057251 L 5.00029993057251 8.999899864196777 M 6.00029993057251 9.999899864196777 L 3.999599933624268 9.999899864196777 L 3.999599933624268 6.00029993057251 L -6.790160966829717e-08 6.00029993057251 L -6.790160966829717e-08 3.999599933624268 L 3.999599933624268 3.999599933624268 L 3.999599933624268 -6.790160966829717e-08 L 6.00029993057251 -6.790160966829717e-08 L 6.00029993057251 3.999599933624268 L 9.999899864196777 3.999599933624268 L 9.999899864196777 6.00029993057251 L 6.00029993057251 6.00029993057251 L 6.00029993057251 9.999899864196777 Z"/>
      </g>
    </g>
    <g transform="translate(-2198 -2504)">
      <g id="Union_1-8" data-name="Union 1" class="cls-3" transform="translate(2255 2523)">
        <path class="cls-4" d="M 5.50029993057251 9.499899864196777 L 4.499599933624268 9.499899864196777 L 4.499599933624268 6.00029993057251 L 4.499599933624268 5.50029993057251 L 3.999599933624268 5.50029993057251 L 0.4999999403953552 5.50029993057251 L 0.4999999403953552 4.499599933624268 L 3.999599933624268 4.499599933624268 L 4.499599933624268 4.499599933624268 L 4.499599933624268 3.999599933624268 L 4.499599933624268 0.4999999403953552 L 5.50029993057251 0.4999999403953552 L 5.50029993057251 3.999599933624268 L 5.50029993057251 4.499599933624268 L 6.00029993057251 4.499599933624268 L 9.499899864196777 4.499599933624268 L 9.499899864196777 5.50029993057251 L 6.00029993057251 5.50029993057251 L 5.50029993057251 5.50029993057251 L 5.50029993057251 6.00029993057251 L 5.50029993057251 9.499899864196777 Z"/>
        <path class="cls-5" d="M 5.00029993057251 8.999899864196777 L 5.00029993057251 5.00029993057251 L 8.999899864196777 4.999599933624268 L 5.00029993057251 4.999599933624268 L 4.999599933624268 0.9999999403953552 L 4.999599933624268 4.999599933624268 L 0.9999999403953552 5.00029993057251 L 4.999599933624268 5.00029993057251 L 5.00029993057251 8.999899864196777 M 6.00029993057251 9.999899864196777 L 3.999599933624268 9.999899864196777 L 3.999599933624268 6.00029993057251 L -6.790160966829717e-08 6.00029993057251 L -6.790160966829717e-08 3.999599933624268 L 3.999599933624268 3.999599933624268 L 3.999599933624268 -6.790160966829717e-08 L 6.00029993057251 -6.790160966829717e-08 L 6.00029993057251 3.999599933624268 L 9.999899864196777 3.999599933624268 L 9.999899864196777 6.00029993057251 L 6.00029993057251 6.00029993057251 L 6.00029993057251 9.999899864196777 Z"/>
      </g>
    </g>
    <g transform="translate(-2255 -2485)">
      <g id="Union_1-9" data-name="Union 1" class="cls-3" transform="translate(2255 2523)">
        <path class="cls-4" d="M 5.50029993057251 9.499899864196777 L 4.499599933624268 9.499899864196777 L 4.499599933624268 6.00029993057251 L 4.499599933624268 5.50029993057251 L 3.999599933624268 5.50029993057251 L 0.4999999403953552 5.50029993057251 L 0.4999999403953552 4.499599933624268 L 3.999599933624268 4.499599933624268 L 4.499599933624268 4.499599933624268 L 4.499599933624268 3.999599933624268 L 4.499599933624268 0.4999999403953552 L 5.50029993057251 0.4999999403953552 L 5.50029993057251 3.999599933624268 L 5.50029993057251 4.499599933624268 L 6.00029993057251 4.499599933624268 L 9.499899864196777 4.499599933624268 L 9.499899864196777 5.50029993057251 L 6.00029993057251 5.50029993057251 L 5.50029993057251 5.50029993057251 L 5.50029993057251 6.00029993057251 L 5.50029993057251 9.499899864196777 Z"/>
        <path class="cls-5" d="M 5.00029993057251 8.999899864196777 L 5.00029993057251 5.00029993057251 L 8.999899864196777 4.999599933624268 L 5.00029993057251 4.999599933624268 L 4.999599933624268 0.9999999403953552 L 4.999599933624268 4.999599933624268 L 0.9999999403953552 5.00029993057251 L 4.999599933624268 5.00029993057251 L 5.00029993057251 8.999899864196777 M 6.00029993057251 9.999899864196777 L 3.999599933624268 9.999899864196777 L 3.999599933624268 6.00029993057251 L -6.790160966829717e-08 6.00029993057251 L -6.790160966829717e-08 3.999599933624268 L 3.999599933624268 3.999599933624268 L 3.999599933624268 -6.790160966829717e-08 L 6.00029993057251 -6.790160966829717e-08 L 6.00029993057251 3.999599933624268 L 9.999899864196777 3.999599933624268 L 9.999899864196777 6.00029993057251 L 6.00029993057251 6.00029993057251 L 6.00029993057251 9.999899864196777 Z"/>
      </g>
    </g>
    <g transform="translate(-2236 -2485)">
      <g id="Union_1-10" data-name="Union 1" class="cls-3" transform="translate(2255 2523)">
        <path class="cls-4" d="M 5.50029993057251 9.499899864196777 L 4.499599933624268 9.499899864196777 L 4.499599933624268 6.00029993057251 L 4.499599933624268 5.50029993057251 L 3.999599933624268 5.50029993057251 L 0.4999999403953552 5.50029993057251 L 0.4999999403953552 4.499599933624268 L 3.999599933624268 4.499599933624268 L 4.499599933624268 4.499599933624268 L 4.499599933624268 3.999599933624268 L 4.499599933624268 0.4999999403953552 L 5.50029993057251 0.4999999403953552 L 5.50029993057251 3.999599933624268 L 5.50029993057251 4.499599933624268 L 6.00029993057251 4.499599933624268 L 9.499899864196777 4.499599933624268 L 9.499899864196777 5.50029993057251 L 6.00029993057251 5.50029993057251 L 5.50029993057251 5.50029993057251 L 5.50029993057251 6.00029993057251 L 5.50029993057251 9.499899864196777 Z"/>
        <path class="cls-5" d="M 5.00029993057251 8.999899864196777 L 5.00029993057251 5.00029993057251 L 8.999899864196777 4.999599933624268 L 5.00029993057251 4.999599933624268 L 4.999599933624268 0.9999999403953552 L 4.999599933624268 4.999599933624268 L 0.9999999403953552 5.00029993057251 L 4.999599933624268 5.00029993057251 L 5.00029993057251 8.999899864196777 M 6.00029993057251 9.999899864196777 L 3.999599933624268 9.999899864196777 L 3.999599933624268 6.00029993057251 L -6.790160966829717e-08 6.00029993057251 L -6.790160966829717e-08 3.999599933624268 L 3.999599933624268 3.999599933624268 L 3.999599933624268 -6.790160966829717e-08 L 6.00029993057251 -6.790160966829717e-08 L 6.00029993057251 3.999599933624268 L 9.999899864196777 3.999599933624268 L 9.999899864196777 6.00029993057251 L 6.00029993057251 6.00029993057251 L 6.00029993057251 9.999899864196777 Z"/>
      </g>
    </g>
    <g transform="translate(-2217 -2485)">
      <g id="Union_1-11" data-name="Union 1" class="cls-3" transform="translate(2255 2523)">
        <path class="cls-4" d="M 5.50029993057251 9.499899864196777 L 4.499599933624268 9.499899864196777 L 4.499599933624268 6.00029993057251 L 4.499599933624268 5.50029993057251 L 3.999599933624268 5.50029993057251 L 0.4999999403953552 5.50029993057251 L 0.4999999403953552 4.499599933624268 L 3.999599933624268 4.499599933624268 L 4.499599933624268 4.499599933624268 L 4.499599933624268 3.999599933624268 L 4.499599933624268 0.4999999403953552 L 5.50029993057251 0.4999999403953552 L 5.50029993057251 3.999599933624268 L 5.50029993057251 4.499599933624268 L 6.00029993057251 4.499599933624268 L 9.499899864196777 4.499599933624268 L 9.499899864196777 5.50029993057251 L 6.00029993057251 5.50029993057251 L 5.50029993057251 5.50029993057251 L 5.50029993057251 6.00029993057251 L 5.50029993057251 9.499899864196777 Z"/>
        <path class="cls-5" d="M 5.00029993057251 8.999899864196777 L 5.00029993057251 5.00029993057251 L 8.999899864196777 4.999599933624268 L 5.00029993057251 4.999599933624268 L 4.999599933624268 0.9999999403953552 L 4.999599933624268 4.999599933624268 L 0.9999999403953552 5.00029993057251 L 4.999599933624268 5.00029993057251 L 5.00029993057251 8.999899864196777 M 6.00029993057251 9.999899864196777 L 3.999599933624268 9.999899864196777 L 3.999599933624268 6.00029993057251 L -6.790160966829717e-08 6.00029993057251 L -6.790160966829717e-08 3.999599933624268 L 3.999599933624268 3.999599933624268 L 3.999599933624268 -6.790160966829717e-08 L 6.00029993057251 -6.790160966829717e-08 L 6.00029993057251 3.999599933624268 L 9.999899864196777 3.999599933624268 L 9.999899864196777 6.00029993057251 L 6.00029993057251 6.00029993057251 L 6.00029993057251 9.999899864196777 Z"/>
      </g>
    </g>
    <g transform="translate(-2198 -2485)">
      <g id="Union_1-12" data-name="Union 1" class="cls-3" transform="translate(2255 2523)">
        <path class="cls-4" d="M 5.50029993057251 9.499899864196777 L 4.499599933624268 9.499899864196777 L 4.499599933624268 6.00029993057251 L 4.499599933624268 5.50029993057251 L 3.999599933624268 5.50029993057251 L 0.4999999403953552 5.50029993057251 L 0.4999999403953552 4.499599933624268 L 3.999599933624268 4.499599933624268 L 4.499599933624268 4.499599933624268 L 4.499599933624268 3.999599933624268 L 4.499599933624268 0.4999999403953552 L 5.50029993057251 0.4999999403953552 L 5.50029993057251 3.999599933624268 L 5.50029993057251 4.499599933624268 L 6.00029993057251 4.499599933624268 L 9.499899864196777 4.499599933624268 L 9.499899864196777 5.50029993057251 L 6.00029993057251 5.50029993057251 L 5.50029993057251 5.50029993057251 L 5.50029993057251 6.00029993057251 L 5.50029993057251 9.499899864196777 Z"/>
        <path class="cls-5" d="M 5.00029993057251 8.999899864196777 L 5.00029993057251 5.00029993057251 L 8.999899864196777 4.999599933624268 L 5.00029993057251 4.999599933624268 L 4.999599933624268 0.9999999403953552 L 4.999599933624268 4.999599933624268 L 0.9999999403953552 5.00029993057251 L 4.999599933624268 5.00029993057251 L 5.00029993057251 8.999899864196777 M 6.00029993057251 9.999899864196777 L 3.999599933624268 9.999899864196777 L 3.999599933624268 6.00029993057251 L -6.790160966829717e-08 6.00029993057251 L -6.790160966829717e-08 3.999599933624268 L 3.999599933624268 3.999599933624268 L 3.999599933624268 -6.790160966829717e-08 L 6.00029993057251 -6.790160966829717e-08 L 6.00029993057251 3.999599933624268 L 9.999899864196777 3.999599933624268 L 9.999899864196777 6.00029993057251 L 6.00029993057251 6.00029993057251 L 6.00029993057251 9.999899864196777 Z"/>
      </g>
    </g>
    <g transform="translate(-2255 -2466)">
      <g id="Union_1-13" data-name="Union 1" class="cls-3" transform="translate(2255 2523)">
        <path class="cls-4" d="M 5.50029993057251 9.499899864196777 L 4.499599933624268 9.499899864196777 L 4.499599933624268 6.00029993057251 L 4.499599933624268 5.50029993057251 L 3.999599933624268 5.50029993057251 L 0.4999999403953552 5.50029993057251 L 0.4999999403953552 4.499599933624268 L 3.999599933624268 4.499599933624268 L 4.499599933624268 4.499599933624268 L 4.499599933624268 3.999599933624268 L 4.499599933624268 0.4999999403953552 L 5.50029993057251 0.4999999403953552 L 5.50029993057251 3.999599933624268 L 5.50029993057251 4.499599933624268 L 6.00029993057251 4.499599933624268 L 9.499899864196777 4.499599933624268 L 9.499899864196777 5.50029993057251 L 6.00029993057251 5.50029993057251 L 5.50029993057251 5.50029993057251 L 5.50029993057251 6.00029993057251 L 5.50029993057251 9.499899864196777 Z"/>
        <path class="cls-5" d="M 5.00029993057251 8.999899864196777 L 5.00029993057251 5.00029993057251 L 8.999899864196777 4.999599933624268 L 5.00029993057251 4.999599933624268 L 4.999599933624268 0.9999999403953552 L 4.999599933624268 4.999599933624268 L 0.9999999403953552 5.00029993057251 L 4.999599933624268 5.00029993057251 L 5.00029993057251 8.999899864196777 M 6.00029993057251 9.999899864196777 L 3.999599933624268 9.999899864196777 L 3.999599933624268 6.00029993057251 L -6.790160966829717e-08 6.00029993057251 L -6.790160966829717e-08 3.999599933624268 L 3.999599933624268 3.999599933624268 L 3.999599933624268 -6.790160966829717e-08 L 6.00029993057251 -6.790160966829717e-08 L 6.00029993057251 3.999599933624268 L 9.999899864196777 3.999599933624268 L 9.999899864196777 6.00029993057251 L 6.00029993057251 6.00029993057251 L 6.00029993057251 9.999899864196777 Z"/>
      </g>
    </g>
    <g transform="translate(-2236 -2466)">
      <g id="Union_1-14" data-name="Union 1" class="cls-3" transform="translate(2255 2523)">
        <path class="cls-4" d="M 5.50029993057251 9.499899864196777 L 4.499599933624268 9.499899864196777 L 4.499599933624268 6.00029993057251 L 4.499599933624268 5.50029993057251 L 3.999599933624268 5.50029993057251 L 0.4999999403953552 5.50029993057251 L 0.4999999403953552 4.499599933624268 L 3.999599933624268 4.499599933624268 L 4.499599933624268 4.499599933624268 L 4.499599933624268 3.999599933624268 L 4.499599933624268 0.4999999403953552 L 5.50029993057251 0.4999999403953552 L 5.50029993057251 3.999599933624268 L 5.50029993057251 4.499599933624268 L 6.00029993057251 4.499599933624268 L 9.499899864196777 4.499599933624268 L 9.499899864196777 5.50029993057251 L 6.00029993057251 5.50029993057251 L 5.50029993057251 5.50029993057251 L 5.50029993057251 6.00029993057251 L 5.50029993057251 9.499899864196777 Z"/>
        <path class="cls-5" d="M 5.00029993057251 8.999899864196777 L 5.00029993057251 5.00029993057251 L 8.999899864196777 4.999599933624268 L 5.00029993057251 4.999599933624268 L 4.999599933624268 0.9999999403953552 L 4.999599933624268 4.999599933624268 L 0.9999999403953552 5.00029993057251 L 4.999599933624268 5.00029993057251 L 5.00029993057251 8.999899864196777 M 6.00029993057251 9.999899864196777 L 3.999599933624268 9.999899864196777 L 3.999599933624268 6.00029993057251 L -6.790160966829717e-08 6.00029993057251 L -6.790160966829717e-08 3.999599933624268 L 3.999599933624268 3.999599933624268 L 3.999599933624268 -6.790160966829717e-08 L 6.00029993057251 -6.790160966829717e-08 L 6.00029993057251 3.999599933624268 L 9.999899864196777 3.999599933624268 L 9.999899864196777 6.00029993057251 L 6.00029993057251 6.00029993057251 L 6.00029993057251 9.999899864196777 Z"/>
      </g>
    </g>
    <g transform="translate(-2217 -2466)">
      <g id="Union_1-15" data-name="Union 1" class="cls-3" transform="translate(2255 2523)">
        <path class="cls-4" d="M 5.50029993057251 9.499899864196777 L 4.499599933624268 9.499899864196777 L 4.499599933624268 6.00029993057251 L 4.499599933624268 5.50029993057251 L 3.999599933624268 5.50029993057251 L 0.4999999403953552 5.50029993057251 L 0.4999999403953552 4.499599933624268 L 3.999599933624268 4.499599933624268 L 4.499599933624268 4.499599933624268 L 4.499599933624268 3.999599933624268 L 4.499599933624268 0.4999999403953552 L 5.50029993057251 0.4999999403953552 L 5.50029993057251 3.999599933624268 L 5.50029993057251 4.499599933624268 L 6.00029993057251 4.499599933624268 L 9.499899864196777 4.499599933624268 L 9.499899864196777 5.50029993057251 L 6.00029993057251 5.50029993057251 L 5.50029993057251 5.50029993057251 L 5.50029993057251 6.00029993057251 L 5.50029993057251 9.499899864196777 Z"/>
        <path class="cls-5" d="M 5.00029993057251 8.999899864196777 L 5.00029993057251 5.00029993057251 L 8.999899864196777 4.999599933624268 L 5.00029993057251 4.999599933624268 L 4.999599933624268 0.9999999403953552 L 4.999599933624268 4.999599933624268 L 0.9999999403953552 5.00029993057251 L 4.999599933624268 5.00029993057251 L 5.00029993057251 8.999899864196777 M 6.00029993057251 9.999899864196777 L 3.999599933624268 9.999899864196777 L 3.999599933624268 6.00029993057251 L -6.790160966829717e-08 6.00029993057251 L -6.790160966829717e-08 3.999599933624268 L 3.999599933624268 3.999599933624268 L 3.999599933624268 -6.790160966829717e-08 L 6.00029993057251 -6.790160966829717e-08 L 6.00029993057251 3.999599933624268 L 9.999899864196777 3.999599933624268 L 9.999899864196777 6.00029993057251 L 6.00029993057251 6.00029993057251 L 6.00029993057251 9.999899864196777 Z"/>
      </g>
    </g>
    <g transform="translate(-2198 -2466)">
      <g id="Union_1-16" data-name="Union 1" class="cls-3" transform="translate(2255 2523)">
        <path class="cls-4" d="M 5.50029993057251 9.499899864196777 L 4.499599933624268 9.499899864196777 L 4.499599933624268 6.00029993057251 L 4.499599933624268 5.50029993057251 L 3.999599933624268 5.50029993057251 L 0.4999999403953552 5.50029993057251 L 0.4999999403953552 4.499599933624268 L 3.999599933624268 4.499599933624268 L 4.499599933624268 4.499599933624268 L 4.499599933624268 3.999599933624268 L 4.499599933624268 0.4999999403953552 L 5.50029993057251 0.4999999403953552 L 5.50029993057251 3.999599933624268 L 5.50029993057251 4.499599933624268 L 6.00029993057251 4.499599933624268 L 9.499899864196777 4.499599933624268 L 9.499899864196777 5.50029993057251 L 6.00029993057251 5.50029993057251 L 5.50029993057251 5.50029993057251 L 5.50029993057251 6.00029993057251 L 5.50029993057251 9.499899864196777 Z"/>
        <path class="cls-5" d="M 5.00029993057251 8.999899864196777 L 5.00029993057251 5.00029993057251 L 8.999899864196777 4.999599933624268 L 5.00029993057251 4.999599933624268 L 4.999599933624268 0.9999999403953552 L 4.999599933624268 4.999599933624268 L 0.9999999403953552 5.00029993057251 L 4.999599933624268 5.00029993057251 L 5.00029993057251 8.999899864196777 M 6.00029993057251 9.999899864196777 L 3.999599933624268 9.999899864196777 L 3.999599933624268 6.00029993057251 L -6.790160966829717e-08 6.00029993057251 L -6.790160966829717e-08 3.999599933624268 L 3.999599933624268 3.999599933624268 L 3.999599933624268 -6.790160966829717e-08 L 6.00029993057251 -6.790160966829717e-08 L 6.00029993057251 3.999599933624268 L 9.999899864196777 3.999599933624268 L 9.999899864196777 6.00029993057251 L 6.00029993057251 6.00029993057251 L 6.00029993057251 9.999899864196777 Z"/>
      </g>
    </g>
  </g>
</svg>
