<svg xmlns="http://www.w3.org/2000/svg" xmlns:xlink="http://www.w3.org/1999/xlink" width="129" height="127" viewBox="0 0 129 127">
  <defs>
    <style>
      .cls-1 {
        fill: none;
      }

      .cls-2 {
        clip-path: url(#clip-path);
      }

      .cls-3 {
        fill: #fff;
      }

      .cls-4, .cls-5 {
        stroke: none;
      }

      .cls-5 {
        fill: #6ac977;
      }
    </style>
    <clipPath id="clip-path">
      <rect class="cls-1" width="129" height="127"/>
    </clipPath>
  </defs>
  <g id="Repeat_Grid_5" data-name="Repeat Grid 5" class="cls-2">
    <g transform="translate(-2255 -2523)">
      <g id="Union_1" data-name="Union 1" class="cls-3" transform="translate(2255 2523)">
        <path class="cls-4" d="M 5.50029993057251 9.499899864196777 L 4.499599933624268 9.499899864196777 L 4.499599933624268 6.00029993057251 L 4.499599933624268 5.50029993057251 L 3.999599933624268 5.50029993057251 L 0.4999999403953552 5.50029993057251 L 0.4999999403953552 4.499599933624268 L 3.999599933624268 4.499599933624268 L 4.499599933624268 4.499599933624268 L 4.499599933624268 3.999599933624268 L 4.499599933624268 0.4999999403953552 L 5.50029993057251 0.4999999403953552 L 5.50029993057251 3.999599933624268 L 5.50029993057251 4.499599933624268 L 6.00029993057251 4.499599933624268 L 9.499899864196777 4.499599933624268 L 9.499899864196777 5.50029993057251 L 6.00029993057251 5.50029993057251 L 5.50029993057251 5.50029993057251 L 5.50029993057251 6.00029993057251 L 5.50029993057251 9.499899864196777 Z"/>
        <path class="cls-5" d="M 5.00029993057251 8.999899864196777 L 5.00029993057251 5.00029993057251 L 8.999899864196777 4.999599933624268 L 5.00029993057251 4.999599933624268 L 4.999599933624268 0.9999999403953552 L 4.999599933624268 4.999599933624268 L 0.9999999403953552 5.00029993057251 L 4.999599933624268 5.00029993057251 L 5.00029993057251 8.999899864196777 M 6.00029993057251 9.999899864196777 L 3.999599933624268 9.999899864196777 L 3.999599933624268 6.00029993057251 L -6.790160966829717e-08 6.00029993057251 L -6.790160966829717e-08 3.999599933624268 L 3.999599933624268 3.999599933624268 L 3.999599933624268 -6.790160966829717e-08 L 6.00029993057251 -6.790160966829717e-08 L 6.00029993057251 3.999599933624268 L 9.999899864196777 3.999599933624268 L 9.999899864196777 6.00029993057251 L 6.00029993057251 6.00029993057251 L 6.00029993057251 9.999899864196777 Z"/>
      </g>
    </g>
    <g transform="translate(-2236 -2523)">
      <g id="Union_1-2" data-name="Union 1" class="cls-3" transform="translate(2255 2523)">
        <path class="cls-4" d="M 5.50029993057251 9.499899864196777 L 4.499599933624268 9.499899864196777 L 4.499599933624268 6.00029993057251 L 4.499599933624268 5.50029993057251 L 3.999599933624268 5.50029993057251 L 0.4999999403953552 5.50029993057251 L 0.4999999403953552 4.499599933624268 L 3.999599933624268 4.499599933624268 L 4.499599933624268 4.499599933624268 L 4.499599933624268 3.999599933624268 L 4.499599933624268 0.4999999403953552 L 5.50029993057251 0.4999999403953552 L 5.50029993057251 3.999599933624268 L 5.50029993057251 4.499599933624268 L 6.00029993057251 4.499599933624268 L 9.499899864196777 4.499599933624268 L 9.499899864196777 5.50029993057251 L 6.00029993057251 5.50029993057251 L 5.50029993057251 5.50029993057251 L 5.50029993057251 6.00029993057251 L 5.50029993057251 9.499899864196777 Z"/>
        <path class="cls-5" d="M 5.00029993057251 8.999899864196777 L 5.00029993057251 5.00029993057251 L 8.999899864196777 4.999599933624268 L 5.00029993057251 4.999599933624268 L 4.999599933624268 0.9999999403953552 L 4.999599933624268 4.999599933624268 L 0.9999999403953552 5.00029993057251 L 4.999599933624268 5.00029993057251 L 5.00029993057251 8.999899864196777 M 6.00029993057251 9.999899864196777 L 3.999599933624268 9.999899864196777 L 3.999599933624268 6.00029993057251 L -6.790160966829717e-08 6.00029993057251 L -6.790160966829717e-08 3.999599933624268 L 3.999599933624268 3.999599933624268 L 3.999599933624268 -6.790160966829717e-08 L 6.00029993057251 -6.790160966829717e-08 L 6.00029993057251 3.999599933624268 L 9.999899864196777 3.999599933624268 L 9.999899864196777 6.00029993057251 L 6.00029993057251 6.00029993057251 L 6.00029993057251 9.999899864196777 Z"/>
      </g>
    </g>
    <g transform="translate(-2217 -2523)">
      <g id="Union_1-3" data-name="Union 1" class="cls-3" transform="translate(2255 2523)">
        <path class="cls-4" d="M 5.50029993057251 9.499899864196777 L 4.499599933624268 9.499899864196777 L 4.499599933624268 6.00029993057251 L 4.499599933624268 5.50029993057251 L 3.999599933624268 5.50029993057251 L 0.4999999403953552 5.50029993057251 L 0.4999999403953552 4.499599933624268 L 3.999599933624268 4.499599933624268 L 4.499599933624268 4.499599933624268 L 4.499599933624268 3.999599933624268 L 4.499599933624268 0.4999999403953552 L 5.50029993057251 0.4999999403953552 L 5.50029993057251 3.999599933624268 L 5.50029993057251 4.499599933624268 L 6.00029993057251 4.499599933624268 L 9.499899864196777 4.499599933624268 L 9.499899864196777 5.50029993057251 L 6.00029993057251 5.50029993057251 L 5.50029993057251 5.50029993057251 L 5.50029993057251 6.00029993057251 L 5.50029993057251 9.499899864196777 Z"/>
        <path class="cls-5" d="M 5.00029993057251 8.999899864196777 L 5.00029993057251 5.00029993057251 L 8.999899864196777 4.999599933624268 L 5.00029993057251 4.999599933624268 L 4.999599933624268 0.9999999403953552 L 4.999599933624268 4.999599933624268 L 0.9999999403953552 5.00029993057251 L 4.999599933624268 5.00029993057251 L 5.00029993057251 8.999899864196777 M 6.00029993057251 9.999899864196777 L 3.999599933624268 9.999899864196777 L 3.999599933624268 6.00029993057251 L -6.790160966829717e-08 6.00029993057251 L -6.790160966829717e-08 3.999599933624268 L 3.999599933624268 3.999599933624268 L 3.999599933624268 -6.790160966829717e-08 L 6.00029993057251 -6.790160966829717e-08 L 6.00029993057251 3.999599933624268 L 9.999899864196777 3.999599933624268 L 9.999899864196777 6.00029993057251 L 6.00029993057251 6.00029993057251 L 6.00029993057251 9.999899864196777 Z"/>
      </g>
    </g>
    <g transform="translate(-2198 -2523)">
      <g id="Union_1-4" data-name="Union 1" class="cls-3" transform="translate(2255 2523)">
        <path class="cls-4" d="M 5.50029993057251 9.499899864196777 L 4.499599933624268 9.499899864196777 L 4.499599933624268 6.00029993057251 L 4.499599933624268 5.50029993057251 L 3.999599933624268 5.50029993057251 L 0.4999999403953552 5.50029993057251 L 0.4999999403953552 4.499599933624268 L 3.999599933624268 4.499599933624268 L 4.499599933624268 4.499599933624268 L 4.499599933624268 3.999599933624268 L 4.499599933624268 0.4999999403953552 L 5.50029993057251 0.4999999403953552 L 5.50029993057251 3.999599933624268 L 5.50029993057251 4.499599933624268 L 6.00029993057251 4.499599933624268 L 9.499899864196777 4.499599933624268 L 9.499899864196777 5.50029993057251 L 6.00029993057251 5.50029993057251 L 5.50029993057251 5.50029993057251 L 5.50029993057251 6.00029993057251 L 5.50029993057251 9.499899864196777 Z"/>
        <path class="cls-5" d="M 5.00029993057251 8.999899864196777 L 5.00029993057251 5.00029993057251 L 8.999899864196777 4.999599933624268 L 5.00029993057251 4.999599933624268 L 4.999599933624268 0.9999999403953552 L 4.999599933624268 4.999599933624268 L 0.9999999403953552 5.00029993057251 L 4.999599933624268 5.00029993057251 L 5.00029993057251 8.999899864196777 M 6.00029993057251 9.999899864196777 L 3.999599933624268 9.999899864196777 L 3.999599933624268 6.00029993057251 L -6.790160966829717e-08 6.00029993057251 L -6.790160966829717e-08 3.999599933624268 L 3.999599933624268 3.999599933624268 L 3.999599933624268 -6.790160966829717e-08 L 6.00029993057251 -6.790160966829717e-08 L 6.00029993057251 3.999599933624268 L 9.999899864196777 3.999599933624268 L 9.999899864196777 6.00029993057251 L 6.00029993057251 6.00029993057251 L 6.00029993057251 9.999899864196777 Z"/>
      </g>
    </g>
    <g transform="translate(-2179 -2523)">
      <g id="Union_1-5" data-name="Union 1" class="cls-3" transform="translate(2255 2523)">
        <path class="cls-4" d="M 5.50029993057251 9.499899864196777 L 4.499599933624268 9.499899864196777 L 4.499599933624268 6.00029993057251 L 4.499599933624268 5.50029993057251 L 3.999599933624268 5.50029993057251 L 0.4999999403953552 5.50029993057251 L 0.4999999403953552 4.499599933624268 L 3.999599933624268 4.499599933624268 L 4.499599933624268 4.499599933624268 L 4.499599933624268 3.999599933624268 L 4.499599933624268 0.4999999403953552 L 5.50029993057251 0.4999999403953552 L 5.50029993057251 3.999599933624268 L 5.50029993057251 4.499599933624268 L 6.00029993057251 4.499599933624268 L 9.499899864196777 4.499599933624268 L 9.499899864196777 5.50029993057251 L 6.00029993057251 5.50029993057251 L 5.50029993057251 5.50029993057251 L 5.50029993057251 6.00029993057251 L 5.50029993057251 9.499899864196777 Z"/>
        <path class="cls-5" d="M 5.00029993057251 8.999899864196777 L 5.00029993057251 5.00029993057251 L 8.999899864196777 4.999599933624268 L 5.00029993057251 4.999599933624268 L 4.999599933624268 0.9999999403953552 L 4.999599933624268 4.999599933624268 L 0.9999999403953552 5.00029993057251 L 4.999599933624268 5.00029993057251 L 5.00029993057251 8.999899864196777 M 6.00029993057251 9.999899864196777 L 3.999599933624268 9.999899864196777 L 3.999599933624268 6.00029993057251 L -6.790160966829717e-08 6.00029993057251 L -6.790160966829717e-08 3.999599933624268 L 3.999599933624268 3.999599933624268 L 3.999599933624268 -6.790160966829717e-08 L 6.00029993057251 -6.790160966829717e-08 L 6.00029993057251 3.999599933624268 L 9.999899864196777 3.999599933624268 L 9.999899864196777 6.00029993057251 L 6.00029993057251 6.00029993057251 L 6.00029993057251 9.999899864196777 Z"/>
      </g>
    </g>
    <g transform="translate(-2160 -2523)">
      <g id="Union_1-6" data-name="Union 1" class="cls-3" transform="translate(2255 2523)">
        <path class="cls-4" d="M 5.50029993057251 9.499899864196777 L 4.499599933624268 9.499899864196777 L 4.499599933624268 6.00029993057251 L 4.499599933624268 5.50029993057251 L 3.999599933624268 5.50029993057251 L 0.4999999403953552 5.50029993057251 L 0.4999999403953552 4.499599933624268 L 3.999599933624268 4.499599933624268 L 4.499599933624268 4.499599933624268 L 4.499599933624268 3.999599933624268 L 4.499599933624268 0.4999999403953552 L 5.50029993057251 0.4999999403953552 L 5.50029993057251 3.999599933624268 L 5.50029993057251 4.499599933624268 L 6.00029993057251 4.499599933624268 L 9.499899864196777 4.499599933624268 L 9.499899864196777 5.50029993057251 L 6.00029993057251 5.50029993057251 L 5.50029993057251 5.50029993057251 L 5.50029993057251 6.00029993057251 L 5.50029993057251 9.499899864196777 Z"/>
        <path class="cls-5" d="M 5.00029993057251 8.999899864196777 L 5.00029993057251 5.00029993057251 L 8.999899864196777 4.999599933624268 L 5.00029993057251 4.999599933624268 L 4.999599933624268 0.9999999403953552 L 4.999599933624268 4.999599933624268 L 0.9999999403953552 5.00029993057251 L 4.999599933624268 5.00029993057251 L 5.00029993057251 8.999899864196777 M 6.00029993057251 9.999899864196777 L 3.999599933624268 9.999899864196777 L 3.999599933624268 6.00029993057251 L -6.790160966829717e-08 6.00029993057251 L -6.790160966829717e-08 3.999599933624268 L 3.999599933624268 3.999599933624268 L 3.999599933624268 -6.790160966829717e-08 L 6.00029993057251 -6.790160966829717e-08 L 6.00029993057251 3.999599933624268 L 9.999899864196777 3.999599933624268 L 9.999899864196777 6.00029993057251 L 6.00029993057251 6.00029993057251 L 6.00029993057251 9.999899864196777 Z"/>
      </g>
    </g>
    <g transform="translate(-2141 -2523)">
      <g id="Union_1-7" data-name="Union 1" class="cls-3" transform="translate(2255 2523)">
        <path class="cls-4" d="M 5.50029993057251 9.499899864196777 L 4.499599933624268 9.499899864196777 L 4.499599933624268 6.00029993057251 L 4.499599933624268 5.50029993057251 L 3.999599933624268 5.50029993057251 L 0.4999999403953552 5.50029993057251 L 0.4999999403953552 4.499599933624268 L 3.999599933624268 4.499599933624268 L 4.499599933624268 4.499599933624268 L 4.499599933624268 3.999599933624268 L 4.499599933624268 0.4999999403953552 L 5.50029993057251 0.4999999403953552 L 5.50029993057251 3.999599933624268 L 5.50029993057251 4.499599933624268 L 6.00029993057251 4.499599933624268 L 9.499899864196777 4.499599933624268 L 9.499899864196777 5.50029993057251 L 6.00029993057251 5.50029993057251 L 5.50029993057251 5.50029993057251 L 5.50029993057251 6.00029993057251 L 5.50029993057251 9.499899864196777 Z"/>
        <path class="cls-5" d="M 5.00029993057251 8.999899864196777 L 5.00029993057251 5.00029993057251 L 8.999899864196777 4.999599933624268 L 5.00029993057251 4.999599933624268 L 4.999599933624268 0.9999999403953552 L 4.999599933624268 4.999599933624268 L 0.9999999403953552 5.00029993057251 L 4.999599933624268 5.00029993057251 L 5.00029993057251 8.999899864196777 M 6.00029993057251 9.999899864196777 L 3.999599933624268 9.999899864196777 L 3.999599933624268 6.00029993057251 L -6.790160966829717e-08 6.00029993057251 L -6.790160966829717e-08 3.999599933624268 L 3.999599933624268 3.999599933624268 L 3.999599933624268 -6.790160966829717e-08 L 6.00029993057251 -6.790160966829717e-08 L 6.00029993057251 3.999599933624268 L 9.999899864196777 3.999599933624268 L 9.999899864196777 6.00029993057251 L 6.00029993057251 6.00029993057251 L 6.00029993057251 9.999899864196777 Z"/>
      </g>
    </g>
    <g transform="translate(-2255 -2504)">
      <g id="Union_1-8" data-name="Union 1" class="cls-3" transform="translate(2255 2523)">
        <path class="cls-4" d="M 5.50029993057251 9.499899864196777 L 4.499599933624268 9.499899864196777 L 4.499599933624268 6.00029993057251 L 4.499599933624268 5.50029993057251 L 3.999599933624268 5.50029993057251 L 0.4999999403953552 5.50029993057251 L 0.4999999403953552 4.499599933624268 L 3.999599933624268 4.499599933624268 L 4.499599933624268 4.499599933624268 L 4.499599933624268 3.999599933624268 L 4.499599933624268 0.4999999403953552 L 5.50029993057251 0.4999999403953552 L 5.50029993057251 3.999599933624268 L 5.50029993057251 4.499599933624268 L 6.00029993057251 4.499599933624268 L 9.499899864196777 4.499599933624268 L 9.499899864196777 5.50029993057251 L 6.00029993057251 5.50029993057251 L 5.50029993057251 5.50029993057251 L 5.50029993057251 6.00029993057251 L 5.50029993057251 9.499899864196777 Z"/>
        <path class="cls-5" d="M 5.00029993057251 8.999899864196777 L 5.00029993057251 5.00029993057251 L 8.999899864196777 4.999599933624268 L 5.00029993057251 4.999599933624268 L 4.999599933624268 0.9999999403953552 L 4.999599933624268 4.999599933624268 L 0.9999999403953552 5.00029993057251 L 4.999599933624268 5.00029993057251 L 5.00029993057251 8.999899864196777 M 6.00029993057251 9.999899864196777 L 3.999599933624268 9.999899864196777 L 3.999599933624268 6.00029993057251 L -6.790160966829717e-08 6.00029993057251 L -6.790160966829717e-08 3.999599933624268 L 3.999599933624268 3.999599933624268 L 3.999599933624268 -6.790160966829717e-08 L 6.00029993057251 -6.790160966829717e-08 L 6.00029993057251 3.999599933624268 L 9.999899864196777 3.999599933624268 L 9.999899864196777 6.00029993057251 L 6.00029993057251 6.00029993057251 L 6.00029993057251 9.999899864196777 Z"/>
      </g>
    </g>
    <g transform="translate(-2236 -2504)">
      <g id="Union_1-9" data-name="Union 1" class="cls-3" transform="translate(2255 2523)">
        <path class="cls-4" d="M 5.50029993057251 9.499899864196777 L 4.499599933624268 9.499899864196777 L 4.499599933624268 6.00029993057251 L 4.499599933624268 5.50029993057251 L 3.999599933624268 5.50029993057251 L 0.4999999403953552 5.50029993057251 L 0.4999999403953552 4.499599933624268 L 3.999599933624268 4.499599933624268 L 4.499599933624268 4.499599933624268 L 4.499599933624268 3.999599933624268 L 4.499599933624268 0.4999999403953552 L 5.50029993057251 0.4999999403953552 L 5.50029993057251 3.999599933624268 L 5.50029993057251 4.499599933624268 L 6.00029993057251 4.499599933624268 L 9.499899864196777 4.499599933624268 L 9.499899864196777 5.50029993057251 L 6.00029993057251 5.50029993057251 L 5.50029993057251 5.50029993057251 L 5.50029993057251 6.00029993057251 L 5.50029993057251 9.499899864196777 Z"/>
        <path class="cls-5" d="M 5.00029993057251 8.999899864196777 L 5.00029993057251 5.00029993057251 L 8.999899864196777 4.999599933624268 L 5.00029993057251 4.999599933624268 L 4.999599933624268 0.9999999403953552 L 4.999599933624268 4.999599933624268 L 0.9999999403953552 5.00029993057251 L 4.999599933624268 5.00029993057251 L 5.00029993057251 8.999899864196777 M 6.00029993057251 9.999899864196777 L 3.999599933624268 9.999899864196777 L 3.999599933624268 6.00029993057251 L -6.790160966829717e-08 6.00029993057251 L -6.790160966829717e-08 3.999599933624268 L 3.999599933624268 3.999599933624268 L 3.999599933624268 -6.790160966829717e-08 L 6.00029993057251 -6.790160966829717e-08 L 6.00029993057251 3.999599933624268 L 9.999899864196777 3.999599933624268 L 9.999899864196777 6.00029993057251 L 6.00029993057251 6.00029993057251 L 6.00029993057251 9.999899864196777 Z"/>
      </g>
    </g>
    <g transform="translate(-2217 -2504)">
      <g id="Union_1-10" data-name="Union 1" class="cls-3" transform="translate(2255 2523)">
        <path class="cls-4" d="M 5.50029993057251 9.499899864196777 L 4.499599933624268 9.499899864196777 L 4.499599933624268 6.00029993057251 L 4.499599933624268 5.50029993057251 L 3.999599933624268 5.50029993057251 L 0.4999999403953552 5.50029993057251 L 0.4999999403953552 4.499599933624268 L 3.999599933624268 4.499599933624268 L 4.499599933624268 4.499599933624268 L 4.499599933624268 3.999599933624268 L 4.499599933624268 0.4999999403953552 L 5.50029993057251 0.4999999403953552 L 5.50029993057251 3.999599933624268 L 5.50029993057251 4.499599933624268 L 6.00029993057251 4.499599933624268 L 9.499899864196777 4.499599933624268 L 9.499899864196777 5.50029993057251 L 6.00029993057251 5.50029993057251 L 5.50029993057251 5.50029993057251 L 5.50029993057251 6.00029993057251 L 5.50029993057251 9.499899864196777 Z"/>
        <path class="cls-5" d="M 5.00029993057251 8.999899864196777 L 5.00029993057251 5.00029993057251 L 8.999899864196777 4.999599933624268 L 5.00029993057251 4.999599933624268 L 4.999599933624268 0.9999999403953552 L 4.999599933624268 4.999599933624268 L 0.9999999403953552 5.00029993057251 L 4.999599933624268 5.00029993057251 L 5.00029993057251 8.999899864196777 M 6.00029993057251 9.999899864196777 L 3.999599933624268 9.999899864196777 L 3.999599933624268 6.00029993057251 L -6.790160966829717e-08 6.00029993057251 L -6.790160966829717e-08 3.999599933624268 L 3.999599933624268 3.999599933624268 L 3.999599933624268 -6.790160966829717e-08 L 6.00029993057251 -6.790160966829717e-08 L 6.00029993057251 3.999599933624268 L 9.999899864196777 3.999599933624268 L 9.999899864196777 6.00029993057251 L 6.00029993057251 6.00029993057251 L 6.00029993057251 9.999899864196777 Z"/>
      </g>
    </g>
    <g transform="translate(-2198 -2504)">
      <g id="Union_1-11" data-name="Union 1" class="cls-3" transform="translate(2255 2523)">
        <path class="cls-4" d="M 5.50029993057251 9.499899864196777 L 4.499599933624268 9.499899864196777 L 4.499599933624268 6.00029993057251 L 4.499599933624268 5.50029993057251 L 3.999599933624268 5.50029993057251 L 0.4999999403953552 5.50029993057251 L 0.4999999403953552 4.499599933624268 L 3.999599933624268 4.499599933624268 L 4.499599933624268 4.499599933624268 L 4.499599933624268 3.999599933624268 L 4.499599933624268 0.4999999403953552 L 5.50029993057251 0.4999999403953552 L 5.50029993057251 3.999599933624268 L 5.50029993057251 4.499599933624268 L 6.00029993057251 4.499599933624268 L 9.499899864196777 4.499599933624268 L 9.499899864196777 5.50029993057251 L 6.00029993057251 5.50029993057251 L 5.50029993057251 5.50029993057251 L 5.50029993057251 6.00029993057251 L 5.50029993057251 9.499899864196777 Z"/>
        <path class="cls-5" d="M 5.00029993057251 8.999899864196777 L 5.00029993057251 5.00029993057251 L 8.999899864196777 4.999599933624268 L 5.00029993057251 4.999599933624268 L 4.999599933624268 0.9999999403953552 L 4.999599933624268 4.999599933624268 L 0.9999999403953552 5.00029993057251 L 4.999599933624268 5.00029993057251 L 5.00029993057251 8.999899864196777 M 6.00029993057251 9.999899864196777 L 3.999599933624268 9.999899864196777 L 3.999599933624268 6.00029993057251 L -6.790160966829717e-08 6.00029993057251 L -6.790160966829717e-08 3.999599933624268 L 3.999599933624268 3.999599933624268 L 3.999599933624268 -6.790160966829717e-08 L 6.00029993057251 -6.790160966829717e-08 L 6.00029993057251 3.999599933624268 L 9.999899864196777 3.999599933624268 L 9.999899864196777 6.00029993057251 L 6.00029993057251 6.00029993057251 L 6.00029993057251 9.999899864196777 Z"/>
      </g>
    </g>
    <g transform="translate(-2179 -2504)">
      <g id="Union_1-12" data-name="Union 1" class="cls-3" transform="translate(2255 2523)">
        <path class="cls-4" d="M 5.50029993057251 9.499899864196777 L 4.499599933624268 9.499899864196777 L 4.499599933624268 6.00029993057251 L 4.499599933624268 5.50029993057251 L 3.999599933624268 5.50029993057251 L 0.4999999403953552 5.50029993057251 L 0.4999999403953552 4.499599933624268 L 3.999599933624268 4.499599933624268 L 4.499599933624268 4.499599933624268 L 4.499599933624268 3.999599933624268 L 4.499599933624268 0.4999999403953552 L 5.50029993057251 0.4999999403953552 L 5.50029993057251 3.999599933624268 L 5.50029993057251 4.499599933624268 L 6.00029993057251 4.499599933624268 L 9.499899864196777 4.499599933624268 L 9.499899864196777 5.50029993057251 L 6.00029993057251 5.50029993057251 L 5.50029993057251 5.50029993057251 L 5.50029993057251 6.00029993057251 L 5.50029993057251 9.499899864196777 Z"/>
        <path class="cls-5" d="M 5.00029993057251 8.999899864196777 L 5.00029993057251 5.00029993057251 L 8.999899864196777 4.999599933624268 L 5.00029993057251 4.999599933624268 L 4.999599933624268 0.9999999403953552 L 4.999599933624268 4.999599933624268 L 0.9999999403953552 5.00029993057251 L 4.999599933624268 5.00029993057251 L 5.00029993057251 8.999899864196777 M 6.00029993057251 9.999899864196777 L 3.999599933624268 9.999899864196777 L 3.999599933624268 6.00029993057251 L -6.790160966829717e-08 6.00029993057251 L -6.790160966829717e-08 3.999599933624268 L 3.999599933624268 3.999599933624268 L 3.999599933624268 -6.790160966829717e-08 L 6.00029993057251 -6.790160966829717e-08 L 6.00029993057251 3.999599933624268 L 9.999899864196777 3.999599933624268 L 9.999899864196777 6.00029993057251 L 6.00029993057251 6.00029993057251 L 6.00029993057251 9.999899864196777 Z"/>
      </g>
    </g>
    <g transform="translate(-2160 -2504)">
      <g id="Union_1-13" data-name="Union 1" class="cls-3" transform="translate(2255 2523)">
        <path class="cls-4" d="M 5.50029993057251 9.499899864196777 L 4.499599933624268 9.499899864196777 L 4.499599933624268 6.00029993057251 L 4.499599933624268 5.50029993057251 L 3.999599933624268 5.50029993057251 L 0.4999999403953552 5.50029993057251 L 0.4999999403953552 4.499599933624268 L 3.999599933624268 4.499599933624268 L 4.499599933624268 4.499599933624268 L 4.499599933624268 3.999599933624268 L 4.499599933624268 0.4999999403953552 L 5.50029993057251 0.4999999403953552 L 5.50029993057251 3.999599933624268 L 5.50029993057251 4.499599933624268 L 6.00029993057251 4.499599933624268 L 9.499899864196777 4.499599933624268 L 9.499899864196777 5.50029993057251 L 6.00029993057251 5.50029993057251 L 5.50029993057251 5.50029993057251 L 5.50029993057251 6.00029993057251 L 5.50029993057251 9.499899864196777 Z"/>
        <path class="cls-5" d="M 5.00029993057251 8.999899864196777 L 5.00029993057251 5.00029993057251 L 8.999899864196777 4.999599933624268 L 5.00029993057251 4.999599933624268 L 4.999599933624268 0.9999999403953552 L 4.999599933624268 4.999599933624268 L 0.9999999403953552 5.00029993057251 L 4.999599933624268 5.00029993057251 L 5.00029993057251 8.999899864196777 M 6.00029993057251 9.999899864196777 L 3.999599933624268 9.999899864196777 L 3.999599933624268 6.00029993057251 L -6.790160966829717e-08 6.00029993057251 L -6.790160966829717e-08 3.999599933624268 L 3.999599933624268 3.999599933624268 L 3.999599933624268 -6.790160966829717e-08 L 6.00029993057251 -6.790160966829717e-08 L 6.00029993057251 3.999599933624268 L 9.999899864196777 3.999599933624268 L 9.999899864196777 6.00029993057251 L 6.00029993057251 6.00029993057251 L 6.00029993057251 9.999899864196777 Z"/>
      </g>
    </g>
    <g transform="translate(-2141 -2504)">
      <g id="Union_1-14" data-name="Union 1" class="cls-3" transform="translate(2255 2523)">
        <path class="cls-4" d="M 5.50029993057251 9.499899864196777 L 4.499599933624268 9.499899864196777 L 4.499599933624268 6.00029993057251 L 4.499599933624268 5.50029993057251 L 3.999599933624268 5.50029993057251 L 0.4999999403953552 5.50029993057251 L 0.4999999403953552 4.499599933624268 L 3.999599933624268 4.499599933624268 L 4.499599933624268 4.499599933624268 L 4.499599933624268 3.999599933624268 L 4.499599933624268 0.4999999403953552 L 5.50029993057251 0.4999999403953552 L 5.50029993057251 3.999599933624268 L 5.50029993057251 4.499599933624268 L 6.00029993057251 4.499599933624268 L 9.499899864196777 4.499599933624268 L 9.499899864196777 5.50029993057251 L 6.00029993057251 5.50029993057251 L 5.50029993057251 5.50029993057251 L 5.50029993057251 6.00029993057251 L 5.50029993057251 9.499899864196777 Z"/>
        <path class="cls-5" d="M 5.00029993057251 8.999899864196777 L 5.00029993057251 5.00029993057251 L 8.999899864196777 4.999599933624268 L 5.00029993057251 4.999599933624268 L 4.999599933624268 0.9999999403953552 L 4.999599933624268 4.999599933624268 L 0.9999999403953552 5.00029993057251 L 4.999599933624268 5.00029993057251 L 5.00029993057251 8.999899864196777 M 6.00029993057251 9.999899864196777 L 3.999599933624268 9.999899864196777 L 3.999599933624268 6.00029993057251 L -6.790160966829717e-08 6.00029993057251 L -6.790160966829717e-08 3.999599933624268 L 3.999599933624268 3.999599933624268 L 3.999599933624268 -6.790160966829717e-08 L 6.00029993057251 -6.790160966829717e-08 L 6.00029993057251 3.999599933624268 L 9.999899864196777 3.999599933624268 L 9.999899864196777 6.00029993057251 L 6.00029993057251 6.00029993057251 L 6.00029993057251 9.999899864196777 Z"/>
      </g>
    </g>
    <g transform="translate(-2255 -2485)">
      <g id="Union_1-15" data-name="Union 1" class="cls-3" transform="translate(2255 2523)">
        <path class="cls-4" d="M 5.50029993057251 9.499899864196777 L 4.499599933624268 9.499899864196777 L 4.499599933624268 6.00029993057251 L 4.499599933624268 5.50029993057251 L 3.999599933624268 5.50029993057251 L 0.4999999403953552 5.50029993057251 L 0.4999999403953552 4.499599933624268 L 3.999599933624268 4.499599933624268 L 4.499599933624268 4.499599933624268 L 4.499599933624268 3.999599933624268 L 4.499599933624268 0.4999999403953552 L 5.50029993057251 0.4999999403953552 L 5.50029993057251 3.999599933624268 L 5.50029993057251 4.499599933624268 L 6.00029993057251 4.499599933624268 L 9.499899864196777 4.499599933624268 L 9.499899864196777 5.50029993057251 L 6.00029993057251 5.50029993057251 L 5.50029993057251 5.50029993057251 L 5.50029993057251 6.00029993057251 L 5.50029993057251 9.499899864196777 Z"/>
        <path class="cls-5" d="M 5.00029993057251 8.999899864196777 L 5.00029993057251 5.00029993057251 L 8.999899864196777 4.999599933624268 L 5.00029993057251 4.999599933624268 L 4.999599933624268 0.9999999403953552 L 4.999599933624268 4.999599933624268 L 0.9999999403953552 5.00029993057251 L 4.999599933624268 5.00029993057251 L 5.00029993057251 8.999899864196777 M 6.00029993057251 9.999899864196777 L 3.999599933624268 9.999899864196777 L 3.999599933624268 6.00029993057251 L -6.790160966829717e-08 6.00029993057251 L -6.790160966829717e-08 3.999599933624268 L 3.999599933624268 3.999599933624268 L 3.999599933624268 -6.790160966829717e-08 L 6.00029993057251 -6.790160966829717e-08 L 6.00029993057251 3.999599933624268 L 9.999899864196777 3.999599933624268 L 9.999899864196777 6.00029993057251 L 6.00029993057251 6.00029993057251 L 6.00029993057251 9.999899864196777 Z"/>
      </g>
    </g>
    <g transform="translate(-2236 -2485)">
      <g id="Union_1-16" data-name="Union 1" class="cls-3" transform="translate(2255 2523)">
        <path class="cls-4" d="M 5.50029993057251 9.499899864196777 L 4.499599933624268 9.499899864196777 L 4.499599933624268 6.00029993057251 L 4.499599933624268 5.50029993057251 L 3.999599933624268 5.50029993057251 L 0.4999999403953552 5.50029993057251 L 0.4999999403953552 4.499599933624268 L 3.999599933624268 4.499599933624268 L 4.499599933624268 4.499599933624268 L 4.499599933624268 3.999599933624268 L 4.499599933624268 0.4999999403953552 L 5.50029993057251 0.4999999403953552 L 5.50029993057251 3.999599933624268 L 5.50029993057251 4.499599933624268 L 6.00029993057251 4.499599933624268 L 9.499899864196777 4.499599933624268 L 9.499899864196777 5.50029993057251 L 6.00029993057251 5.50029993057251 L 5.50029993057251 5.50029993057251 L 5.50029993057251 6.00029993057251 L 5.50029993057251 9.499899864196777 Z"/>
        <path class="cls-5" d="M 5.00029993057251 8.999899864196777 L 5.00029993057251 5.00029993057251 L 8.999899864196777 4.999599933624268 L 5.00029993057251 4.999599933624268 L 4.999599933624268 0.9999999403953552 L 4.999599933624268 4.999599933624268 L 0.9999999403953552 5.00029993057251 L 4.999599933624268 5.00029993057251 L 5.00029993057251 8.999899864196777 M 6.00029993057251 9.999899864196777 L 3.999599933624268 9.999899864196777 L 3.999599933624268 6.00029993057251 L -6.790160966829717e-08 6.00029993057251 L -6.790160966829717e-08 3.999599933624268 L 3.999599933624268 3.999599933624268 L 3.999599933624268 -6.790160966829717e-08 L 6.00029993057251 -6.790160966829717e-08 L 6.00029993057251 3.999599933624268 L 9.999899864196777 3.999599933624268 L 9.999899864196777 6.00029993057251 L 6.00029993057251 6.00029993057251 L 6.00029993057251 9.999899864196777 Z"/>
      </g>
    </g>
    <g transform="translate(-2217 -2485)">
      <g id="Union_1-17" data-name="Union 1" class="cls-3" transform="translate(2255 2523)">
        <path class="cls-4" d="M 5.50029993057251 9.499899864196777 L 4.499599933624268 9.499899864196777 L 4.499599933624268 6.00029993057251 L 4.499599933624268 5.50029993057251 L 3.999599933624268 5.50029993057251 L 0.4999999403953552 5.50029993057251 L 0.4999999403953552 4.499599933624268 L 3.999599933624268 4.499599933624268 L 4.499599933624268 4.499599933624268 L 4.499599933624268 3.999599933624268 L 4.499599933624268 0.4999999403953552 L 5.50029993057251 0.4999999403953552 L 5.50029993057251 3.999599933624268 L 5.50029993057251 4.499599933624268 L 6.00029993057251 4.499599933624268 L 9.499899864196777 4.499599933624268 L 9.499899864196777 5.50029993057251 L 6.00029993057251 5.50029993057251 L 5.50029993057251 5.50029993057251 L 5.50029993057251 6.00029993057251 L 5.50029993057251 9.499899864196777 Z"/>
        <path class="cls-5" d="M 5.00029993057251 8.999899864196777 L 5.00029993057251 5.00029993057251 L 8.999899864196777 4.999599933624268 L 5.00029993057251 4.999599933624268 L 4.999599933624268 0.9999999403953552 L 4.999599933624268 4.999599933624268 L 0.9999999403953552 5.00029993057251 L 4.999599933624268 5.00029993057251 L 5.00029993057251 8.999899864196777 M 6.00029993057251 9.999899864196777 L 3.999599933624268 9.999899864196777 L 3.999599933624268 6.00029993057251 L -6.790160966829717e-08 6.00029993057251 L -6.790160966829717e-08 3.999599933624268 L 3.999599933624268 3.999599933624268 L 3.999599933624268 -6.790160966829717e-08 L 6.00029993057251 -6.790160966829717e-08 L 6.00029993057251 3.999599933624268 L 9.999899864196777 3.999599933624268 L 9.999899864196777 6.00029993057251 L 6.00029993057251 6.00029993057251 L 6.00029993057251 9.999899864196777 Z"/>
      </g>
    </g>
    <g transform="translate(-2198 -2485)">
      <g id="Union_1-18" data-name="Union 1" class="cls-3" transform="translate(2255 2523)">
        <path class="cls-4" d="M 5.50029993057251 9.499899864196777 L 4.499599933624268 9.499899864196777 L 4.499599933624268 6.00029993057251 L 4.499599933624268 5.50029993057251 L 3.999599933624268 5.50029993057251 L 0.4999999403953552 5.50029993057251 L 0.4999999403953552 4.499599933624268 L 3.999599933624268 4.499599933624268 L 4.499599933624268 4.499599933624268 L 4.499599933624268 3.999599933624268 L 4.499599933624268 0.4999999403953552 L 5.50029993057251 0.4999999403953552 L 5.50029993057251 3.999599933624268 L 5.50029993057251 4.499599933624268 L 6.00029993057251 4.499599933624268 L 9.499899864196777 4.499599933624268 L 9.499899864196777 5.50029993057251 L 6.00029993057251 5.50029993057251 L 5.50029993057251 5.50029993057251 L 5.50029993057251 6.00029993057251 L 5.50029993057251 9.499899864196777 Z"/>
        <path class="cls-5" d="M 5.00029993057251 8.999899864196777 L 5.00029993057251 5.00029993057251 L 8.999899864196777 4.999599933624268 L 5.00029993057251 4.999599933624268 L 4.999599933624268 0.9999999403953552 L 4.999599933624268 4.999599933624268 L 0.9999999403953552 5.00029993057251 L 4.999599933624268 5.00029993057251 L 5.00029993057251 8.999899864196777 M 6.00029993057251 9.999899864196777 L 3.999599933624268 9.999899864196777 L 3.999599933624268 6.00029993057251 L -6.790160966829717e-08 6.00029993057251 L -6.790160966829717e-08 3.999599933624268 L 3.999599933624268 3.999599933624268 L 3.999599933624268 -6.790160966829717e-08 L 6.00029993057251 -6.790160966829717e-08 L 6.00029993057251 3.999599933624268 L 9.999899864196777 3.999599933624268 L 9.999899864196777 6.00029993057251 L 6.00029993057251 6.00029993057251 L 6.00029993057251 9.999899864196777 Z"/>
      </g>
    </g>
    <g transform="translate(-2179 -2485)">
      <g id="Union_1-19" data-name="Union 1" class="cls-3" transform="translate(2255 2523)">
        <path class="cls-4" d="M 5.50029993057251 9.499899864196777 L 4.499599933624268 9.499899864196777 L 4.499599933624268 6.00029993057251 L 4.499599933624268 5.50029993057251 L 3.999599933624268 5.50029993057251 L 0.4999999403953552 5.50029993057251 L 0.4999999403953552 4.499599933624268 L 3.999599933624268 4.499599933624268 L 4.499599933624268 4.499599933624268 L 4.499599933624268 3.999599933624268 L 4.499599933624268 0.4999999403953552 L 5.50029993057251 0.4999999403953552 L 5.50029993057251 3.999599933624268 L 5.50029993057251 4.499599933624268 L 6.00029993057251 4.499599933624268 L 9.499899864196777 4.499599933624268 L 9.499899864196777 5.50029993057251 L 6.00029993057251 5.50029993057251 L 5.50029993057251 5.50029993057251 L 5.50029993057251 6.00029993057251 L 5.50029993057251 9.499899864196777 Z"/>
        <path class="cls-5" d="M 5.00029993057251 8.999899864196777 L 5.00029993057251 5.00029993057251 L 8.999899864196777 4.999599933624268 L 5.00029993057251 4.999599933624268 L 4.999599933624268 0.9999999403953552 L 4.999599933624268 4.999599933624268 L 0.9999999403953552 5.00029993057251 L 4.999599933624268 5.00029993057251 L 5.00029993057251 8.999899864196777 M 6.00029993057251 9.999899864196777 L 3.999599933624268 9.999899864196777 L 3.999599933624268 6.00029993057251 L -6.790160966829717e-08 6.00029993057251 L -6.790160966829717e-08 3.999599933624268 L 3.999599933624268 3.999599933624268 L 3.999599933624268 -6.790160966829717e-08 L 6.00029993057251 -6.790160966829717e-08 L 6.00029993057251 3.999599933624268 L 9.999899864196777 3.999599933624268 L 9.999899864196777 6.00029993057251 L 6.00029993057251 6.00029993057251 L 6.00029993057251 9.999899864196777 Z"/>
      </g>
    </g>
    <g transform="translate(-2160 -2485)">
      <g id="Union_1-20" data-name="Union 1" class="cls-3" transform="translate(2255 2523)">
        <path class="cls-4" d="M 5.50029993057251 9.499899864196777 L 4.499599933624268 9.499899864196777 L 4.499599933624268 6.00029993057251 L 4.499599933624268 5.50029993057251 L 3.999599933624268 5.50029993057251 L 0.4999999403953552 5.50029993057251 L 0.4999999403953552 4.499599933624268 L 3.999599933624268 4.499599933624268 L 4.499599933624268 4.499599933624268 L 4.499599933624268 3.999599933624268 L 4.499599933624268 0.4999999403953552 L 5.50029993057251 0.4999999403953552 L 5.50029993057251 3.999599933624268 L 5.50029993057251 4.499599933624268 L 6.00029993057251 4.499599933624268 L 9.499899864196777 4.499599933624268 L 9.499899864196777 5.50029993057251 L 6.00029993057251 5.50029993057251 L 5.50029993057251 5.50029993057251 L 5.50029993057251 6.00029993057251 L 5.50029993057251 9.499899864196777 Z"/>
        <path class="cls-5" d="M 5.00029993057251 8.999899864196777 L 5.00029993057251 5.00029993057251 L 8.999899864196777 4.999599933624268 L 5.00029993057251 4.999599933624268 L 4.999599933624268 0.9999999403953552 L 4.999599933624268 4.999599933624268 L 0.9999999403953552 5.00029993057251 L 4.999599933624268 5.00029993057251 L 5.00029993057251 8.999899864196777 M 6.00029993057251 9.999899864196777 L 3.999599933624268 9.999899864196777 L 3.999599933624268 6.00029993057251 L -6.790160966829717e-08 6.00029993057251 L -6.790160966829717e-08 3.999599933624268 L 3.999599933624268 3.999599933624268 L 3.999599933624268 -6.790160966829717e-08 L 6.00029993057251 -6.790160966829717e-08 L 6.00029993057251 3.999599933624268 L 9.999899864196777 3.999599933624268 L 9.999899864196777 6.00029993057251 L 6.00029993057251 6.00029993057251 L 6.00029993057251 9.999899864196777 Z"/>
      </g>
    </g>
    <g transform="translate(-2141 -2485)">
      <g id="Union_1-21" data-name="Union 1" class="cls-3" transform="translate(2255 2523)">
        <path class="cls-4" d="M 5.50029993057251 9.499899864196777 L 4.499599933624268 9.499899864196777 L 4.499599933624268 6.00029993057251 L 4.499599933624268 5.50029993057251 L 3.999599933624268 5.50029993057251 L 0.4999999403953552 5.50029993057251 L 0.4999999403953552 4.499599933624268 L 3.999599933624268 4.499599933624268 L 4.499599933624268 4.499599933624268 L 4.499599933624268 3.999599933624268 L 4.499599933624268 0.4999999403953552 L 5.50029993057251 0.4999999403953552 L 5.50029993057251 3.999599933624268 L 5.50029993057251 4.499599933624268 L 6.00029993057251 4.499599933624268 L 9.499899864196777 4.499599933624268 L 9.499899864196777 5.50029993057251 L 6.00029993057251 5.50029993057251 L 5.50029993057251 5.50029993057251 L 5.50029993057251 6.00029993057251 L 5.50029993057251 9.499899864196777 Z"/>
        <path class="cls-5" d="M 5.00029993057251 8.999899864196777 L 5.00029993057251 5.00029993057251 L 8.999899864196777 4.999599933624268 L 5.00029993057251 4.999599933624268 L 4.999599933624268 0.9999999403953552 L 4.999599933624268 4.999599933624268 L 0.9999999403953552 5.00029993057251 L 4.999599933624268 5.00029993057251 L 5.00029993057251 8.999899864196777 M 6.00029993057251 9.999899864196777 L 3.999599933624268 9.999899864196777 L 3.999599933624268 6.00029993057251 L -6.790160966829717e-08 6.00029993057251 L -6.790160966829717e-08 3.999599933624268 L 3.999599933624268 3.999599933624268 L 3.999599933624268 -6.790160966829717e-08 L 6.00029993057251 -6.790160966829717e-08 L 6.00029993057251 3.999599933624268 L 9.999899864196777 3.999599933624268 L 9.999899864196777 6.00029993057251 L 6.00029993057251 6.00029993057251 L 6.00029993057251 9.999899864196777 Z"/>
      </g>
    </g>
    <g transform="translate(-2255 -2466)">
      <g id="Union_1-22" data-name="Union 1" class="cls-3" transform="translate(2255 2523)">
        <path class="cls-4" d="M 5.50029993057251 9.499899864196777 L 4.499599933624268 9.499899864196777 L 4.499599933624268 6.00029993057251 L 4.499599933624268 5.50029993057251 L 3.999599933624268 5.50029993057251 L 0.4999999403953552 5.50029993057251 L 0.4999999403953552 4.499599933624268 L 3.999599933624268 4.499599933624268 L 4.499599933624268 4.499599933624268 L 4.499599933624268 3.999599933624268 L 4.499599933624268 0.4999999403953552 L 5.50029993057251 0.4999999403953552 L 5.50029993057251 3.999599933624268 L 5.50029993057251 4.499599933624268 L 6.00029993057251 4.499599933624268 L 9.499899864196777 4.499599933624268 L 9.499899864196777 5.50029993057251 L 6.00029993057251 5.50029993057251 L 5.50029993057251 5.50029993057251 L 5.50029993057251 6.00029993057251 L 5.50029993057251 9.499899864196777 Z"/>
        <path class="cls-5" d="M 5.00029993057251 8.999899864196777 L 5.00029993057251 5.00029993057251 L 8.999899864196777 4.999599933624268 L 5.00029993057251 4.999599933624268 L 4.999599933624268 0.9999999403953552 L 4.999599933624268 4.999599933624268 L 0.9999999403953552 5.00029993057251 L 4.999599933624268 5.00029993057251 L 5.00029993057251 8.999899864196777 M 6.00029993057251 9.999899864196777 L 3.999599933624268 9.999899864196777 L 3.999599933624268 6.00029993057251 L -6.790160966829717e-08 6.00029993057251 L -6.790160966829717e-08 3.999599933624268 L 3.999599933624268 3.999599933624268 L 3.999599933624268 -6.790160966829717e-08 L 6.00029993057251 -6.790160966829717e-08 L 6.00029993057251 3.999599933624268 L 9.999899864196777 3.999599933624268 L 9.999899864196777 6.00029993057251 L 6.00029993057251 6.00029993057251 L 6.00029993057251 9.999899864196777 Z"/>
      </g>
    </g>
    <g transform="translate(-2236 -2466)">
      <g id="Union_1-23" data-name="Union 1" class="cls-3" transform="translate(2255 2523)">
        <path class="cls-4" d="M 5.50029993057251 9.499899864196777 L 4.499599933624268 9.499899864196777 L 4.499599933624268 6.00029993057251 L 4.499599933624268 5.50029993057251 L 3.999599933624268 5.50029993057251 L 0.4999999403953552 5.50029993057251 L 0.4999999403953552 4.499599933624268 L 3.999599933624268 4.499599933624268 L 4.499599933624268 4.499599933624268 L 4.499599933624268 3.999599933624268 L 4.499599933624268 0.4999999403953552 L 5.50029993057251 0.4999999403953552 L 5.50029993057251 3.999599933624268 L 5.50029993057251 4.499599933624268 L 6.00029993057251 4.499599933624268 L 9.499899864196777 4.499599933624268 L 9.499899864196777 5.50029993057251 L 6.00029993057251 5.50029993057251 L 5.50029993057251 5.50029993057251 L 5.50029993057251 6.00029993057251 L 5.50029993057251 9.499899864196777 Z"/>
        <path class="cls-5" d="M 5.00029993057251 8.999899864196777 L 5.00029993057251 5.00029993057251 L 8.999899864196777 4.999599933624268 L 5.00029993057251 4.999599933624268 L 4.999599933624268 0.9999999403953552 L 4.999599933624268 4.999599933624268 L 0.9999999403953552 5.00029993057251 L 4.999599933624268 5.00029993057251 L 5.00029993057251 8.999899864196777 M 6.00029993057251 9.999899864196777 L 3.999599933624268 9.999899864196777 L 3.999599933624268 6.00029993057251 L -6.790160966829717e-08 6.00029993057251 L -6.790160966829717e-08 3.999599933624268 L 3.999599933624268 3.999599933624268 L 3.999599933624268 -6.790160966829717e-08 L 6.00029993057251 -6.790160966829717e-08 L 6.00029993057251 3.999599933624268 L 9.999899864196777 3.999599933624268 L 9.999899864196777 6.00029993057251 L 6.00029993057251 6.00029993057251 L 6.00029993057251 9.999899864196777 Z"/>
      </g>
    </g>
    <g transform="translate(-2217 -2466)">
      <g id="Union_1-24" data-name="Union 1" class="cls-3" transform="translate(2255 2523)">
        <path class="cls-4" d="M 5.50029993057251 9.499899864196777 L 4.499599933624268 9.499899864196777 L 4.499599933624268 6.00029993057251 L 4.499599933624268 5.50029993057251 L 3.999599933624268 5.50029993057251 L 0.4999999403953552 5.50029993057251 L 0.4999999403953552 4.499599933624268 L 3.999599933624268 4.499599933624268 L 4.499599933624268 4.499599933624268 L 4.499599933624268 3.999599933624268 L 4.499599933624268 0.4999999403953552 L 5.50029993057251 0.4999999403953552 L 5.50029993057251 3.999599933624268 L 5.50029993057251 4.499599933624268 L 6.00029993057251 4.499599933624268 L 9.499899864196777 4.499599933624268 L 9.499899864196777 5.50029993057251 L 6.00029993057251 5.50029993057251 L 5.50029993057251 5.50029993057251 L 5.50029993057251 6.00029993057251 L 5.50029993057251 9.499899864196777 Z"/>
        <path class="cls-5" d="M 5.00029993057251 8.999899864196777 L 5.00029993057251 5.00029993057251 L 8.999899864196777 4.999599933624268 L 5.00029993057251 4.999599933624268 L 4.999599933624268 0.9999999403953552 L 4.999599933624268 4.999599933624268 L 0.9999999403953552 5.00029993057251 L 4.999599933624268 5.00029993057251 L 5.00029993057251 8.999899864196777 M 6.00029993057251 9.999899864196777 L 3.999599933624268 9.999899864196777 L 3.999599933624268 6.00029993057251 L -6.790160966829717e-08 6.00029993057251 L -6.790160966829717e-08 3.999599933624268 L 3.999599933624268 3.999599933624268 L 3.999599933624268 -6.790160966829717e-08 L 6.00029993057251 -6.790160966829717e-08 L 6.00029993057251 3.999599933624268 L 9.999899864196777 3.999599933624268 L 9.999899864196777 6.00029993057251 L 6.00029993057251 6.00029993057251 L 6.00029993057251 9.999899864196777 Z"/>
      </g>
    </g>
    <g transform="translate(-2198 -2466)">
      <g id="Union_1-25" data-name="Union 1" class="cls-3" transform="translate(2255 2523)">
        <path class="cls-4" d="M 5.50029993057251 9.499899864196777 L 4.499599933624268 9.499899864196777 L 4.499599933624268 6.00029993057251 L 4.499599933624268 5.50029993057251 L 3.999599933624268 5.50029993057251 L 0.4999999403953552 5.50029993057251 L 0.4999999403953552 4.499599933624268 L 3.999599933624268 4.499599933624268 L 4.499599933624268 4.499599933624268 L 4.499599933624268 3.999599933624268 L 4.499599933624268 0.4999999403953552 L 5.50029993057251 0.4999999403953552 L 5.50029993057251 3.999599933624268 L 5.50029993057251 4.499599933624268 L 6.00029993057251 4.499599933624268 L 9.499899864196777 4.499599933624268 L 9.499899864196777 5.50029993057251 L 6.00029993057251 5.50029993057251 L 5.50029993057251 5.50029993057251 L 5.50029993057251 6.00029993057251 L 5.50029993057251 9.499899864196777 Z"/>
        <path class="cls-5" d="M 5.00029993057251 8.999899864196777 L 5.00029993057251 5.00029993057251 L 8.999899864196777 4.999599933624268 L 5.00029993057251 4.999599933624268 L 4.999599933624268 0.9999999403953552 L 4.999599933624268 4.999599933624268 L 0.9999999403953552 5.00029993057251 L 4.999599933624268 5.00029993057251 L 5.00029993057251 8.999899864196777 M 6.00029993057251 9.999899864196777 L 3.999599933624268 9.999899864196777 L 3.999599933624268 6.00029993057251 L -6.790160966829717e-08 6.00029993057251 L -6.790160966829717e-08 3.999599933624268 L 3.999599933624268 3.999599933624268 L 3.999599933624268 -6.790160966829717e-08 L 6.00029993057251 -6.790160966829717e-08 L 6.00029993057251 3.999599933624268 L 9.999899864196777 3.999599933624268 L 9.999899864196777 6.00029993057251 L 6.00029993057251 6.00029993057251 L 6.00029993057251 9.999899864196777 Z"/>
      </g>
    </g>
    <g transform="translate(-2179 -2466)">
      <g id="Union_1-26" data-name="Union 1" class="cls-3" transform="translate(2255 2523)">
        <path class="cls-4" d="M 5.50029993057251 9.499899864196777 L 4.499599933624268 9.499899864196777 L 4.499599933624268 6.00029993057251 L 4.499599933624268 5.50029993057251 L 3.999599933624268 5.50029993057251 L 0.4999999403953552 5.50029993057251 L 0.4999999403953552 4.499599933624268 L 3.999599933624268 4.499599933624268 L 4.499599933624268 4.499599933624268 L 4.499599933624268 3.999599933624268 L 4.499599933624268 0.4999999403953552 L 5.50029993057251 0.4999999403953552 L 5.50029993057251 3.999599933624268 L 5.50029993057251 4.499599933624268 L 6.00029993057251 4.499599933624268 L 9.499899864196777 4.499599933624268 L 9.499899864196777 5.50029993057251 L 6.00029993057251 5.50029993057251 L 5.50029993057251 5.50029993057251 L 5.50029993057251 6.00029993057251 L 5.50029993057251 9.499899864196777 Z"/>
        <path class="cls-5" d="M 5.00029993057251 8.999899864196777 L 5.00029993057251 5.00029993057251 L 8.999899864196777 4.999599933624268 L 5.00029993057251 4.999599933624268 L 4.999599933624268 0.9999999403953552 L 4.999599933624268 4.999599933624268 L 0.9999999403953552 5.00029993057251 L 4.999599933624268 5.00029993057251 L 5.00029993057251 8.999899864196777 M 6.00029993057251 9.999899864196777 L 3.999599933624268 9.999899864196777 L 3.999599933624268 6.00029993057251 L -6.790160966829717e-08 6.00029993057251 L -6.790160966829717e-08 3.999599933624268 L 3.999599933624268 3.999599933624268 L 3.999599933624268 -6.790160966829717e-08 L 6.00029993057251 -6.790160966829717e-08 L 6.00029993057251 3.999599933624268 L 9.999899864196777 3.999599933624268 L 9.999899864196777 6.00029993057251 L 6.00029993057251 6.00029993057251 L 6.00029993057251 9.999899864196777 Z"/>
      </g>
    </g>
    <g transform="translate(-2160 -2466)">
      <g id="Union_1-27" data-name="Union 1" class="cls-3" transform="translate(2255 2523)">
        <path class="cls-4" d="M 5.50029993057251 9.499899864196777 L 4.499599933624268 9.499899864196777 L 4.499599933624268 6.00029993057251 L 4.499599933624268 5.50029993057251 L 3.999599933624268 5.50029993057251 L 0.4999999403953552 5.50029993057251 L 0.4999999403953552 4.499599933624268 L 3.999599933624268 4.499599933624268 L 4.499599933624268 4.499599933624268 L 4.499599933624268 3.999599933624268 L 4.499599933624268 0.4999999403953552 L 5.50029993057251 0.4999999403953552 L 5.50029993057251 3.999599933624268 L 5.50029993057251 4.499599933624268 L 6.00029993057251 4.499599933624268 L 9.499899864196777 4.499599933624268 L 9.499899864196777 5.50029993057251 L 6.00029993057251 5.50029993057251 L 5.50029993057251 5.50029993057251 L 5.50029993057251 6.00029993057251 L 5.50029993057251 9.499899864196777 Z"/>
        <path class="cls-5" d="M 5.00029993057251 8.999899864196777 L 5.00029993057251 5.00029993057251 L 8.999899864196777 4.999599933624268 L 5.00029993057251 4.999599933624268 L 4.999599933624268 0.9999999403953552 L 4.999599933624268 4.999599933624268 L 0.9999999403953552 5.00029993057251 L 4.999599933624268 5.00029993057251 L 5.00029993057251 8.999899864196777 M 6.00029993057251 9.999899864196777 L 3.999599933624268 9.999899864196777 L 3.999599933624268 6.00029993057251 L -6.790160966829717e-08 6.00029993057251 L -6.790160966829717e-08 3.999599933624268 L 3.999599933624268 3.999599933624268 L 3.999599933624268 -6.790160966829717e-08 L 6.00029993057251 -6.790160966829717e-08 L 6.00029993057251 3.999599933624268 L 9.999899864196777 3.999599933624268 L 9.999899864196777 6.00029993057251 L 6.00029993057251 6.00029993057251 L 6.00029993057251 9.999899864196777 Z"/>
      </g>
    </g>
    <g transform="translate(-2141 -2466)">
      <g id="Union_1-28" data-name="Union 1" class="cls-3" transform="translate(2255 2523)">
        <path class="cls-4" d="M 5.50029993057251 9.499899864196777 L 4.499599933624268 9.499899864196777 L 4.499599933624268 6.00029993057251 L 4.499599933624268 5.50029993057251 L 3.999599933624268 5.50029993057251 L 0.4999999403953552 5.50029993057251 L 0.4999999403953552 4.499599933624268 L 3.999599933624268 4.499599933624268 L 4.499599933624268 4.499599933624268 L 4.499599933624268 3.999599933624268 L 4.499599933624268 0.4999999403953552 L 5.50029993057251 0.4999999403953552 L 5.50029993057251 3.999599933624268 L 5.50029993057251 4.499599933624268 L 6.00029993057251 4.499599933624268 L 9.499899864196777 4.499599933624268 L 9.499899864196777 5.50029993057251 L 6.00029993057251 5.50029993057251 L 5.50029993057251 5.50029993057251 L 5.50029993057251 6.00029993057251 L 5.50029993057251 9.499899864196777 Z"/>
        <path class="cls-5" d="M 5.00029993057251 8.999899864196777 L 5.00029993057251 5.00029993057251 L 8.999899864196777 4.999599933624268 L 5.00029993057251 4.999599933624268 L 4.999599933624268 0.9999999403953552 L 4.999599933624268 4.999599933624268 L 0.9999999403953552 5.00029993057251 L 4.999599933624268 5.00029993057251 L 5.00029993057251 8.999899864196777 M 6.00029993057251 9.999899864196777 L 3.999599933624268 9.999899864196777 L 3.999599933624268 6.00029993057251 L -6.790160966829717e-08 6.00029993057251 L -6.790160966829717e-08 3.999599933624268 L 3.999599933624268 3.999599933624268 L 3.999599933624268 -6.790160966829717e-08 L 6.00029993057251 -6.790160966829717e-08 L 6.00029993057251 3.999599933624268 L 9.999899864196777 3.999599933624268 L 9.999899864196777 6.00029993057251 L 6.00029993057251 6.00029993057251 L 6.00029993057251 9.999899864196777 Z"/>
      </g>
    </g>
    <g transform="translate(-2255 -2447)">
      <g id="Union_1-29" data-name="Union 1" class="cls-3" transform="translate(2255 2523)">
        <path class="cls-4" d="M 5.50029993057251 9.499899864196777 L 4.499599933624268 9.499899864196777 L 4.499599933624268 6.00029993057251 L 4.499599933624268 5.50029993057251 L 3.999599933624268 5.50029993057251 L 0.4999999403953552 5.50029993057251 L 0.4999999403953552 4.499599933624268 L 3.999599933624268 4.499599933624268 L 4.499599933624268 4.499599933624268 L 4.499599933624268 3.999599933624268 L 4.499599933624268 0.4999999403953552 L 5.50029993057251 0.4999999403953552 L 5.50029993057251 3.999599933624268 L 5.50029993057251 4.499599933624268 L 6.00029993057251 4.499599933624268 L 9.499899864196777 4.499599933624268 L 9.499899864196777 5.50029993057251 L 6.00029993057251 5.50029993057251 L 5.50029993057251 5.50029993057251 L 5.50029993057251 6.00029993057251 L 5.50029993057251 9.499899864196777 Z"/>
        <path class="cls-5" d="M 5.00029993057251 8.999899864196777 L 5.00029993057251 5.00029993057251 L 8.999899864196777 4.999599933624268 L 5.00029993057251 4.999599933624268 L 4.999599933624268 0.9999999403953552 L 4.999599933624268 4.999599933624268 L 0.9999999403953552 5.00029993057251 L 4.999599933624268 5.00029993057251 L 5.00029993057251 8.999899864196777 M 6.00029993057251 9.999899864196777 L 3.999599933624268 9.999899864196777 L 3.999599933624268 6.00029993057251 L -6.790160966829717e-08 6.00029993057251 L -6.790160966829717e-08 3.999599933624268 L 3.999599933624268 3.999599933624268 L 3.999599933624268 -6.790160966829717e-08 L 6.00029993057251 -6.790160966829717e-08 L 6.00029993057251 3.999599933624268 L 9.999899864196777 3.999599933624268 L 9.999899864196777 6.00029993057251 L 6.00029993057251 6.00029993057251 L 6.00029993057251 9.999899864196777 Z"/>
      </g>
    </g>
    <g transform="translate(-2236 -2447)">
      <g id="Union_1-30" data-name="Union 1" class="cls-3" transform="translate(2255 2523)">
        <path class="cls-4" d="M 5.50029993057251 9.499899864196777 L 4.499599933624268 9.499899864196777 L 4.499599933624268 6.00029993057251 L 4.499599933624268 5.50029993057251 L 3.999599933624268 5.50029993057251 L 0.4999999403953552 5.50029993057251 L 0.4999999403953552 4.499599933624268 L 3.999599933624268 4.499599933624268 L 4.499599933624268 4.499599933624268 L 4.499599933624268 3.999599933624268 L 4.499599933624268 0.4999999403953552 L 5.50029993057251 0.4999999403953552 L 5.50029993057251 3.999599933624268 L 5.50029993057251 4.499599933624268 L 6.00029993057251 4.499599933624268 L 9.499899864196777 4.499599933624268 L 9.499899864196777 5.50029993057251 L 6.00029993057251 5.50029993057251 L 5.50029993057251 5.50029993057251 L 5.50029993057251 6.00029993057251 L 5.50029993057251 9.499899864196777 Z"/>
        <path class="cls-5" d="M 5.00029993057251 8.999899864196777 L 5.00029993057251 5.00029993057251 L 8.999899864196777 4.999599933624268 L 5.00029993057251 4.999599933624268 L 4.999599933624268 0.9999999403953552 L 4.999599933624268 4.999599933624268 L 0.9999999403953552 5.00029993057251 L 4.999599933624268 5.00029993057251 L 5.00029993057251 8.999899864196777 M 6.00029993057251 9.999899864196777 L 3.999599933624268 9.999899864196777 L 3.999599933624268 6.00029993057251 L -6.790160966829717e-08 6.00029993057251 L -6.790160966829717e-08 3.999599933624268 L 3.999599933624268 3.999599933624268 L 3.999599933624268 -6.790160966829717e-08 L 6.00029993057251 -6.790160966829717e-08 L 6.00029993057251 3.999599933624268 L 9.999899864196777 3.999599933624268 L 9.999899864196777 6.00029993057251 L 6.00029993057251 6.00029993057251 L 6.00029993057251 9.999899864196777 Z"/>
      </g>
    </g>
    <g transform="translate(-2217 -2447)">
      <g id="Union_1-31" data-name="Union 1" class="cls-3" transform="translate(2255 2523)">
        <path class="cls-4" d="M 5.50029993057251 9.499899864196777 L 4.499599933624268 9.499899864196777 L 4.499599933624268 6.00029993057251 L 4.499599933624268 5.50029993057251 L 3.999599933624268 5.50029993057251 L 0.4999999403953552 5.50029993057251 L 0.4999999403953552 4.499599933624268 L 3.999599933624268 4.499599933624268 L 4.499599933624268 4.499599933624268 L 4.499599933624268 3.999599933624268 L 4.499599933624268 0.4999999403953552 L 5.50029993057251 0.4999999403953552 L 5.50029993057251 3.999599933624268 L 5.50029993057251 4.499599933624268 L 6.00029993057251 4.499599933624268 L 9.499899864196777 4.499599933624268 L 9.499899864196777 5.50029993057251 L 6.00029993057251 5.50029993057251 L 5.50029993057251 5.50029993057251 L 5.50029993057251 6.00029993057251 L 5.50029993057251 9.499899864196777 Z"/>
        <path class="cls-5" d="M 5.00029993057251 8.999899864196777 L 5.00029993057251 5.00029993057251 L 8.999899864196777 4.999599933624268 L 5.00029993057251 4.999599933624268 L 4.999599933624268 0.9999999403953552 L 4.999599933624268 4.999599933624268 L 0.9999999403953552 5.00029993057251 L 4.999599933624268 5.00029993057251 L 5.00029993057251 8.999899864196777 M 6.00029993057251 9.999899864196777 L 3.999599933624268 9.999899864196777 L 3.999599933624268 6.00029993057251 L -6.790160966829717e-08 6.00029993057251 L -6.790160966829717e-08 3.999599933624268 L 3.999599933624268 3.999599933624268 L 3.999599933624268 -6.790160966829717e-08 L 6.00029993057251 -6.790160966829717e-08 L 6.00029993057251 3.999599933624268 L 9.999899864196777 3.999599933624268 L 9.999899864196777 6.00029993057251 L 6.00029993057251 6.00029993057251 L 6.00029993057251 9.999899864196777 Z"/>
      </g>
    </g>
    <g transform="translate(-2198 -2447)">
      <g id="Union_1-32" data-name="Union 1" class="cls-3" transform="translate(2255 2523)">
        <path class="cls-4" d="M 5.50029993057251 9.499899864196777 L 4.499599933624268 9.499899864196777 L 4.499599933624268 6.00029993057251 L 4.499599933624268 5.50029993057251 L 3.999599933624268 5.50029993057251 L 0.4999999403953552 5.50029993057251 L 0.4999999403953552 4.499599933624268 L 3.999599933624268 4.499599933624268 L 4.499599933624268 4.499599933624268 L 4.499599933624268 3.999599933624268 L 4.499599933624268 0.4999999403953552 L 5.50029993057251 0.4999999403953552 L 5.50029993057251 3.999599933624268 L 5.50029993057251 4.499599933624268 L 6.00029993057251 4.499599933624268 L 9.499899864196777 4.499599933624268 L 9.499899864196777 5.50029993057251 L 6.00029993057251 5.50029993057251 L 5.50029993057251 5.50029993057251 L 5.50029993057251 6.00029993057251 L 5.50029993057251 9.499899864196777 Z"/>
        <path class="cls-5" d="M 5.00029993057251 8.999899864196777 L 5.00029993057251 5.00029993057251 L 8.999899864196777 4.999599933624268 L 5.00029993057251 4.999599933624268 L 4.999599933624268 0.9999999403953552 L 4.999599933624268 4.999599933624268 L 0.9999999403953552 5.00029993057251 L 4.999599933624268 5.00029993057251 L 5.00029993057251 8.999899864196777 M 6.00029993057251 9.999899864196777 L 3.999599933624268 9.999899864196777 L 3.999599933624268 6.00029993057251 L -6.790160966829717e-08 6.00029993057251 L -6.790160966829717e-08 3.999599933624268 L 3.999599933624268 3.999599933624268 L 3.999599933624268 -6.790160966829717e-08 L 6.00029993057251 -6.790160966829717e-08 L 6.00029993057251 3.999599933624268 L 9.999899864196777 3.999599933624268 L 9.999899864196777 6.00029993057251 L 6.00029993057251 6.00029993057251 L 6.00029993057251 9.999899864196777 Z"/>
      </g>
    </g>
    <g transform="translate(-2179 -2447)">
      <g id="Union_1-33" data-name="Union 1" class="cls-3" transform="translate(2255 2523)">
        <path class="cls-4" d="M 5.50029993057251 9.499899864196777 L 4.499599933624268 9.499899864196777 L 4.499599933624268 6.00029993057251 L 4.499599933624268 5.50029993057251 L 3.999599933624268 5.50029993057251 L 0.4999999403953552 5.50029993057251 L 0.4999999403953552 4.499599933624268 L 3.999599933624268 4.499599933624268 L 4.499599933624268 4.499599933624268 L 4.499599933624268 3.999599933624268 L 4.499599933624268 0.4999999403953552 L 5.50029993057251 0.4999999403953552 L 5.50029993057251 3.999599933624268 L 5.50029993057251 4.499599933624268 L 6.00029993057251 4.499599933624268 L 9.499899864196777 4.499599933624268 L 9.499899864196777 5.50029993057251 L 6.00029993057251 5.50029993057251 L 5.50029993057251 5.50029993057251 L 5.50029993057251 6.00029993057251 L 5.50029993057251 9.499899864196777 Z"/>
        <path class="cls-5" d="M 5.00029993057251 8.999899864196777 L 5.00029993057251 5.00029993057251 L 8.999899864196777 4.999599933624268 L 5.00029993057251 4.999599933624268 L 4.999599933624268 0.9999999403953552 L 4.999599933624268 4.999599933624268 L 0.9999999403953552 5.00029993057251 L 4.999599933624268 5.00029993057251 L 5.00029993057251 8.999899864196777 M 6.00029993057251 9.999899864196777 L 3.999599933624268 9.999899864196777 L 3.999599933624268 6.00029993057251 L -6.790160966829717e-08 6.00029993057251 L -6.790160966829717e-08 3.999599933624268 L 3.999599933624268 3.999599933624268 L 3.999599933624268 -6.790160966829717e-08 L 6.00029993057251 -6.790160966829717e-08 L 6.00029993057251 3.999599933624268 L 9.999899864196777 3.999599933624268 L 9.999899864196777 6.00029993057251 L 6.00029993057251 6.00029993057251 L 6.00029993057251 9.999899864196777 Z"/>
      </g>
    </g>
    <g transform="translate(-2160 -2447)">
      <g id="Union_1-34" data-name="Union 1" class="cls-3" transform="translate(2255 2523)">
        <path class="cls-4" d="M 5.50029993057251 9.499899864196777 L 4.499599933624268 9.499899864196777 L 4.499599933624268 6.00029993057251 L 4.499599933624268 5.50029993057251 L 3.999599933624268 5.50029993057251 L 0.4999999403953552 5.50029993057251 L 0.4999999403953552 4.499599933624268 L 3.999599933624268 4.499599933624268 L 4.499599933624268 4.499599933624268 L 4.499599933624268 3.999599933624268 L 4.499599933624268 0.4999999403953552 L 5.50029993057251 0.4999999403953552 L 5.50029993057251 3.999599933624268 L 5.50029993057251 4.499599933624268 L 6.00029993057251 4.499599933624268 L 9.499899864196777 4.499599933624268 L 9.499899864196777 5.50029993057251 L 6.00029993057251 5.50029993057251 L 5.50029993057251 5.50029993057251 L 5.50029993057251 6.00029993057251 L 5.50029993057251 9.499899864196777 Z"/>
        <path class="cls-5" d="M 5.00029993057251 8.999899864196777 L 5.00029993057251 5.00029993057251 L 8.999899864196777 4.999599933624268 L 5.00029993057251 4.999599933624268 L 4.999599933624268 0.9999999403953552 L 4.999599933624268 4.999599933624268 L 0.9999999403953552 5.00029993057251 L 4.999599933624268 5.00029993057251 L 5.00029993057251 8.999899864196777 M 6.00029993057251 9.999899864196777 L 3.999599933624268 9.999899864196777 L 3.999599933624268 6.00029993057251 L -6.790160966829717e-08 6.00029993057251 L -6.790160966829717e-08 3.999599933624268 L 3.999599933624268 3.999599933624268 L 3.999599933624268 -6.790160966829717e-08 L 6.00029993057251 -6.790160966829717e-08 L 6.00029993057251 3.999599933624268 L 9.999899864196777 3.999599933624268 L 9.999899864196777 6.00029993057251 L 6.00029993057251 6.00029993057251 L 6.00029993057251 9.999899864196777 Z"/>
      </g>
    </g>
    <g transform="translate(-2141 -2447)">
      <g id="Union_1-35" data-name="Union 1" class="cls-3" transform="translate(2255 2523)">
        <path class="cls-4" d="M 5.50029993057251 9.499899864196777 L 4.499599933624268 9.499899864196777 L 4.499599933624268 6.00029993057251 L 4.499599933624268 5.50029993057251 L 3.999599933624268 5.50029993057251 L 0.4999999403953552 5.50029993057251 L 0.4999999403953552 4.499599933624268 L 3.999599933624268 4.499599933624268 L 4.499599933624268 4.499599933624268 L 4.499599933624268 3.999599933624268 L 4.499599933624268 0.4999999403953552 L 5.50029993057251 0.4999999403953552 L 5.50029993057251 3.999599933624268 L 5.50029993057251 4.499599933624268 L 6.00029993057251 4.499599933624268 L 9.499899864196777 4.499599933624268 L 9.499899864196777 5.50029993057251 L 6.00029993057251 5.50029993057251 L 5.50029993057251 5.50029993057251 L 5.50029993057251 6.00029993057251 L 5.50029993057251 9.499899864196777 Z"/>
        <path class="cls-5" d="M 5.00029993057251 8.999899864196777 L 5.00029993057251 5.00029993057251 L 8.999899864196777 4.999599933624268 L 5.00029993057251 4.999599933624268 L 4.999599933624268 0.9999999403953552 L 4.999599933624268 4.999599933624268 L 0.9999999403953552 5.00029993057251 L 4.999599933624268 5.00029993057251 L 5.00029993057251 8.999899864196777 M 6.00029993057251 9.999899864196777 L 3.999599933624268 9.999899864196777 L 3.999599933624268 6.00029993057251 L -6.790160966829717e-08 6.00029993057251 L -6.790160966829717e-08 3.999599933624268 L 3.999599933624268 3.999599933624268 L 3.999599933624268 -6.790160966829717e-08 L 6.00029993057251 -6.790160966829717e-08 L 6.00029993057251 3.999599933624268 L 9.999899864196777 3.999599933624268 L 9.999899864196777 6.00029993057251 L 6.00029993057251 6.00029993057251 L 6.00029993057251 9.999899864196777 Z"/>
      </g>
    </g>
    <g transform="translate(-2255 -2428)">
      <g id="Union_1-36" data-name="Union 1" class="cls-3" transform="translate(2255 2523)">
        <path class="cls-4" d="M 5.50029993057251 9.499899864196777 L 4.499599933624268 9.499899864196777 L 4.499599933624268 6.00029993057251 L 4.499599933624268 5.50029993057251 L 3.999599933624268 5.50029993057251 L 0.4999999403953552 5.50029993057251 L 0.4999999403953552 4.499599933624268 L 3.999599933624268 4.499599933624268 L 4.499599933624268 4.499599933624268 L 4.499599933624268 3.999599933624268 L 4.499599933624268 0.4999999403953552 L 5.50029993057251 0.4999999403953552 L 5.50029993057251 3.999599933624268 L 5.50029993057251 4.499599933624268 L 6.00029993057251 4.499599933624268 L 9.499899864196777 4.499599933624268 L 9.499899864196777 5.50029993057251 L 6.00029993057251 5.50029993057251 L 5.50029993057251 5.50029993057251 L 5.50029993057251 6.00029993057251 L 5.50029993057251 9.499899864196777 Z"/>
        <path class="cls-5" d="M 5.00029993057251 8.999899864196777 L 5.00029993057251 5.00029993057251 L 8.999899864196777 4.999599933624268 L 5.00029993057251 4.999599933624268 L 4.999599933624268 0.9999999403953552 L 4.999599933624268 4.999599933624268 L 0.9999999403953552 5.00029993057251 L 4.999599933624268 5.00029993057251 L 5.00029993057251 8.999899864196777 M 6.00029993057251 9.999899864196777 L 3.999599933624268 9.999899864196777 L 3.999599933624268 6.00029993057251 L -6.790160966829717e-08 6.00029993057251 L -6.790160966829717e-08 3.999599933624268 L 3.999599933624268 3.999599933624268 L 3.999599933624268 -6.790160966829717e-08 L 6.00029993057251 -6.790160966829717e-08 L 6.00029993057251 3.999599933624268 L 9.999899864196777 3.999599933624268 L 9.999899864196777 6.00029993057251 L 6.00029993057251 6.00029993057251 L 6.00029993057251 9.999899864196777 Z"/>
      </g>
    </g>
    <g transform="translate(-2236 -2428)">
      <g id="Union_1-37" data-name="Union 1" class="cls-3" transform="translate(2255 2523)">
        <path class="cls-4" d="M 5.50029993057251 9.499899864196777 L 4.499599933624268 9.499899864196777 L 4.499599933624268 6.00029993057251 L 4.499599933624268 5.50029993057251 L 3.999599933624268 5.50029993057251 L 0.4999999403953552 5.50029993057251 L 0.4999999403953552 4.499599933624268 L 3.999599933624268 4.499599933624268 L 4.499599933624268 4.499599933624268 L 4.499599933624268 3.999599933624268 L 4.499599933624268 0.4999999403953552 L 5.50029993057251 0.4999999403953552 L 5.50029993057251 3.999599933624268 L 5.50029993057251 4.499599933624268 L 6.00029993057251 4.499599933624268 L 9.499899864196777 4.499599933624268 L 9.499899864196777 5.50029993057251 L 6.00029993057251 5.50029993057251 L 5.50029993057251 5.50029993057251 L 5.50029993057251 6.00029993057251 L 5.50029993057251 9.499899864196777 Z"/>
        <path class="cls-5" d="M 5.00029993057251 8.999899864196777 L 5.00029993057251 5.00029993057251 L 8.999899864196777 4.999599933624268 L 5.00029993057251 4.999599933624268 L 4.999599933624268 0.9999999403953552 L 4.999599933624268 4.999599933624268 L 0.9999999403953552 5.00029993057251 L 4.999599933624268 5.00029993057251 L 5.00029993057251 8.999899864196777 M 6.00029993057251 9.999899864196777 L 3.999599933624268 9.999899864196777 L 3.999599933624268 6.00029993057251 L -6.790160966829717e-08 6.00029993057251 L -6.790160966829717e-08 3.999599933624268 L 3.999599933624268 3.999599933624268 L 3.999599933624268 -6.790160966829717e-08 L 6.00029993057251 -6.790160966829717e-08 L 6.00029993057251 3.999599933624268 L 9.999899864196777 3.999599933624268 L 9.999899864196777 6.00029993057251 L 6.00029993057251 6.00029993057251 L 6.00029993057251 9.999899864196777 Z"/>
      </g>
    </g>
    <g transform="translate(-2217 -2428)">
      <g id="Union_1-38" data-name="Union 1" class="cls-3" transform="translate(2255 2523)">
        <path class="cls-4" d="M 5.50029993057251 9.499899864196777 L 4.499599933624268 9.499899864196777 L 4.499599933624268 6.00029993057251 L 4.499599933624268 5.50029993057251 L 3.999599933624268 5.50029993057251 L 0.4999999403953552 5.50029993057251 L 0.4999999403953552 4.499599933624268 L 3.999599933624268 4.499599933624268 L 4.499599933624268 4.499599933624268 L 4.499599933624268 3.999599933624268 L 4.499599933624268 0.4999999403953552 L 5.50029993057251 0.4999999403953552 L 5.50029993057251 3.999599933624268 L 5.50029993057251 4.499599933624268 L 6.00029993057251 4.499599933624268 L 9.499899864196777 4.499599933624268 L 9.499899864196777 5.50029993057251 L 6.00029993057251 5.50029993057251 L 5.50029993057251 5.50029993057251 L 5.50029993057251 6.00029993057251 L 5.50029993057251 9.499899864196777 Z"/>
        <path class="cls-5" d="M 5.00029993057251 8.999899864196777 L 5.00029993057251 5.00029993057251 L 8.999899864196777 4.999599933624268 L 5.00029993057251 4.999599933624268 L 4.999599933624268 0.9999999403953552 L 4.999599933624268 4.999599933624268 L 0.9999999403953552 5.00029993057251 L 4.999599933624268 5.00029993057251 L 5.00029993057251 8.999899864196777 M 6.00029993057251 9.999899864196777 L 3.999599933624268 9.999899864196777 L 3.999599933624268 6.00029993057251 L -6.790160966829717e-08 6.00029993057251 L -6.790160966829717e-08 3.999599933624268 L 3.999599933624268 3.999599933624268 L 3.999599933624268 -6.790160966829717e-08 L 6.00029993057251 -6.790160966829717e-08 L 6.00029993057251 3.999599933624268 L 9.999899864196777 3.999599933624268 L 9.999899864196777 6.00029993057251 L 6.00029993057251 6.00029993057251 L 6.00029993057251 9.999899864196777 Z"/>
      </g>
    </g>
    <g transform="translate(-2198 -2428)">
      <g id="Union_1-39" data-name="Union 1" class="cls-3" transform="translate(2255 2523)">
        <path class="cls-4" d="M 5.50029993057251 9.499899864196777 L 4.499599933624268 9.499899864196777 L 4.499599933624268 6.00029993057251 L 4.499599933624268 5.50029993057251 L 3.999599933624268 5.50029993057251 L 0.4999999403953552 5.50029993057251 L 0.4999999403953552 4.499599933624268 L 3.999599933624268 4.499599933624268 L 4.499599933624268 4.499599933624268 L 4.499599933624268 3.999599933624268 L 4.499599933624268 0.4999999403953552 L 5.50029993057251 0.4999999403953552 L 5.50029993057251 3.999599933624268 L 5.50029993057251 4.499599933624268 L 6.00029993057251 4.499599933624268 L 9.499899864196777 4.499599933624268 L 9.499899864196777 5.50029993057251 L 6.00029993057251 5.50029993057251 L 5.50029993057251 5.50029993057251 L 5.50029993057251 6.00029993057251 L 5.50029993057251 9.499899864196777 Z"/>
        <path class="cls-5" d="M 5.00029993057251 8.999899864196777 L 5.00029993057251 5.00029993057251 L 8.999899864196777 4.999599933624268 L 5.00029993057251 4.999599933624268 L 4.999599933624268 0.9999999403953552 L 4.999599933624268 4.999599933624268 L 0.9999999403953552 5.00029993057251 L 4.999599933624268 5.00029993057251 L 5.00029993057251 8.999899864196777 M 6.00029993057251 9.999899864196777 L 3.999599933624268 9.999899864196777 L 3.999599933624268 6.00029993057251 L -6.790160966829717e-08 6.00029993057251 L -6.790160966829717e-08 3.999599933624268 L 3.999599933624268 3.999599933624268 L 3.999599933624268 -6.790160966829717e-08 L 6.00029993057251 -6.790160966829717e-08 L 6.00029993057251 3.999599933624268 L 9.999899864196777 3.999599933624268 L 9.999899864196777 6.00029993057251 L 6.00029993057251 6.00029993057251 L 6.00029993057251 9.999899864196777 Z"/>
      </g>
    </g>
    <g transform="translate(-2179 -2428)">
      <g id="Union_1-40" data-name="Union 1" class="cls-3" transform="translate(2255 2523)">
        <path class="cls-4" d="M 5.50029993057251 9.499899864196777 L 4.499599933624268 9.499899864196777 L 4.499599933624268 6.00029993057251 L 4.499599933624268 5.50029993057251 L 3.999599933624268 5.50029993057251 L 0.4999999403953552 5.50029993057251 L 0.4999999403953552 4.499599933624268 L 3.999599933624268 4.499599933624268 L 4.499599933624268 4.499599933624268 L 4.499599933624268 3.999599933624268 L 4.499599933624268 0.4999999403953552 L 5.50029993057251 0.4999999403953552 L 5.50029993057251 3.999599933624268 L 5.50029993057251 4.499599933624268 L 6.00029993057251 4.499599933624268 L 9.499899864196777 4.499599933624268 L 9.499899864196777 5.50029993057251 L 6.00029993057251 5.50029993057251 L 5.50029993057251 5.50029993057251 L 5.50029993057251 6.00029993057251 L 5.50029993057251 9.499899864196777 Z"/>
        <path class="cls-5" d="M 5.00029993057251 8.999899864196777 L 5.00029993057251 5.00029993057251 L 8.999899864196777 4.999599933624268 L 5.00029993057251 4.999599933624268 L 4.999599933624268 0.9999999403953552 L 4.999599933624268 4.999599933624268 L 0.9999999403953552 5.00029993057251 L 4.999599933624268 5.00029993057251 L 5.00029993057251 8.999899864196777 M 6.00029993057251 9.999899864196777 L 3.999599933624268 9.999899864196777 L 3.999599933624268 6.00029993057251 L -6.790160966829717e-08 6.00029993057251 L -6.790160966829717e-08 3.999599933624268 L 3.999599933624268 3.999599933624268 L 3.999599933624268 -6.790160966829717e-08 L 6.00029993057251 -6.790160966829717e-08 L 6.00029993057251 3.999599933624268 L 9.999899864196777 3.999599933624268 L 9.999899864196777 6.00029993057251 L 6.00029993057251 6.00029993057251 L 6.00029993057251 9.999899864196777 Z"/>
      </g>
    </g>
    <g transform="translate(-2160 -2428)">
      <g id="Union_1-41" data-name="Union 1" class="cls-3" transform="translate(2255 2523)">
        <path class="cls-4" d="M 5.50029993057251 9.499899864196777 L 4.499599933624268 9.499899864196777 L 4.499599933624268 6.00029993057251 L 4.499599933624268 5.50029993057251 L 3.999599933624268 5.50029993057251 L 0.4999999403953552 5.50029993057251 L 0.4999999403953552 4.499599933624268 L 3.999599933624268 4.499599933624268 L 4.499599933624268 4.499599933624268 L 4.499599933624268 3.999599933624268 L 4.499599933624268 0.4999999403953552 L 5.50029993057251 0.4999999403953552 L 5.50029993057251 3.999599933624268 L 5.50029993057251 4.499599933624268 L 6.00029993057251 4.499599933624268 L 9.499899864196777 4.499599933624268 L 9.499899864196777 5.50029993057251 L 6.00029993057251 5.50029993057251 L 5.50029993057251 5.50029993057251 L 5.50029993057251 6.00029993057251 L 5.50029993057251 9.499899864196777 Z"/>
        <path class="cls-5" d="M 5.00029993057251 8.999899864196777 L 5.00029993057251 5.00029993057251 L 8.999899864196777 4.999599933624268 L 5.00029993057251 4.999599933624268 L 4.999599933624268 0.9999999403953552 L 4.999599933624268 4.999599933624268 L 0.9999999403953552 5.00029993057251 L 4.999599933624268 5.00029993057251 L 5.00029993057251 8.999899864196777 M 6.00029993057251 9.999899864196777 L 3.999599933624268 9.999899864196777 L 3.999599933624268 6.00029993057251 L -6.790160966829717e-08 6.00029993057251 L -6.790160966829717e-08 3.999599933624268 L 3.999599933624268 3.999599933624268 L 3.999599933624268 -6.790160966829717e-08 L 6.00029993057251 -6.790160966829717e-08 L 6.00029993057251 3.999599933624268 L 9.999899864196777 3.999599933624268 L 9.999899864196777 6.00029993057251 L 6.00029993057251 6.00029993057251 L 6.00029993057251 9.999899864196777 Z"/>
      </g>
    </g>
    <g transform="translate(-2141 -2428)">
      <g id="Union_1-42" data-name="Union 1" class="cls-3" transform="translate(2255 2523)">
        <path class="cls-4" d="M 5.50029993057251 9.499899864196777 L 4.499599933624268 9.499899864196777 L 4.499599933624268 6.00029993057251 L 4.499599933624268 5.50029993057251 L 3.999599933624268 5.50029993057251 L 0.4999999403953552 5.50029993057251 L 0.4999999403953552 4.499599933624268 L 3.999599933624268 4.499599933624268 L 4.499599933624268 4.499599933624268 L 4.499599933624268 3.999599933624268 L 4.499599933624268 0.4999999403953552 L 5.50029993057251 0.4999999403953552 L 5.50029993057251 3.999599933624268 L 5.50029993057251 4.499599933624268 L 6.00029993057251 4.499599933624268 L 9.499899864196777 4.499599933624268 L 9.499899864196777 5.50029993057251 L 6.00029993057251 5.50029993057251 L 5.50029993057251 5.50029993057251 L 5.50029993057251 6.00029993057251 L 5.50029993057251 9.499899864196777 Z"/>
        <path class="cls-5" d="M 5.00029993057251 8.999899864196777 L 5.00029993057251 5.00029993057251 L 8.999899864196777 4.999599933624268 L 5.00029993057251 4.999599933624268 L 4.999599933624268 0.9999999403953552 L 4.999599933624268 4.999599933624268 L 0.9999999403953552 5.00029993057251 L 4.999599933624268 5.00029993057251 L 5.00029993057251 8.999899864196777 M 6.00029993057251 9.999899864196777 L 3.999599933624268 9.999899864196777 L 3.999599933624268 6.00029993057251 L -6.790160966829717e-08 6.00029993057251 L -6.790160966829717e-08 3.999599933624268 L 3.999599933624268 3.999599933624268 L 3.999599933624268 -6.790160966829717e-08 L 6.00029993057251 -6.790160966829717e-08 L 6.00029993057251 3.999599933624268 L 9.999899864196777 3.999599933624268 L 9.999899864196777 6.00029993057251 L 6.00029993057251 6.00029993057251 L 6.00029993057251 9.999899864196777 Z"/>
      </g>
    </g>
    <g transform="translate(-2255 -2409)">
      <g id="Union_1-43" data-name="Union 1" class="cls-3" transform="translate(2255 2523)">
        <path class="cls-4" d="M 5.50029993057251 9.499899864196777 L 4.499599933624268 9.499899864196777 L 4.499599933624268 6.00029993057251 L 4.499599933624268 5.50029993057251 L 3.999599933624268 5.50029993057251 L 0.4999999403953552 5.50029993057251 L 0.4999999403953552 4.499599933624268 L 3.999599933624268 4.499599933624268 L 4.499599933624268 4.499599933624268 L 4.499599933624268 3.999599933624268 L 4.499599933624268 0.4999999403953552 L 5.50029993057251 0.4999999403953552 L 5.50029993057251 3.999599933624268 L 5.50029993057251 4.499599933624268 L 6.00029993057251 4.499599933624268 L 9.499899864196777 4.499599933624268 L 9.499899864196777 5.50029993057251 L 6.00029993057251 5.50029993057251 L 5.50029993057251 5.50029993057251 L 5.50029993057251 6.00029993057251 L 5.50029993057251 9.499899864196777 Z"/>
        <path class="cls-5" d="M 5.00029993057251 8.999899864196777 L 5.00029993057251 5.00029993057251 L 8.999899864196777 4.999599933624268 L 5.00029993057251 4.999599933624268 L 4.999599933624268 0.9999999403953552 L 4.999599933624268 4.999599933624268 L 0.9999999403953552 5.00029993057251 L 4.999599933624268 5.00029993057251 L 5.00029993057251 8.999899864196777 M 6.00029993057251 9.999899864196777 L 3.999599933624268 9.999899864196777 L 3.999599933624268 6.00029993057251 L -6.790160966829717e-08 6.00029993057251 L -6.790160966829717e-08 3.999599933624268 L 3.999599933624268 3.999599933624268 L 3.999599933624268 -6.790160966829717e-08 L 6.00029993057251 -6.790160966829717e-08 L 6.00029993057251 3.999599933624268 L 9.999899864196777 3.999599933624268 L 9.999899864196777 6.00029993057251 L 6.00029993057251 6.00029993057251 L 6.00029993057251 9.999899864196777 Z"/>
      </g>
    </g>
    <g transform="translate(-2236 -2409)">
      <g id="Union_1-44" data-name="Union 1" class="cls-3" transform="translate(2255 2523)">
        <path class="cls-4" d="M 5.50029993057251 9.499899864196777 L 4.499599933624268 9.499899864196777 L 4.499599933624268 6.00029993057251 L 4.499599933624268 5.50029993057251 L 3.999599933624268 5.50029993057251 L 0.4999999403953552 5.50029993057251 L 0.4999999403953552 4.499599933624268 L 3.999599933624268 4.499599933624268 L 4.499599933624268 4.499599933624268 L 4.499599933624268 3.999599933624268 L 4.499599933624268 0.4999999403953552 L 5.50029993057251 0.4999999403953552 L 5.50029993057251 3.999599933624268 L 5.50029993057251 4.499599933624268 L 6.00029993057251 4.499599933624268 L 9.499899864196777 4.499599933624268 L 9.499899864196777 5.50029993057251 L 6.00029993057251 5.50029993057251 L 5.50029993057251 5.50029993057251 L 5.50029993057251 6.00029993057251 L 5.50029993057251 9.499899864196777 Z"/>
        <path class="cls-5" d="M 5.00029993057251 8.999899864196777 L 5.00029993057251 5.00029993057251 L 8.999899864196777 4.999599933624268 L 5.00029993057251 4.999599933624268 L 4.999599933624268 0.9999999403953552 L 4.999599933624268 4.999599933624268 L 0.9999999403953552 5.00029993057251 L 4.999599933624268 5.00029993057251 L 5.00029993057251 8.999899864196777 M 6.00029993057251 9.999899864196777 L 3.999599933624268 9.999899864196777 L 3.999599933624268 6.00029993057251 L -6.790160966829717e-08 6.00029993057251 L -6.790160966829717e-08 3.999599933624268 L 3.999599933624268 3.999599933624268 L 3.999599933624268 -6.790160966829717e-08 L 6.00029993057251 -6.790160966829717e-08 L 6.00029993057251 3.999599933624268 L 9.999899864196777 3.999599933624268 L 9.999899864196777 6.00029993057251 L 6.00029993057251 6.00029993057251 L 6.00029993057251 9.999899864196777 Z"/>
      </g>
    </g>
    <g transform="translate(-2217 -2409)">
      <g id="Union_1-45" data-name="Union 1" class="cls-3" transform="translate(2255 2523)">
        <path class="cls-4" d="M 5.50029993057251 9.499899864196777 L 4.499599933624268 9.499899864196777 L 4.499599933624268 6.00029993057251 L 4.499599933624268 5.50029993057251 L 3.999599933624268 5.50029993057251 L 0.4999999403953552 5.50029993057251 L 0.4999999403953552 4.499599933624268 L 3.999599933624268 4.499599933624268 L 4.499599933624268 4.499599933624268 L 4.499599933624268 3.999599933624268 L 4.499599933624268 0.4999999403953552 L 5.50029993057251 0.4999999403953552 L 5.50029993057251 3.999599933624268 L 5.50029993057251 4.499599933624268 L 6.00029993057251 4.499599933624268 L 9.499899864196777 4.499599933624268 L 9.499899864196777 5.50029993057251 L 6.00029993057251 5.50029993057251 L 5.50029993057251 5.50029993057251 L 5.50029993057251 6.00029993057251 L 5.50029993057251 9.499899864196777 Z"/>
        <path class="cls-5" d="M 5.00029993057251 8.999899864196777 L 5.00029993057251 5.00029993057251 L 8.999899864196777 4.999599933624268 L 5.00029993057251 4.999599933624268 L 4.999599933624268 0.9999999403953552 L 4.999599933624268 4.999599933624268 L 0.9999999403953552 5.00029993057251 L 4.999599933624268 5.00029993057251 L 5.00029993057251 8.999899864196777 M 6.00029993057251 9.999899864196777 L 3.999599933624268 9.999899864196777 L 3.999599933624268 6.00029993057251 L -6.790160966829717e-08 6.00029993057251 L -6.790160966829717e-08 3.999599933624268 L 3.999599933624268 3.999599933624268 L 3.999599933624268 -6.790160966829717e-08 L 6.00029993057251 -6.790160966829717e-08 L 6.00029993057251 3.999599933624268 L 9.999899864196777 3.999599933624268 L 9.999899864196777 6.00029993057251 L 6.00029993057251 6.00029993057251 L 6.00029993057251 9.999899864196777 Z"/>
      </g>
    </g>
    <g transform="translate(-2198 -2409)">
      <g id="Union_1-46" data-name="Union 1" class="cls-3" transform="translate(2255 2523)">
        <path class="cls-4" d="M 5.50029993057251 9.499899864196777 L 4.499599933624268 9.499899864196777 L 4.499599933624268 6.00029993057251 L 4.499599933624268 5.50029993057251 L 3.999599933624268 5.50029993057251 L 0.4999999403953552 5.50029993057251 L 0.4999999403953552 4.499599933624268 L 3.999599933624268 4.499599933624268 L 4.499599933624268 4.499599933624268 L 4.499599933624268 3.999599933624268 L 4.499599933624268 0.4999999403953552 L 5.50029993057251 0.4999999403953552 L 5.50029993057251 3.999599933624268 L 5.50029993057251 4.499599933624268 L 6.00029993057251 4.499599933624268 L 9.499899864196777 4.499599933624268 L 9.499899864196777 5.50029993057251 L 6.00029993057251 5.50029993057251 L 5.50029993057251 5.50029993057251 L 5.50029993057251 6.00029993057251 L 5.50029993057251 9.499899864196777 Z"/>
        <path class="cls-5" d="M 5.00029993057251 8.999899864196777 L 5.00029993057251 5.00029993057251 L 8.999899864196777 4.999599933624268 L 5.00029993057251 4.999599933624268 L 4.999599933624268 0.9999999403953552 L 4.999599933624268 4.999599933624268 L 0.9999999403953552 5.00029993057251 L 4.999599933624268 5.00029993057251 L 5.00029993057251 8.999899864196777 M 6.00029993057251 9.999899864196777 L 3.999599933624268 9.999899864196777 L 3.999599933624268 6.00029993057251 L -6.790160966829717e-08 6.00029993057251 L -6.790160966829717e-08 3.999599933624268 L 3.999599933624268 3.999599933624268 L 3.999599933624268 -6.790160966829717e-08 L 6.00029993057251 -6.790160966829717e-08 L 6.00029993057251 3.999599933624268 L 9.999899864196777 3.999599933624268 L 9.999899864196777 6.00029993057251 L 6.00029993057251 6.00029993057251 L 6.00029993057251 9.999899864196777 Z"/>
      </g>
    </g>
    <g transform="translate(-2179 -2409)">
      <g id="Union_1-47" data-name="Union 1" class="cls-3" transform="translate(2255 2523)">
        <path class="cls-4" d="M 5.50029993057251 9.499899864196777 L 4.499599933624268 9.499899864196777 L 4.499599933624268 6.00029993057251 L 4.499599933624268 5.50029993057251 L 3.999599933624268 5.50029993057251 L 0.4999999403953552 5.50029993057251 L 0.4999999403953552 4.499599933624268 L 3.999599933624268 4.499599933624268 L 4.499599933624268 4.499599933624268 L 4.499599933624268 3.999599933624268 L 4.499599933624268 0.4999999403953552 L 5.50029993057251 0.4999999403953552 L 5.50029993057251 3.999599933624268 L 5.50029993057251 4.499599933624268 L 6.00029993057251 4.499599933624268 L 9.499899864196777 4.499599933624268 L 9.499899864196777 5.50029993057251 L 6.00029993057251 5.50029993057251 L 5.50029993057251 5.50029993057251 L 5.50029993057251 6.00029993057251 L 5.50029993057251 9.499899864196777 Z"/>
        <path class="cls-5" d="M 5.00029993057251 8.999899864196777 L 5.00029993057251 5.00029993057251 L 8.999899864196777 4.999599933624268 L 5.00029993057251 4.999599933624268 L 4.999599933624268 0.9999999403953552 L 4.999599933624268 4.999599933624268 L 0.9999999403953552 5.00029993057251 L 4.999599933624268 5.00029993057251 L 5.00029993057251 8.999899864196777 M 6.00029993057251 9.999899864196777 L 3.999599933624268 9.999899864196777 L 3.999599933624268 6.00029993057251 L -6.790160966829717e-08 6.00029993057251 L -6.790160966829717e-08 3.999599933624268 L 3.999599933624268 3.999599933624268 L 3.999599933624268 -6.790160966829717e-08 L 6.00029993057251 -6.790160966829717e-08 L 6.00029993057251 3.999599933624268 L 9.999899864196777 3.999599933624268 L 9.999899864196777 6.00029993057251 L 6.00029993057251 6.00029993057251 L 6.00029993057251 9.999899864196777 Z"/>
      </g>
    </g>
    <g transform="translate(-2160 -2409)">
      <g id="Union_1-48" data-name="Union 1" class="cls-3" transform="translate(2255 2523)">
        <path class="cls-4" d="M 5.50029993057251 9.499899864196777 L 4.499599933624268 9.499899864196777 L 4.499599933624268 6.00029993057251 L 4.499599933624268 5.50029993057251 L 3.999599933624268 5.50029993057251 L 0.4999999403953552 5.50029993057251 L 0.4999999403953552 4.499599933624268 L 3.999599933624268 4.499599933624268 L 4.499599933624268 4.499599933624268 L 4.499599933624268 3.999599933624268 L 4.499599933624268 0.4999999403953552 L 5.50029993057251 0.4999999403953552 L 5.50029993057251 3.999599933624268 L 5.50029993057251 4.499599933624268 L 6.00029993057251 4.499599933624268 L 9.499899864196777 4.499599933624268 L 9.499899864196777 5.50029993057251 L 6.00029993057251 5.50029993057251 L 5.50029993057251 5.50029993057251 L 5.50029993057251 6.00029993057251 L 5.50029993057251 9.499899864196777 Z"/>
        <path class="cls-5" d="M 5.00029993057251 8.999899864196777 L 5.00029993057251 5.00029993057251 L 8.999899864196777 4.999599933624268 L 5.00029993057251 4.999599933624268 L 4.999599933624268 0.9999999403953552 L 4.999599933624268 4.999599933624268 L 0.9999999403953552 5.00029993057251 L 4.999599933624268 5.00029993057251 L 5.00029993057251 8.999899864196777 M 6.00029993057251 9.999899864196777 L 3.999599933624268 9.999899864196777 L 3.999599933624268 6.00029993057251 L -6.790160966829717e-08 6.00029993057251 L -6.790160966829717e-08 3.999599933624268 L 3.999599933624268 3.999599933624268 L 3.999599933624268 -6.790160966829717e-08 L 6.00029993057251 -6.790160966829717e-08 L 6.00029993057251 3.999599933624268 L 9.999899864196777 3.999599933624268 L 9.999899864196777 6.00029993057251 L 6.00029993057251 6.00029993057251 L 6.00029993057251 9.999899864196777 Z"/>
      </g>
    </g>
    <g transform="translate(-2141 -2409)">
      <g id="Union_1-49" data-name="Union 1" class="cls-3" transform="translate(2255 2523)">
        <path class="cls-4" d="M 5.50029993057251 9.499899864196777 L 4.499599933624268 9.499899864196777 L 4.499599933624268 6.00029993057251 L 4.499599933624268 5.50029993057251 L 3.999599933624268 5.50029993057251 L 0.4999999403953552 5.50029993057251 L 0.4999999403953552 4.499599933624268 L 3.999599933624268 4.499599933624268 L 4.499599933624268 4.499599933624268 L 4.499599933624268 3.999599933624268 L 4.499599933624268 0.4999999403953552 L 5.50029993057251 0.4999999403953552 L 5.50029993057251 3.999599933624268 L 5.50029993057251 4.499599933624268 L 6.00029993057251 4.499599933624268 L 9.499899864196777 4.499599933624268 L 9.499899864196777 5.50029993057251 L 6.00029993057251 5.50029993057251 L 5.50029993057251 5.50029993057251 L 5.50029993057251 6.00029993057251 L 5.50029993057251 9.499899864196777 Z"/>
        <path class="cls-5" d="M 5.00029993057251 8.999899864196777 L 5.00029993057251 5.00029993057251 L 8.999899864196777 4.999599933624268 L 5.00029993057251 4.999599933624268 L 4.999599933624268 0.9999999403953552 L 4.999599933624268 4.999599933624268 L 0.9999999403953552 5.00029993057251 L 4.999599933624268 5.00029993057251 L 5.00029993057251 8.999899864196777 M 6.00029993057251 9.999899864196777 L 3.999599933624268 9.999899864196777 L 3.999599933624268 6.00029993057251 L -6.790160966829717e-08 6.00029993057251 L -6.790160966829717e-08 3.999599933624268 L 3.999599933624268 3.999599933624268 L 3.999599933624268 -6.790160966829717e-08 L 6.00029993057251 -6.790160966829717e-08 L 6.00029993057251 3.999599933624268 L 9.999899864196777 3.999599933624268 L 9.999899864196777 6.00029993057251 L 6.00029993057251 6.00029993057251 L 6.00029993057251 9.999899864196777 Z"/>
      </g>
    </g>
  </g>
</svg>
